<?xml version="1.0" encoding="UTF-8"?>
<svg xmlns="http://www.w3.org/2000/svg"
     xmlns:xlink="http://www.w3.org/1999/xlink"
     xmlns:gadfly="http://www.gadflyjl.org/ns"
     version="1.2"
     width="160mm" height="100mm" viewBox="0 0 160 100"
     stroke="none"
     fill="#000000"
     stroke-width="0.3"
     font-size="3.88"
>
<defs>
  <marker id="arrow" markerWidth="15" markerHeight="7" refX="5" refY="3.5" orient="auto" markerUnits="strokeWidth">
    <path d="M0,0 L15,3.5 L0,7 z" stroke="context-stroke" fill="context-stroke"/>
  </marker>
</defs>
<g class="plotroot xscalable yscalable" id="img-4bb7dd15-1">
  <g font-size="3.88" font-family="'PT Sans','Helvetica Neue','Helvetica',sans-serif" fill="rgba(86,73,85,1)" stroke="#000000" stroke-opacity="0.000" id="img-4bb7dd15-2">
    <g transform="translate(50.01,88.39)">
      <g class="primitive">
        <text text-anchor="middle" dy="0.6em">Run Length</text>
      </g>
    </g>
  </g>
  <g class="guide xlabels" font-size="2.82" font-family="'PT Sans Caption','Helvetica Neue','Helvetica',sans-serif" fill="rgba(108,96,107,1)" id="img-4bb7dd15-3">
    <g transform="translate(20.63,81.72)">
      <g class="primitive">
        <text text-anchor="middle" dy="0.6em">0</text>
      </g>
    </g>
    <g transform="translate(40.21,81.72)">
      <g class="primitive">
        <text text-anchor="middle" dy="0.6em">1×10⁴</text>
      </g>
    </g>
    <g transform="translate(59.8,81.72)">
      <g class="primitive">
        <text text-anchor="middle" dy="0.6em">2×10⁴</text>
      </g>
    </g>
    <g transform="translate(79.38,81.72)">
      <g class="primitive">
        <text text-anchor="middle" dy="0.6em">3×10⁴</text>
      </g>
    </g>
  </g>
  <g class="guide colorkey" id="img-4bb7dd15-4">
    <g fill="rgba(76,64,75,1)" font-size="2.82" font-family="'PT Sans','Helvetica Neue','Helvetica',sans-serif" id="img-4bb7dd15-5">
      <g transform="translate(85.19,23.9)" id="img-4bb7dd15-6">
        <g class="primitive">
          <text dy="0.35em">BBO.xnes → NelderMead</text>
        </g>
      </g>
      <g transform="translate(85.19,27.53)" id="img-4bb7dd15-7">
        <g class="primitive">
          <text dy="0.35em">BBO.adaptive_de_rand_1_bin_radiuslimited → NelderMead</text>
        </g>
      </g>
      <g transform="translate(85.19,31.16)" id="img-4bb7dd15-8">
        <g class="primitive">
          <text dy="0.35em">BBO.adaptive_de_rand_1_bin → NelderMead</text>
        </g>
      </g>
      <g transform="translate(85.19,34.78)" id="img-4bb7dd15-9">
        <g class="primitive">
          <text dy="0.35em">PyCMA</text>
        </g>
      </g>
      <g transform="translate(85.19,38.41)" id="img-4bb7dd15-10">
        <g class="primitive">
          <text dy="0.35em">NLopt.GN_ESCH → NelderMead</text>
        </g>
      </g>
      <g transform="translate(85.19,42.04)" id="img-4bb7dd15-11">
        <g class="primitive">
          <text dy="0.35em">SAMIN → NelderMead</text>
        </g>
      </g>
      <g transform="translate(85.19,45.66)" id="img-4bb7dd15-12">
        <g class="primitive">
          <text dy="0.35em">BBO.de_rand_2_bin → NelderMead</text>
        </g>
      </g>
      <g transform="translate(85.19,49.29)" id="img-4bb7dd15-13">
        <g class="primitive">
          <text dy="0.35em">SimulatedAnnealing → NelderMead</text>
        </g>
      </g>
      <g transform="translate(85.19,52.92)" id="img-4bb7dd15-14">
        <g class="primitive">
          <text dy="0.35em">NLopt.GN_ISRES → NelderMead</text>
        </g>
      </g>
      <g transform="translate(85.19,56.54)" id="img-4bb7dd15-15">
        <g class="primitive">
          <text dy="0.35em">NelderMead</text>
        </g>
      </g>
      <g transform="translate(85.19,60.17)" id="img-4bb7dd15-16">
        <g class="primitive">
          <text dy="0.35em">BBO.generating_set_search → NelderMead</text>
        </g>
      </g>
      <g transform="translate(85.19,63.8)" id="img-4bb7dd15-17">
        <g class="primitive">
          <text dy="0.35em">NLopt.GD_STOGO → NelderMead</text>
        </g>
      </g>
      <g transform="translate(85.19,67.42)" id="img-4bb7dd15-18">
        <g class="primitive">
          <text dy="0.35em">Py.Nelder-Mead</text>
        </g>
      </g>
      <g transform="translate(85.19,71.05)" id="img-4bb7dd15-19">
        <g class="primitive">
          <text dy="0.35em">Restart-NelderMead</text>
        </g>
      </g>
    </g>
    <g stroke="#000000" stroke-opacity="0.000" id="img-4bb7dd15-20">
      <g transform="translate(83.29,23.9)" id="img-4bb7dd15-21" fill="rgba(0,0,141,1)">
        <path d="M-0.91,-0.91 L 0.91 -0.91 0.91 0.91 -0.91 0.91 z" class="primitive"/>
      </g>
      <g transform="translate(83.29,27.53)" id="img-4bb7dd15-22" fill="rgba(0,131,195,1)">
        <path d="M-0.91,-0.91 L 0.91 -0.91 0.91 0.91 -0.91 0.91 z" class="primitive"/>
      </g>
      <g transform="translate(83.29,31.16)" id="img-4bb7dd15-23" fill="rgba(210,171,0,1)">
        <path d="M-0.91,-0.91 L 0.91 -0.91 0.91 0.91 -0.91 0.91 z" class="primitive"/>
      </g>
      <g transform="translate(83.29,34.78)" id="img-4bb7dd15-24" fill="rgba(125,116,126,1)">
        <path d="M-0.91,-0.91 L 0.91 -0.91 0.91 0.91 -0.91 0.91 z" class="primitive"/>
      </g>
      <g transform="translate(83.29,38.41)" id="img-4bb7dd15-25" fill="rgba(255,143,161,1)">
        <path d="M-0.91,-0.91 L 0.91 -0.91 0.91 0.91 -0.91 0.91 z" class="primitive"/>
      </g>
      <g transform="translate(83.29,42.04)" id="img-4bb7dd15-26" fill="rgba(0,0,0,1)">
        <path d="M-0.91,-0.91 L 0.91 -0.91 0.91 0.91 -0.91 0.91 z" class="primitive"/>
      </g>
      <g transform="translate(83.29,45.66)" id="img-4bb7dd15-27" fill="rgba(0,206,211,1)">
        <path d="M-0.91,-0.91 L 0.91 -0.91 0.91 0.91 -0.91 0.91 z" class="primitive"/>
      </g>
      <g transform="translate(83.29,49.29)" id="img-4bb7dd15-28" fill="rgba(8,139,0,1)">
        <path d="M-0.91,-0.91 L 0.91 -0.91 0.91 0.91 -0.91 0.91 z" class="primitive"/>
      </g>
      <g transform="translate(83.29,52.92)" id="img-4bb7dd15-29" fill="rgba(135,0,54,1)">
        <path d="M-0.91,-0.91 L 0.91 -0.91 0.91 0.91 -0.91 0.91 z" class="primitive"/>
      </g>
      <g transform="translate(83.29,56.54)" id="img-4bb7dd15-30" fill="rgba(193,40,226,1)">
        <path d="M-0.91,-0.91 L 0.91 -0.91 0.91 0.91 -0.91 0.91 z" class="primitive"/>
      </g>
      <g transform="translate(83.29,60.17)" id="img-4bb7dd15-31" fill="rgba(104,81,0,1)">
        <path d="M-0.91,-0.91 L 0.91 -0.91 0.91 0.91 -0.91 0.91 z" class="primitive"/>
      </g>
      <g transform="translate(83.29,63.8)" id="img-4bb7dd15-32" fill="rgba(56,255,110,1)">
        <path d="M-0.91,-0.91 L 0.91 -0.91 0.91 0.91 -0.91 0.91 z" class="primitive"/>
      </g>
      <g transform="translate(83.29,67.42)" id="img-4bb7dd15-33" fill="rgba(0,80,65,1)">
        <path d="M-0.91,-0.91 L 0.91 -0.91 0.91 0.91 -0.91 0.91 z" class="primitive"/>
      </g>
      <g transform="translate(83.29,71.05)" id="img-4bb7dd15-34" fill="rgba(209,73,0,1)">
        <path d="M-0.91,-0.91 L 0.91 -0.91 0.91 0.91 -0.91 0.91 z" class="primitive"/>
      </g>
    </g>
    <g fill="rgba(54,42,52,1)" font-size="3.88" font-family="'PT Sans','Helvetica Neue','Helvetica',sans-serif" stroke="#000000" stroke-opacity="0.000" id="img-4bb7dd15-35">
      <g transform="translate(82.38,20.08)" id="img-4bb7dd15-36">
        <g class="primitive">
          <text></text>
        </g>
      </g>
    </g>
  </g>
  <g clip-path="url(#img-4bb7dd15-37)">
    <g id="img-4bb7dd15-38">
      <g pointer-events="visible" fill-opacity="1" fill="rgba(0,0,0,0)" stroke="#000000" stroke-opacity="0.000" class="guide background" id="img-4bb7dd15-39">
        <g transform="translate(50.01,45.66)" id="img-4bb7dd15-40">
          <path d="M-31.37,-35.05 L 31.37 -35.05 31.37 35.05 -31.37 35.05 z" class="primitive"/>
        </g>
      </g>
      <g class="guide ygridlines xfixed" stroke-dasharray="0.5,0.5" stroke-width="0.2" stroke="#D0D0E0" id="img-4bb7dd15-41">
        <g transform="translate(50.01,78.72)" id="img-4bb7dd15-42">
          <path fill="none" d="M-31.37,0 L 31.37 0" class="primitive"/>
        </g>
        <g transform="translate(50.01,45.66)" id="img-4bb7dd15-43">
          <path fill="none" d="M-31.37,0 L 31.37 0" class="primitive"/>
        </g>
        <g transform="translate(50.01,12.61)" id="img-4bb7dd15-44">
          <path fill="none" d="M-31.37,0 L 31.37 0" class="primitive"/>
        </g>
      </g>
      <g class="guide xgridlines yfixed" stroke-dasharray="0.5,0.5" stroke-width="0.2" stroke="#D0D0E0" id="img-4bb7dd15-45">
        <g transform="translate(20.63,45.66)" id="img-4bb7dd15-46">
          <path fill="none" d="M0,-35.05 L 0 35.05" class="primitive"/>
        </g>
        <g transform="translate(40.21,45.66)" id="img-4bb7dd15-47">
          <path fill="none" d="M0,-35.05 L 0 35.05" class="primitive"/>
        </g>
        <g transform="translate(59.8,45.66)" id="img-4bb7dd15-48">
          <path fill="none" d="M0,-35.05 L 0 35.05" class="primitive"/>
        </g>
        <g transform="translate(79.38,45.66)" id="img-4bb7dd15-49">
          <path fill="none" d="M0,-35.05 L 0 35.05" class="primitive"/>
        </g>
      </g>
      <g class="plotpanel" id="img-4bb7dd15-50">
        <metadata>
          <boundingbox value="18.631666666666668mm 10.611666666666665mm 62.74833333333334mm 70.10333333333334mm"/>
          <unitbox value="-1021.3055689523106 1.0302556603297868 32042.611137904623 -1.0605113206595733"/>
        </metadata>
        <g stroke-width="0.71" fill="rgba(0,0,0,0)" class="geometry" id="img-4bb7dd15-51">
          <g class="color_RGB{N0f8}(0.49,0.455,0.494)" stroke-dasharray="none" stroke="#7D747E" id="img-4bb7dd15-52">
            <g transform="translate(50.03,49.23)" id="img-4bb7dd15-53">
              <path fill="none" d="M-29.35,29.48 L -25.16 19.57 -20.97 10.64 -16.77 5.35 -12.58 -2.91 -8.39 -5.55 -4.19 -5.88 0 -6.87 4.19 -6.21 8.39 -5.55 12.58 -5.22 16.77 -5.55 20.97 -7.54 25.16 -7.21 29.35 -6.54" class="primitive"/>
            </g>
          </g>
        </g>
        <g stroke-width="0.71" fill="rgba(0,0,0,0)" class="geometry" id="img-4bb7dd15-54">
          <g class="color_RGB{N0f8}(0.0,0.314,0.259)" stroke-dasharray="4,1" stroke="#005042" id="img-4bb7dd15-55">
            <g transform="translate(50.03,71.36)" id="img-4bb7dd15-56">
              <path fill="none" d="M-29.35,7.36 L -25.16 4.72 -20.97 3.72 -16.77 2.4 -12.58 2.07 -8.39 2.07 -4.19 0.75 0 -0.57 4.19 -0.57 8.39 -2.89 12.58 -1.89 16.77 -3.88 20.97 -6.19 25.16 -2.23 29.35 -4.87" class="primitive"/>
            </g>
          </g>
        </g>
        <g stroke-width="0.71" fill="rgba(0,0,0,0)" class="geometry" id="img-4bb7dd15-57">
          <g class="color_RGB{N0f8}(0.0,0.808,0.827)" stroke-dasharray="none" stroke="#00CED3" id="img-4bb7dd15-58">
            <g transform="translate(50.03,51.66)" id="img-4bb7dd15-59">
              <path fill="none" d="M-29.35,27.06 L -25.16 16.15 -20.97 7.89 -16.77 0.95 -12.58 -2.03 -8.39 -3.02 -4.19 -4.01 0 -5.99 4.19 -4.67 8.39 -5 12.58 -5.33 16.77 -4.67 20.97 -6.32 25.16 -5.66 29.35 -5.33" class="primitive"/>
            </g>
          </g>
        </g>
        <g stroke-width="0.71" fill="rgba(0,0,0,0)" class="geometry" id="img-4bb7dd15-60">
          <g class="color_RGB{N0f8}(0.408,0.322,0.0)" stroke-dasharray="4,1" stroke="#685200" id="img-4bb7dd15-61">
            <g transform="translate(50.03,52.25)" id="img-4bb7dd15-62">
              <path fill="none" d="M-29.35,26.46 L -25.16 11.92 -20.97 3.66 -16.77 0.35 -12.58 -2.29 -8.39 -2.62 -4.19 -2.62 0 -2.95 4.19 -4.61 8.39 -4.27 12.58 -3.94 16.77 -5.27 20.97 -5.93 25.16 -4.27 29.35 -3.61" class="primitive"/>
            </g>
          </g>
        </g>
        <g stroke-width="0.71" fill="rgba(0,0,0,0)" class="geometry" id="img-4bb7dd15-63">
          <g class="color_RGB{N0f8}(0.0,0.0,0.553)" stroke-dasharray="none" stroke="#00008D" id="img-4bb7dd15-64">
            <g transform="translate(50.03,45.84)" id="img-4bb7dd15-65">
              <path fill="none" d="M-29.35,32.88 L -25.16 21.64 -20.97 9.41 -16.77 4.12 -12.58 -0.51 -8.39 -1.17 -4.19 -1.83 0 -1.17 4.19 -1.83 8.39 -2.82 12.58 -6.79 16.77 -13.4 20.97 -13.4 25.16 -13.07 29.35 -12.07" class="primitive"/>
            </g>
          </g>
        </g>
        <g stroke-width="0.71" fill="rgba(0,0,0,0)" class="geometry" id="img-4bb7dd15-66">
          <g class="color_RGB{N0f8}(0.224,1.0,0.431)" stroke-dasharray="4,1" stroke="#39FF6E" id="img-4bb7dd15-67">
            <g transform="translate(50.03,57.34)" id="img-4bb7dd15-68">
              <path fill="none" d="M-29.35,21.37 L -25.16 11.46 -20.97 8.15 -16.77 1.54 -12.58 -1.76 -8.39 -8.37 -4.19 -5.07 0 -5.07 4.19 -5.07 8.39 -1.76 12.58 -1.76 16.77 -1.76 20.97 -1.76 25.16 -1.76 29.35 -8.37" class="primitive"/>
            </g>
          </g>
        </g>
        <g stroke-width="0.71" fill="rgba(0,0,0,0)" class="geometry" id="img-4bb7dd15-69">
          <g class="color_RGB{N0f8}(1.0,0.561,0.631)" stroke-dasharray="none" stroke="#FF8FA1" id="img-4bb7dd15-70">
            <g transform="translate(50.03,51.52)" id="img-4bb7dd15-71">
              <path fill="none" d="M-29.35,27.19 L -25.16 17.28 -20.97 5.38 -16.77 -1.56 -12.58 -1.89 -8.39 -2.23 -4.19 -2.89 0 -3.55 4.19 -5.2 8.39 -5.2 12.58 -5.53 16.77 -4.21 20.97 -5.2 25.16 -5.53 29.35 -6.85" class="primitive"/>
            </g>
          </g>
        </g>
        <g stroke-width="0.71" fill="rgba(0,0,0,0)" class="geometry" id="img-4bb7dd15-72">
          <g class="color_RGB{N0f8}(0.529,0.0,0.212)" stroke-dasharray="4,1" stroke="#870036" id="img-4bb7dd15-73">
            <g transform="translate(50.03,52.65)" id="img-4bb7dd15-74">
              <path fill="none" d="M-29.35,26.07 L -25.16 16.81 -20.97 6.9 -16.77 0.62 -12.58 0.29 -8.39 -4.67 -4.19 -2.36 0 -5 4.19 -5 8.39 -4.01 12.58 -5.99 16.77 -5.99 20.97 -5.66 25.16 -5.99 29.35 -5.99" class="primitive"/>
            </g>
          </g>
        </g>
        <g stroke-width="0.71" fill="rgba(0,0,0,0)" class="geometry" id="img-4bb7dd15-75">
          <g class="color_RGB{N0f8}(0.824,0.671,0.0)" stroke-dasharray="none" stroke="#D2AB00" id="img-4bb7dd15-76">
            <g transform="translate(50.03,48.99)" id="img-4bb7dd15-77">
              <path fill="none" d="M-29.35,29.72 L -25.16 18.82 -20.97 6.92 -16.77 -0.02 -12.58 -1.67 -8.39 -2.01 -4.19 -3.99 0 -2.67 4.19 -2.34 8.39 -2.34 12.58 -3.99 16.77 -5.97 20.97 -7.62 25.16 -10.93 29.35 -11.92" class="primitive"/>
            </g>
          </g>
        </g>
        <g stroke-width="0.71" fill="rgba(0,0,0,0)" class="geometry" id="img-4bb7dd15-78">
          <g class="color_RGB{N0f8}(0.0,0.518,0.765)" stroke-dasharray="4,1" stroke="#0084C3" id="img-4bb7dd15-79">
            <g transform="translate(50.03,47.58)" id="img-4bb7dd15-80">
              <path fill="none" d="M-29.35,31.13 L -25.16 20.23 -20.97 8.66 -16.77 2.05 -12.58 0.07 -8.39 -0.93 -4.19 -1.26 0 -0.59 4.19 -3.9 8.39 -5.88 12.58 -6.54 16.77 -9.85 20.97 -10.51 25.16 -11.17 29.35 -11.5" class="primitive"/>
            </g>
          </g>
        </g>
        <g stroke-width="0.71" fill="rgba(0,0,0,0)" class="geometry" id="img-4bb7dd15-81">
          <g class="color_RGB{N0f8}(0.031,0.545,0.0)" stroke-dasharray="none" stroke="#088B00" id="img-4bb7dd15-82">
            <g transform="translate(50.03,51.94)" id="img-4bb7dd15-83">
              <path fill="none" d="M-29.35,26.77 L -25.16 15.86 -20.97 4.96 -16.77 -0 -12.58 -2.97 -8.39 -1.98 -4.19 -3.97 0 -4.96 4.19 -3.64 8.39 -4.96 12.58 -4.63 16.77 -5.62 20.97 -4.63 25.16 -4.96 29.35 -5.29" class="primitive"/>
            </g>
          </g>
        </g>
        <g stroke-width="0.71" fill="rgba(0,0,0,0)" class="geometry" id="img-4bb7dd15-84">
          <g class="color_RGB{N0f8}(0.82,0.29,0.0)" stroke-dasharray="4,1" stroke="#D14A00" id="img-4bb7dd15-85">
            <g transform="translate(50.03,74.11)" id="img-4bb7dd15-86">
              <path fill="none" d="M-29.35,4.61 L -25.16 4.61 -20.97 3.61 -16.77 1.3 -12.58 1.3 -8.39 1.3 -4.19 1.3 0 1.3 4.19 -0.02 8.39 -2.01 12.58 -2.01 16.77 -2.34 20.97 -3.33 25.16 -4.32 29.35 -5.31" class="primitive"/>
            </g>
          </g>
        </g>
        <g stroke-width="0.71" fill="rgba(0,0,0,0)" class="geometry" id="img-4bb7dd15-87">
          <g class="color_RGB{N0f8}(0.757,0.161,0.886)" stroke-dasharray="none" stroke="#C129E2" id="img-4bb7dd15-88">
            <g transform="translate(50.03,54.65)" id="img-4bb7dd15-89">
              <path fill="none" d="M-29.35,24.06 L -25.16 15.14 -20.97 8.53 -16.77 1.92 -12.58 -1.06 -8.39 -2.05 -4.19 -4.36 0 -3.7 4.19 -4.03 8.39 -3.7 12.58 -6.02 16.77 -7.01 20.97 -4.69 25.16 -6.35 29.35 -6.68" class="primitive"/>
            </g>
          </g>
        </g>
        <g stroke-width="0.71" fill="rgba(0,0,0,0)" class="geometry" id="img-4bb7dd15-90">
          <g class="color_RGB{N0f8}(0.0,0.0,0.0)" stroke-dasharray="4,1" stroke="#000000" id="img-4bb7dd15-91">
            <g transform="translate(50.03,51.04)" id="img-4bb7dd15-92">
              <path fill="none" d="M-29.35,27.68 L -25.16 14.45 -20.97 6.52 -16.77 -1.74 -12.58 -2.73 -8.39 -3.06 -4.19 -2.07 0 -2.73 4.19 -4.38 8.39 -3.72 12.58 -4.72 16.77 -5.71 20.97 -6.37 25.16 -5.71 29.35 -5.71" class="primitive"/>
            </g>
          </g>
        </g>
      </g>
    </g>
  </g>
  <g class="guide ylabels" font-size="2.82" font-family="'PT Sans Caption','Helvetica Neue','Helvetica',sans-serif" fill="rgba(108,96,107,1)" id="img-4bb7dd15-93">
    <g transform="translate(17.63,78.72)" id="img-4bb7dd15-94">
      <g class="primitive">
        <text text-anchor="end" dy="0.35em">0.0</text>
      </g>
    </g>
    <g transform="translate(17.63,45.66)" id="img-4bb7dd15-95">
      <g class="primitive">
        <text text-anchor="end" dy="0.35em">0.5</text>
      </g>
    </g>
    <g transform="translate(17.63,12.61)" id="img-4bb7dd15-96">
      <g class="primitive">
        <text text-anchor="end" dy="0.35em">1.0</text>
      </g>
    </g>
  </g>
  <g font-size="3.88" font-family="'PT Sans','Helvetica Neue','Helvetica',sans-serif" fill="rgba(86,73,85,1)" stroke="#000000" stroke-opacity="0.000" id="img-4bb7dd15-97">
    <g transform="translate(8.81,43.66)" id="img-4bb7dd15-98">
      <g class="primitive">
        <text text-anchor="middle" dy="0.35em" transform="rotate(-90,0, 2)">Success rate</text>
      </g>
    </g>
  </g>
  <g font-size="3.88" font-family="'PT Sans','Helvetica Neue','Helvetica',sans-serif" fill="rgba(86,73,85,1)" stroke="#000000" stroke-opacity="0.000" id="img-4bb7dd15-99">
    <g transform="translate(50.01,5)" id="img-4bb7dd15-100">
      <g class="primitive">
        <text text-anchor="middle" dy="0.6em">All functions, D: 12</text>
      </g>
    </g>
  </g>
</g>
<defs>
  <clipPath id="img-4bb7dd15-37">
    <path d="M18.63,10.61 L 81.38 10.61 81.38 80.72 18.63 80.72" />
  </clipPath>
</defs>
</svg>
