<?xml version="1.0" encoding="UTF-8"?>
<svg xmlns="http://www.w3.org/2000/svg"
     xmlns:xlink="http://www.w3.org/1999/xlink"
     xmlns:gadfly="http://www.gadflyjl.org/ns"
     version="1.2"
     width="200mm" height="120mm" viewBox="0 0 200 120"
     stroke="none"
     fill="#000000"
     stroke-width="0.3"
     font-size="3.88"
>
<g class="plotroot xscalable yscalable" id="img-de9a3224-1">
  <g font-size="3.88" font-family="'PT Sans','Helvetica Neue','Helvetica',sans-serif" fill="#564A55" stroke="#000000" stroke-opacity="0.000" id="img-de9a3224-2">
    <text x="81.02" y="108.39" text-anchor="middle" dy="0.6em">Run Length / D</text>
  </g>
  <g class="guide xlabels" font-size="2.82" font-family="'PT Sans Caption','Helvetica Neue','Helvetica',sans-serif" fill="#6C606B" id="img-de9a3224-3">
    <text x="24.42" y="101.72" text-anchor="middle" dy="0.6em">0</text>
    <text x="43.29" y="101.72" text-anchor="middle" dy="0.6em">1.0×10³</text>
    <text x="62.15" y="101.72" text-anchor="middle" dy="0.6em">2.0×10³</text>
    <text x="81.02" y="101.72" text-anchor="middle" dy="0.6em">3.0×10³</text>
    <text x="99.89" y="101.72" text-anchor="middle" dy="0.6em">4.0×10³</text>
    <text x="118.75" y="101.72" text-anchor="middle" dy="0.6em">5.0×10³</text>
    <text x="137.62" y="101.72" text-anchor="middle" dy="0.6em">6.0×10³</text>
  </g>
  <g class="guide colorkey" id="img-de9a3224-4">
    <g fill="#4C404B" font-size="2.82" font-family="'PT Sans','Helvetica Neue','Helvetica',sans-serif" id="img-de9a3224-5">
      <text x="143.43" y="44.78" dy="0.35em">R-Optim.NelderMead</text>
      <text x="143.43" y="48.41" dy="0.35em">CMAESoptim</text>
      <text x="143.43" y="52.04" dy="0.35em">Optim.NelderMead</text>
      <text x="143.43" y="55.66" dy="0.35em">BBO.adaptive_de_rand_1_bin_radiuslimited</text>
      <text x="143.43" y="59.29" dy="0.35em">BBO.adaptive_de_rand_1_bin</text>
      <text x="143.43" y="62.92" dy="0.35em">BBO.xnes</text>
      <text x="143.43" y="66.54" dy="0.35em">BBO.generating_set_search</text>
      <text x="143.43" y="70.17" dy="0.35em">BBO.de_rand_2_bin</text>
    </g>
    <g stroke="#000000" stroke-opacity="0.000" id="img-de9a3224-6">
      <rect x="140.62" y="43.88" width="1.81" height="1.81" fill="#FF0000"/>
      <rect x="140.62" y="47.5" width="1.81" height="1.81" fill="#00F75A"/>
      <rect x="140.62" y="51.13" width="1.81" height="1.81" fill="#003800"/>
      <rect x="140.62" y="54.76" width="1.81" height="1.81" fill="#00AEFF"/>
      <rect x="140.62" y="58.38" width="1.81" height="1.81" fill="#29003B"/>
      <rect x="140.62" y="62.01" width="1.81" height="1.81" fill="#FFB6FF"/>
      <rect x="140.62" y="65.64" width="1.81" height="1.81" fill="#FFBC00"/>
      <rect x="140.62" y="69.26" width="1.81" height="1.81" fill="#542900"/>
    </g>
    <g fill="#362A35" font-size="3.88" font-family="'PT Sans','Helvetica Neue','Helvetica',sans-serif" stroke="#000000" stroke-opacity="0.000" id="img-de9a3224-7">
      <text x="140.62" y="40.96"></text>
    </g>
  </g>
<g clip-path="url(#img-de9a3224-8)">
  <g id="img-de9a3224-9">
    <g pointer-events="visible" opacity="1" fill="#000000" fill-opacity="0.000" stroke="#000000" stroke-opacity="0.000" class="guide background" id="img-de9a3224-10">
      <rect x="22.42" y="10.61" width="117.2" height="90.1"/>
    </g>
    <g class="guide ygridlines xfixed" stroke-dasharray="0.5,0.5" stroke-width="0.2" stroke="#D0D0E0" id="img-de9a3224-11">
      <path fill="none" d="M22.42,98.72 L 139.62 98.72"/>
      <path fill="none" d="M22.42,70.01 L 139.62 70.01"/>
      <path fill="none" d="M22.42,41.31 L 139.62 41.31"/>
      <path fill="none" d="M22.42,12.61 L 139.62 12.61"/>
    </g>
    <g class="guide xgridlines yfixed" stroke-dasharray="0.5,0.5" stroke-width="0.2" stroke="#D0D0E0" id="img-de9a3224-12">
      <path fill="none" d="M24.42,10.61 L 24.42 100.72"/>
      <path fill="none" d="M43.29,10.61 L 43.29 100.72"/>
      <path fill="none" d="M62.15,10.61 L 62.15 100.72"/>
      <path fill="none" d="M81.02,10.61 L 81.02 100.72"/>
      <path fill="none" d="M99.89,10.61 L 99.89 100.72"/>
      <path fill="none" d="M118.75,10.61 L 118.75 100.72"/>
      <path fill="none" d="M137.62,10.61 L 137.62 100.72"/>
    </g>
    <g class="plotpanel" id="img-de9a3224-13">
      <g class="xfixed" id="img-de9a3224-14">
        <g stroke-dasharray="none" stroke-width="0.3" stroke="#808080" id="img-de9a3224-15">
          <path fill="none" d="M22.42,75.75 L 139.62 75.75"/>
        </g>
      </g>
      <g stroke-width="0.3" fill="#000000" fill-opacity="0.000" class="geometry" stroke-dasharray="none" stroke="#542900" id="img-de9a3224-16">
        <path fill="none" d="M24.46,22.63 L 30.41 32.41 36.37 35.06 42.32 37.24 48.28 39.15 54.24 40.75 60.19 42.34 66.15 43.78 72.1 45.3 78.06 46.72 84.02 48.29 89.97 49.61 95.93 51.14 101.88 52.62 107.84 55.2 113.8 56.16 119.75 57.63 125.71 58.74 131.66 59.42 137.62 60.42"/>
      </g>
      <g stroke-width="0.3" fill="#000000" fill-opacity="0.000" class="geometry" stroke-dasharray="none" stroke="#FFBC00" id="img-de9a3224-17">
        <path fill="none" d="M24.46,21.18 L 30.41 44.18 36.37 50.27 42.32 51.43 48.28 52.44 54.24 52.98 60.19 53.99 66.15 54.75 72.1 55.33 78.06 55.68 84.02 55.58 89.97 55.51 95.93 56.23 101.88 55.77 107.84 55.47 113.8 55.65 119.75 56.37 125.71 56.49 131.66 56.26 137.62 56.74"/>
      </g>
      <g stroke-width="0.3" fill="#000000" fill-opacity="0.000" class="geometry" stroke-dasharray="none" stroke="#FFB6FF" id="img-de9a3224-18">
        <path fill="none" d="M24.46,21.08 L 30.41 41.82 36.37 42.67 42.32 54.75 48.28 59.41 54.24 60.57 60.19 63.08 66.15 68.49 72.1 70.23 78.06 73.48 84.02 69.04 89.97 73.44 95.93 75.73 101.88 77.3 107.84 76.76 113.8 73.82 119.75 73.28 125.71 77.06 131.66 77.94 137.62 70.13"/>
      </g>
      <g stroke-width="0.3" fill="#000000" fill-opacity="0.000" class="geometry" stroke-dasharray="none" stroke="#29003B" id="img-de9a3224-19">
        <path fill="none" d="M24.46,22.68 L 30.41 33.48 36.37 37.69 42.32 41.28 48.28 44.47 54.24 47.79 60.19 52.26 66.15 55.94 72.1 60 78.06 64.02 84.02 68.15 89.97 72.52 95.93 75.56 101.88 78.49 107.84 81.45 113.8 84.04 119.75 86.96 125.71 88.72 131.66 90.04 137.62 90.97"/>
      </g>
      <g stroke-width="0.3" fill="#000000" fill-opacity="0.000" class="geometry" stroke-dasharray="none" stroke="#00AEFF" id="img-de9a3224-20">
        <path fill="none" d="M24.46,22.75 L 30.41 34.31 36.37 39.32 42.32 43.53 48.28 47.62 54.24 52.7 60.19 55.28 66.15 58.97 72.1 65.99 78.06 70.26 84.02 73.44 89.97 77.18 95.93 76.08 101.88 77.58 107.84 84.08 113.8 82.12 119.75 84.76 125.71 77.92 131.66 86.99 137.62 90.84"/>
      </g>
      <g stroke-width="0.3" fill="#000000" fill-opacity="0.000" class="geometry" stroke-dasharray="none" stroke="#003800" id="img-de9a3224-21">
        <path fill="none" d="M24.46,19.74 L 30.41 41.03 36.37 40.04 42.32 42.34 48.28 41.37 54.24 40.65 60.19 40.73 66.15 40.4 72.1 40.96 78.06 39.51 84.02 43.15 89.97 42.39 95.93 39.08 101.88 41.27 107.84 38.44 113.8 42.26 119.75 41.65 125.71 42.09 131.66 42.38 137.62 42.1"/>
      </g>
      <g stroke-width="0.3" fill="#000000" fill-opacity="0.000" class="geometry" stroke-dasharray="none" stroke="#00F75A" id="img-de9a3224-22">
        <path fill="none" d="M24.46,28.81 L 30.41 49.48 36.37 50.58 42.32 50.99 48.28 53.15 54.24 54.64 60.19 57.45 66.15 55.57 72.1 56.13 78.06 55.38 84.02 58.21 89.97 57.93 95.93 58.72 101.88 57.86 107.84 56.08 113.8 57.9 119.75 57.33 125.71 58.01 131.66 57.23 137.62 57.97"/>
      </g>
      <g stroke-width="0.3" fill="#000000" fill-opacity="0.000" class="geometry" stroke-dasharray="none" stroke="#FF0000" id="img-de9a3224-23">
        <path fill="none" d="M24.46,24.05 L 30.41 31.66 36.37 39.4 42.32 42.16 48.28 44.5 54.24 46.66 60.19 48.37 66.15 50.1 72.1 51.19 78.06 52.36 84.02 52.63 89.97 52.4 95.93 52.68 101.88 52.43 107.84 52.51 113.8 52.6 119.75 52.81 125.71 52.68 131.66 52.8 137.62 52.53"/>
      </g>
    </g>
  </g>
</g>
  <g class="guide ylabels" font-size="2.82" font-family="'PT Sans Caption','Helvetica Neue','Helvetica',sans-serif" fill="#6C606B" id="img-de9a3224-24">
    <text x="21.42" y="98.72" text-anchor="end" dy="0.35em">10<tspan style="dominant-baseline:inherit" dy="-0.6em" font-size="83%">-10</tspan><tspan dy="0.498000em"></tspan></text>
    <text x="21.42" y="70.01" text-anchor="end" dy="0.35em">10<tspan style="dominant-baseline:inherit" dy="-0.6em" font-size="83%">-5</tspan><tspan dy="0.498000em"></tspan></text>
    <text x="21.42" y="41.31" text-anchor="end" dy="0.35em">10<tspan style="dominant-baseline:inherit" dy="-0.6em" font-size="83%">0</tspan><tspan dy="0.498000em"></tspan></text>
    <text x="21.42" y="12.61" text-anchor="end" dy="0.35em">10<tspan style="dominant-baseline:inherit" dy="-0.6em" font-size="83%">5</tspan><tspan dy="0.498000em"></tspan></text>
  </g>
  <g font-size="3.88" font-family="'PT Sans','Helvetica Neue','Helvetica',sans-serif" fill="#564A55" stroke="#000000" stroke-opacity="0.000" id="img-de9a3224-25">
    <text x="8.81" y="53.66" text-anchor="middle" dy="0.35em" transform="rotate(-90, 8.81, 55.66)">fmin</text>
  </g>
  <g font-size="3.88" font-family="'PT Sans','Helvetica Neue','Helvetica',sans-serif" fill="#564A55" stroke="#000000" stroke-opacity="0.000" id="img-de9a3224-26">
    <text x="81.02" y="5" text-anchor="middle" dy="0.6em">All functions</text>
  </g>
</g>
<defs>
  <clipPath id="img-de9a3224-8">
  <path d="M22.42,10.61 L 139.62 10.61 139.62 100.72 22.42 100.72" />
</clipPath>
</defs>
</svg>
