<?xml version="1.0" encoding="UTF-8"?>
<svg xmlns="http://www.w3.org/2000/svg"
     xmlns:xlink="http://www.w3.org/1999/xlink"
     xmlns:gadfly="http://www.gadflyjl.org/ns"
     version="1.2"
     width="160mm" height="100mm" viewBox="0 0 160 100"
     stroke="none"
     fill="#000000"
     stroke-width="0.3"
     font-size="3.88"
>
<defs>
  <marker id="arrow" markerWidth="15" markerHeight="7" refX="5" refY="3.5" orient="auto" markerUnits="strokeWidth">
    <path d="M0,0 L15,3.5 L0,7 z" stroke="context-stroke" fill="context-stroke"/>
  </marker>
</defs>
<g class="plotroot xscalable yscalable" id="img-ebee2609-1">
  <g font-size="3.88" font-family="'PT Sans','Helvetica Neue','Helvetica',sans-serif" fill="rgba(86,73,85,1)" stroke="#000000" stroke-opacity="0.000" id="img-ebee2609-2">
    <g transform="translate(51.06,88.39)">
      <g class="primitive">
        <text text-anchor="middle" dy="0.6em">Run Length / D</text>
      </g>
    </g>
  </g>
  <g class="guide xlabels" font-size="2.82" font-family="'PT Sans Caption','Helvetica Neue','Helvetica',sans-serif" fill="rgba(108,96,107,1)" id="img-ebee2609-3">
    <g transform="translate(22.74,81.72)">
      <g class="primitive">
        <text text-anchor="middle" dy="0.6em">0</text>
      </g>
    </g>
    <g transform="translate(51.06,81.72)">
      <g class="primitive">
        <text text-anchor="middle" dy="0.6em">5.0×10³</text>
      </g>
    </g>
    <g transform="translate(79.38,81.72)">
      <g class="primitive">
        <text text-anchor="middle" dy="0.6em">1.0×10⁴</text>
      </g>
    </g>
  </g>
  <g class="guide colorkey" id="img-ebee2609-4">
    <g fill="rgba(76,64,75,1)" font-size="2.82" font-family="'PT Sans','Helvetica Neue','Helvetica',sans-serif" id="img-ebee2609-5">
      <g transform="translate(85.19,23.9)" id="img-ebee2609-6">
        <g class="primitive">
          <text dy="0.35em">SAMIN → NelderMead</text>
        </g>
      </g>
      <g transform="translate(85.19,27.53)" id="img-ebee2609-7">
        <g class="primitive">
          <text dy="0.35em">NelderMead</text>
        </g>
      </g>
      <g transform="translate(85.19,31.16)" id="img-ebee2609-8">
        <g class="primitive">
          <text dy="0.35em">Restart-NelderMead</text>
        </g>
      </g>
      <g transform="translate(85.19,34.78)" id="img-ebee2609-9">
        <g class="primitive">
          <text dy="0.35em">SimulatedAnnealing → NelderMead</text>
        </g>
      </g>
      <g transform="translate(85.19,38.41)" id="img-ebee2609-10">
        <g class="primitive">
          <text dy="0.35em">BBO.adaptive_de_rand_1_bin_radiuslimited → NelderMead</text>
        </g>
      </g>
      <g transform="translate(85.19,42.04)" id="img-ebee2609-11">
        <g class="primitive">
          <text dy="0.35em">BBO.adaptive_de_rand_1_bin → NelderMead</text>
        </g>
      </g>
      <g transform="translate(85.19,45.66)" id="img-ebee2609-12">
        <g class="primitive">
          <text dy="0.35em">NLopt.GN_ISRES → NelderMead</text>
        </g>
      </g>
      <g transform="translate(85.19,49.29)" id="img-ebee2609-13">
        <g class="primitive">
          <text dy="0.35em">NLopt.GN_ESCH → NelderMead</text>
        </g>
      </g>
      <g transform="translate(85.19,52.92)" id="img-ebee2609-14">
        <g class="primitive">
          <text dy="0.35em">NLopt.GD_STOGO → NelderMead</text>
        </g>
      </g>
      <g transform="translate(85.19,56.54)" id="img-ebee2609-15">
        <g class="primitive">
          <text dy="0.35em">BBO.xnes → NelderMead</text>
        </g>
      </g>
      <g transform="translate(85.19,60.17)" id="img-ebee2609-16">
        <g class="primitive">
          <text dy="0.35em">BBO.generating_set_search → NelderMead</text>
        </g>
      </g>
      <g transform="translate(85.19,63.8)" id="img-ebee2609-17">
        <g class="primitive">
          <text dy="0.35em">BBO.de_rand_2_bin → NelderMead</text>
        </g>
      </g>
      <g transform="translate(85.19,67.42)" id="img-ebee2609-18">
        <g class="primitive">
          <text dy="0.35em">Py.Nelder-Mead</text>
        </g>
      </g>
      <g transform="translate(85.19,71.05)" id="img-ebee2609-19">
        <g class="primitive">
          <text dy="0.35em">PyCMA</text>
        </g>
      </g>
    </g>
    <g stroke="#000000" stroke-opacity="0.000" id="img-ebee2609-20">
      <g transform="translate(83.29,23.9)" id="img-ebee2609-21" fill="rgba(0,0,0,1)">
        <path d="M-0.91,-0.91 L 0.91 -0.91 0.91 0.91 -0.91 0.91 z" class="primitive"/>
      </g>
      <g transform="translate(83.29,27.53)" id="img-ebee2609-22" fill="rgba(193,40,226,1)">
        <path d="M-0.91,-0.91 L 0.91 -0.91 0.91 0.91 -0.91 0.91 z" class="primitive"/>
      </g>
      <g transform="translate(83.29,31.16)" id="img-ebee2609-23" fill="rgba(209,73,0,1)">
        <path d="M-0.91,-0.91 L 0.91 -0.91 0.91 0.91 -0.91 0.91 z" class="primitive"/>
      </g>
      <g transform="translate(83.29,34.78)" id="img-ebee2609-24" fill="rgba(8,139,0,1)">
        <path d="M-0.91,-0.91 L 0.91 -0.91 0.91 0.91 -0.91 0.91 z" class="primitive"/>
      </g>
      <g transform="translate(83.29,38.41)" id="img-ebee2609-25" fill="rgba(0,131,195,1)">
        <path d="M-0.91,-0.91 L 0.91 -0.91 0.91 0.91 -0.91 0.91 z" class="primitive"/>
      </g>
      <g transform="translate(83.29,42.04)" id="img-ebee2609-26" fill="rgba(210,171,0,1)">
        <path d="M-0.91,-0.91 L 0.91 -0.91 0.91 0.91 -0.91 0.91 z" class="primitive"/>
      </g>
      <g transform="translate(83.29,45.66)" id="img-ebee2609-27" fill="rgba(135,0,54,1)">
        <path d="M-0.91,-0.91 L 0.91 -0.91 0.91 0.91 -0.91 0.91 z" class="primitive"/>
      </g>
      <g transform="translate(83.29,49.29)" id="img-ebee2609-28" fill="rgba(255,143,161,1)">
        <path d="M-0.91,-0.91 L 0.91 -0.91 0.91 0.91 -0.91 0.91 z" class="primitive"/>
      </g>
      <g transform="translate(83.29,52.92)" id="img-ebee2609-29" fill="rgba(56,255,110,1)">
        <path d="M-0.91,-0.91 L 0.91 -0.91 0.91 0.91 -0.91 0.91 z" class="primitive"/>
      </g>
      <g transform="translate(83.29,56.54)" id="img-ebee2609-30" fill="rgba(0,0,141,1)">
        <path d="M-0.91,-0.91 L 0.91 -0.91 0.91 0.91 -0.91 0.91 z" class="primitive"/>
      </g>
      <g transform="translate(83.29,60.17)" id="img-ebee2609-31" fill="rgba(104,81,0,1)">
        <path d="M-0.91,-0.91 L 0.91 -0.91 0.91 0.91 -0.91 0.91 z" class="primitive"/>
      </g>
      <g transform="translate(83.29,63.8)" id="img-ebee2609-32" fill="rgba(0,206,211,1)">
        <path d="M-0.91,-0.91 L 0.91 -0.91 0.91 0.91 -0.91 0.91 z" class="primitive"/>
      </g>
      <g transform="translate(83.29,67.42)" id="img-ebee2609-33" fill="rgba(0,80,65,1)">
        <path d="M-0.91,-0.91 L 0.91 -0.91 0.91 0.91 -0.91 0.91 z" class="primitive"/>
      </g>
      <g transform="translate(83.29,71.05)" id="img-ebee2609-34" fill="rgba(125,116,126,1)">
        <path d="M-0.91,-0.91 L 0.91 -0.91 0.91 0.91 -0.91 0.91 z" class="primitive"/>
      </g>
    </g>
    <g fill="rgba(54,42,52,1)" font-size="3.88" font-family="'PT Sans','Helvetica Neue','Helvetica',sans-serif" stroke="#000000" stroke-opacity="0.000" id="img-ebee2609-35">
      <g transform="translate(82.38,20.08)" id="img-ebee2609-36">
        <g class="primitive">
          <text></text>
        </g>
      </g>
    </g>
  </g>
  <g clip-path="url(#img-ebee2609-37)">
    <g id="img-ebee2609-38">
      <g pointer-events="visible" fill-opacity="1" fill="rgba(0,0,0,0)" stroke="#000000" stroke-opacity="0.000" class="guide background" id="img-ebee2609-39">
        <g transform="translate(51.06,45.66)" id="img-ebee2609-40">
          <path d="M-30.32,-35.05 L 30.32 -35.05 30.32 35.05 -30.32 35.05 z" class="primitive"/>
        </g>
      </g>
      <g class="guide ygridlines xfixed" stroke-dasharray="0.5,0.5" stroke-width="0.2" stroke="#D0D0E0" id="img-ebee2609-41">
        <g transform="translate(51.06,78.72)" id="img-ebee2609-42">
          <path fill="none" d="M-30.32,0 L 30.32 0" class="primitive"/>
        </g>
        <g transform="translate(51.06,65.49)" id="img-ebee2609-43">
          <path fill="none" d="M-30.32,0 L 30.32 0" class="primitive"/>
        </g>
        <g transform="translate(51.06,52.27)" id="img-ebee2609-44">
          <path fill="none" d="M-30.32,0 L 30.32 0" class="primitive"/>
        </g>
        <g transform="translate(51.06,39.05)" id="img-ebee2609-45">
          <path fill="none" d="M-30.32,0 L 30.32 0" class="primitive"/>
        </g>
        <g transform="translate(51.06,25.83)" id="img-ebee2609-46">
          <path fill="none" d="M-30.32,0 L 30.32 0" class="primitive"/>
        </g>
        <g transform="translate(51.06,12.61)" id="img-ebee2609-47">
          <path fill="none" d="M-30.32,0 L 30.32 0" class="primitive"/>
        </g>
      </g>
      <g class="guide xgridlines yfixed" stroke-dasharray="0.5,0.5" stroke-width="0.2" stroke="#D0D0E0" id="img-ebee2609-48">
        <g transform="translate(22.74,45.66)" id="img-ebee2609-49">
          <path fill="none" d="M0,-35.05 L 0 35.05" class="primitive"/>
        </g>
        <g transform="translate(51.06,45.66)" id="img-ebee2609-50">
          <path fill="none" d="M0,-35.05 L 0 35.05" class="primitive"/>
        </g>
        <g transform="translate(79.38,45.66)" id="img-ebee2609-51">
          <path fill="none" d="M0,-35.05 L 0 35.05" class="primitive"/>
        </g>
      </g>
      <g class="plotpanel" id="img-ebee2609-52">
        <metadata>
          <boundingbox value="20.74499999999999mm 10.611666666666665mm 60.63500000000002mm 70.10333333333334mm"/>
          <unitbox value="-353.13851858391445 2.302556603297867 10706.277037167829 -10.605113206595734"/>
        </metadata>
        <g stroke-width="0.3" fill="rgba(0,0,0,0)" class="geometry" id="img-ebee2609-53">
          <g class="color_RGB{N0f8}(0.49,0.455,0.494)" stroke-dasharray="none" stroke="#7D747E" id="img-ebee2609-54">
            <g transform="translate(51.08,34.02)" id="img-ebee2609-55">
              <path fill="none" d="M-28.3,-12.25 L -24.26 -3.04 -20.21 2.94 -16.17 -1.08 -12.13 -1.05 -8.09 0.15 -4.04 3.09 0 -1.03 4.04 1.07 8.09 1.87 12.13 -0.08 16.17 -0.49 20.21 4.93 24.26 4.36 28.3 0.59" class="primitive"/>
            </g>
          </g>
        </g>
        <g stroke-width="0.3" fill="rgba(0,0,0,0)" class="geometry" id="img-ebee2609-56">
          <g class="color_RGB{N0f8}(0.0,0.314,0.259)" stroke-dasharray="none" stroke="#005042" id="img-ebee2609-57">
            <g transform="translate(51.08,24.58)" id="img-ebee2609-58">
              <path fill="none" d="M-28.3,-3.53 L -24.26 0.37 -20.21 0.75 -16.17 0.15 -12.13 0.49 -8.09 0.11 -4.04 0.04 0 0.88 4.04 -0.04 8.09 0.38 12.13 -0.45 16.17 -0.23 20.21 0.48 24.26 0.22 28.3 0.39" class="primitive"/>
            </g>
          </g>
        </g>
        <g stroke-width="0.3" fill="rgba(0,0,0,0)" class="geometry" id="img-ebee2609-59">
          <g class="color_RGB{N0f8}(0.0,0.808,0.827)" stroke-dasharray="none" stroke="#00CED3" id="img-ebee2609-60">
            <g transform="translate(51.08,65.85)" id="img-ebee2609-61">
              <path fill="none" d="M-28.3,-42.48 L -24.26 -29.03 -20.21 -20.48 -16.17 5.79 -12.13 5.43 -8.09 5.86 -4.04 6.83 0 7.89 4.04 8.62 8.09 7.67 12.13 7.16 16.17 8.45 20.21 9.49 24.26 9.45 28.3 9.35" class="primitive"/>
            </g>
          </g>
        </g>
        <g stroke-width="0.3" fill="rgba(0,0,0,0)" class="geometry" id="img-ebee2609-62">
          <g class="color_RGB{N0f8}(0.408,0.322,0.0)" stroke-dasharray="none" stroke="#685200" id="img-ebee2609-63">
            <g transform="translate(51.08,43.55)" id="img-ebee2609-64">
              <path fill="none" d="M-28.3,-20.57 L -24.26 -8.14 -20.21 -9.9 -16.17 -11.79 -12.13 12.89 -8.09 -10.45 -4.04 -7.39 0 -8.71 4.04 -7.02 8.09 12.8 12.13 11.33 16.17 13.91 20.21 9.02 24.26 13.23 28.3 10.81" class="primitive"/>
            </g>
          </g>
        </g>
        <g stroke-width="0.3" fill="rgba(0,0,0,0)" class="geometry" id="img-ebee2609-65">
          <g class="color_RGB{N0f8}(0.0,0.0,0.553)" stroke-dasharray="none" stroke="#00008D" id="img-ebee2609-66">
            <g transform="translate(51.08,58.09)" id="img-ebee2609-67">
              <path fill="none" d="M-28.3,-35.73 L -24.26 -4.41 -20.21 -2.43 -16.17 -3.29 -12.13 -0.18 -8.09 9.05 -4.04 4.3 0 9.16 4.04 -1.41 8.09 4.38 12.13 5.37 16.17 8.37 20.21 -4.29 24.26 -1.43 28.3 12.53" class="primitive"/>
            </g>
          </g>
        </g>
        <g stroke-width="0.3" fill="rgba(0,0,0,0)" class="geometry" id="img-ebee2609-68">
          <g class="color_RGB{N0f8}(0.224,1.0,0.431)" stroke-dasharray="none" stroke="#39FF6E" id="img-ebee2609-69">
            <g transform="translate(51.08,63.45)" id="img-ebee2609-70">
              <path fill="none" d="M-28.3,-41.03 L -24.26 -6.83 -20.21 -7.45 -16.17 -7.45 -12.13 -7.45 -8.09 6.35 -4.04 6.35 0 6.35 4.04 7.31 8.09 7.31 12.13 7.31 16.17 7.31 20.21 7.31 24.26 7.31 28.3 7.31" class="primitive"/>
            </g>
          </g>
        </g>
        <g stroke-width="0.3" fill="rgba(0,0,0,0)" class="geometry" id="img-ebee2609-71">
          <g class="color_RGB{N0f8}(1.0,0.561,0.631)" stroke-dasharray="none" stroke="#FF8FA1" id="img-ebee2609-72">
            <g transform="translate(51.08,39.68)" id="img-ebee2609-73">
              <path fill="none" d="M-28.3,-16.76 L -24.26 -8.81 -20.21 -6.3 -16.17 -7.7 -12.13 -2.33 -8.09 -4.31 -4.04 -2.32 0 -1.88 4.04 -4.31 8.09 -2.32 12.13 -4.67 16.17 12.62 20.21 16.4 24.26 16.45 28.3 16.24" class="primitive"/>
            </g>
          </g>
        </g>
        <g stroke-width="0.3" fill="rgba(0,0,0,0)" class="geometry" id="img-ebee2609-74">
          <g class="color_RGB{N0f8}(0.529,0.0,0.212)" stroke-dasharray="none" stroke="#870036" id="img-ebee2609-75">
            <g transform="translate(51.08,51.48)" id="img-ebee2609-76">
              <path fill="none" d="M-28.3,-28.63 L -24.26 -15.09 -20.21 -16.58 -16.17 5.8 -12.13 2.16 -8.09 2.78 -4.04 3.86 0 3.43 4.04 4.42 8.09 1.95 12.13 11.39 16.17 4.13 20.21 4.63 24.26 5.23 28.3 10.51" class="primitive"/>
            </g>
          </g>
        </g>
        <g stroke-width="0.3" fill="rgba(0,0,0,0)" class="geometry" id="img-ebee2609-77">
          <g class="color_RGB{N0f8}(0.824,0.671,0.0)" stroke-dasharray="none" stroke="#D2AB00" id="img-ebee2609-78">
            <g transform="translate(51.08,68.22)" id="img-ebee2609-79">
              <path fill="none" d="M-28.3,-45.05 L -24.26 -31.3 -20.21 4.87 -16.17 2.96 -12.13 4.69 -8.09 4.61 -4.04 6.12 0 5.81 4.04 5.51 8.09 6.97 12.13 7.44 16.17 7.3 20.21 5.9 24.26 7.17 28.3 7" class="primitive"/>
            </g>
          </g>
        </g>
        <g stroke-width="0.3" fill="rgba(0,0,0,0)" class="geometry" id="img-ebee2609-80">
          <g class="color_RGB{N0f8}(0.0,0.518,0.765)" stroke-dasharray="none" stroke="#0084C3" id="img-ebee2609-81">
            <g transform="translate(51.08,68.28)" id="img-ebee2609-82">
              <path fill="none" d="M-28.3,-45.66 L -24.26 -22.18 -20.21 2.91 -16.17 3.14 -12.13 3.31 -8.09 3.95 -4.04 5.4 0 5.19 4.04 5.1 8.09 6.64 12.13 7.2 16.17 6.17 20.21 6.19 24.26 5.64 28.3 7" class="primitive"/>
            </g>
          </g>
        </g>
        <g stroke-width="0.3" fill="rgba(0,0,0,0)" class="geometry" id="img-ebee2609-83">
          <g class="color_RGB{N0f8}(0.031,0.545,0.0)" stroke-dasharray="none" stroke="#088B00" id="img-ebee2609-84">
            <g transform="translate(51.08,35.14)" id="img-ebee2609-85">
              <path fill="none" d="M-28.3,-12.4 L -24.26 -2.71 -20.21 -0.56 -16.17 0.21 -12.13 -1.43 -8.09 0.92 -4.04 5.52 0 0.31 4.04 1.93 8.09 0.05 12.13 -0.05 16.17 0.91 20.21 1.57 24.26 0.64 28.3 5.09" class="primitive"/>
            </g>
          </g>
        </g>
        <g stroke-width="0.3" fill="rgba(0,0,0,0)" class="geometry" id="img-ebee2609-86">
          <g class="color_RGB{N0f8}(0.82,0.29,0.0)" stroke-dasharray="none" stroke="#D14A00" id="img-ebee2609-87">
            <g transform="translate(51.08,37.17)" id="img-ebee2609-88">
              <path fill="none" d="M-28.3,-14.22 L -24.26 -9.22 -20.21 -6.13 -16.17 3 -12.13 2.94 -8.09 1.93 -4.04 2.31 0 2.64 4.04 2.84 8.09 3.34 12.13 1.76 16.17 3.13 20.21 2.7 24.26 2.77 28.3 0.22" class="primitive"/>
            </g>
          </g>
        </g>
        <g stroke-width="0.3" fill="rgba(0,0,0,0)" class="geometry" id="img-ebee2609-89">
          <g class="color_RGB{N0f8}(0.757,0.161,0.886)" stroke-dasharray="none" stroke="#C129E2" id="img-ebee2609-90">
            <g transform="translate(51.08,25.59)" id="img-ebee2609-91">
              <path fill="none" d="M-28.3,-4.09 L -24.26 0.21 -20.21 0.97 -16.17 0.2 -12.13 0.25 -8.09 0.35 -4.04 0.36 0 -0.35 4.04 0.55 8.09 0.02 12.13 -0.02 16.17 0.46 20.21 0.55 24.26 0.24 28.3 0.32" class="primitive"/>
            </g>
          </g>
        </g>
        <g stroke-width="0.3" fill="rgba(0,0,0,0)" class="geometry" id="img-ebee2609-92">
          <g class="color_RGB{N0f8}(0.0,0.0,0.0)" stroke-dasharray="none" stroke="#000000" id="img-ebee2609-93">
            <g transform="translate(51.08,48.79)" id="img-ebee2609-94">
              <path fill="none" d="M-28.3,-25.73 L -24.26 -16.81 -20.21 -11.65 -16.17 7.23 -12.13 7.63 -8.09 6.71 -4.04 -9.09 0 5.11 4.04 6.18 8.09 7.2 12.13 8.42 16.17 7.86 20.21 8.15 24.26 6.99 28.3 -8.19" class="primitive"/>
            </g>
          </g>
        </g>
      </g>
    </g>
  </g>
  <g class="guide ylabels" font-size="2.82" font-family="'PT Sans Caption','Helvetica Neue','Helvetica',sans-serif" fill="rgba(108,96,107,1)" id="img-ebee2609-95">
    <g transform="translate(19.74,78.72)" id="img-ebee2609-96">
      <g class="primitive">
        <text text-anchor="end" dy="0.35em">10<tspan style="dominant-baseline:inherit" dy="-0.6em" font-size="83%">-8</tspan><tspan dy="0.498000em"></tspan></text>
      </g>
    </g>
    <g transform="translate(19.74,65.49)" id="img-ebee2609-97">
      <g class="primitive">
        <text text-anchor="end" dy="0.35em">10<tspan style="dominant-baseline:inherit" dy="-0.6em" font-size="83%">-6</tspan><tspan dy="0.498000em"></tspan></text>
      </g>
    </g>
    <g transform="translate(19.74,52.27)" id="img-ebee2609-98">
      <g class="primitive">
        <text text-anchor="end" dy="0.35em">10<tspan style="dominant-baseline:inherit" dy="-0.6em" font-size="83%">-4</tspan><tspan dy="0.498000em"></tspan></text>
      </g>
    </g>
    <g transform="translate(19.74,39.05)" id="img-ebee2609-99">
      <g class="primitive">
        <text text-anchor="end" dy="0.35em">10<tspan style="dominant-baseline:inherit" dy="-0.6em" font-size="83%">-2</tspan><tspan dy="0.498000em"></tspan></text>
      </g>
    </g>
    <g transform="translate(19.74,25.83)" id="img-ebee2609-100">
      <g class="primitive">
        <text text-anchor="end" dy="0.35em">10<tspan style="dominant-baseline:inherit" dy="-0.6em" font-size="83%">0</tspan><tspan dy="0.498000em"></tspan></text>
      </g>
    </g>
    <g transform="translate(19.74,12.61)" id="img-ebee2609-101">
      <g class="primitive">
        <text text-anchor="end" dy="0.35em">10<tspan style="dominant-baseline:inherit" dy="-0.6em" font-size="83%">2</tspan><tspan dy="0.498000em"></tspan></text>
      </g>
    </g>
  </g>
  <g font-size="3.88" font-family="'PT Sans','Helvetica Neue','Helvetica',sans-serif" fill="rgba(86,73,85,1)" stroke="#000000" stroke-opacity="0.000" id="img-ebee2609-102">
    <g transform="translate(8.81,43.66)" id="img-ebee2609-103">
      <g class="primitive">
        <text text-anchor="middle" dy="0.35em" transform="rotate(-90,0, 2)">Distance to xmin</text>
      </g>
    </g>
  </g>
  <g font-size="3.88" font-family="'PT Sans','Helvetica Neue','Helvetica',sans-serif" fill="rgba(86,73,85,1)" stroke="#000000" stroke-opacity="0.000" id="img-ebee2609-104">
    <g transform="translate(51.06,5)" id="img-ebee2609-105">
      <g class="primitive">
        <text text-anchor="middle" dy="0.6em">All functions</text>
      </g>
    </g>
  </g>
</g>
<defs>
  <clipPath id="img-ebee2609-37">
    <path d="M20.74,10.61 L 81.38 10.61 81.38 80.72 20.74 80.72" />
  </clipPath>
</defs>
</svg>
