<?xml version="1.0" encoding="UTF-8"?>
<svg xmlns="http://www.w3.org/2000/svg"
     xmlns:xlink="http://www.w3.org/1999/xlink"
     xmlns:gadfly="http://www.gadflyjl.org/ns"
     version="1.2"
     width="160mm" height="100mm" viewBox="0 0 160 100"
     stroke="none"
     fill="#000000"
     stroke-width="0.3"
     font-size="3.88"
>
<defs>
  <marker id="arrow" markerWidth="15" markerHeight="7" refX="5" refY="3.5" orient="auto" markerUnits="strokeWidth">
    <path d="M0,0 L15,3.5 L0,7 z" stroke="context-stroke" fill="context-stroke"/>
  </marker>
</defs>
<g class="plotroot xscalable yscalable" id="img-c206ba28-1">
  <g font-size="3.88" font-family="'PT Sans','Helvetica Neue','Helvetica',sans-serif" fill="rgba(86,73,85,1)" stroke="#000000" stroke-opacity="0.000" id="img-c206ba28-2">
    <g transform="translate(51.9,88.39)">
      <g class="primitive">
        <text text-anchor="middle" dy="0.6em">Run Length / D</text>
      </g>
    </g>
  </g>
  <g class="guide xlabels" font-size="2.82" font-family="'PT Sans Caption','Helvetica Neue','Helvetica',sans-serif" fill="rgba(108,96,107,1)" id="img-c206ba28-3">
    <g transform="translate(24.42,81.72)">
      <g class="primitive">
        <text text-anchor="middle" dy="0.6em">0</text>
      </g>
    </g>
    <g transform="translate(35.41,81.72)">
      <g class="primitive">
        <text text-anchor="middle" dy="0.6em">500</text>
      </g>
    </g>
    <g transform="translate(46.4,81.72)">
      <g class="primitive">
        <text text-anchor="middle" dy="0.6em">1000</text>
      </g>
    </g>
    <g transform="translate(57.4,81.72)">
      <g class="primitive">
        <text text-anchor="middle" dy="0.6em">1500</text>
      </g>
    </g>
    <g transform="translate(68.39,81.72)">
      <g class="primitive">
        <text text-anchor="middle" dy="0.6em">2000</text>
      </g>
    </g>
    <g transform="translate(79.38,81.72)">
      <g class="primitive">
        <text text-anchor="middle" dy="0.6em">2500</text>
      </g>
    </g>
  </g>
  <g class="guide colorkey" id="img-c206ba28-4">
    <g fill="rgba(76,64,75,1)" font-size="2.82" font-family="'PT Sans','Helvetica Neue','Helvetica',sans-serif" id="img-c206ba28-5">
      <g transform="translate(85.19,23.9)" id="img-c206ba28-6">
        <g class="primitive">
          <text dy="0.35em">Py.Nelder-Mead</text>
        </g>
      </g>
      <g transform="translate(85.19,27.53)" id="img-c206ba28-7">
        <g class="primitive">
          <text dy="0.35em">Restart-NelderMead</text>
        </g>
      </g>
      <g transform="translate(85.19,31.16)" id="img-c206ba28-8">
        <g class="primitive">
          <text dy="0.35em">NelderMead</text>
        </g>
      </g>
      <g transform="translate(85.19,34.78)" id="img-c206ba28-9">
        <g class="primitive">
          <text dy="0.35em">SimulatedAnnealing → NelderMead</text>
        </g>
      </g>
      <g transform="translate(85.19,38.41)" id="img-c206ba28-10">
        <g class="primitive">
          <text dy="0.35em">SAMIN → NelderMead</text>
        </g>
      </g>
      <g transform="translate(85.19,42.04)" id="img-c206ba28-11">
        <g class="primitive">
          <text dy="0.35em">NLopt.GN_ISRES → NelderMead</text>
        </g>
      </g>
      <g transform="translate(85.19,45.66)" id="img-c206ba28-12">
        <g class="primitive">
          <text dy="0.35em">PyCMA</text>
        </g>
      </g>
      <g transform="translate(85.19,49.29)" id="img-c206ba28-13">
        <g class="primitive">
          <text dy="0.35em">NLopt.GD_STOGO → NelderMead</text>
        </g>
      </g>
      <g transform="translate(85.19,52.92)" id="img-c206ba28-14">
        <g class="primitive">
          <text dy="0.35em">NLopt.GN_ESCH → NelderMead</text>
        </g>
      </g>
      <g transform="translate(85.19,56.54)" id="img-c206ba28-15">
        <g class="primitive">
          <text dy="0.35em">BBO.generating_set_search → NelderMead</text>
        </g>
      </g>
      <g transform="translate(85.19,60.17)" id="img-c206ba28-16">
        <g class="primitive">
          <text dy="0.35em">BBO.de_rand_2_bin → NelderMead</text>
        </g>
      </g>
      <g transform="translate(85.19,63.8)" id="img-c206ba28-17">
        <g class="primitive">
          <text dy="0.35em">BBO.xnes → NelderMead</text>
        </g>
      </g>
      <g transform="translate(85.19,67.42)" id="img-c206ba28-18">
        <g class="primitive">
          <text dy="0.35em">BBO.adaptive_de_rand_1_bin → NelderMead</text>
        </g>
      </g>
      <g transform="translate(85.19,71.05)" id="img-c206ba28-19">
        <g class="primitive">
          <text dy="0.35em">BBO.adaptive_de_rand_1_bin_radiuslimited → NelderMead</text>
        </g>
      </g>
    </g>
    <g stroke="#000000" stroke-opacity="0.000" id="img-c206ba28-20">
      <g transform="translate(83.29,23.9)" id="img-c206ba28-21" fill="rgba(0,80,65,1)">
        <path d="M-0.91,-0.91 L 0.91 -0.91 0.91 0.91 -0.91 0.91 z" class="primitive"/>
      </g>
      <g transform="translate(83.29,27.53)" id="img-c206ba28-22" fill="rgba(209,73,0,1)">
        <path d="M-0.91,-0.91 L 0.91 -0.91 0.91 0.91 -0.91 0.91 z" class="primitive"/>
      </g>
      <g transform="translate(83.29,31.16)" id="img-c206ba28-23" fill="rgba(193,40,226,1)">
        <path d="M-0.91,-0.91 L 0.91 -0.91 0.91 0.91 -0.91 0.91 z" class="primitive"/>
      </g>
      <g transform="translate(83.29,34.78)" id="img-c206ba28-24" fill="rgba(8,139,0,1)">
        <path d="M-0.91,-0.91 L 0.91 -0.91 0.91 0.91 -0.91 0.91 z" class="primitive"/>
      </g>
      <g transform="translate(83.29,38.41)" id="img-c206ba28-25" fill="rgba(0,0,0,1)">
        <path d="M-0.91,-0.91 L 0.91 -0.91 0.91 0.91 -0.91 0.91 z" class="primitive"/>
      </g>
      <g transform="translate(83.29,42.04)" id="img-c206ba28-26" fill="rgba(135,0,54,1)">
        <path d="M-0.91,-0.91 L 0.91 -0.91 0.91 0.91 -0.91 0.91 z" class="primitive"/>
      </g>
      <g transform="translate(83.29,45.66)" id="img-c206ba28-27" fill="rgba(125,116,126,1)">
        <path d="M-0.91,-0.91 L 0.91 -0.91 0.91 0.91 -0.91 0.91 z" class="primitive"/>
      </g>
      <g transform="translate(83.29,49.29)" id="img-c206ba28-28" fill="rgba(56,255,110,1)">
        <path d="M-0.91,-0.91 L 0.91 -0.91 0.91 0.91 -0.91 0.91 z" class="primitive"/>
      </g>
      <g transform="translate(83.29,52.92)" id="img-c206ba28-29" fill="rgba(255,143,161,1)">
        <path d="M-0.91,-0.91 L 0.91 -0.91 0.91 0.91 -0.91 0.91 z" class="primitive"/>
      </g>
      <g transform="translate(83.29,56.54)" id="img-c206ba28-30" fill="rgba(104,81,0,1)">
        <path d="M-0.91,-0.91 L 0.91 -0.91 0.91 0.91 -0.91 0.91 z" class="primitive"/>
      </g>
      <g transform="translate(83.29,60.17)" id="img-c206ba28-31" fill="rgba(0,206,211,1)">
        <path d="M-0.91,-0.91 L 0.91 -0.91 0.91 0.91 -0.91 0.91 z" class="primitive"/>
      </g>
      <g transform="translate(83.29,63.8)" id="img-c206ba28-32" fill="rgba(0,0,141,1)">
        <path d="M-0.91,-0.91 L 0.91 -0.91 0.91 0.91 -0.91 0.91 z" class="primitive"/>
      </g>
      <g transform="translate(83.29,67.42)" id="img-c206ba28-33" fill="rgba(210,171,0,1)">
        <path d="M-0.91,-0.91 L 0.91 -0.91 0.91 0.91 -0.91 0.91 z" class="primitive"/>
      </g>
      <g transform="translate(83.29,71.05)" id="img-c206ba28-34" fill="rgba(0,131,195,1)">
        <path d="M-0.91,-0.91 L 0.91 -0.91 0.91 0.91 -0.91 0.91 z" class="primitive"/>
      </g>
    </g>
    <g fill="rgba(54,42,52,1)" font-size="3.88" font-family="'PT Sans','Helvetica Neue','Helvetica',sans-serif" stroke="#000000" stroke-opacity="0.000" id="img-c206ba28-35">
      <g transform="translate(82.38,20.08)" id="img-c206ba28-36">
        <g class="primitive">
          <text></text>
        </g>
      </g>
    </g>
  </g>
  <g clip-path="url(#img-c206ba28-37)">
    <g id="img-c206ba28-38">
      <g pointer-events="visible" fill-opacity="1" fill="rgba(0,0,0,0)" stroke="#000000" stroke-opacity="0.000" class="guide background" id="img-c206ba28-39">
        <g transform="translate(51.9,45.66)" id="img-c206ba28-40">
          <path d="M-29.48,-35.05 L 29.48 -35.05 29.48 35.05 -29.48 35.05 z" class="primitive"/>
        </g>
      </g>
      <g class="guide ygridlines xfixed" stroke-dasharray="0.5,0.5" stroke-width="0.2" stroke="#D0D0E0" id="img-c206ba28-41">
        <g transform="translate(51.9,78.72)" id="img-c206ba28-42">
          <path fill="none" d="M-29.48,0 L 29.48 0" class="primitive"/>
        </g>
        <g transform="translate(51.9,56.68)" id="img-c206ba28-43">
          <path fill="none" d="M-29.48,0 L 29.48 0" class="primitive"/>
        </g>
        <g transform="translate(51.9,34.65)" id="img-c206ba28-44">
          <path fill="none" d="M-29.48,0 L 29.48 0" class="primitive"/>
        </g>
        <g transform="translate(51.9,12.61)" id="img-c206ba28-45">
          <path fill="none" d="M-29.48,0 L 29.48 0" class="primitive"/>
        </g>
      </g>
      <g class="guide xgridlines yfixed" stroke-dasharray="0.5,0.5" stroke-width="0.2" stroke="#D0D0E0" id="img-c206ba28-46">
        <g transform="translate(24.42,45.66)" id="img-c206ba28-47">
          <path fill="none" d="M0,-35.05 L 0 35.05" class="primitive"/>
        </g>
        <g transform="translate(35.41,45.66)" id="img-c206ba28-48">
          <path fill="none" d="M0,-35.05 L 0 35.05" class="primitive"/>
        </g>
        <g transform="translate(46.4,45.66)" id="img-c206ba28-49">
          <path fill="none" d="M0,-35.05 L 0 35.05" class="primitive"/>
        </g>
        <g transform="translate(57.4,45.66)" id="img-c206ba28-50">
          <path fill="none" d="M0,-35.05 L 0 35.05" class="primitive"/>
        </g>
        <g transform="translate(68.39,45.66)" id="img-c206ba28-51">
          <path fill="none" d="M0,-35.05 L 0 35.05" class="primitive"/>
        </g>
        <g transform="translate(79.38,45.66)" id="img-c206ba28-52">
          <path fill="none" d="M0,-35.05 L 0 35.05" class="primitive"/>
        </g>
      </g>
      <g class="plotpanel" id="img-c206ba28-53">
        <metadata>
          <boundingbox value="22.418333333333337mm 10.611666666666665mm 58.96166666666667mm 70.10333333333334mm"/>
          <unitbox value="-90.9724959820481 5.453834904946801 2681.9449919640965 -15.9076698098936"/>
        </metadata>
        <g class="xfixed" id="img-c206ba28-54">
          <g stroke-dasharray="none" stroke-width="0.3" stroke="#808080" id="img-c206ba28-55">
            <g transform="translate(51.9,61.09)" id="img-c206ba28-56">
              <path fill="none" d="M-29.48,0 L 29.48 0" class="primitive"/>
            </g>
          </g>
        </g>
        <g stroke-width="0.71" fill="rgba(0,0,0,0)" class="geometry" id="img-c206ba28-57">
          <g class="color_RGB{N0f8}(0.49,0.455,0.494)" stroke-dasharray="none" stroke="#7D747E" id="img-c206ba28-58">
            <g transform="translate(51.92,54.87)" id="img-c206ba28-59">
              <path fill="none" d="M-27.46,-36.2 L -23.54 -15.14 -19.62 -7.06 -15.69 -1.01 -11.77 4.28 -7.85 6.71 -3.92 4.55 -0 5.39 3.92 4.61 7.85 3.67 11.77 3.26 15.69 6.07 19.62 9.98 23.54 7.23 27.46 3.64" class="primitive"/>
            </g>
          </g>
        </g>
        <g stroke-width="0.71" fill="rgba(0,0,0,0)" class="geometry" id="img-c206ba28-60">
          <g class="color_RGB{N0f8}(0.0,0.314,0.259)" stroke-dasharray="none" stroke="#005042" id="img-c206ba28-61">
            <g transform="translate(51.92,27.43)" id="img-c206ba28-62">
              <path fill="none" d="M-27.46,-10.17 L -23.54 -3.93 -19.62 -2.9 -15.69 -1.48 -11.77 -1.62 -7.85 1.47 -3.92 2.17 -0 1.78 3.92 1.82 7.85 2.5 11.77 2 15.69 1.93 19.62 1.5 23.54 2.12 27.46 2.82" class="primitive"/>
            </g>
          </g>
        </g>
        <g stroke-width="0.71" fill="rgba(0,0,0,0)" class="geometry" id="img-c206ba28-63">
          <g class="color_RGB{N0f8}(0.0,0.808,0.827)" stroke-dasharray="none" stroke="#00CED3" id="img-c206ba28-64">
            <g transform="translate(51.92,55.35)" id="img-c206ba28-65">
              <path fill="none" d="M-27.46,-34.68 L -23.54 -15.42 -19.62 -7.54 -15.69 -5.24 -11.77 0.99 -7.85 -1.37 -3.92 0.03 -0 10.02 3.92 5.6 7.85 7.57 11.77 7.22 15.69 7.57 19.62 9.26 23.54 8.47 27.46 7.51" class="primitive"/>
            </g>
          </g>
        </g>
        <g stroke-width="0.71" fill="rgba(0,0,0,0)" class="geometry" id="img-c206ba28-66">
          <g class="color_RGB{N0f8}(0.408,0.322,0.0)" stroke-dasharray="none" stroke="#685200" id="img-c206ba28-67">
            <g transform="translate(51.92,53.86)" id="img-c206ba28-68">
              <path fill="none" d="M-27.46,-33.84 L -23.54 -10.75 -19.62 -6.09 -15.69 2.4 -11.77 3.28 -7.85 -0.14 -3.92 0.38 -0 4.42 3.92 4.78 7.85 6.22 11.77 6.25 15.69 6.32 19.62 3 23.54 6.96 27.46 6.81" class="primitive"/>
            </g>
          </g>
        </g>
        <g stroke-width="0.71" fill="rgba(0,0,0,0)" class="geometry" id="img-c206ba28-69">
          <g class="color_RGB{N0f8}(0.0,0.0,0.553)" stroke-dasharray="none" stroke="#00008D" id="img-c206ba28-70">
            <g transform="translate(51.92,62.82)" id="img-c206ba28-71">
              <path fill="none" d="M-27.46,-43.88 L -23.54 -22.35 -19.62 -10.03 -15.69 -0.96 -11.77 3.39 -7.85 5.44 -3.92 6.11 -0 5.75 3.92 6.72 7.85 6.57 11.77 7.6 15.69 9.08 19.62 8.97 23.54 9.26 27.46 8.33" class="primitive"/>
            </g>
          </g>
        </g>
        <g stroke-width="0.71" fill="rgba(0,0,0,0)" class="geometry" id="img-c206ba28-72">
          <g class="color_RGB{N0f8}(0.224,1.0,0.431)" stroke-dasharray="none" stroke="#39FF6E" id="img-c206ba28-73">
            <g transform="translate(51.92,52.12)" id="img-c206ba28-74">
              <path fill="none" d="M-27.46,-30.2 L -23.54 -14.15 -19.62 -8.02 -15.69 -1.19 -11.77 4.02 -7.85 9.29 -3.92 5.32 -0 5.43 3.92 5.41 7.85 2.84 11.77 2.99 15.69 3.38 19.62 4.14 23.54 4.33 27.46 6.4" class="primitive"/>
            </g>
          </g>
        </g>
        <g stroke-width="0.71" fill="rgba(0,0,0,0)" class="geometry" id="img-c206ba28-75">
          <g class="color_RGB{N0f8}(1.0,0.561,0.631)" stroke-dasharray="none" stroke="#FF8FA1" id="img-c206ba28-76">
            <g transform="translate(51.92,53.39)" id="img-c206ba28-77">
              <path fill="none" d="M-27.46,-32.88 L -23.54 -14.43 -19.62 -7.7 -15.69 -1.24 -11.77 -0.08 -7.85 2.43 -3.92 3.55 -0 4.88 3.92 7.73 7.85 5.52 11.77 6.3 15.69 6.54 19.62 5.79 23.54 6.68 27.46 6.92" class="primitive"/>
            </g>
          </g>
        </g>
        <g stroke-width="0.71" fill="rgba(0,0,0,0)" class="geometry" id="img-c206ba28-78">
          <g class="color_RGB{N0f8}(0.529,0.0,0.212)" stroke-dasharray="none" stroke="#870036" id="img-c206ba28-79">
            <g transform="translate(51.92,50.97)" id="img-c206ba28-80">
              <path fill="none" d="M-27.46,-30.27 L -23.54 -13.08 -19.62 -4.56 -15.69 -5.93 -11.77 -5.51 -7.85 2.17 -3.92 1.38 -0 5.77 3.92 4.82 7.85 4.89 11.77 8.23 15.69 8.96 19.62 8.14 23.54 8.06 27.46 6.94" class="primitive"/>
            </g>
          </g>
        </g>
        <g stroke-width="0.71" fill="rgba(0,0,0,0)" class="geometry" id="img-c206ba28-81">
          <g class="color_RGB{N0f8}(0.824,0.671,0.0)" stroke-dasharray="none" stroke="#D2AB00" id="img-c206ba28-82">
            <g transform="translate(51.92,58.43)" id="img-c206ba28-83">
              <path fill="none" d="M-27.46,-37.95 L -23.54 -17.66 -19.62 -10.37 -15.69 -7.44 -11.77 -3.71 -7.85 4.69 -3.92 5.51 -0 5.67 3.92 6.03 7.85 6.56 11.77 6.9 15.69 7.22 19.62 9.74 23.54 10.79 27.46 14.03" class="primitive"/>
            </g>
          </g>
        </g>
        <g stroke-width="0.71" fill="rgba(0,0,0,0)" class="geometry" id="img-c206ba28-84">
          <g class="color_RGB{N0f8}(0.0,0.518,0.765)" stroke-dasharray="none" stroke="#0084C3" id="img-c206ba28-85">
            <g transform="translate(51.92,58.79)" id="img-c206ba28-86">
              <path fill="none" d="M-27.46,-38.5 L -23.54 -19.05 -19.62 -9.42 -15.69 -4.76 -11.77 0.37 -7.85 2.89 -3.92 2.81 -0 2.79 3.92 6.84 7.85 4.58 11.77 3.38 15.69 7.67 19.62 7.48 23.54 14.47 27.46 18.45" class="primitive"/>
            </g>
          </g>
        </g>
        <g stroke-width="0.71" fill="rgba(0,0,0,0)" class="geometry" id="img-c206ba28-87">
          <g class="color_RGB{N0f8}(0.031,0.545,0.0)" stroke-dasharray="none" stroke="#088B00" id="img-c206ba28-88">
            <g transform="translate(51.92,51.14)" id="img-c206ba28-89">
              <path fill="none" d="M-27.46,-30.97 L -23.54 -12.71 -19.62 -3.91 -15.69 -0.79 -11.77 4.39 -7.85 1.54 -3.92 2.27 -0 3.35 3.92 5.17 7.85 6.43 11.77 4.83 15.69 5.7 19.62 5.52 23.54 4.62 27.46 4.55" class="primitive"/>
            </g>
          </g>
        </g>
        <g stroke-width="0.71" fill="rgba(0,0,0,0)" class="geometry" id="img-c206ba28-90">
          <g class="color_RGB{N0f8}(0.82,0.29,0.0)" stroke-dasharray="none" stroke="#D14A00" id="img-c206ba28-91">
            <g transform="translate(51.92,33.68)" id="img-c206ba28-92">
              <path fill="none" d="M-27.46,-12.74 L -23.54 -9.56 -19.62 -7.21 -15.69 -2.53 -11.77 -1.52 -7.85 -0.48 -3.92 0.69 -0 1.51 3.92 2.53 7.85 2.93 11.77 3.89 15.69 4.5 19.62 5.1 23.54 6.02 27.46 6.86" class="primitive"/>
            </g>
          </g>
        </g>
        <g stroke-width="0.71" fill="rgba(0,0,0,0)" class="geometry" id="img-c206ba28-93">
          <g class="color_RGB{N0f8}(0.757,0.161,0.886)" stroke-dasharray="none" stroke="#C129E2" id="img-c206ba28-94">
            <g transform="translate(51.92,46.87)" id="img-c206ba28-95">
              <path fill="none" d="M-27.46,-29.24 L -23.54 -10.84 -19.62 -5.17 -15.69 -1.17 -11.77 -0.48 -7.85 0.15 -3.92 3.27 -0 3.9 3.92 3.86 7.85 4.3 11.77 5.06 15.69 6.7 19.62 6.58 23.54 6 27.46 7.1" class="primitive"/>
            </g>
          </g>
        </g>
        <g stroke-width="0.71" fill="rgba(0,0,0,0)" class="geometry" id="img-c206ba28-96">
          <g class="color_RGB{N0f8}(0.0,0.0,0.0)" stroke-dasharray="none" stroke="#000000" id="img-c206ba28-97">
            <g transform="translate(51.92,52.17)" id="img-c206ba28-98">
              <path fill="none" d="M-27.46,-31.42 L -23.54 -9.84 -19.62 -4.58 -15.69 -1.15 -11.77 1 -7.85 1.69 -3.92 1.21 -0 1.62 3.92 6.11 7.85 7.73 11.77 5.68 15.69 5.33 19.62 5.37 23.54 5.83 27.46 5.43" class="primitive"/>
            </g>
          </g>
        </g>
      </g>
    </g>
  </g>
  <g class="guide ylabels" font-size="2.82" font-family="'PT Sans Caption','Helvetica Neue','Helvetica',sans-serif" fill="rgba(108,96,107,1)" id="img-c206ba28-99">
    <g transform="translate(21.42,78.72)" id="img-c206ba28-100">
      <g class="primitive">
        <text text-anchor="end" dy="0.35em">10<tspan style="dominant-baseline:inherit" dy="-0.6em" font-size="83%">-10</tspan><tspan dy="0.498000em"></tspan></text>
      </g>
    </g>
    <g transform="translate(21.42,56.68)" id="img-c206ba28-101">
      <g class="primitive">
        <text text-anchor="end" dy="0.35em">10<tspan style="dominant-baseline:inherit" dy="-0.6em" font-size="83%">-5</tspan><tspan dy="0.498000em"></tspan></text>
      </g>
    </g>
    <g transform="translate(21.42,34.65)" id="img-c206ba28-102">
      <g class="primitive">
        <text text-anchor="end" dy="0.35em">10<tspan style="dominant-baseline:inherit" dy="-0.6em" font-size="83%">0</tspan><tspan dy="0.498000em"></tspan></text>
      </g>
    </g>
    <g transform="translate(21.42,12.61)" id="img-c206ba28-103">
      <g class="primitive">
        <text text-anchor="end" dy="0.35em">10<tspan style="dominant-baseline:inherit" dy="-0.6em" font-size="83%">5</tspan><tspan dy="0.498000em"></tspan></text>
      </g>
    </g>
  </g>
  <g font-size="3.88" font-family="'PT Sans','Helvetica Neue','Helvetica',sans-serif" fill="rgba(86,73,85,1)" stroke="#000000" stroke-opacity="0.000" id="img-c206ba28-104">
    <g transform="translate(8.81,43.66)" id="img-c206ba28-105">
      <g class="primitive">
        <text text-anchor="middle" dy="0.35em" transform="rotate(-90,0, 2)">fmin</text>
      </g>
    </g>
  </g>
  <g font-size="3.88" font-family="'PT Sans','Helvetica Neue','Helvetica',sans-serif" fill="rgba(86,73,85,1)" stroke="#000000" stroke-opacity="0.000" id="img-c206ba28-106">
    <g transform="translate(51.9,5)" id="img-c206ba28-107">
      <g class="primitive">
        <text text-anchor="middle" dy="0.6em">All functions</text>
      </g>
    </g>
  </g>
</g>
<defs>
  <clipPath id="img-c206ba28-37">
    <path d="M22.42,10.61 L 81.38 10.61 81.38 80.72 22.42 80.72" />
  </clipPath>
</defs>
</svg>
