<?xml version="1.0" encoding="UTF-8"?>
<svg xmlns="http://www.w3.org/2000/svg"
     xmlns:xlink="http://www.w3.org/1999/xlink"
     xmlns:gadfly="http://www.gadflyjl.org/ns"
     version="1.2"
     width="200mm" height="120mm" viewBox="0 0 200 120"
     stroke="none"
     fill="#000000"
     stroke-width="0.3"
     font-size="3.88"
>
<g class="plotroot xscalable yscalable" id="img-b3b9b88d-1">
  <g font-size="3.88" font-family="'PT Sans','Helvetica Neue','Helvetica',sans-serif" fill="#564A55" stroke="#000000" stroke-opacity="0.000" id="img-b3b9b88d-2">
    <text x="79.13" y="108.39" text-anchor="middle" dy="0.6em">Run Length / D</text>
  </g>
  <g class="guide xlabels" font-size="2.82" font-family="'PT Sans Caption','Helvetica Neue','Helvetica',sans-serif" fill="#6C606B" id="img-b3b9b88d-3">
    <text x="20.63" y="101.72" text-anchor="middle" dy="0.6em">0</text>
    <text x="40.13" y="101.72" text-anchor="middle" dy="0.6em">1.0×10³</text>
    <text x="59.63" y="101.72" text-anchor="middle" dy="0.6em">2.0×10³</text>
    <text x="79.13" y="101.72" text-anchor="middle" dy="0.6em">3.0×10³</text>
    <text x="98.62" y="101.72" text-anchor="middle" dy="0.6em">4.0×10³</text>
    <text x="118.12" y="101.72" text-anchor="middle" dy="0.6em">5.0×10³</text>
    <text x="137.62" y="101.72" text-anchor="middle" dy="0.6em">6.0×10³</text>
  </g>
  <g class="guide colorkey" id="img-b3b9b88d-4">
    <g fill="#4C404B" font-size="2.82" font-family="'PT Sans','Helvetica Neue','Helvetica',sans-serif" id="img-b3b9b88d-5">
      <text x="143.43" y="44.78" dy="0.35em">R-Optim.NelderMead</text>
      <text x="143.43" y="48.41" dy="0.35em">CMAESoptim</text>
      <text x="143.43" y="52.04" dy="0.35em">Optim.NelderMead</text>
      <text x="143.43" y="55.66" dy="0.35em">BBO.adaptive_de_rand_1_bin_radiuslimited</text>
      <text x="143.43" y="59.29" dy="0.35em">BBO.adaptive_de_rand_1_bin</text>
      <text x="143.43" y="62.92" dy="0.35em">BBO.xnes</text>
      <text x="143.43" y="66.54" dy="0.35em">BBO.generating_set_search</text>
      <text x="143.43" y="70.17" dy="0.35em">BBO.de_rand_2_bin</text>
    </g>
    <g stroke="#000000" stroke-opacity="0.000" id="img-b3b9b88d-6">
      <rect x="140.62" y="43.88" width="1.81" height="1.81" fill="#FF0000"/>
      <rect x="140.62" y="47.5" width="1.81" height="1.81" fill="#00F75A"/>
      <rect x="140.62" y="51.13" width="1.81" height="1.81" fill="#003800"/>
      <rect x="140.62" y="54.76" width="1.81" height="1.81" fill="#00AEFF"/>
      <rect x="140.62" y="58.38" width="1.81" height="1.81" fill="#29003B"/>
      <rect x="140.62" y="62.01" width="1.81" height="1.81" fill="#FFB6FF"/>
      <rect x="140.62" y="65.64" width="1.81" height="1.81" fill="#FFBC00"/>
      <rect x="140.62" y="69.26" width="1.81" height="1.81" fill="#542900"/>
    </g>
    <g fill="#362A35" font-size="3.88" font-family="'PT Sans','Helvetica Neue','Helvetica',sans-serif" stroke="#000000" stroke-opacity="0.000" id="img-b3b9b88d-7">
      <text x="140.62" y="40.96"></text>
    </g>
  </g>
<g clip-path="url(#img-b3b9b88d-8)">
  <g id="img-b3b9b88d-9">
    <g pointer-events="visible" opacity="1" fill="#000000" fill-opacity="0.000" stroke="#000000" stroke-opacity="0.000" class="guide background" id="img-b3b9b88d-10">
      <rect x="18.63" y="10.61" width="120.99" height="90.1"/>
    </g>
    <g class="guide ygridlines xfixed" stroke-dasharray="0.5,0.5" stroke-width="0.2" stroke="#D0D0E0" id="img-b3b9b88d-11">
      <path fill="none" d="M18.63,98.72 L 139.62 98.72"/>
      <path fill="none" d="M18.63,77.19 L 139.62 77.19"/>
      <path fill="none" d="M18.63,55.66 L 139.62 55.66"/>
      <path fill="none" d="M18.63,34.14 L 139.62 34.14"/>
      <path fill="none" d="M18.63,12.61 L 139.62 12.61"/>
    </g>
    <g class="guide xgridlines yfixed" stroke-dasharray="0.5,0.5" stroke-width="0.2" stroke="#D0D0E0" id="img-b3b9b88d-12">
      <path fill="none" d="M20.63,10.61 L 20.63 100.72"/>
      <path fill="none" d="M40.13,10.61 L 40.13 100.72"/>
      <path fill="none" d="M59.63,10.61 L 59.63 100.72"/>
      <path fill="none" d="M79.13,10.61 L 79.13 100.72"/>
      <path fill="none" d="M98.62,10.61 L 98.62 100.72"/>
      <path fill="none" d="M118.12,10.61 L 118.12 100.72"/>
      <path fill="none" d="M137.62,10.61 L 137.62 100.72"/>
    </g>
    <g class="plotpanel" id="img-b3b9b88d-13">
      <g stroke-width="0.3" fill="#000000" fill-opacity="0.000" class="geometry" stroke-dasharray="none" stroke="#542900" id="img-b3b9b88d-14">
        <path fill="none" d="M20.67,98.72 L 26.83 98.72 32.98 98.72 39.14 98.72 45.29 98.72 51.45 98.72 57.6 95.49 63.76 91.9 69.91 87.95 76.07 87.95 82.22 83.29 88.38 82.21 94.53 80.06 100.69 78.98 106.84 77.19 113 77.19 119.15 77.19 125.31 77.19 131.46 77.19 137.62 76.47"/>
      </g>
      <g stroke-width="0.3" fill="#000000" fill-opacity="0.000" class="geometry" stroke-dasharray="none" stroke="#FFBC00" id="img-b3b9b88d-15">
        <path fill="none" d="M20.67,98.72 L 26.83 87.59 32.98 81.85 39.14 81.14 45.29 78.27 51.45 75.4 57.6 76.47 63.76 76.11 69.91 74.68 76.07 74.32 82.22 75.75 88.38 74.32 94.53 74.68 100.69 73.24 106.84 73.96 113 74.32 119.15 73.6 125.31 73.24 131.46 75.75 137.62 73.6"/>
      </g>
      <g stroke-width="0.3" fill="#000000" fill-opacity="0.000" class="geometry" stroke-dasharray="none" stroke="#FFB6FF" id="img-b3b9b88d-16">
        <path fill="none" d="M20.67,98.72 L 26.83 93.33 32.98 89.75 39.14 84.01 45.29 77.19 51.45 66.79 57.6 57.1 63.76 49.21 69.91 43.47 76.07 40.95 82.22 41.67 88.38 40.6 94.53 40.6 100.69 41.31 106.84 40.95 113 39.16 119.15 40.24 125.31 38.44 131.46 39.52 137.62 37.01"/>
      </g>
      <g stroke-width="0.3" fill="#000000" fill-opacity="0.000" class="geometry" stroke-dasharray="none" stroke="#29003B" id="img-b3b9b88d-17">
        <path fill="none" d="M20.67,98.72 L 26.83 98.72 32.98 98.72 39.14 98.72 45.29 98.72 51.45 89.75 57.6 80.06 63.76 76.47 69.91 71.81 76.07 71.09 82.22 68.58 88.38 57.82 94.53 55.3 100.69 49.56 106.84 44.54 113 40.24 119.15 31.63 125.31 28.4 131.46 25.89 137.62 25.17"/>
      </g>
      <g stroke-width="0.3" fill="#000000" fill-opacity="0.000" class="geometry" stroke-dasharray="none" stroke="#00AEFF" id="img-b3b9b88d-18">
        <path fill="none" d="M20.67,98.72 L 26.83 98.72 32.98 98.72 39.14 98.72 45.29 91.9 51.45 82.57 57.6 73.24 63.76 71.45 69.91 66.43 76.07 58.53 82.22 51.72 88.38 45.62 94.53 44.54 100.69 44.18 106.84 39.16 113 39.16 119.15 35.57 125.31 35.57 131.46 31.63 137.62 28.4"/>
      </g>
      <g stroke-width="0.3" fill="#000000" fill-opacity="0.000" class="geometry" stroke-dasharray="none" stroke="#003800" id="img-b3b9b88d-19">
        <path fill="none" d="M20.67,98.72 L 26.83 84.72 32.98 84.72 39.14 84.36 45.29 84.72 51.45 84.36 57.6 84.36 63.76 85.08 69.91 84.72 76.07 84.72 82.22 84.01 88.38 84.36 94.53 84.36 100.69 84.01 106.84 84.01 113 85.8 119.15 84.72 125.31 86.16 131.46 85.08 137.62 84.72"/>
      </g>
      <g stroke-width="0.3" fill="#000000" fill-opacity="0.000" class="geometry" stroke-dasharray="none" stroke="#00F75A" id="img-b3b9b88d-20">
        <path fill="none" d="M20.67,93.33 L 26.83 69.66 32.98 68.94 39.14 67.5 45.29 62.84 51.45 64.99 57.6 58.89 63.76 59.61 69.91 61.4 76.07 61.4 82.22 61.04 88.38 59.61 94.53 59.25 100.69 59.97 106.84 60.69 113 59.61 119.15 60.33 125.31 57.82 131.46 61.04 137.62 58.53"/>
      </g>
      <g stroke-width="0.3" fill="#000000" fill-opacity="0.000" class="geometry" stroke-dasharray="none" stroke="#FF0000" id="img-b3b9b88d-21">
        <path fill="none" d="M20.67,98.72 L 26.83 94.41 32.98 93.33 39.14 93.33 45.29 87.95 51.45 86.16 57.6 83.65 63.76 82.57 69.91 82.57 76.07 81.14 82.22 79.34 88.38 79.7 94.53 80.06 100.69 80.78 106.84 81.85 113 80.06 119.15 81.14 125.31 79.34 131.46 80.06 137.62 79.34"/>
      </g>
    </g>
  </g>
</g>
  <g class="guide ylabels" font-size="2.82" font-family="'PT Sans Caption','Helvetica Neue','Helvetica',sans-serif" fill="#6C606B" id="img-b3b9b88d-22">
    <text x="17.63" y="98.72" text-anchor="end" dy="0.35em">0.0</text>
    <text x="17.63" y="77.19" text-anchor="end" dy="0.35em">0.2</text>
    <text x="17.63" y="55.66" text-anchor="end" dy="0.35em">0.4</text>
    <text x="17.63" y="34.14" text-anchor="end" dy="0.35em">0.6</text>
    <text x="17.63" y="12.61" text-anchor="end" dy="0.35em">0.8</text>
  </g>
  <g font-size="3.88" font-family="'PT Sans','Helvetica Neue','Helvetica',sans-serif" fill="#564A55" stroke="#000000" stroke-opacity="0.000" id="img-b3b9b88d-23">
    <text x="8.81" y="53.66" text-anchor="middle" dy="0.35em" transform="rotate(-90, 8.81, 55.66)">Success rate</text>
  </g>
  <g font-size="3.88" font-family="'PT Sans','Helvetica Neue','Helvetica',sans-serif" fill="#564A55" stroke="#000000" stroke-opacity="0.000" id="img-b3b9b88d-24">
    <text x="79.13" y="5" text-anchor="middle" dy="0.6em">All functions</text>
  </g>
</g>
<defs>
  <clipPath id="img-b3b9b88d-8">
  <path d="M18.63,10.61 L 139.62 10.61 139.62 100.72 18.63 100.72" />
</clipPath>
</defs>
</svg>
