<?xml version="1.0" encoding="UTF-8"?>
<svg xmlns="http://www.w3.org/2000/svg"
     xmlns:xlink="http://www.w3.org/1999/xlink"
     xmlns:gadfly="http://www.gadflyjl.org/ns"
     version="1.2"
     width="160mm" height="100mm" viewBox="0 0 160 100"
     stroke="none"
     fill="#000000"
     stroke-width="0.3"
     font-size="3.88"
>
<defs>
  <marker id="arrow" markerWidth="15" markerHeight="7" refX="5" refY="3.5" orient="auto" markerUnits="strokeWidth">
    <path d="M0,0 L15,3.5 L0,7 z" stroke="context-stroke" fill="context-stroke"/>
  </marker>
</defs>
<g class="plotroot xscalable yscalable" id="img-b3d733e6-1">
  <g font-size="3.88" font-family="'PT Sans','Helvetica Neue','Helvetica',sans-serif" fill="rgba(86,73,85,1)" stroke="#000000" stroke-opacity="0.000" id="img-b3d733e6-2">
    <g transform="translate(50.01,88.39)">
      <g class="primitive">
        <text text-anchor="middle" dy="0.6em">Run Length</text>
      </g>
    </g>
  </g>
  <g class="guide xlabels" font-size="2.82" font-family="'PT Sans Caption','Helvetica Neue','Helvetica',sans-serif" fill="rgba(108,96,107,1)" id="img-b3d733e6-3">
    <g transform="translate(20.63,81.72)">
      <g class="primitive">
        <text text-anchor="middle" dy="0.6em">0</text>
      </g>
    </g>
    <g transform="translate(40.21,81.72)">
      <g class="primitive">
        <text text-anchor="middle" dy="0.6em">1×10⁴</text>
      </g>
    </g>
    <g transform="translate(59.8,81.72)">
      <g class="primitive">
        <text text-anchor="middle" dy="0.6em">2×10⁴</text>
      </g>
    </g>
    <g transform="translate(79.38,81.72)">
      <g class="primitive">
        <text text-anchor="middle" dy="0.6em">3×10⁴</text>
      </g>
    </g>
  </g>
  <g class="guide colorkey" id="img-b3d733e6-4">
    <g fill="rgba(76,64,75,1)" font-size="2.82" font-family="'PT Sans','Helvetica Neue','Helvetica',sans-serif" id="img-b3d733e6-5">
      <g transform="translate(85.19,23.9)" id="img-b3d733e6-6">
        <g class="primitive">
          <text dy="0.35em">BBO.adaptive_de_rand_1_bin → NelderMead</text>
        </g>
      </g>
      <g transform="translate(85.19,27.53)" id="img-b3d733e6-7">
        <g class="primitive">
          <text dy="0.35em">BBO.adaptive_de_rand_1_bin_radiuslimited → NelderMead</text>
        </g>
      </g>
      <g transform="translate(85.19,31.16)" id="img-b3d733e6-8">
        <g class="primitive">
          <text dy="0.35em">BBO.de_rand_2_bin → NelderMead</text>
        </g>
      </g>
      <g transform="translate(85.19,34.78)" id="img-b3d733e6-9">
        <g class="primitive">
          <text dy="0.35em">NLopt.GN_ISRES → NelderMead</text>
        </g>
      </g>
      <g transform="translate(85.19,38.41)" id="img-b3d733e6-10">
        <g class="primitive">
          <text dy="0.35em">BBO.xnes → NelderMead</text>
        </g>
      </g>
      <g transform="translate(85.19,42.04)" id="img-b3d733e6-11">
        <g class="primitive">
          <text dy="0.35em">SAMIN → NelderMead</text>
        </g>
      </g>
      <g transform="translate(85.19,45.66)" id="img-b3d733e6-12">
        <g class="primitive">
          <text dy="0.35em">BBO.generating_set_search → NelderMead</text>
        </g>
      </g>
      <g transform="translate(85.19,49.29)" id="img-b3d733e6-13">
        <g class="primitive">
          <text dy="0.35em">SimulatedAnnealing → NelderMead</text>
        </g>
      </g>
      <g transform="translate(85.19,52.92)" id="img-b3d733e6-14">
        <g class="primitive">
          <text dy="0.35em">NLopt.GD_STOGO → NelderMead</text>
        </g>
      </g>
      <g transform="translate(85.19,56.54)" id="img-b3d733e6-15">
        <g class="primitive">
          <text dy="0.35em">NLopt.GN_ESCH → NelderMead</text>
        </g>
      </g>
      <g transform="translate(85.19,60.17)" id="img-b3d733e6-16">
        <g class="primitive">
          <text dy="0.35em">PyCMA</text>
        </g>
      </g>
      <g transform="translate(85.19,63.8)" id="img-b3d733e6-17">
        <g class="primitive">
          <text dy="0.35em">Restart-NelderMead</text>
        </g>
      </g>
      <g transform="translate(85.19,67.42)" id="img-b3d733e6-18">
        <g class="primitive">
          <text dy="0.35em">NelderMead</text>
        </g>
      </g>
      <g transform="translate(85.19,71.05)" id="img-b3d733e6-19">
        <g class="primitive">
          <text dy="0.35em">Py.Nelder-Mead</text>
        </g>
      </g>
    </g>
    <g stroke="#000000" stroke-opacity="0.000" id="img-b3d733e6-20">
      <g transform="translate(83.29,23.9)" id="img-b3d733e6-21" fill="rgba(210,171,0,1)">
        <path d="M-0.91,-0.91 L 0.91 -0.91 0.91 0.91 -0.91 0.91 z" class="primitive"/>
      </g>
      <g transform="translate(83.29,27.53)" id="img-b3d733e6-22" fill="rgba(0,131,195,1)">
        <path d="M-0.91,-0.91 L 0.91 -0.91 0.91 0.91 -0.91 0.91 z" class="primitive"/>
      </g>
      <g transform="translate(83.29,31.16)" id="img-b3d733e6-23" fill="rgba(0,206,211,1)">
        <path d="M-0.91,-0.91 L 0.91 -0.91 0.91 0.91 -0.91 0.91 z" class="primitive"/>
      </g>
      <g transform="translate(83.29,34.78)" id="img-b3d733e6-24" fill="rgba(135,0,54,1)">
        <path d="M-0.91,-0.91 L 0.91 -0.91 0.91 0.91 -0.91 0.91 z" class="primitive"/>
      </g>
      <g transform="translate(83.29,38.41)" id="img-b3d733e6-25" fill="rgba(0,0,141,1)">
        <path d="M-0.91,-0.91 L 0.91 -0.91 0.91 0.91 -0.91 0.91 z" class="primitive"/>
      </g>
      <g transform="translate(83.29,42.04)" id="img-b3d733e6-26" fill="rgba(0,0,0,1)">
        <path d="M-0.91,-0.91 L 0.91 -0.91 0.91 0.91 -0.91 0.91 z" class="primitive"/>
      </g>
      <g transform="translate(83.29,45.66)" id="img-b3d733e6-27" fill="rgba(104,81,0,1)">
        <path d="M-0.91,-0.91 L 0.91 -0.91 0.91 0.91 -0.91 0.91 z" class="primitive"/>
      </g>
      <g transform="translate(83.29,49.29)" id="img-b3d733e6-28" fill="rgba(8,139,0,1)">
        <path d="M-0.91,-0.91 L 0.91 -0.91 0.91 0.91 -0.91 0.91 z" class="primitive"/>
      </g>
      <g transform="translate(83.29,52.92)" id="img-b3d733e6-29" fill="rgba(56,255,110,1)">
        <path d="M-0.91,-0.91 L 0.91 -0.91 0.91 0.91 -0.91 0.91 z" class="primitive"/>
      </g>
      <g transform="translate(83.29,56.54)" id="img-b3d733e6-30" fill="rgba(255,143,161,1)">
        <path d="M-0.91,-0.91 L 0.91 -0.91 0.91 0.91 -0.91 0.91 z" class="primitive"/>
      </g>
      <g transform="translate(83.29,60.17)" id="img-b3d733e6-31" fill="rgba(125,116,126,1)">
        <path d="M-0.91,-0.91 L 0.91 -0.91 0.91 0.91 -0.91 0.91 z" class="primitive"/>
      </g>
      <g transform="translate(83.29,63.8)" id="img-b3d733e6-32" fill="rgba(209,73,0,1)">
        <path d="M-0.91,-0.91 L 0.91 -0.91 0.91 0.91 -0.91 0.91 z" class="primitive"/>
      </g>
      <g transform="translate(83.29,67.42)" id="img-b3d733e6-33" fill="rgba(193,40,226,1)">
        <path d="M-0.91,-0.91 L 0.91 -0.91 0.91 0.91 -0.91 0.91 z" class="primitive"/>
      </g>
      <g transform="translate(83.29,71.05)" id="img-b3d733e6-34" fill="rgba(0,80,65,1)">
        <path d="M-0.91,-0.91 L 0.91 -0.91 0.91 0.91 -0.91 0.91 z" class="primitive"/>
      </g>
    </g>
    <g fill="rgba(54,42,52,1)" font-size="3.88" font-family="'PT Sans','Helvetica Neue','Helvetica',sans-serif" stroke="#000000" stroke-opacity="0.000" id="img-b3d733e6-35">
      <g transform="translate(82.38,20.08)" id="img-b3d733e6-36">
        <g class="primitive">
          <text></text>
        </g>
      </g>
    </g>
  </g>
  <g clip-path="url(#img-b3d733e6-37)">
    <g id="img-b3d733e6-38">
      <g pointer-events="visible" fill-opacity="1" fill="rgba(0,0,0,0)" stroke="#000000" stroke-opacity="0.000" class="guide background" id="img-b3d733e6-39">
        <g transform="translate(50.01,45.66)" id="img-b3d733e6-40">
          <path d="M-31.37,-35.05 L 31.37 -35.05 31.37 35.05 -31.37 35.05 z" class="primitive"/>
        </g>
      </g>
      <g class="guide ygridlines xfixed" stroke-dasharray="0.5,0.5" stroke-width="0.2" stroke="#D0D0E0" id="img-b3d733e6-41">
        <g transform="translate(50.01,78.72)" id="img-b3d733e6-42">
          <path fill="none" d="M-31.37,0 L 31.37 0" class="primitive"/>
        </g>
        <g transform="translate(50.01,45.66)" id="img-b3d733e6-43">
          <path fill="none" d="M-31.37,0 L 31.37 0" class="primitive"/>
        </g>
        <g transform="translate(50.01,12.61)" id="img-b3d733e6-44">
          <path fill="none" d="M-31.37,0 L 31.37 0" class="primitive"/>
        </g>
      </g>
      <g class="guide xgridlines yfixed" stroke-dasharray="0.5,0.5" stroke-width="0.2" stroke="#D0D0E0" id="img-b3d733e6-45">
        <g transform="translate(20.63,45.66)" id="img-b3d733e6-46">
          <path fill="none" d="M0,-35.05 L 0 35.05" class="primitive"/>
        </g>
        <g transform="translate(40.21,45.66)" id="img-b3d733e6-47">
          <path fill="none" d="M0,-35.05 L 0 35.05" class="primitive"/>
        </g>
        <g transform="translate(59.8,45.66)" id="img-b3d733e6-48">
          <path fill="none" d="M0,-35.05 L 0 35.05" class="primitive"/>
        </g>
        <g transform="translate(79.38,45.66)" id="img-b3d733e6-49">
          <path fill="none" d="M0,-35.05 L 0 35.05" class="primitive"/>
        </g>
      </g>
      <g class="plotpanel" id="img-b3d733e6-50">
        <metadata>
          <boundingbox value="18.631666666666668mm 10.611666666666665mm 62.74833333333334mm 70.10333333333334mm"/>
          <unitbox value="-1021.3055689523106 1.0302556603297868 32042.611137904623 -1.0605113206595733"/>
        </metadata>
        <g stroke-width="0.71" fill="rgba(0,0,0,0)" class="geometry" id="img-b3d733e6-51">
          <g class="color_RGB{N0f8}(0.49,0.455,0.494)" stroke-dasharray="none" stroke="#7D747E" id="img-b3d733e6-52">
            <g transform="translate(50.03,37.97)" id="img-b3d733e6-53">
              <path fill="none" d="M-29.35,40.41 L -25.16 -1.56 -20.97 -4.21 -16.77 -2.89 -12.58 -2.89 -8.39 -2.23 -4.19 -1.56 0 -3.55 4.19 -3.88 8.39 -4.21 12.58 -2.56 16.77 -1.89 20.97 -3.55 25.16 -3.55 29.35 -1.89" class="primitive"/>
            </g>
          </g>
        </g>
        <g stroke-width="0.71" fill="rgba(0,0,0,0)" class="geometry" id="img-b3d733e6-54">
          <g class="color_RGB{N0f8}(0.0,0.314,0.259)" stroke-dasharray="4,1" stroke="#005042" id="img-b3d733e6-55">
            <g transform="translate(50.03,45.05)" id="img-b3d733e6-56">
              <path fill="none" d="M-29.35,33.67 L -25.16 -2.69 -20.97 -2.69 -16.77 -2.69 -12.58 -2.69 -8.39 -2.36 -4.19 -2.03 0 -2.36 4.19 -2.36 8.39 -2.03 12.58 -2.36 16.77 -2.69 20.97 -2.36 25.16 -2.03 29.35 -2.36" class="primitive"/>
            </g>
          </g>
        </g>
        <g stroke-width="0.71" fill="rgba(0,0,0,0)" class="geometry" id="img-b3d733e6-57">
          <g class="color_RGB{N0f8}(0.0,0.808,0.827)" stroke-dasharray="none" stroke="#00CED3" id="img-b3d733e6-58">
            <g transform="translate(50.03,23.19)" id="img-b3d733e6-59">
              <path fill="none" d="M-29.35,52.88 L -25.16 8.26 -20.97 5.62 -16.77 0 -12.58 -2.97 -8.39 -3.31 -4.19 -4.96 0 -7.27 4.19 -7.27 8.39 -5.95 12.58 -5.95 16.77 -6.28 20.97 -7.27 25.16 -7.6 29.35 -7.93" class="primitive"/>
            </g>
          </g>
        </g>
        <g stroke-width="0.71" fill="rgba(0,0,0,0)" class="geometry" id="img-b3d733e6-60">
          <g class="color_RGB{N0f8}(0.408,0.322,0.0)" stroke-dasharray="4,1" stroke="#685200" id="img-b3d733e6-61">
            <g transform="translate(50.03,34.8)" id="img-b3d733e6-62">
              <path fill="none" d="M-29.35,40.61 L -25.16 3.59 -20.97 0.29 -16.77 0.29 -12.58 -2.69 -8.39 -2.69 -4.19 -3.02 0 -2.03 4.19 -2.69 8.39 -4.67 12.58 -5.33 16.77 -5.33 20.97 -5 25.16 -5.33 29.35 -5.99" class="primitive"/>
            </g>
          </g>
        </g>
        <g stroke-width="0.71" fill="rgba(0,0,0,0)" class="geometry" id="img-b3d733e6-63">
          <g class="color_RGB{N0f8}(0.0,0.0,0.553)" stroke-dasharray="none" stroke="#00008D" id="img-b3d733e6-64">
            <g transform="translate(50.03,29.09)" id="img-b3d733e6-65">
              <path fill="none" d="M-29.35,47.31 L -25.16 -0.29 -20.97 -1.94 -16.77 -2.27 -12.58 -3.26 -8.39 -4.58 -4.19 -5.57 0 -3.92 4.19 -3.59 8.39 -4.58 12.58 -2.93 16.77 -2.93 20.97 -3.26 25.16 -3.92 29.35 -4.25" class="primitive"/>
            </g>
          </g>
        </g>
        <g stroke-width="0.71" fill="rgba(0,0,0,0)" class="geometry" id="img-b3d733e6-66">
          <g class="color_RGB{N0f8}(0.224,1.0,0.431)" stroke-dasharray="4,1" stroke="#39FF6E" id="img-b3d733e6-67">
            <g transform="translate(50.03,37.73)" id="img-b3d733e6-68">
              <path fill="none" d="M-29.35,40.98 L -25.16 -1.98 -20.97 -1.98 -16.77 -1.98 -12.58 -1.98 -8.39 -1.98 -4.19 -1.98 0 -1.98 4.19 -1.98 8.39 -1.98 12.58 -1.98 16.77 -5.29 20.97 -5.29 25.16 -5.29 29.35 -5.29" class="primitive"/>
            </g>
          </g>
        </g>
        <g stroke-width="0.71" fill="rgba(0,0,0,0)" class="geometry" id="img-b3d733e6-69">
          <g class="color_RGB{N0f8}(1.0,0.561,0.631)" stroke-dasharray="none" stroke="#FF8FA1" id="img-b3d733e6-70">
            <g transform="translate(50.03,39.71)" id="img-b3d733e6-71">
              <path fill="none" d="M-29.35,39 L -25.16 0.66 -20.97 -2.97 -16.77 -0.99 -12.58 -1.98 -8.39 -3.31 -4.19 -3.31 0 -2.31 4.19 -1.98 8.39 -2.31 12.58 -3.31 16.77 -3.31 20.97 -3.31 25.16 -5.29 29.35 -5.29" class="primitive"/>
            </g>
          </g>
        </g>
        <g stroke-width="0.71" fill="rgba(0,0,0,0)" class="geometry" id="img-b3d733e6-72">
          <g class="color_RGB{N0f8}(0.529,0.0,0.212)" stroke-dasharray="4,1" stroke="#870036" id="img-b3d733e6-73">
            <g transform="translate(50.03,30.48)" id="img-b3d733e6-74">
              <path fill="none" d="M-29.35,46.58 L -25.16 7.91 -20.97 6.59 -16.77 -0.68 -12.58 -2.01 -8.39 -3.66 -4.19 -6.63 0 -3.66 4.19 -6.63 8.39 -6.3 12.58 -5.64 16.77 -6.63 20.97 -5.31 25.16 -6.63 29.35 -7.29" class="primitive"/>
            </g>
          </g>
        </g>
        <g stroke-width="0.71" fill="rgba(0,0,0,0)" class="geometry" id="img-b3d733e6-75">
          <g class="color_RGB{N0f8}(0.824,0.671,0.0)" stroke-dasharray="none" stroke="#D2AB00" id="img-b3d733e6-76">
            <g transform="translate(50.03,21.51)" id="img-b3d733e6-77">
              <path fill="none" d="M-29.35,55.22 L -25.16 10.93 -20.97 1.67 -16.77 -0.97 -12.58 -3.94 -8.39 -3.94 -4.19 -4.61 0 -5.27 4.19 -4.27 8.39 -6.92 12.58 -6.26 16.77 -7.58 20.97 -7.91 25.16 -7.91 29.35 -8.24" class="primitive"/>
            </g>
          </g>
        </g>
        <g stroke-width="0.71" fill="rgba(0,0,0,0)" class="geometry" id="img-b3d733e6-78">
          <g class="color_RGB{N0f8}(0.0,0.518,0.765)" stroke-dasharray="4,1" stroke="#0084C3" id="img-b3d733e6-79">
            <g transform="translate(50.03,20.72)" id="img-b3d733e6-80">
              <path fill="none" d="M-29.35,55.68 L -25.16 9.41 -20.97 1.81 -16.77 -3.15 -12.58 -4.14 -8.39 -5.8 -4.19 -5.13 0 -4.8 4.19 -6.46 8.39 -6.46 12.58 -7.12 16.77 -6.46 20.97 -6.13 25.16 -5.13 29.35 -6.13" class="primitive"/>
            </g>
          </g>
        </g>
        <g stroke-width="0.71" fill="rgba(0,0,0,0)" class="geometry" id="img-b3d733e6-81">
          <g class="color_RGB{N0f8}(0.031,0.545,0.0)" stroke-dasharray="none" stroke="#088B00" id="img-b3d733e6-82">
            <g transform="translate(50.03,34.73)" id="img-b3d733e6-83">
              <path fill="none" d="M-29.35,42.33 L -25.16 3 -20.97 1.01 -16.77 -1.63 -12.58 -0.97 -8.39 -2.95 -4.19 -4.27 0 -2.29 4.19 -3.94 8.39 -4.61 12.58 -3.94 16.77 -4.94 20.97 -6.26 25.16 -6.92 29.35 -3.61" class="primitive"/>
            </g>
          </g>
        </g>
        <g stroke-width="0.71" fill="rgba(0,0,0,0)" class="geometry" id="img-b3d733e6-84">
          <g class="color_RGB{N0f8}(0.82,0.29,0.0)" stroke-dasharray="4,1" stroke="#D14A00" id="img-b3d733e6-85">
            <g transform="translate(50.03,41.9)" id="img-b3d733e6-86">
              <path fill="none" d="M-29.35,36.82 L -25.16 26.9 -20.97 5.09 -16.77 -5.49 -12.58 -4.83 -8.39 -7.47 -4.19 -6.15 0 -4.16 4.19 -5.16 8.39 -7.47 12.58 -5.82 16.77 -4.5 20.97 -5.49 25.16 -7.47 29.35 -4.83" class="primitive"/>
            </g>
          </g>
        </g>
        <g stroke-width="0.71" fill="rgba(0,0,0,0)" class="geometry" id="img-b3d733e6-87">
          <g class="color_RGB{N0f8}(0.757,0.161,0.886)" stroke-dasharray="none" stroke="#C129E2" id="img-b3d733e6-88">
            <g transform="translate(50.03,44.14)" id="img-b3d733e6-89">
              <path fill="none" d="M-29.35,34.57 L -25.16 -2.12 -20.97 -2.45 -16.77 -2.12 -12.58 -3.11 -8.39 -2.12 -4.19 -2.78 0 -2.12 4.19 -2.45 8.39 -2.45 12.58 -2.45 16.77 -2.45 20.97 -2.78 25.16 -2.78 29.35 -2.45" class="primitive"/>
            </g>
          </g>
        </g>
        <g stroke-width="0.71" fill="rgba(0,0,0,0)" class="geometry" id="img-b3d733e6-90">
          <g class="color_RGB{N0f8}(0.0,0.0,0.0)" stroke-dasharray="4,1" stroke="#000000" id="img-b3d733e6-91">
            <g transform="translate(50.03,29.05)" id="img-b3d733e6-92">
              <path fill="none" d="M-29.35,47.68 L -25.16 10 -20.97 4.05 -16.77 -1.23 -12.58 -3.88 -8.39 -4.87 -4.19 -4.87 0 -6.19 4.19 -7.18 8.39 -6.19 12.58 -6.19 16.77 -6.52 20.97 -5.53 25.16 -5.53 29.35 -3.55" class="primitive"/>
            </g>
          </g>
        </g>
      </g>
    </g>
  </g>
  <g class="guide ylabels" font-size="2.82" font-family="'PT Sans Caption','Helvetica Neue','Helvetica',sans-serif" fill="rgba(108,96,107,1)" id="img-b3d733e6-93">
    <g transform="translate(17.63,78.72)" id="img-b3d733e6-94">
      <g class="primitive">
        <text text-anchor="end" dy="0.35em">0.0</text>
      </g>
    </g>
    <g transform="translate(17.63,45.66)" id="img-b3d733e6-95">
      <g class="primitive">
        <text text-anchor="end" dy="0.35em">0.5</text>
      </g>
    </g>
    <g transform="translate(17.63,12.61)" id="img-b3d733e6-96">
      <g class="primitive">
        <text text-anchor="end" dy="0.35em">1.0</text>
      </g>
    </g>
  </g>
  <g font-size="3.88" font-family="'PT Sans','Helvetica Neue','Helvetica',sans-serif" fill="rgba(86,73,85,1)" stroke="#000000" stroke-opacity="0.000" id="img-b3d733e6-97">
    <g transform="translate(8.81,43.66)" id="img-b3d733e6-98">
      <g class="primitive">
        <text text-anchor="middle" dy="0.35em" transform="rotate(-90,0, 2)">Success rate</text>
      </g>
    </g>
  </g>
  <g font-size="3.88" font-family="'PT Sans','Helvetica Neue','Helvetica',sans-serif" fill="rgba(86,73,85,1)" stroke="#000000" stroke-opacity="0.000" id="img-b3d733e6-99">
    <g transform="translate(50.01,5)" id="img-b3d733e6-100">
      <g class="primitive">
        <text text-anchor="middle" dy="0.6em">All functions, D: 3</text>
      </g>
    </g>
  </g>
</g>
<defs>
  <clipPath id="img-b3d733e6-37">
    <path d="M18.63,10.61 L 81.38 10.61 81.38 80.72 18.63 80.72" />
  </clipPath>
</defs>
</svg>
