<?xml version="1.0" encoding="UTF-8"?>
<svg xmlns="http://www.w3.org/2000/svg"
     xmlns:xlink="http://www.w3.org/1999/xlink"
     xmlns:gadfly="http://www.gadflyjl.org/ns"
     version="1.2"
     width="200mm" height="120mm" viewBox="0 0 200 120"
     stroke="none"
     fill="#000000"
     stroke-width="0.3"
     font-size="3.88"
>
<g class="plotroot xscalable yscalable" id="img-88d19c04-1">
  <g font-size="3.88" font-family="'PT Sans','Helvetica Neue','Helvetica',sans-serif" fill="#564A55" stroke="#000000" stroke-opacity="0.000" id="img-88d19c04-2">
    <text x="79.96" y="108.39" text-anchor="middle" dy="0.6em">Run Length / D</text>
  </g>
  <g class="guide xlabels" font-size="2.82" font-family="'PT Sans Caption','Helvetica Neue','Helvetica',sans-serif" fill="#6C606B" id="img-88d19c04-3">
    <text x="22.31" y="101.72" text-anchor="middle" dy="0.6em">0</text>
    <text x="51.13" y="101.72" text-anchor="middle" dy="0.6em">500</text>
    <text x="79.96" y="101.72" text-anchor="middle" dy="0.6em">1000</text>
    <text x="108.79" y="101.72" text-anchor="middle" dy="0.6em">1500</text>
    <text x="137.62" y="101.72" text-anchor="middle" dy="0.6em">2000</text>
  </g>
  <g class="guide colorkey" id="img-88d19c04-4">
    <g fill="#4C404B" font-size="2.82" font-family="'PT Sans','Helvetica Neue','Helvetica',sans-serif" id="img-88d19c04-5">
      <text x="143.43" y="44.78" dy="0.35em">R-Optim.NelderMead</text>
      <text x="143.43" y="48.41" dy="0.35em">CMAESoptim</text>
      <text x="143.43" y="52.04" dy="0.35em">Optim.NelderMead</text>
      <text x="143.43" y="55.66" dy="0.35em">BBO.adaptive_de_rand_1_bin_radiuslimited</text>
      <text x="143.43" y="59.29" dy="0.35em">BBO.adaptive_de_rand_1_bin</text>
      <text x="143.43" y="62.92" dy="0.35em">BBO.xnes</text>
      <text x="143.43" y="66.54" dy="0.35em">BBO.generating_set_search</text>
      <text x="143.43" y="70.17" dy="0.35em">BBO.de_rand_2_bin</text>
    </g>
    <g stroke="#000000" stroke-opacity="0.000" id="img-88d19c04-6">
      <rect x="140.62" y="43.88" width="1.81" height="1.81" fill="#FF0000"/>
      <rect x="140.62" y="47.5" width="1.81" height="1.81" fill="#00F75A"/>
      <rect x="140.62" y="51.13" width="1.81" height="1.81" fill="#003800"/>
      <rect x="140.62" y="54.76" width="1.81" height="1.81" fill="#00AEFF"/>
      <rect x="140.62" y="58.38" width="1.81" height="1.81" fill="#29003B"/>
      <rect x="140.62" y="62.01" width="1.81" height="1.81" fill="#FFB6FF"/>
      <rect x="140.62" y="65.64" width="1.81" height="1.81" fill="#FFBC00"/>
      <rect x="140.62" y="69.26" width="1.81" height="1.81" fill="#542900"/>
    </g>
    <g fill="#362A35" font-size="3.88" font-family="'PT Sans','Helvetica Neue','Helvetica',sans-serif" stroke="#000000" stroke-opacity="0.000" id="img-88d19c04-7">
      <text x="140.62" y="40.96"></text>
    </g>
  </g>
<g clip-path="url(#img-88d19c04-8)">
  <g id="img-88d19c04-9">
    <g pointer-events="visible" opacity="1" fill="#000000" fill-opacity="0.000" stroke="#000000" stroke-opacity="0.000" class="guide background" id="img-88d19c04-10">
      <rect x="20.31" y="10.61" width="119.32" height="90.1"/>
    </g>
    <g class="guide ygridlines xfixed" stroke-dasharray="0.5,0.5" stroke-width="0.2" stroke="#D0D0E0" id="img-88d19c04-11">
      <path fill="none" d="M20.31,98.72 L 139.62 98.72"/>
      <path fill="none" d="M20.31,77.19 L 139.62 77.19"/>
      <path fill="none" d="M20.31,55.66 L 139.62 55.66"/>
      <path fill="none" d="M20.31,34.14 L 139.62 34.14"/>
      <path fill="none" d="M20.31,12.61 L 139.62 12.61"/>
    </g>
    <g class="guide xgridlines yfixed" stroke-dasharray="0.5,0.5" stroke-width="0.2" stroke="#D0D0E0" id="img-88d19c04-12">
      <path fill="none" d="M22.31,10.61 L 22.31 100.72"/>
      <path fill="none" d="M51.13,10.61 L 51.13 100.72"/>
      <path fill="none" d="M79.96,10.61 L 79.96 100.72"/>
      <path fill="none" d="M108.79,10.61 L 108.79 100.72"/>
      <path fill="none" d="M137.62,10.61 L 137.62 100.72"/>
    </g>
    <g class="plotpanel" id="img-88d19c04-13">
      <g stroke-width="0.3" fill="#000000" fill-opacity="0.000" class="geometry" stroke-dasharray="none" stroke="#542900" id="img-88d19c04-14">
        <path fill="none" d="M22.34,98.72 L 28.41 98.72 34.48 98.72 40.55 98.72 46.61 98.72 52.68 98.72 58.75 98.72 64.81 98.72 70.88 98.72 76.95 98.72 83.01 98.72 89.08 98.72 95.15 98.72 101.22 98.72 107.28 98.72 113.35 98.72 119.42 98.72 125.49 98.72 131.55 98.72 137.62 98.72"/>
      </g>
      <g stroke-width="0.3" fill="#000000" fill-opacity="0.000" class="geometry" stroke-dasharray="none" stroke="#FFBC00" id="img-88d19c04-15">
        <path fill="none" d="M22.34,98.72 L 28.41 77.19 34.48 77.19 40.55 77.19 46.61 77.19 52.68 77.19 58.75 75.75 64.81 55.66 70.88 54.23 76.95 47.05 83.01 28.4 89.08 29.83 95.15 25.53 101.22 31.27 107.28 25.53 113.35 25.53 119.42 25.53 125.49 29.83 131.55 28.4 137.62 26.96"/>
      </g>
      <g stroke-width="0.3" fill="#000000" fill-opacity="0.000" class="geometry" stroke-dasharray="none" stroke="#FFB6FF" id="img-88d19c04-16">
        <path fill="none" d="M22.34,98.72 L 28.41 98.72 34.48 81.49 40.55 78.62 46.61 81.49 52.68 77.19 58.75 77.19 64.81 77.19 70.88 80.06 76.95 77.19 83.01 78.62 89.08 78.62 95.15 78.62 101.22 80.06 107.28 72.88 113.35 55.66 119.42 55.66 125.49 57.1 131.55 57.1 137.62 55.66"/>
      </g>
      <g stroke-width="0.3" fill="#000000" fill-opacity="0.000" class="geometry" stroke-dasharray="none" stroke="#29003B" id="img-88d19c04-17">
        <path fill="none" d="M22.34,98.72 L 28.41 98.72 34.48 98.72 40.55 98.72 46.61 98.72 52.68 98.72 58.75 98.72 64.81 98.72 70.88 98.72 76.95 98.72 83.01 98.72 89.08 98.72 95.15 98.72 101.22 98.72 107.28 98.72 113.35 98.72 119.42 84.36 125.49 74.32 131.55 68.58 137.62 49.92"/>
      </g>
      <g stroke-width="0.3" fill="#000000" fill-opacity="0.000" class="geometry" stroke-dasharray="none" stroke="#00AEFF" id="img-88d19c04-18">
        <path fill="none" d="M22.34,98.72 L 28.41 98.72 34.48 98.72 40.55 98.72 46.61 98.72 52.68 98.72 58.75 98.72 64.81 98.72 70.88 98.72 76.95 98.72 83.01 95.84 89.08 77.19 95.15 75.75 101.22 77.19 107.28 75.75 113.35 52.79 119.42 39.88 125.49 34.14 131.55 34.14 137.62 34.14"/>
      </g>
      <g stroke-width="0.3" fill="#000000" fill-opacity="0.000" class="geometry" stroke-dasharray="none" stroke="#003800" id="img-88d19c04-19">
        <path fill="none" d="M22.34,98.72 L 28.41 98.72 34.48 98.72 40.55 98.72 46.61 98.72 52.68 98.72 58.75 98.72 64.81 98.72 70.88 98.72 76.95 98.72 83.01 97.28 89.08 98.72 95.15 98.72 101.22 98.72 107.28 98.72 113.35 98.72 119.42 98.72 125.49 98.72 131.55 98.72 137.62 98.72"/>
      </g>
      <g stroke-width="0.3" fill="#000000" fill-opacity="0.000" class="geometry" stroke-dasharray="none" stroke="#00F75A" id="img-88d19c04-20">
        <path fill="none" d="M22.34,91.54 L 28.41 21.22 34.48 22.66 40.55 15.48 46.61 24.09 52.68 18.35 58.75 19.79 64.81 22.66 70.88 21.22 76.95 15.48 83.01 18.35 89.08 18.35 95.15 21.22 101.22 24.09 107.28 18.35 113.35 19.79 119.42 22.66 125.49 19.79 131.55 19.79 137.62 22.66"/>
      </g>
      <g stroke-width="0.3" fill="#000000" fill-opacity="0.000" class="geometry" stroke-dasharray="none" stroke="#FF0000" id="img-88d19c04-21">
        <path fill="none" d="M22.34,98.72 L 28.41 98.72 34.48 98.72 40.55 98.72 46.61 98.72 52.68 98.72 58.75 98.72 64.81 98.72 70.88 97.28 76.95 95.84 83.01 98.72 89.08 97.28 95.15 95.84 101.22 97.28 107.28 97.28 113.35 98.72 119.42 94.41 125.49 98.72 131.55 98.72 137.62 97.28"/>
      </g>
    </g>
  </g>
</g>
  <g class="guide ylabels" font-size="2.82" font-family="'PT Sans Caption','Helvetica Neue','Helvetica',sans-serif" fill="#6C606B" id="img-88d19c04-22">
    <text x="19.3" y="98.72" text-anchor="end" dy="0.35em">0.00</text>
    <text x="19.3" y="77.19" text-anchor="end" dy="0.35em">0.05</text>
    <text x="19.3" y="55.66" text-anchor="end" dy="0.35em">0.10</text>
    <text x="19.3" y="34.14" text-anchor="end" dy="0.35em">0.15</text>
    <text x="19.3" y="12.61" text-anchor="end" dy="0.35em">0.20</text>
  </g>
  <g font-size="3.88" font-family="'PT Sans','Helvetica Neue','Helvetica',sans-serif" fill="#564A55" stroke="#000000" stroke-opacity="0.000" id="img-88d19c04-23">
    <text x="8.81" y="53.66" text-anchor="middle" dy="0.35em" transform="rotate(-90, 8.81, 55.66)">Success rate</text>
  </g>
  <g font-size="3.88" font-family="'PT Sans','Helvetica Neue','Helvetica',sans-serif" fill="#564A55" stroke="#000000" stroke-opacity="0.000" id="img-88d19c04-24">
    <text x="79.96" y="5" text-anchor="middle" dy="0.6em">All functions</text>
  </g>
</g>
<defs>
  <clipPath id="img-88d19c04-8">
  <path d="M20.31,10.61 L 139.62 10.61 139.62 100.72 20.31 100.72" />
</clipPath>
</defs>
</svg>
