<?xml version="1.0" encoding="UTF-8"?>
<svg xmlns="http://www.w3.org/2000/svg"
     xmlns:xlink="http://www.w3.org/1999/xlink"
     xmlns:gadfly="http://www.gadflyjl.org/ns"
     version="1.2"
     width="200mm" height="120mm" viewBox="0 0 200 120"
     stroke="none"
     fill="#000000"
     stroke-width="0.3"
     font-size="3.88"
>
<g class="plotroot xscalable yscalable" id="img-1ffe0f85-1">
  <g font-size="3.88" font-family="'PT Sans','Helvetica Neue','Helvetica',sans-serif" fill="#564A55" stroke="#000000" stroke-opacity="0.000" id="img-1ffe0f85-2">
    <text x="79.13" y="108.39" text-anchor="middle" dy="0.6em">Run Length / D</text>
  </g>
  <g class="guide xlabels" font-size="2.82" font-family="'PT Sans Caption','Helvetica Neue','Helvetica',sans-serif" fill="#6C606B" id="img-1ffe0f85-3">
    <text x="20.63" y="101.72" text-anchor="middle" dy="0.6em">0</text>
    <text x="59.63" y="101.72" text-anchor="middle" dy="0.6em">5.0×10³</text>
    <text x="98.62" y="101.72" text-anchor="middle" dy="0.6em">1.0×10⁴</text>
    <text x="137.62" y="101.72" text-anchor="middle" dy="0.6em">1.5×10⁴</text>
  </g>
  <g class="guide colorkey" id="img-1ffe0f85-4">
    <g fill="#4C404B" font-size="2.82" font-family="'PT Sans','Helvetica Neue','Helvetica',sans-serif" id="img-1ffe0f85-5">
      <text x="143.43" y="44.78" dy="0.35em">R-Optim.NelderMead</text>
      <text x="143.43" y="48.41" dy="0.35em">CMAESoptim</text>
      <text x="143.43" y="52.04" dy="0.35em">Optim.NelderMead</text>
      <text x="143.43" y="55.66" dy="0.35em">BBO.adaptive_de_rand_1_bin_radiuslimited</text>
      <text x="143.43" y="59.29" dy="0.35em">BBO.adaptive_de_rand_1_bin</text>
      <text x="143.43" y="62.92" dy="0.35em">BBO.xnes</text>
      <text x="143.43" y="66.54" dy="0.35em">BBO.generating_set_search</text>
      <text x="143.43" y="70.17" dy="0.35em">BBO.de_rand_2_bin</text>
    </g>
    <g stroke="#000000" stroke-opacity="0.000" id="img-1ffe0f85-6">
      <rect x="140.62" y="43.88" width="1.81" height="1.81" fill="#FF0000"/>
      <rect x="140.62" y="47.5" width="1.81" height="1.81" fill="#00F75A"/>
      <rect x="140.62" y="51.13" width="1.81" height="1.81" fill="#003800"/>
      <rect x="140.62" y="54.76" width="1.81" height="1.81" fill="#00AEFF"/>
      <rect x="140.62" y="58.38" width="1.81" height="1.81" fill="#29003B"/>
      <rect x="140.62" y="62.01" width="1.81" height="1.81" fill="#FFB6FF"/>
      <rect x="140.62" y="65.64" width="1.81" height="1.81" fill="#FFBC00"/>
      <rect x="140.62" y="69.26" width="1.81" height="1.81" fill="#542900"/>
    </g>
    <g fill="#362A35" font-size="3.88" font-family="'PT Sans','Helvetica Neue','Helvetica',sans-serif" stroke="#000000" stroke-opacity="0.000" id="img-1ffe0f85-7">
      <text x="140.62" y="40.96"></text>
    </g>
  </g>
<g clip-path="url(#img-1ffe0f85-8)">
  <g id="img-1ffe0f85-9">
    <g pointer-events="visible" opacity="1" fill="#000000" fill-opacity="0.000" stroke="#000000" stroke-opacity="0.000" class="guide background" id="img-1ffe0f85-10">
      <rect x="18.63" y="10.61" width="120.99" height="90.1"/>
    </g>
    <g class="guide ygridlines xfixed" stroke-dasharray="0.5,0.5" stroke-width="0.2" stroke="#D0D0E0" id="img-1ffe0f85-11">
      <path fill="none" d="M18.63,98.72 L 139.62 98.72"/>
      <path fill="none" d="M18.63,55.66 L 139.62 55.66"/>
      <path fill="none" d="M18.63,12.61 L 139.62 12.61"/>
    </g>
    <g class="guide xgridlines yfixed" stroke-dasharray="0.5,0.5" stroke-width="0.2" stroke="#D0D0E0" id="img-1ffe0f85-12">
      <path fill="none" d="M20.63,10.61 L 20.63 100.72"/>
      <path fill="none" d="M59.63,10.61 L 59.63 100.72"/>
      <path fill="none" d="M98.62,10.61 L 98.62 100.72"/>
      <path fill="none" d="M137.62,10.61 L 137.62 100.72"/>
    </g>
    <g class="plotpanel" id="img-1ffe0f85-13">
      <g stroke-width="0.3" fill="#000000" fill-opacity="0.000" class="geometry" stroke-dasharray="none" stroke="#542900" id="img-1ffe0f85-14">
        <path fill="none" d="M20.66,98.72 L 25.59 98.72 30.51 98.72 35.44 85.23 40.36 81.49 45.28 77.19 50.21 73.75 55.13 68.87 60.06 66 64.98 57.96 69.9 56.24 74.83 55.66 79.75 54.52 84.68 51.07 89.6 47.34 94.53 43.32 99.45 42.75 104.37 41.03 109.3 39.88 114.22 39.02"/>
      </g>
      <g stroke-width="0.3" fill="#000000" fill-opacity="0.000" class="geometry" stroke-dasharray="none" stroke="#FFBC00" id="img-1ffe0f85-15">
        <path fill="none" d="M20.66,98.72 L 25.59 85.23 30.51 80.35 35.44 79.77 40.36 77.76 45.28 76.62 50.21 77.48 55.13 75.18 60.06 74.03 64.98 72.88 69.9 72.6 74.83 71.16 79.75 72.88 84.68 74.89 89.6 72.88 94.53 72.6 99.45 70.87 104.37 71.74 109.3 71.45 114.22 70.87"/>
      </g>
      <g stroke-width="0.3" fill="#000000" fill-opacity="0.000" class="geometry" stroke-dasharray="none" stroke="#FFB6FF" id="img-1ffe0f85-16">
        <path fill="none" d="M20.66,98.72 L 25.59 83.5 30.51 60.83 35.44 57.96 40.36 56.24 45.28 56.24 50.21 56.24 55.13 56.52 60.06 55.66 64.98 55.95 69.9 54.23 74.83 58.82 79.75 55.38 84.68 57.1 89.6 55.38 94.53 55.09 99.45 56.24 104.37 54.8 109.3 55.95 114.22 57.1"/>
      </g>
      <g stroke-width="0.3" fill="#000000" fill-opacity="0.000" class="geometry" stroke-dasharray="none" stroke="#29003B" id="img-1ffe0f85-17">
        <path fill="none" d="M20.66,98.72 L 25.59 98.72 30.51 90.97 35.44 78.34 40.36 67.43 45.28 51.93 50.21 41.31 55.13 38.44 60.06 37.01 64.98 30.41 69.9 26.39 74.83 24.09 79.75 24.09 84.68 22.66 89.6 19.21 94.53 20.36 99.45 18.93 104.37 19.79 109.3 19.79 114.22 19.21"/>
      </g>
      <g stroke-width="0.3" fill="#000000" fill-opacity="0.000" class="geometry" stroke-dasharray="none" stroke="#00AEFF" id="img-1ffe0f85-18">
        <path fill="none" d="M20.66,98.72 L 25.59 98.72 30.51 89.82 35.44 73.46 40.36 55.38 45.28 39.02 50.21 31.27 55.13 26.96 60.06 25.81 64.98 26.39 69.9 26.96 74.83 26.39 79.75 25.81 84.68 24.67 89.6 24.95 94.53 22.37 99.45 25.24 104.37 22.94 109.3 22.37 114.22 22.08"/>
      </g>
      <g stroke-width="0.3" fill="#000000" fill-opacity="0.000" class="geometry" stroke-dasharray="none" stroke="#003800" id="img-1ffe0f85-19">
        <path fill="none" d="M20.66,98.72 L 25.59 63.7 30.51 62.26 35.44 64.27 40.36 61.98 45.28 61.12 50.21 60.54 55.13 64.85 60.06 60.54 64.98 62.55 69.9 62.26 74.83 63.13 79.75 62.55 84.68 64.27 89.6 61.69 94.53 63.7 99.45 63.99 104.37 64.56 109.3 64.27 114.22 63.99"/>
      </g>
      <g stroke-width="0.3" fill="#000000" fill-opacity="0.000" class="geometry" stroke-dasharray="none" stroke="#00F75A" id="img-1ffe0f85-20">
        <path fill="none" d="M20.66,94.41 L 25.59 62.84 30.51 62.84 35.44 63.13 40.36 63.41 45.28 62.84 50.21 62.84 55.13 61.12 60.06 62.84 64.98 63.41 69.9 62.26 74.83 61.98 79.75 61.98 84.68 61.12 89.6 61.4 94.53 61.4 99.45 62.26 104.37 63.7 109.3 65.13 114.22 63.99"/>
      </g>
      <g stroke-width="0.3" fill="#000000" fill-opacity="0.000" class="geometry" stroke-dasharray="none" stroke="#FF0000" id="img-1ffe0f85-21">
        <path fill="none" d="M20.66,98.72 L 25.59 93.84 30.51 83.22 35.44 74.03 40.36 63.7 45.28 58.53 50.21 51.65 55.13 52.51 60.06 48.49 64.98 49.64 69.9 48.78 74.83 48.78 79.75 49.35 84.68 49.64 89.6 48.78 94.53 47.91 99.45 48.78 104.37 49.64 109.3 49.06 114.22 49.35"/>
      </g>
    </g>
  </g>
</g>
  <g class="guide ylabels" font-size="2.82" font-family="'PT Sans Caption','Helvetica Neue','Helvetica',sans-serif" fill="#6C606B" id="img-1ffe0f85-22">
    <text x="17.63" y="98.72" text-anchor="end" dy="0.35em">0.0</text>
    <text x="17.63" y="55.66" text-anchor="end" dy="0.35em">0.5</text>
    <text x="17.63" y="12.61" text-anchor="end" dy="0.35em">1.0</text>
  </g>
  <g font-size="3.88" font-family="'PT Sans','Helvetica Neue','Helvetica',sans-serif" fill="#564A55" stroke="#000000" stroke-opacity="0.000" id="img-1ffe0f85-23">
    <text x="8.81" y="53.66" text-anchor="middle" dy="0.35em" transform="rotate(-90, 8.81, 55.66)">Success rate</text>
  </g>
  <g font-size="3.88" font-family="'PT Sans','Helvetica Neue','Helvetica',sans-serif" fill="#564A55" stroke="#000000" stroke-opacity="0.000" id="img-1ffe0f85-24">
    <text x="79.13" y="5" text-anchor="middle" dy="0.6em">All functions</text>
  </g>
</g>
<defs>
  <clipPath id="img-1ffe0f85-8">
  <path d="M18.63,10.61 L 139.62 10.61 139.62 100.72 18.63 100.72" />
</clipPath>
</defs>
</svg>
