<?xml version="1.0" encoding="UTF-8"?>
<svg xmlns="http://www.w3.org/2000/svg"
     xmlns:xlink="http://www.w3.org/1999/xlink"
     xmlns:gadfly="http://www.gadflyjl.org/ns"
     version="1.2"
     width="200mm" height="120mm" viewBox="0 0 200 120"
     stroke="none"
     fill="#000000"
     stroke-width="0.3"
     font-size="3.88"
>
<g class="plotroot xscalable yscalable" id="img-d300ec1c-1">
  <g font-size="3.88" font-family="'PT Sans','Helvetica Neue','Helvetica',sans-serif" fill="#564A55" stroke="#000000" stroke-opacity="0.000" id="img-d300ec1c-2">
    <text x="81.02" y="108.39" text-anchor="middle" dy="0.6em">Run Length / D</text>
  </g>
  <g class="guide xlabels" font-size="2.82" font-family="'PT Sans Caption','Helvetica Neue','Helvetica',sans-serif" fill="#6C606B" id="img-d300ec1c-3">
    <text x="24.42" y="101.72" text-anchor="middle" dy="0.6em">0</text>
    <text x="62.15" y="101.72" text-anchor="middle" dy="0.6em">5.0×10³</text>
    <text x="99.89" y="101.72" text-anchor="middle" dy="0.6em">1.0×10⁴</text>
    <text x="137.62" y="101.72" text-anchor="middle" dy="0.6em">1.5×10⁴</text>
  </g>
  <g class="guide colorkey" id="img-d300ec1c-4">
    <g fill="#4C404B" font-size="2.82" font-family="'PT Sans','Helvetica Neue','Helvetica',sans-serif" id="img-d300ec1c-5">
      <text x="143.43" y="44.78" dy="0.35em">R-Optim.NelderMead</text>
      <text x="143.43" y="48.41" dy="0.35em">CMAESoptim</text>
      <text x="143.43" y="52.04" dy="0.35em">Optim.NelderMead</text>
      <text x="143.43" y="55.66" dy="0.35em">BBO.adaptive_de_rand_1_bin_radiuslimited</text>
      <text x="143.43" y="59.29" dy="0.35em">BBO.adaptive_de_rand_1_bin</text>
      <text x="143.43" y="62.92" dy="0.35em">BBO.xnes</text>
      <text x="143.43" y="66.54" dy="0.35em">BBO.generating_set_search</text>
      <text x="143.43" y="70.17" dy="0.35em">BBO.de_rand_2_bin</text>
    </g>
    <g stroke="#000000" stroke-opacity="0.000" id="img-d300ec1c-6">
      <rect x="140.62" y="43.88" width="1.81" height="1.81" fill="#FF0000"/>
      <rect x="140.62" y="47.5" width="1.81" height="1.81" fill="#00F75A"/>
      <rect x="140.62" y="51.13" width="1.81" height="1.81" fill="#003800"/>
      <rect x="140.62" y="54.76" width="1.81" height="1.81" fill="#00AEFF"/>
      <rect x="140.62" y="58.38" width="1.81" height="1.81" fill="#29003B"/>
      <rect x="140.62" y="62.01" width="1.81" height="1.81" fill="#FFB6FF"/>
      <rect x="140.62" y="65.64" width="1.81" height="1.81" fill="#FFBC00"/>
      <rect x="140.62" y="69.26" width="1.81" height="1.81" fill="#542900"/>
    </g>
    <g fill="#362A35" font-size="3.88" font-family="'PT Sans','Helvetica Neue','Helvetica',sans-serif" stroke="#000000" stroke-opacity="0.000" id="img-d300ec1c-7">
      <text x="140.62" y="40.96"></text>
    </g>
  </g>
<g clip-path="url(#img-d300ec1c-8)">
  <g id="img-d300ec1c-9">
    <g pointer-events="visible" opacity="1" fill="#000000" fill-opacity="0.000" stroke="#000000" stroke-opacity="0.000" class="guide background" id="img-d300ec1c-10">
      <rect x="22.42" y="10.61" width="117.2" height="90.1"/>
    </g>
    <g class="guide ygridlines xfixed" stroke-dasharray="0.5,0.5" stroke-width="0.2" stroke="#D0D0E0" id="img-d300ec1c-11">
      <path fill="none" d="M22.42,98.72 L 139.62 98.72"/>
      <path fill="none" d="M22.42,77.19 L 139.62 77.19"/>
      <path fill="none" d="M22.42,55.66 L 139.62 55.66"/>
      <path fill="none" d="M22.42,34.14 L 139.62 34.14"/>
      <path fill="none" d="M22.42,12.61 L 139.62 12.61"/>
    </g>
    <g class="guide xgridlines yfixed" stroke-dasharray="0.5,0.5" stroke-width="0.2" stroke="#D0D0E0" id="img-d300ec1c-12">
      <path fill="none" d="M24.42,10.61 L 24.42 100.72"/>
      <path fill="none" d="M62.15,10.61 L 62.15 100.72"/>
      <path fill="none" d="M99.89,10.61 L 99.89 100.72"/>
      <path fill="none" d="M137.62,10.61 L 137.62 100.72"/>
    </g>
    <g class="plotpanel" id="img-d300ec1c-13">
      <g class="xfixed" id="img-d300ec1c-14">
        <g stroke-dasharray="none" stroke-width="0.3" stroke="#808080" id="img-d300ec1c-15">
          <path fill="none" d="M22.42,59.97 L 139.62 59.97"/>
        </g>
      </g>
      <g stroke-width="0.3" fill="#000000" fill-opacity="0.000" class="geometry" stroke-dasharray="none" stroke="#542900" id="img-d300ec1c-16">
        <path fill="none" d="M24.45,22.4 L 29.21 32.8 33.98 37.07 38.74 41.24 43.51 46.08 48.27 50.35 53.04 53.74 57.8 55.69 62.57 57.27 67.33 59.48 72.1 61.41 76.86 63.1 81.63 64.78 86.39 66.07 91.16 67.9 95.92 70.17 100.68 72.03 105.45 74.49 110.21 76.99 114.98 78.78"/>
      </g>
      <g stroke-width="0.3" fill="#000000" fill-opacity="0.000" class="geometry" stroke-dasharray="none" stroke="#FFBC00" id="img-d300ec1c-17">
        <path fill="none" d="M24.45,22.92 L 29.21 42.48 33.98 44.47 38.74 46.06 43.51 45.79 48.27 46.65 53.04 46.64 57.8 46.9 62.57 46.86 67.33 48.7 72.1 47.15 76.86 47.41 81.63 47.29 86.39 47.13 91.16 47.38 95.92 47.53 100.68 47.66 105.45 47.75 110.21 48.02 114.98 47.84"/>
      </g>
      <g stroke-width="0.3" fill="#000000" fill-opacity="0.000" class="geometry" stroke-dasharray="none" stroke="#FFB6FF" id="img-d300ec1c-18">
        <path fill="none" d="M24.45,19.95 L 29.21 43.38 33.98 54.46 38.74 54.63 43.51 55.84 48.27 60.24 53.04 59.84 57.8 56.92 62.57 60.24 67.33 62.91 72.1 65.89 76.86 53.14 81.63 59.96 86.39 60.34 91.16 63.12 95.92 62.19 100.68 57.02 105.45 63.55 110.21 63.23 114.98 59.83"/>
      </g>
      <g stroke-width="0.3" fill="#000000" fill-opacity="0.000" class="geometry" stroke-dasharray="none" stroke="#29003B" id="img-d300ec1c-19">
        <path fill="none" d="M24.45,22.5 L 29.21 34.16 33.98 40.18 38.74 47.75 43.51 55.74 48.27 63.65 53.04 68.37 57.8 73.86 62.57 77.56 67.33 80.56 72.1 83.87 76.86 85.79 81.63 86.5 86.39 87.75 91.16 90.43 95.92 90.09 100.68 91.52 105.45 91.5 110.21 92.83 114.98 94.34"/>
      </g>
      <g stroke-width="0.3" fill="#000000" fill-opacity="0.000" class="geometry" stroke-dasharray="none" stroke="#00AEFF" id="img-d300ec1c-20">
        <path fill="none" d="M24.45,21.87 L 29.21 34.96 33.98 42.89 38.74 51.41 43.51 59.81 48.27 67.85 53.04 73.67 57.8 75.74 62.57 79.36 67.33 82.21 72.1 82.09 76.86 84.45 81.63 85.34 86.39 88.46 91.16 86.27 95.92 89.66 100.68 86.24 105.45 83.57 110.21 86.93 114.98 86.57"/>
      </g>
      <g stroke-width="0.3" fill="#000000" fill-opacity="0.000" class="geometry" stroke-dasharray="none" stroke="#003800" id="img-d300ec1c-21">
        <path fill="none" d="M24.45,20.67 L 29.21 44.79 33.98 45.13 38.74 44.99 43.51 45.37 48.27 44.96 53.04 47.95 57.8 44.63 62.57 45.6 67.33 44.96 72.1 45.4 76.86 44.99 81.63 45.86 86.39 45.12 91.16 45.58 95.92 45.92 100.68 47.73 105.45 44.88 110.21 45.7 114.98 45.7"/>
      </g>
      <g stroke-width="0.3" fill="#000000" fill-opacity="0.000" class="geometry" stroke-dasharray="none" stroke="#00F75A" id="img-d300ec1c-22">
        <path fill="none" d="M24.45,27.77 L 29.21 46.87 33.98 47.77 38.74 47.64 43.51 47.85 48.27 47.68 53.04 49.72 57.8 49.29 62.57 47.21 67.33 47.11 72.1 49.21 76.86 47.41 81.63 49.73 86.39 49.29 91.16 47.99 95.92 47.31 100.68 47.98 105.45 47.57 110.21 47.23 114.98 47.71"/>
      </g>
      <g stroke-width="0.3" fill="#000000" fill-opacity="0.000" class="geometry" stroke-dasharray="none" stroke="#FF0000" id="img-d300ec1c-23">
        <path fill="none" d="M24.45,23.57 L 29.21 38.13 33.98 43.37 38.74 47.83 43.51 53.22 48.27 56.27 53.04 58.19 57.8 59.56 62.57 62.82 67.33 62.72 72.1 62.88 76.86 63.86 81.63 63.56 86.39 63.55 91.16 63.2 95.92 63.77 100.68 63.49 105.45 63.55 110.21 63.87 114.98 63.73"/>
      </g>
    </g>
  </g>
</g>
  <g class="guide ylabels" font-size="2.82" font-family="'PT Sans Caption','Helvetica Neue','Helvetica',sans-serif" fill="#6C606B" id="img-d300ec1c-24">
    <text x="21.42" y="98.72" text-anchor="end" dy="0.35em">10<tspan style="dominant-baseline:inherit" dy="-0.6em" font-size="83%">-15</tspan><tspan dy="0.498000em"></tspan></text>
    <text x="21.42" y="77.19" text-anchor="end" dy="0.35em">10<tspan style="dominant-baseline:inherit" dy="-0.6em" font-size="83%">-10</tspan><tspan dy="0.498000em"></tspan></text>
    <text x="21.42" y="55.66" text-anchor="end" dy="0.35em">10<tspan style="dominant-baseline:inherit" dy="-0.6em" font-size="83%">-5</tspan><tspan dy="0.498000em"></tspan></text>
    <text x="21.42" y="34.14" text-anchor="end" dy="0.35em">10<tspan style="dominant-baseline:inherit" dy="-0.6em" font-size="83%">0</tspan><tspan dy="0.498000em"></tspan></text>
    <text x="21.42" y="12.61" text-anchor="end" dy="0.35em">10<tspan style="dominant-baseline:inherit" dy="-0.6em" font-size="83%">5</tspan><tspan dy="0.498000em"></tspan></text>
  </g>
  <g font-size="3.88" font-family="'PT Sans','Helvetica Neue','Helvetica',sans-serif" fill="#564A55" stroke="#000000" stroke-opacity="0.000" id="img-d300ec1c-25">
    <text x="8.81" y="53.66" text-anchor="middle" dy="0.35em" transform="rotate(-90, 8.81, 55.66)">fmin</text>
  </g>
  <g font-size="3.88" font-family="'PT Sans','Helvetica Neue','Helvetica',sans-serif" fill="#564A55" stroke="#000000" stroke-opacity="0.000" id="img-d300ec1c-26">
    <text x="81.02" y="5" text-anchor="middle" dy="0.6em">All functions</text>
  </g>
</g>
<defs>
  <clipPath id="img-d300ec1c-8">
  <path d="M22.42,10.61 L 139.62 10.61 139.62 100.72 22.42 100.72" />
</clipPath>
</defs>
</svg>
