<?xml version="1.0" encoding="UTF-8"?>
<svg xmlns="http://www.w3.org/2000/svg"
     xmlns:xlink="http://www.w3.org/1999/xlink"
     xmlns:gadfly="http://www.gadflyjl.org/ns"
     version="1.2"
     width="200mm" height="120mm" viewBox="0 0 200 120"
     stroke="none"
     fill="#000000"
     stroke-width="0.3"
     font-size="3.88"
>
<g class="plotroot xscalable yscalable" id="img-52b5a00e-1">
  <g font-size="3.88" font-family="'PT Sans','Helvetica Neue','Helvetica',sans-serif" fill="#564A55" stroke="#000000" stroke-opacity="0.000" id="img-52b5a00e-2">
    <text x="81.02" y="108.39" text-anchor="middle" dy="0.6em">Run Length / D</text>
  </g>
  <g class="guide xlabels" font-size="2.82" font-family="'PT Sans Caption','Helvetica Neue','Helvetica',sans-serif" fill="#6C606B" id="img-52b5a00e-3">
    <text x="24.42" y="101.72" text-anchor="middle" dy="0.6em">0</text>
    <text x="52.72" y="101.72" text-anchor="middle" dy="0.6em">500</text>
    <text x="81.02" y="101.72" text-anchor="middle" dy="0.6em">1000</text>
    <text x="109.32" y="101.72" text-anchor="middle" dy="0.6em">1500</text>
    <text x="137.62" y="101.72" text-anchor="middle" dy="0.6em">2000</text>
  </g>
  <g class="guide colorkey" id="img-52b5a00e-4">
    <g fill="#4C404B" font-size="2.82" font-family="'PT Sans','Helvetica Neue','Helvetica',sans-serif" id="img-52b5a00e-5">
      <text x="143.43" y="44.78" dy="0.35em">R-Optim.NelderMead</text>
      <text x="143.43" y="48.41" dy="0.35em">CMAESoptim</text>
      <text x="143.43" y="52.04" dy="0.35em">Optim.NelderMead</text>
      <text x="143.43" y="55.66" dy="0.35em">BBO.adaptive_de_rand_1_bin_radiuslimited</text>
      <text x="143.43" y="59.29" dy="0.35em">BBO.adaptive_de_rand_1_bin</text>
      <text x="143.43" y="62.92" dy="0.35em">BBO.xnes</text>
      <text x="143.43" y="66.54" dy="0.35em">BBO.generating_set_search</text>
      <text x="143.43" y="70.17" dy="0.35em">BBO.de_rand_2_bin</text>
    </g>
    <g stroke="#000000" stroke-opacity="0.000" id="img-52b5a00e-6">
      <rect x="140.62" y="43.88" width="1.81" height="1.81" fill="#FF0000"/>
      <rect x="140.62" y="47.5" width="1.81" height="1.81" fill="#00F75A"/>
      <rect x="140.62" y="51.13" width="1.81" height="1.81" fill="#003800"/>
      <rect x="140.62" y="54.76" width="1.81" height="1.81" fill="#00AEFF"/>
      <rect x="140.62" y="58.38" width="1.81" height="1.81" fill="#29003B"/>
      <rect x="140.62" y="62.01" width="1.81" height="1.81" fill="#FFB6FF"/>
      <rect x="140.62" y="65.64" width="1.81" height="1.81" fill="#FFBC00"/>
      <rect x="140.62" y="69.26" width="1.81" height="1.81" fill="#542900"/>
    </g>
    <g fill="#362A35" font-size="3.88" font-family="'PT Sans','Helvetica Neue','Helvetica',sans-serif" stroke="#000000" stroke-opacity="0.000" id="img-52b5a00e-7">
      <text x="140.62" y="40.96"></text>
    </g>
  </g>
<g clip-path="url(#img-52b5a00e-8)">
  <g id="img-52b5a00e-9">
    <g pointer-events="visible" opacity="1" fill="#000000" fill-opacity="0.000" stroke="#000000" stroke-opacity="0.000" class="guide background" id="img-52b5a00e-10">
      <rect x="22.42" y="10.61" width="117.2" height="90.1"/>
    </g>
    <g class="guide ygridlines xfixed" stroke-dasharray="0.5,0.5" stroke-width="0.2" stroke="#D0D0E0" id="img-52b5a00e-11">
      <path fill="none" d="M22.42,98.72 L 139.62 98.72"/>
      <path fill="none" d="M22.42,70.01 L 139.62 70.01"/>
      <path fill="none" d="M22.42,41.31 L 139.62 41.31"/>
      <path fill="none" d="M22.42,12.61 L 139.62 12.61"/>
    </g>
    <g class="guide xgridlines yfixed" stroke-dasharray="0.5,0.5" stroke-width="0.2" stroke="#D0D0E0" id="img-52b5a00e-12">
      <path fill="none" d="M24.42,10.61 L 24.42 100.72"/>
      <path fill="none" d="M52.72,10.61 L 52.72 100.72"/>
      <path fill="none" d="M81.02,10.61 L 81.02 100.72"/>
      <path fill="none" d="M109.32,10.61 L 109.32 100.72"/>
      <path fill="none" d="M137.62,10.61 L 137.62 100.72"/>
    </g>
    <g class="plotpanel" id="img-52b5a00e-13">
      <g class="xfixed" id="img-52b5a00e-14">
        <g stroke-dasharray="none" stroke-width="0.3" stroke="#808080" id="img-52b5a00e-15">
          <path fill="none" d="M22.42,75.75 L 139.62 75.75"/>
        </g>
      </g>
      <g stroke-width="0.3" fill="#000000" fill-opacity="0.000" class="geometry" stroke-dasharray="none" stroke="#542900" id="img-52b5a00e-16">
        <path fill="none" d="M24.46,19.07 L 30.41 24.66 36.37 25.71 42.32 26.48 48.28 27.01 54.24 27.46 60.19 27.88 66.15 28.22 72.1 28.55 78.06 28.86 84.02 29.23 89.97 29.46 95.93 29.67 101.88 29.93 107.84 30.21 113.8 30.5 119.75 30.6 125.71 30.83 131.66 31.11 137.62 31.34"/>
      </g>
      <g stroke-width="0.3" fill="#000000" fill-opacity="0.000" class="geometry" stroke-dasharray="none" stroke="#FFBC00" id="img-52b5a00e-17">
        <path fill="none" d="M24.46,17.48 L 30.41 35.43 36.37 36.75 42.32 37.42 48.28 37.98 54.24 38.86 60.19 40.04 66.15 41.6 72.1 42.8 78.06 43.92 84.02 45.37 89.97 46.26 95.93 47.02 101.88 47.61 107.84 47.54 113.8 48.13 119.75 47.88 125.71 47.94 131.66 47.91 137.62 48.13"/>
      </g>
      <g stroke-width="0.3" fill="#000000" fill-opacity="0.000" class="geometry" stroke-dasharray="none" stroke="#FFB6FF" id="img-52b5a00e-18">
        <path fill="none" d="M24.46,17.72 L 30.41 28.77 36.37 30.11 42.32 31.18 48.28 32.1 54.24 37.6 60.19 38.52 66.15 39.34 72.1 35.63 78.06 40.97 84.02 37.26 89.97 37.98 95.93 38.81 101.88 39.55 107.84 40.52 113.8 47.15 119.75 48.23 125.71 44.79 131.66 45.8 137.62 51.21"/>
      </g>
      <g stroke-width="0.3" fill="#000000" fill-opacity="0.000" class="geometry" stroke-dasharray="none" stroke="#29003B" id="img-52b5a00e-19">
        <path fill="none" d="M24.46,19.01 L 30.41 25.61 36.37 28.11 42.32 30.08 48.28 31.48 54.24 32.75 60.19 34.06 66.15 35.18 72.1 36.32 78.06 37.45 84.02 38.35 89.97 39.3 95.93 40.27 101.88 41.14 107.84 42.04 113.8 42.93 119.75 43.78 125.71 44.51 131.66 45.35 137.62 46.07"/>
      </g>
      <g stroke-width="0.3" fill="#000000" fill-opacity="0.000" class="geometry" stroke-dasharray="none" stroke="#00AEFF" id="img-52b5a00e-20">
        <path fill="none" d="M24.46,19.18 L 30.41 26.4 36.37 29.61 42.32 31.84 48.28 33.76 54.24 35.37 60.19 37.12 66.15 38.34 72.1 39.74 78.06 40.94 84.02 42.17 89.97 43.28 95.93 44.46 101.88 45.33 107.84 46.16 113.8 46.9 119.75 47.74 125.71 48.33 131.66 49.61 137.62 49.9"/>
      </g>
      <g stroke-width="0.3" fill="#000000" fill-opacity="0.000" class="geometry" stroke-dasharray="none" stroke="#003800" id="img-52b5a00e-21">
        <path fill="none" d="M24.46,17.07 L 30.41 24.63 36.37 24.35 42.32 24.51 48.28 24.29 54.24 24.51 60.19 24.61 66.15 24.44 72.1 24.41 78.06 24.35 84.02 24.42 89.97 24.31 95.93 24.54 101.88 24.55 107.84 24.4 113.8 24.52 119.75 24.39 125.71 24.41 131.66 24.59 137.62 24.33"/>
      </g>
      <g stroke-width="0.3" fill="#000000" fill-opacity="0.000" class="geometry" stroke-dasharray="none" stroke="#00F75A" id="img-52b5a00e-22">
        <path fill="none" d="M24.46,17.97 L 30.41 46.38 36.37 46.33 42.32 47.09 48.28 47.44 54.24 47.57 60.19 46.76 66.15 48.42 72.1 48.68 78.06 49.2 84.02 48.23 89.97 47.31 95.93 47.83 101.88 48.92 107.84 48.4 113.8 48.13 119.75 48.63 125.71 48.35 131.66 48.66 137.62 48.75"/>
      </g>
      <g stroke-width="0.3" fill="#000000" fill-opacity="0.000" class="geometry" stroke-dasharray="none" stroke="#FF0000" id="img-52b5a00e-23">
        <path fill="none" d="M24.46,19.81 L 30.41 21.22 36.37 22.69 42.32 23.75 48.28 24.65 54.24 25.4 60.19 26.2 66.15 26.82 72.1 27.57 78.06 27.71 84.02 27.73 89.97 27.71 95.93 27.7 101.88 27.74 107.84 27.71 113.8 27.77 119.75 27.74 125.71 27.77 131.66 27.76 137.62 27.83"/>
      </g>
    </g>
  </g>
</g>
  <g class="guide ylabels" font-size="2.82" font-family="'PT Sans Caption','Helvetica Neue','Helvetica',sans-serif" fill="#6C606B" id="img-52b5a00e-24">
    <text x="21.42" y="98.72" text-anchor="end" dy="0.35em">10<tspan style="dominant-baseline:inherit" dy="-0.6em" font-size="83%">-10</tspan><tspan dy="0.498000em"></tspan></text>
    <text x="21.42" y="70.01" text-anchor="end" dy="0.35em">10<tspan style="dominant-baseline:inherit" dy="-0.6em" font-size="83%">-5</tspan><tspan dy="0.498000em"></tspan></text>
    <text x="21.42" y="41.31" text-anchor="end" dy="0.35em">10<tspan style="dominant-baseline:inherit" dy="-0.6em" font-size="83%">0</tspan><tspan dy="0.498000em"></tspan></text>
    <text x="21.42" y="12.61" text-anchor="end" dy="0.35em">10<tspan style="dominant-baseline:inherit" dy="-0.6em" font-size="83%">5</tspan><tspan dy="0.498000em"></tspan></text>
  </g>
  <g font-size="3.88" font-family="'PT Sans','Helvetica Neue','Helvetica',sans-serif" fill="#564A55" stroke="#000000" stroke-opacity="0.000" id="img-52b5a00e-25">
    <text x="8.81" y="53.66" text-anchor="middle" dy="0.35em" transform="rotate(-90, 8.81, 55.66)">fmin</text>
  </g>
  <g font-size="3.88" font-family="'PT Sans','Helvetica Neue','Helvetica',sans-serif" fill="#564A55" stroke="#000000" stroke-opacity="0.000" id="img-52b5a00e-26">
    <text x="81.02" y="5" text-anchor="middle" dy="0.6em">All functions</text>
  </g>
</g>
<defs>
  <clipPath id="img-52b5a00e-8">
  <path d="M22.42,10.61 L 139.62 10.61 139.62 100.72 22.42 100.72" />
</clipPath>
</defs>
</svg>
