<?xml version="1.0" encoding="UTF-8"?>
<svg xmlns="http://www.w3.org/2000/svg"
     xmlns:xlink="http://www.w3.org/1999/xlink"
     xmlns:gadfly="http://www.gadflyjl.org/ns"
     version="1.2"
     width="200mm" height="120mm" viewBox="0 0 200 120"
     stroke="none"
     fill="#000000"
     stroke-width="0.3"
     font-size="3.88"
>
<g class="plotroot xscalable yscalable" id="img-14f12aad-1">
  <g font-size="3.88" font-family="'PT Sans','Helvetica Neue','Helvetica',sans-serif" fill="#564A55" stroke="#000000" stroke-opacity="0.000" id="img-14f12aad-2">
    <text x="81.36" y="108.39" text-anchor="middle" dy="0.6em">Run Length / D</text>
  </g>
  <g class="guide xlabels" font-size="2.82" font-family="'PT Sans Caption','Helvetica Neue','Helvetica',sans-serif" fill="#6C606B" id="img-14f12aad-3">
    <text x="25.09" y="101.72" text-anchor="middle" dy="0.6em">0</text>
    <text x="53.22" y="101.72" text-anchor="middle" dy="0.6em">500</text>
    <text x="81.36" y="101.72" text-anchor="middle" dy="0.6em">1000</text>
    <text x="109.49" y="101.72" text-anchor="middle" dy="0.6em">1500</text>
    <text x="137.62" y="101.72" text-anchor="middle" dy="0.6em">2000</text>
  </g>
  <g class="guide colorkey" id="img-14f12aad-4">
    <g fill="#4C404B" font-size="2.82" font-family="'PT Sans','Helvetica Neue','Helvetica',sans-serif" id="img-14f12aad-5">
      <text x="143.43" y="44.78" dy="0.35em">R-Optim.NelderMead</text>
      <text x="143.43" y="48.41" dy="0.35em">CMAESoptim</text>
      <text x="143.43" y="52.04" dy="0.35em">Optim.NelderMead</text>
      <text x="143.43" y="55.66" dy="0.35em">BBO.adaptive_de_rand_1_bin_radiuslimited</text>
      <text x="143.43" y="59.29" dy="0.35em">BBO.adaptive_de_rand_1_bin</text>
      <text x="143.43" y="62.92" dy="0.35em">BBO.xnes</text>
      <text x="143.43" y="66.54" dy="0.35em">BBO.generating_set_search</text>
      <text x="143.43" y="70.17" dy="0.35em">BBO.de_rand_2_bin</text>
    </g>
    <g stroke="#000000" stroke-opacity="0.000" id="img-14f12aad-6">
      <rect x="140.62" y="43.88" width="1.81" height="1.81" fill="#FF0000"/>
      <rect x="140.62" y="47.5" width="1.81" height="1.81" fill="#00F75A"/>
      <rect x="140.62" y="51.13" width="1.81" height="1.81" fill="#003800"/>
      <rect x="140.62" y="54.76" width="1.81" height="1.81" fill="#00AEFF"/>
      <rect x="140.62" y="58.38" width="1.81" height="1.81" fill="#29003B"/>
      <rect x="140.62" y="62.01" width="1.81" height="1.81" fill="#FFB6FF"/>
      <rect x="140.62" y="65.64" width="1.81" height="1.81" fill="#FFBC00"/>
      <rect x="140.62" y="69.26" width="1.81" height="1.81" fill="#542900"/>
    </g>
    <g fill="#362A35" font-size="3.88" font-family="'PT Sans','Helvetica Neue','Helvetica',sans-serif" stroke="#000000" stroke-opacity="0.000" id="img-14f12aad-7">
      <text x="140.62" y="40.96"></text>
    </g>
  </g>
<g clip-path="url(#img-14f12aad-8)">
  <g id="img-14f12aad-9">
    <g pointer-events="visible" opacity="1" fill="#000000" fill-opacity="0.000" stroke="#000000" stroke-opacity="0.000" class="guide background" id="img-14f12aad-10">
      <rect x="23.09" y="10.61" width="116.53" height="90.1"/>
    </g>
    <g class="guide ygridlines xfixed" stroke-dasharray="0.5,0.5" stroke-width="0.2" stroke="#D0D0E0" id="img-14f12aad-11">
      <path fill="none" d="M23.09,98.72 L 139.62 98.72"/>
      <path fill="none" d="M23.09,81.49 L 139.62 81.49"/>
      <path fill="none" d="M23.09,64.27 L 139.62 64.27"/>
      <path fill="none" d="M23.09,47.05 L 139.62 47.05"/>
      <path fill="none" d="M23.09,29.83 L 139.62 29.83"/>
      <path fill="none" d="M23.09,12.61 L 139.62 12.61"/>
    </g>
    <g class="guide xgridlines yfixed" stroke-dasharray="0.5,0.5" stroke-width="0.2" stroke="#D0D0E0" id="img-14f12aad-12">
      <path fill="none" d="M25.09,10.61 L 25.09 100.72"/>
      <path fill="none" d="M53.22,10.61 L 53.22 100.72"/>
      <path fill="none" d="M81.36,10.61 L 81.36 100.72"/>
      <path fill="none" d="M109.49,10.61 L 109.49 100.72"/>
      <path fill="none" d="M137.62,10.61 L 137.62 100.72"/>
    </g>
    <g class="plotpanel" id="img-14f12aad-13">
      <g stroke-width="0.3" fill="#000000" fill-opacity="0.000" class="geometry" stroke-dasharray="none" stroke="#542900" id="img-14f12aad-14">
        <path fill="none" d="M25.13,38.78 L 31.05 46.7 36.97 48.92 42.89 51.69 48.81 52.3 54.73 52.63 60.65 54.18 66.57 54.63 72.49 55.04 78.42 55.12 84.33 55.81 90.25 55.16 96.18 56.04 102.1 55.8 108.02 56.21 113.94 57.79 119.86 57.51 125.78 57.26 131.7 57.14 137.62 58.4"/>
      </g>
      <g stroke-width="0.3" fill="#000000" fill-opacity="0.000" class="geometry" stroke-dasharray="none" stroke="#FFBC00" id="img-14f12aad-15">
        <path fill="none" d="M25.13,37.77 L 31.05 56.82 36.97 56.04 42.89 57.92 48.81 58.84 54.73 58.02 60.65 57.59 66.57 57.76 72.49 59.53 78.42 59.75 84.33 58.27 90.25 59.39 96.18 60.08 102.1 58.57 108.02 58.09 113.94 60.48 119.86 60.84 125.78 61.04 131.7 57.65 137.62 61.12"/>
      </g>
      <g stroke-width="0.3" fill="#000000" fill-opacity="0.000" class="geometry" stroke-dasharray="none" stroke="#FFB6FF" id="img-14f12aad-16">
        <path fill="none" d="M25.13,37.38 L 31.05 56.39 36.97 57.05 42.89 58.3 48.81 60.46 54.73 60.54 60.65 61.79 66.57 64.01 72.49 66.88 78.42 67.92 84.33 70.06 90.25 72.88 96.18 77.91 102.1 80.3 108.02 86.87 113.94 89.28 119.86 91.7 125.78 89.61 131.7 90.65 137.62 97.79"/>
      </g>
      <g stroke-width="0.3" fill="#000000" fill-opacity="0.000" class="geometry" stroke-dasharray="none" stroke="#29003B" id="img-14f12aad-17">
        <path fill="none" d="M25.13,38.36 L 31.05 49.18 36.97 54.15 42.89 57.03 48.81 58.66 54.73 60.99 60.65 63.02 66.57 66.52 72.49 67.23 78.42 67.3 84.33 71.33 90.25 72.56 96.18 74.51 102.1 78.39 108.02 79.79 113.94 81.34 119.86 85.74 125.78 86.71 131.7 88.4 137.62 84.55"/>
      </g>
      <g stroke-width="0.3" fill="#000000" fill-opacity="0.000" class="geometry" stroke-dasharray="none" stroke="#00AEFF" id="img-14f12aad-18">
        <path fill="none" d="M25.13,38.68 L 31.05 50.65 36.97 56.37 42.89 58.4 48.81 60.26 54.73 61.67 60.65 64.42 66.57 67.11 72.49 68.26 78.42 70.84 84.33 68.21 90.25 69.82 96.18 71.28 102.1 72.34 108.02 71.75 113.94 72.44 119.86 73.47 125.78 78.43 131.7 79.24 137.62 78.64"/>
      </g>
      <g stroke-width="0.3" fill="#000000" fill-opacity="0.000" class="geometry" stroke-dasharray="none" stroke="#003800" id="img-14f12aad-19">
        <path fill="none" d="M25.13,36.63 L 31.05 39.9 36.97 39.69 42.89 40 48.81 39.33 54.73 39.59 60.65 39.7 66.57 39.3 72.49 39.41 78.42 39.56 84.33 39.96 90.25 39.15 96.18 39.59 102.1 40.11 108.02 39.68 113.94 40.1 119.86 39.82 125.78 39.7 131.7 39.61 137.62 39.22"/>
      </g>
      <g stroke-width="0.3" fill="#000000" fill-opacity="0.000" class="geometry" stroke-dasharray="none" stroke="#00F75A" id="img-14f12aad-20">
        <path fill="none" d="M25.13,28.21 L 31.05 55.89 36.97 56.14 42.89 57.19 48.81 57.35 54.73 56.85 60.65 57.47 66.57 56.88 72.49 56.41 78.42 57.16 84.33 56.56 90.25 56.85 96.18 56.81 102.1 55.67 108.02 57.09 113.94 56.04 119.86 56.46 125.78 56.92 131.7 56.48 137.62 56.75"/>
      </g>
      <g stroke-width="0.3" fill="#000000" fill-opacity="0.000" class="geometry" stroke-dasharray="none" stroke="#FF0000" id="img-14f12aad-21">
        <path fill="none" d="M25.13,38.56 L 31.05 39.75 36.97 40.86 42.89 42.1 48.81 42.38 54.73 41.9 60.65 42.7 66.57 42.6 72.49 42.82 78.42 42.42 84.33 42.66 90.25 43.07 96.18 42.67 102.1 43.21 108.02 42.56 113.94 43.06 119.86 42.79 125.78 43.51 131.7 42.49 137.62 43.24"/>
      </g>
    </g>
  </g>
</g>
  <g class="guide ylabels" font-size="2.82" font-family="'PT Sans Caption','Helvetica Neue','Helvetica',sans-serif" fill="#6C606B" id="img-14f12aad-22">
    <text x="22.09" y="98.72" text-anchor="end" dy="0.35em">10<tspan style="dominant-baseline:inherit" dy="-0.6em" font-size="83%">-0.5</tspan><tspan dy="0.498000em"></tspan></text>
    <text x="22.09" y="81.49" text-anchor="end" dy="0.35em">10<tspan style="dominant-baseline:inherit" dy="-0.6em" font-size="83%">0.0</tspan><tspan dy="0.498000em"></tspan></text>
    <text x="22.09" y="64.27" text-anchor="end" dy="0.35em">10<tspan style="dominant-baseline:inherit" dy="-0.6em" font-size="83%">0.5</tspan><tspan dy="0.498000em"></tspan></text>
    <text x="22.09" y="47.05" text-anchor="end" dy="0.35em">10<tspan style="dominant-baseline:inherit" dy="-0.6em" font-size="83%">1.0</tspan><tspan dy="0.498000em"></tspan></text>
    <text x="22.09" y="29.83" text-anchor="end" dy="0.35em">10<tspan style="dominant-baseline:inherit" dy="-0.6em" font-size="83%">1.5</tspan><tspan dy="0.498000em"></tspan></text>
    <text x="22.09" y="12.61" text-anchor="end" dy="0.35em">10<tspan style="dominant-baseline:inherit" dy="-0.6em" font-size="83%">2.0</tspan><tspan dy="0.498000em"></tspan></text>
  </g>
  <g font-size="3.88" font-family="'PT Sans','Helvetica Neue','Helvetica',sans-serif" fill="#564A55" stroke="#000000" stroke-opacity="0.000" id="img-14f12aad-23">
    <text x="8.81" y="53.66" text-anchor="middle" dy="0.35em" transform="rotate(-90, 8.81, 55.66)">Distance to xmin</text>
  </g>
  <g font-size="3.88" font-family="'PT Sans','Helvetica Neue','Helvetica',sans-serif" fill="#564A55" stroke="#000000" stroke-opacity="0.000" id="img-14f12aad-24">
    <text x="81.36" y="5" text-anchor="middle" dy="0.6em">All functions</text>
  </g>
</g>
<defs>
  <clipPath id="img-14f12aad-8">
  <path d="M23.09,10.61 L 139.62 10.61 139.62 100.72 23.09 100.72" />
</clipPath>
</defs>
</svg>
