<?xml version="1.0" encoding="UTF-8"?>
<svg xmlns="http://www.w3.org/2000/svg"
     xmlns:xlink="http://www.w3.org/1999/xlink"
     xmlns:gadfly="http://www.gadflyjl.org/ns"
     version="1.2"
     width="160mm" height="120mm" viewBox="0 0 160 120"
     stroke="none"
     fill="#000000"
     stroke-width="0.3"
     font-size="3.88"
>
<g class="plotroot xscalable yscalable" id="img-58079b78-1">
  <g font-size="3.88" font-family="'PT Sans','Helvetica Neue','Helvetica',sans-serif" fill="#564A55" stroke="#000000" stroke-opacity="0.000" id="img-58079b78-2">
    <text x="59.13" y="108.39" text-anchor="middle" dy="0.6em">Run Length / D</text>
  </g>
  <g class="guide xlabels" font-size="2.82" font-family="'PT Sans Caption','Helvetica Neue','Helvetica',sans-serif" fill="#6C606B" id="img-58079b78-3">
    <text x="20.63" y="101.71" text-anchor="middle" dy="0.6em">0</text>
    <text x="39.88" y="101.71" text-anchor="middle" dy="0.6em">2.0×10³</text>
    <text x="59.13" y="101.71" text-anchor="middle" dy="0.6em">4.0×10³</text>
    <text x="78.37" y="101.71" text-anchor="middle" dy="0.6em">6.0×10³</text>
    <text x="97.62" y="101.71" text-anchor="middle" dy="0.6em">8.0×10³</text>
  </g>
  <g class="guide colorkey" id="img-58079b78-4">
    <g fill="#4C404B" font-size="2.82" font-family="'PT Sans','Helvetica Neue','Helvetica',sans-serif" id="img-58079b78-5">
      <text x="103.43" y="37.53" dy="0.35em">R-Optim.GradientDescent</text>
      <text x="103.43" y="41.16" dy="0.35em">R-Optim.NelderMead</text>
      <text x="103.43" y="44.78" dy="0.35em">CMAESoptim</text>
      <text x="103.43" y="48.41" dy="0.35em">Optim.NelderMead</text>
      <text x="103.43" y="52.04" dy="0.35em">Optim.GradientDescent</text>
      <text x="103.43" y="55.66" dy="0.35em">BBO.adaptive_de_rand_1_bin_radiuslimited</text>
      <text x="103.43" y="59.29" dy="0.35em">BBO.adaptive_de_rand_1_bin</text>
      <text x="103.43" y="62.92" dy="0.35em">NLopt.LN_BOBYQA</text>
      <text x="103.43" y="66.54" dy="0.35em">BBO.xnes</text>
      <text x="103.43" y="70.17" dy="0.35em">BBO.generating_set_search</text>
      <text x="103.43" y="73.8" dy="0.35em">BBO.de_rand_2_bin</text>
      <text x="103.43" y="77.42" dy="0.35em">BBO.resampling_memetic_search</text>
    </g>
    <g stroke="#000000" stroke-opacity="0.000" id="img-58079b78-6">
      <rect x="100.62" y="36.62" width="1.81" height="1.81" fill="#FF0000"/>
      <rect x="100.62" y="40.25" width="1.81" height="1.81" fill="#00F75A"/>
      <rect x="100.62" y="43.88" width="1.81" height="1.81" fill="#003800"/>
      <rect x="100.62" y="47.5" width="1.81" height="1.81" fill="#00AEFF"/>
      <rect x="100.62" y="51.13" width="1.81" height="1.81" fill="#29003B"/>
      <rect x="100.62" y="54.76" width="1.81" height="1.81" fill="#FFB6FF"/>
      <rect x="100.62" y="58.38" width="1.81" height="1.81" fill="#FFBC00"/>
      <rect x="100.62" y="62.01" width="1.81" height="1.81" fill="#542900"/>
      <rect x="100.62" y="65.64" width="1.81" height="1.81" fill="#00577C"/>
      <rect x="100.62" y="69.26" width="1.81" height="1.81" fill="#838D75"/>
      <rect x="100.62" y="72.89" width="1.81" height="1.81" fill="#CE009C"/>
      <rect x="100.62" y="76.52" width="1.81" height="1.81" fill="#00FFFF"/>
    </g>
    <g fill="#362A35" font-size="3.88" font-family="'PT Sans','Helvetica Neue','Helvetica',sans-serif" stroke="#000000" stroke-opacity="0.000" id="img-58079b78-7">
      <text x="100.62" y="33.71"></text>
    </g>
  </g>
<g clip-path="url(#img-58079b78-8)">
  <g id="img-58079b78-9">
    <g pointer-events="visible" opacity="1" fill="#000000" fill-opacity="0.000" stroke="#000000" stroke-opacity="0.000" class="guide background" id="img-58079b78-10">
      <rect x="18.63" y="10.61" width="80.99" height="90.1"/>
    </g>
    <g class="guide ygridlines xfixed" stroke-dasharray="0.5,0.5" stroke-width="0.2" stroke="#D0D0E0" id="img-58079b78-11">
      <path fill="none" d="M18.63,98.72 L 99.62 98.72"/>
      <path fill="none" d="M18.63,55.66 L 99.62 55.66"/>
      <path fill="none" d="M18.63,12.61 L 99.62 12.61"/>
    </g>
    <g class="guide xgridlines yfixed" stroke-dasharray="0.5,0.5" stroke-width="0.2" stroke="#D0D0E0" id="img-58079b78-12">
      <path fill="none" d="M20.63,10.61 L 20.63 100.71"/>
      <path fill="none" d="M39.88,10.61 L 39.88 100.71"/>
      <path fill="none" d="M59.13,10.61 L 59.13 100.71"/>
      <path fill="none" d="M78.37,10.61 L 78.37 100.71"/>
      <path fill="none" d="M97.62,10.61 L 97.62 100.71"/>
    </g>
    <g class="plotpanel" id="img-58079b78-13">
      <g stroke-width="0.3" fill="#000000" fill-opacity="0.000" class="geometry" stroke-dasharray="none" stroke="#00FFFF" id="img-58079b78-14">
        <path fill="none" d="M20.67,90.1 L 23.32 89.53 25.98 89.39 28.63 88.81 31.28 89.53 33.94 89.39 36.59 88.96 39.24 89.39 41.9 89.1 44.55 89.53 47.2 88.96 49.86 88.96 52.51 88.67 55.16 88.38 57.82 88.81 60.47 88.24 63.13 88.53 65.78 88.53 68.43 88.38 71.09 87.95 73.74 88.53 76.39 88.53 79.05 87.38 81.7 88.38 84.35 87.38 87.01 87.52 89.66 86.95 92.31 87.81 94.97 87.38 97.62 88.1"/>
      </g>
      <g stroke-width="0.3" fill="#000000" fill-opacity="0.000" class="geometry" stroke-dasharray="none" stroke="#CE009C" id="img-58079b78-15">
        <path fill="none" d="M20.67,98.72 L 23.32 98.72 25.98 98.72 28.63 98.57 31.28 98.14 33.94 91.11 36.59 86.09 39.24 83.36 41.9 81.49 44.55 81.21 47.2 77.48 49.86 77.19 52.51 76.76 55.16 74.75 57.82 72.88 60.47 72.88 63.13 72.31 65.78 70.3 68.43 67.86 71.09 65.57 73.74 63.84 76.39 61.12 79.05 60.11 81.7 56.81 84.35 55.38 87.01 55.09 89.66 54.08 92.31 53.22 94.97 51.93 97.62 50.21"/>
      </g>
      <g stroke-width="0.3" fill="#000000" fill-opacity="0.000" class="geometry" stroke-dasharray="none" stroke="#838D75" id="img-58079b78-16">
        <path fill="none" d="M20.67,98.72 L 23.32 84.36 25.98 81.35 28.63 78.34 31.28 77.62 33.94 76.04 36.59 76.76 39.24 76.18 41.9 75.32 44.55 76.18 47.2 74.46 49.86 75.18 52.51 74.18 55.16 73.17 57.82 73.75 60.47 74.18 63.13 73.6 65.78 73.75 68.43 73.31 71.09 74.03 73.74 72.74 76.39 72.74 79.05 72.88 81.7 73.31 84.35 73.17 87.01 73.03 89.66 72.02 92.31 71.88 94.97 72.88 97.62 72.17"/>
      </g>
      <g stroke-width="0.3" fill="#000000" fill-opacity="0.000" class="geometry" stroke-dasharray="none" stroke="#00577C" id="img-58079b78-17">
        <path fill="none" d="M20.67,98.72 L 23.32 93.69 25.98 85.8 28.63 73.75 31.28 66.28 33.94 58.25 36.59 57.1 39.24 56.38 41.9 57.53 44.55 57.96 47.2 57.24 49.86 56.24 52.51 57.39 55.16 56.95 57.82 56.38 60.47 56.24 63.13 57.1 65.78 56.38 68.43 58.39 71.09 57.39 73.74 56.81 76.39 55.38 79.05 55.66 81.7 56.81 84.35 56.52 87.01 57.67 89.66 55.52 92.31 56.81 94.97 57.24 97.62 56.38"/>
      </g>
      <g stroke-width="0.3" fill="#000000" fill-opacity="0.000" class="geometry" stroke-dasharray="none" stroke="#542900" id="img-58079b78-18">
        <path fill="none" d="M20.67,93.84 L 23.32 79.2 25.98 76.04 28.63 73.75 31.28 71.59 33.94 70.59 36.59 68.72 39.24 67.43 41.9 68 44.55 67.14 47.2 66.86 49.86 66.86 52.51 65.57 55.16 66.57 57.82 66.28 60.47 63.99 63.13 64.7 65.78 65.71 68.43 61.83 71.09 64.13 73.74 63.56 76.39 62.55 79.05 64.7 81.7 63.27 84.35 63.7 87.01 63.27 89.66 62.12 92.31 62.26 94.97 62.7 97.62 61.4"/>
      </g>
      <g stroke-width="0.3" fill="#000000" fill-opacity="0.000" class="geometry" stroke-dasharray="none" stroke="#FFBC00" id="img-58079b78-19">
        <path fill="none" d="M20.67,98.72 L 23.32 98.72 25.98 98.72 28.63 98.72 31.28 94.84 33.94 89.96 36.59 83.5 39.24 79.63 41.9 73.75 44.55 69.15 47.2 64.13 49.86 56.52 52.51 47.91 55.16 42.75 57.82 40.16 60.47 39.02 63.13 39.16 65.78 38.3 68.43 37.01 71.09 33.99 73.74 30.55 76.39 28.4 79.05 27.39 81.7 25.38 84.35 23.95 87.01 24.38 89.66 21.51 92.31 21.51 94.97 20.79 97.62 21.08"/>
      </g>
      <g stroke-width="0.3" fill="#000000" fill-opacity="0.000" class="geometry" stroke-dasharray="none" stroke="#FFB6FF" id="img-58079b78-20">
        <path fill="none" d="M20.67,98.72 L 23.32 98.72 25.98 98.72 28.63 97.28 31.28 90.82 33.94 88.38 36.59 78.91 39.24 72.31 41.9 65.85 44.55 58.25 47.2 49.21 49.86 42.17 52.51 37.87 55.16 36.15 57.82 33.56 60.47 27.82 63.13 26.68 65.78 25.53 68.43 25.38 71.09 25.38 73.74 24.09 76.39 24.38 79.05 24.24 81.7 23.81 84.35 24.24 87.01 24.09 89.66 23.37 92.31 23.66 94.97 23.81 97.62 23.66"/>
      </g>
      <g stroke-width="0.3" fill="#000000" fill-opacity="0.000" class="geometry" stroke-dasharray="none" stroke="#29003B" id="img-58079b78-21">
        <path fill="none" d="M20.67,98.72 L 23.32 66.28 25.98 63.27 28.63 62.84 31.28 61.26 33.94 63.27 36.59 63.84 39.24 61.26 41.9 62.84 44.55 63.56 47.2 62.98 49.86 61.69 52.51 62.55 55.16 62.12 57.82 63.56 60.47 61.83 63.13 62.84 65.78 62.7 68.43 62.26 71.09 63.13 73.74 63.56 76.39 63.84 79.05 62.55 81.7 62.55 84.35 63.84 87.01 62.98 89.66 63.27 92.31 63.84 94.97 63.13 97.62 62.41"/>
      </g>
      <g stroke-width="0.3" fill="#000000" fill-opacity="0.000" class="geometry" stroke-dasharray="none" stroke="#00AEFF" id="img-58079b78-22">
        <path fill="none" d="M20.67,98.72 L 23.32 64.99 25.98 61.69 28.63 61.55 31.28 62.41 33.94 61.98 36.59 63.27 39.24 62.98 41.9 61.98 44.55 63.13 47.2 61.26 49.86 63.41 52.51 61.98 55.16 63.99 57.82 62.41 60.47 62.7 63.13 63.13 65.78 61.26 68.43 62.26 71.09 63.41 73.74 62.55 76.39 61.98 79.05 62.41 81.7 61.55 84.35 60.97 87.01 61.98 89.66 61.69 92.31 62.7 94.97 62.7 97.62 62.84"/>
      </g>
      <g stroke-width="0.3" fill="#000000" fill-opacity="0.000" class="geometry" stroke-dasharray="none" stroke="#003800" id="img-58079b78-23">
        <path fill="none" d="M20.67,94.41 L 23.32 74.61 25.98 67 28.63 62.26 31.28 61.98 33.94 61.83 36.59 62.41 39.24 61.55 41.9 61.55 44.55 61.83 47.2 61.26 49.86 60.83 52.51 61.55 55.16 60.26 57.82 61.83 60.47 61.55 63.13 60.97 65.78 61.69 68.43 60.97 71.09 61.4 73.74 61.55 76.39 61.83 79.05 61.4 81.7 62.41 84.35 60.83 87.01 62.12 89.66 60.69 92.31 61.4 94.97 61.4 97.62 61.12"/>
      </g>
      <g stroke-width="0.3" fill="#000000" fill-opacity="0.000" class="geometry" stroke-dasharray="none" stroke="#00F75A" id="img-58079b78-24">
        <path fill="none" d="M20.67,98.72 L 23.32 94.41 25.98 94.27 28.63 89.67 31.28 85.23 33.94 83.79 36.59 78.62 39.24 72.74 41.9 67.72 44.55 66.14 47.2 65.57 49.86 63.41 52.51 60.54 55.16 58.39 57.82 56.81 60.47 56.09 63.13 53.94 65.78 53.8 68.43 52.51 71.09 53.08 73.74 51.65 76.39 51.79 79.05 51.93 81.7 51.07 84.35 50.35 87.01 51.07 89.66 50.64 92.31 50.78 94.97 51.07 97.62 50.64"/>
      </g>
      <g stroke-width="0.3" fill="#000000" fill-opacity="0.000" class="geometry" stroke-dasharray="none" stroke="#FF0000" id="img-58079b78-25">
        <path fill="none" d="M20.67,98.72 L 23.32 94.41 25.98 94.41 28.63 89.82 31.28 84.65 33.94 83.79 36.59 77.76 39.24 72.6 41.9 66 44.55 63.56 47.2 62.41 49.86 59.97 52.51 57.82 55.16 58.39 57.82 56.67 60.47 55.81 63.13 54.37 65.78 53.8 68.43 53.65 71.09 52.65 73.74 51.5 76.39 50.35 79.05 50.5 81.7 50.21 84.35 50.07 87.01 50.64 89.66 50.07 92.31 50.21 94.97 51.07 97.62 50.35"/>
      </g>
    </g>
  </g>
</g>
  <g class="guide ylabels" font-size="2.82" font-family="'PT Sans Caption','Helvetica Neue','Helvetica',sans-serif" fill="#6C606B" id="img-58079b78-26">
    <text x="17.63" y="98.72" text-anchor="end" dy="0.35em">0.0</text>
    <text x="17.63" y="55.66" text-anchor="end" dy="0.35em">0.5</text>
    <text x="17.63" y="12.61" text-anchor="end" dy="0.35em">1.0</text>
  </g>
  <g font-size="3.88" font-family="'PT Sans','Helvetica Neue','Helvetica',sans-serif" fill="#564A55" stroke="#000000" stroke-opacity="0.000" id="img-58079b78-27">
    <text x="8.81" y="53.66" text-anchor="middle" dy="0.35em" transform="rotate(-90, 8.81, 55.66)">Success rate</text>
  </g>
  <g font-size="3.88" font-family="'PT Sans','Helvetica Neue','Helvetica',sans-serif" fill="#564A55" stroke="#000000" stroke-opacity="0.000" id="img-58079b78-28">
    <text x="59.13" y="5" text-anchor="middle" dy="0.6em">All functions</text>
  </g>
</g>
<defs>
  <clipPath id="img-58079b78-8">
  <path d="M18.63,10.61 L 99.62 10.61 99.62 100.71 18.63 100.71" />
</clipPath>
</defs>
</svg>
