<?xml version="1.0" encoding="UTF-8"?>
<svg xmlns="http://www.w3.org/2000/svg"
     xmlns:xlink="http://www.w3.org/1999/xlink"
     xmlns:gadfly="http://www.gadflyjl.org/ns"
     version="1.2"
     width="200mm" height="120mm" viewBox="0 0 200 120"
     stroke="none"
     fill="#000000"
     stroke-width="0.3"
     font-size="3.88"
>
<g class="plotroot xscalable yscalable" id="img-be5da234-1">
  <g font-size="3.88" font-family="'PT Sans','Helvetica Neue','Helvetica',sans-serif" fill="#564A55" stroke="#000000" stroke-opacity="0.000" id="img-be5da234-2">
    <text x="81.02" y="108.39" text-anchor="middle" dy="0.6em">Run Length</text>
  </g>
  <g class="guide xlabels" font-size="2.82" font-family="'PT Sans Caption','Helvetica Neue','Helvetica',sans-serif" fill="#6C606B" id="img-be5da234-3">
    <text x="24.42" y="101.72" text-anchor="middle" dy="0.6em">0</text>
    <text x="43.29" y="101.72" text-anchor="middle" dy="0.6em">1.0×10⁴</text>
    <text x="62.15" y="101.72" text-anchor="middle" dy="0.6em">2.0×10⁴</text>
    <text x="81.02" y="101.72" text-anchor="middle" dy="0.6em">3.0×10⁴</text>
    <text x="99.89" y="101.72" text-anchor="middle" dy="0.6em">4.0×10⁴</text>
    <text x="118.75" y="101.72" text-anchor="middle" dy="0.6em">5.0×10⁴</text>
    <text x="137.62" y="101.72" text-anchor="middle" dy="0.6em">6.0×10⁴</text>
  </g>
  <g class="guide colorkey" id="img-be5da234-4">
    <g fill="#4C404B" font-size="2.82" font-family="'PT Sans','Helvetica Neue','Helvetica',sans-serif" id="img-be5da234-5">
      <text x="143.43" y="44.78" dy="0.35em">R-Optim.NelderMead</text>
      <text x="143.43" y="48.41" dy="0.35em">CMAESoptim</text>
      <text x="143.43" y="52.04" dy="0.35em">Optim.NelderMead</text>
      <text x="143.43" y="55.66" dy="0.35em">BBO.adaptive_de_rand_1_bin_radiuslimited</text>
      <text x="143.43" y="59.29" dy="0.35em">BBO.adaptive_de_rand_1_bin</text>
      <text x="143.43" y="62.92" dy="0.35em">BBO.xnes</text>
      <text x="143.43" y="66.54" dy="0.35em">BBO.generating_set_search</text>
      <text x="143.43" y="70.17" dy="0.35em">BBO.de_rand_2_bin</text>
    </g>
    <g stroke="#000000" stroke-opacity="0.000" id="img-be5da234-6">
      <rect x="140.62" y="43.88" width="1.81" height="1.81" fill="#FF0000"/>
      <rect x="140.62" y="47.5" width="1.81" height="1.81" fill="#00F75A"/>
      <rect x="140.62" y="51.13" width="1.81" height="1.81" fill="#003800"/>
      <rect x="140.62" y="54.76" width="1.81" height="1.81" fill="#00AEFF"/>
      <rect x="140.62" y="58.38" width="1.81" height="1.81" fill="#29003B"/>
      <rect x="140.62" y="62.01" width="1.81" height="1.81" fill="#FFB6FF"/>
      <rect x="140.62" y="65.64" width="1.81" height="1.81" fill="#FFBC00"/>
      <rect x="140.62" y="69.26" width="1.81" height="1.81" fill="#542900"/>
    </g>
    <g fill="#362A35" font-size="3.88" font-family="'PT Sans','Helvetica Neue','Helvetica',sans-serif" stroke="#000000" stroke-opacity="0.000" id="img-be5da234-7">
      <text x="140.62" y="40.96"></text>
    </g>
  </g>
<g clip-path="url(#img-be5da234-8)">
  <g id="img-be5da234-9">
    <g pointer-events="visible" opacity="1" fill="#000000" fill-opacity="0.000" stroke="#000000" stroke-opacity="0.000" class="guide background" id="img-be5da234-10">
      <rect x="22.42" y="10.61" width="117.2" height="90.1"/>
    </g>
    <g class="guide ygridlines xfixed" stroke-dasharray="0.5,0.5" stroke-width="0.2" stroke="#D0D0E0" id="img-be5da234-11">
      <path fill="none" d="M22.42,98.72 L 139.62 98.72"/>
      <path fill="none" d="M22.42,70.01 L 139.62 70.01"/>
      <path fill="none" d="M22.42,41.31 L 139.62 41.31"/>
      <path fill="none" d="M22.42,12.61 L 139.62 12.61"/>
    </g>
    <g class="guide xgridlines yfixed" stroke-dasharray="0.5,0.5" stroke-width="0.2" stroke="#D0D0E0" id="img-be5da234-12">
      <path fill="none" d="M24.42,10.61 L 24.42 100.72"/>
      <path fill="none" d="M43.29,10.61 L 43.29 100.72"/>
      <path fill="none" d="M62.15,10.61 L 62.15 100.72"/>
      <path fill="none" d="M81.02,10.61 L 81.02 100.72"/>
      <path fill="none" d="M99.89,10.61 L 99.89 100.72"/>
      <path fill="none" d="M118.75,10.61 L 118.75 100.72"/>
      <path fill="none" d="M137.62,10.61 L 137.62 100.72"/>
    </g>
    <g class="plotpanel" id="img-be5da234-13">
      <g class="xfixed" id="img-be5da234-14">
        <g stroke-dasharray="none" stroke-width="0.3" stroke="#808080" id="img-be5da234-15">
          <path fill="none" d="M22.42,75.75 L 139.62 75.75"/>
        </g>
      </g>
      <g stroke-width="0.3" fill="#000000" fill-opacity="0.000" class="geometry" stroke-dasharray="none" stroke="#542900" id="img-be5da234-16">
        <path fill="none" d="M24.46,22.46 L 30.41 32.2 36.37 35.33 42.32 38.17 48.28 41.13 54.24 43.71 60.19 45.89 66.15 47.35 72.1 48.67 78.06 50.23 84.02 51.73 89.97 53 95.93 54.33 101.88 55.48 107.84 57.25 113.8 58.67 119.75 60.02 125.71 61.56 131.66 62.99 137.62 64.2"/>
      </g>
      <g stroke-width="0.3" fill="#000000" fill-opacity="0.000" class="geometry" stroke-dasharray="none" stroke="#FFBC00" id="img-be5da234-17">
        <path fill="none" d="M24.46,21.67 L 30.41 44.02 36.37 47.37 42.32 48.69 48.28 49.09 54.24 49.95 60.19 50.67 66.15 51.56 72.1 52.14 78.06 53.44 84.02 53.2 89.97 53.59 95.93 54.03 101.88 54.01 107.84 53.99 113.8 54.32 119.75 54.53 125.71 54.63 131.66 54.66 137.62 54.82"/>
      </g>
      <g stroke-width="0.3" fill="#000000" fill-opacity="0.000" class="geometry" stroke-dasharray="none" stroke="#FFB6FF" id="img-be5da234-18">
        <path fill="none" d="M24.46,20.4 L 30.41 41.41 36.37 47.07 42.32 51.52 48.28 53.92 54.24 58.1 60.19 59.06 66.15 59.84 72.1 60.66 78.06 64.71 84.02 63.32 89.97 59.36 95.93 63.43 101.88 64.37 107.84 65.75 113.8 66.56 119.75 64.45 125.71 67.46 131.66 67.95 137.62 65.64"/>
      </g>
      <g stroke-width="0.3" fill="#000000" fill-opacity="0.000" class="geometry" stroke-dasharray="none" stroke="#29003B" id="img-be5da234-19">
        <path fill="none" d="M24.46,22.5 L 30.41 33.48 36.37 38.39 42.32 43.61 48.28 48.69 54.24 53.74 60.19 57.76 66.15 61.8 72.1 65.18 78.06 68.23 84.02 71.37 89.97 74 95.93 75.65 101.88 77.47 107.84 79.95 113.8 80.96 119.75 82.85 125.71 83.68 131.66 84.99 137.62 86.21"/>
      </g>
      <g stroke-width="0.3" fill="#000000" fill-opacity="0.000" class="geometry" stroke-dasharray="none" stroke="#00AEFF" id="img-be5da234-20">
        <path fill="none" d="M24.46,22.29 L 30.41 34.37 36.37 40.64 42.32 46.57 48.28 52.31 54.24 58.11 60.19 62.14 66.15 64.7 72.1 69.11 78.06 72.2 84.02 73.62 89.97 76.29 95.93 76.71 101.88 78.89 107.84 80.35 113.8 81.45 119.75 81.09 125.71 77.82 131.66 82.77 137.62 83.99"/>
      </g>
      <g stroke-width="0.3" fill="#000000" fill-opacity="0.000" class="geometry" stroke-dasharray="none" stroke="#003800" id="img-be5da234-21">
        <path fill="none" d="M24.46,20.05 L 30.41 40.39 36.37 40.12 42.32 40.88 48.28 40.65 54.24 40.3 60.19 41.69 66.15 40.05 72.1 40.65 78.06 39.87 84.02 41.3 89.97 40.83 95.93 40.19 101.88 40.59 107.84 39.8 113.8 41.27 119.75 41.83 125.71 40.71 131.66 41.23 137.62 41.05"/>
      </g>
      <g stroke-width="0.3" fill="#000000" fill-opacity="0.000" class="geometry" stroke-dasharray="none" stroke="#00F75A" id="img-be5da234-22">
        <path fill="none" d="M24.46,26.53 L 30.41 51.38 36.37 52.14 42.32 52.47 48.28 53.39 54.24 53.86 60.19 55.43 66.15 55.17 72.1 54.52 78.06 54.4 84.02 55.95 89.97 54.75 95.93 56.22 101.88 56.1 107.84 54.75 113.8 54.97 119.75 55.24 125.71 55.2 131.66 54.89 137.62 55.37"/>
      </g>
      <g stroke-width="0.3" fill="#000000" fill-opacity="0.000" class="geometry" stroke-dasharray="none" stroke="#FF0000" id="img-be5da234-23">
        <path fill="none" d="M24.46,23.7 L 30.41 33.17 36.37 38.57 42.32 41.83 48.28 45.3 54.24 47.63 60.19 49.32 66.15 50.71 72.1 52.77 78.06 53.16 84.02 53.33 89.97 53.68 95.93 53.64 101.88 53.57 107.84 53.43 113.8 53.73 119.75 53.67 125.71 53.66 131.66 53.84 137.62 53.71"/>
      </g>
    </g>
  </g>
</g>
  <g class="guide ylabels" font-size="2.82" font-family="'PT Sans Caption','Helvetica Neue','Helvetica',sans-serif" fill="#6C606B" id="img-be5da234-24">
    <text x="21.42" y="98.72" text-anchor="end" dy="0.35em">10<tspan style="dominant-baseline:inherit" dy="-0.6em" font-size="83%">-10</tspan><tspan dy="0.498000em"></tspan></text>
    <text x="21.42" y="70.01" text-anchor="end" dy="0.35em">10<tspan style="dominant-baseline:inherit" dy="-0.6em" font-size="83%">-5</tspan><tspan dy="0.498000em"></tspan></text>
    <text x="21.42" y="41.31" text-anchor="end" dy="0.35em">10<tspan style="dominant-baseline:inherit" dy="-0.6em" font-size="83%">0</tspan><tspan dy="0.498000em"></tspan></text>
    <text x="21.42" y="12.61" text-anchor="end" dy="0.35em">10<tspan style="dominant-baseline:inherit" dy="-0.6em" font-size="83%">5</tspan><tspan dy="0.498000em"></tspan></text>
  </g>
  <g font-size="3.88" font-family="'PT Sans','Helvetica Neue','Helvetica',sans-serif" fill="#564A55" stroke="#000000" stroke-opacity="0.000" id="img-be5da234-25">
    <text x="8.81" y="53.66" text-anchor="middle" dy="0.35em" transform="rotate(-90, 8.81, 55.66)">fmin</text>
  </g>
  <g font-size="3.88" font-family="'PT Sans','Helvetica Neue','Helvetica',sans-serif" fill="#564A55" stroke="#000000" stroke-opacity="0.000" id="img-be5da234-26">
    <text x="81.02" y="5" text-anchor="middle" dy="0.6em">All functions</text>
  </g>
</g>
<defs>
  <clipPath id="img-be5da234-8">
  <path d="M22.42,10.61 L 139.62 10.61 139.62 100.72 22.42 100.72" />
</clipPath>
</defs>
</svg>
