<?xml version="1.0" encoding="UTF-8"?>
<svg xmlns="http://www.w3.org/2000/svg"
     xmlns:xlink="http://www.w3.org/1999/xlink"
     xmlns:gadfly="http://www.gadflyjl.org/ns"
     version="1.2"
     width="200mm" height="120mm" viewBox="0 0 200 120"
     stroke="none"
     fill="#000000"
     stroke-width="0.3"
     font-size="3.88"
>
<g class="plotroot xscalable yscalable" id="img-c1ba3cc0-1">
  <g font-size="3.88" font-family="'PT Sans','Helvetica Neue','Helvetica',sans-serif" fill="#564A55" stroke="#000000" stroke-opacity="0.000" id="img-c1ba3cc0-2">
    <text x="79.13" y="108.39" text-anchor="middle" dy="0.6em">Run Length / D</text>
  </g>
  <g class="guide xlabels" font-size="2.82" font-family="'PT Sans Caption','Helvetica Neue','Helvetica',sans-serif" fill="#6C606B" id="img-c1ba3cc0-3">
    <text x="20.63" y="101.71" text-anchor="middle" dy="0.6em">0</text>
    <text x="49.88" y="101.71" text-anchor="middle" dy="0.6em">2.0×10³</text>
    <text x="79.13" y="101.71" text-anchor="middle" dy="0.6em">4.0×10³</text>
    <text x="108.37" y="101.71" text-anchor="middle" dy="0.6em">6.0×10³</text>
    <text x="137.62" y="101.71" text-anchor="middle" dy="0.6em">8.0×10³</text>
  </g>
  <g class="guide colorkey" id="img-c1ba3cc0-4">
    <g fill="#4C404B" font-size="2.82" font-family="'PT Sans','Helvetica Neue','Helvetica',sans-serif" id="img-c1ba3cc0-5">
      <text x="143.43" y="37.53" dy="0.35em">R-Optim.GradientDescent</text>
      <text x="143.43" y="41.16" dy="0.35em">R-Optim.NelderMead</text>
      <text x="143.43" y="44.78" dy="0.35em">CMAESoptim</text>
      <text x="143.43" y="48.41" dy="0.35em">Optim.NelderMead</text>
      <text x="143.43" y="52.04" dy="0.35em">Optim.GradientDescent</text>
      <text x="143.43" y="55.66" dy="0.35em">BBO.adaptive_de_rand_1_bin_radiuslimited</text>
      <text x="143.43" y="59.29" dy="0.35em">BBO.adaptive_de_rand_1_bin</text>
      <text x="143.43" y="62.92" dy="0.35em">NLopt.LN_BOBYQA</text>
      <text x="143.43" y="66.54" dy="0.35em">BBO.xnes</text>
      <text x="143.43" y="70.17" dy="0.35em">BBO.generating_set_search</text>
      <text x="143.43" y="73.8" dy="0.35em">BBO.de_rand_2_bin</text>
      <text x="143.43" y="77.42" dy="0.35em">BBO.resampling_memetic_search</text>
    </g>
    <g stroke="#000000" stroke-opacity="0.000" id="img-c1ba3cc0-6">
      <rect x="140.62" y="36.62" width="1.81" height="1.81" fill="#FF0000"/>
      <rect x="140.62" y="40.25" width="1.81" height="1.81" fill="#00F75A"/>
      <rect x="140.62" y="43.88" width="1.81" height="1.81" fill="#003800"/>
      <rect x="140.62" y="47.5" width="1.81" height="1.81" fill="#00AEFF"/>
      <rect x="140.62" y="51.13" width="1.81" height="1.81" fill="#29003B"/>
      <rect x="140.62" y="54.76" width="1.81" height="1.81" fill="#FFB6FF"/>
      <rect x="140.62" y="58.38" width="1.81" height="1.81" fill="#FFBC00"/>
      <rect x="140.62" y="62.01" width="1.81" height="1.81" fill="#542900"/>
      <rect x="140.62" y="65.64" width="1.81" height="1.81" fill="#00577C"/>
      <rect x="140.62" y="69.26" width="1.81" height="1.81" fill="#838D75"/>
      <rect x="140.62" y="72.89" width="1.81" height="1.81" fill="#CE009C"/>
      <rect x="140.62" y="76.52" width="1.81" height="1.81" fill="#00FFFF"/>
    </g>
    <g fill="#362A35" font-size="3.88" font-family="'PT Sans','Helvetica Neue','Helvetica',sans-serif" stroke="#000000" stroke-opacity="0.000" id="img-c1ba3cc0-7">
      <text x="140.62" y="33.71"></text>
    </g>
  </g>
<g clip-path="url(#img-c1ba3cc0-8)">
  <g id="img-c1ba3cc0-9">
    <g pointer-events="visible" opacity="1" fill="#000000" fill-opacity="0.000" stroke="#000000" stroke-opacity="0.000" class="guide background" id="img-c1ba3cc0-10">
      <rect x="18.63" y="10.61" width="120.99" height="90.1"/>
    </g>
    <g class="guide ygridlines xfixed" stroke-dasharray="0.5,0.5" stroke-width="0.2" stroke="#D0D0E0" id="img-c1ba3cc0-11">
      <path fill="none" d="M18.63,98.72 L 139.62 98.72"/>
      <path fill="none" d="M18.63,55.66 L 139.62 55.66"/>
      <path fill="none" d="M18.63,12.61 L 139.62 12.61"/>
    </g>
    <g class="guide xgridlines yfixed" stroke-dasharray="0.5,0.5" stroke-width="0.2" stroke="#D0D0E0" id="img-c1ba3cc0-12">
      <path fill="none" d="M20.63,10.61 L 20.63 100.71"/>
      <path fill="none" d="M49.88,10.61 L 49.88 100.71"/>
      <path fill="none" d="M79.13,10.61 L 79.13 100.71"/>
      <path fill="none" d="M108.37,10.61 L 108.37 100.71"/>
      <path fill="none" d="M137.62,10.61 L 137.62 100.71"/>
    </g>
    <g class="plotpanel" id="img-c1ba3cc0-13">
      <g stroke-width="0.3" fill="#000000" fill-opacity="0.000" class="geometry" stroke-dasharray="none" stroke="#00FFFF" id="img-c1ba3cc0-14">
        <path fill="none" d="M20.69,90.1 L 24.72 89.53 28.75 89.39 32.79 88.81 36.82 89.53 40.85 89.39 44.88 88.96 48.91 89.39 52.95 89.1 56.98 89.53 61.01 88.96 65.04 88.96 69.07 88.67 73.11 88.38 77.14 88.81 81.17 88.24 85.2 88.53 89.24 88.53 93.27 88.38 97.3 87.95 101.33 88.53 105.36 88.53 109.4 87.38 113.43 88.38 117.46 87.38 121.49 87.52 125.52 86.95 129.56 87.81 133.59 87.38 137.62 88.1"/>
      </g>
      <g stroke-width="0.3" fill="#000000" fill-opacity="0.000" class="geometry" stroke-dasharray="none" stroke="#CE009C" id="img-c1ba3cc0-15">
        <path fill="none" d="M20.69,98.72 L 24.72 98.72 28.75 98.72 32.79 98.57 36.82 98.14 40.85 91.11 44.88 86.09 48.91 83.36 52.95 81.49 56.98 81.21 61.01 77.48 65.04 77.19 69.07 76.76 73.11 74.75 77.14 72.88 81.17 72.88 85.2 72.31 89.24 70.3 93.27 67.86 97.3 65.57 101.33 63.84 105.36 61.12 109.4 60.11 113.43 56.81 117.46 55.38 121.49 55.09 125.52 54.08 129.56 53.22 133.59 51.93 137.62 50.21"/>
      </g>
      <g stroke-width="0.3" fill="#000000" fill-opacity="0.000" class="geometry" stroke-dasharray="none" stroke="#838D75" id="img-c1ba3cc0-16">
        <path fill="none" d="M20.69,98.72 L 24.72 84.36 28.75 81.35 32.79 78.34 36.82 77.62 40.85 76.04 44.88 76.76 48.91 76.18 52.95 75.32 56.98 76.18 61.01 74.46 65.04 75.18 69.07 74.18 73.11 73.17 77.14 73.75 81.17 74.18 85.2 73.6 89.24 73.75 93.27 73.31 97.3 74.03 101.33 72.74 105.36 72.74 109.4 72.88 113.43 73.31 117.46 73.17 121.49 73.03 125.52 72.02 129.56 71.88 133.59 72.88 137.62 72.17"/>
      </g>
      <g stroke-width="0.3" fill="#000000" fill-opacity="0.000" class="geometry" stroke-dasharray="none" stroke="#00577C" id="img-c1ba3cc0-17">
        <path fill="none" d="M20.69,98.72 L 24.72 93.69 28.75 85.8 32.79 73.75 36.82 66.28 40.85 58.25 44.88 57.1 48.91 56.38 52.95 57.53 56.98 57.96 61.01 57.24 65.04 56.24 69.07 57.39 73.11 56.95 77.14 56.38 81.17 56.24 85.2 57.1 89.24 56.38 93.27 58.39 97.3 57.39 101.33 56.81 105.36 55.38 109.4 55.66 113.43 56.81 117.46 56.52 121.49 57.67 125.52 55.52 129.56 56.81 133.59 57.24 137.62 56.38"/>
      </g>
      <g stroke-width="0.3" fill="#000000" fill-opacity="0.000" class="geometry" stroke-dasharray="none" stroke="#542900" id="img-c1ba3cc0-18">
        <path fill="none" d="M20.69,93.84 L 24.72 79.2 28.75 76.04 32.79 73.75 36.82 71.59 40.85 70.59 44.88 68.72 48.91 67.43 52.95 68 56.98 67.14 61.01 66.86 65.04 66.86 69.07 65.57 73.11 66.57 77.14 66.28 81.17 63.99 85.2 64.7 89.24 65.71 93.27 61.83 97.3 64.13 101.33 63.56 105.36 62.55 109.4 64.7 113.43 63.27 117.46 63.7 121.49 63.27 125.52 62.12 129.56 62.26 133.59 62.7 137.62 61.4"/>
      </g>
      <g stroke-width="0.3" fill="#000000" fill-opacity="0.000" class="geometry" stroke-dasharray="none" stroke="#FFBC00" id="img-c1ba3cc0-19">
        <path fill="none" d="M20.69,98.72 L 24.72 98.72 28.75 98.72 32.79 98.72 36.82 94.84 40.85 89.96 44.88 83.5 48.91 79.63 52.95 73.75 56.98 69.15 61.01 64.13 65.04 56.52 69.07 47.91 73.11 42.75 77.14 40.16 81.17 39.02 85.2 39.16 89.24 38.3 93.27 37.01 97.3 33.99 101.33 30.55 105.36 28.4 109.4 27.39 113.43 25.38 117.46 23.95 121.49 24.38 125.52 21.51 129.56 21.51 133.59 20.79 137.62 21.08"/>
      </g>
      <g stroke-width="0.3" fill="#000000" fill-opacity="0.000" class="geometry" stroke-dasharray="none" stroke="#FFB6FF" id="img-c1ba3cc0-20">
        <path fill="none" d="M20.69,98.72 L 24.72 98.72 28.75 98.72 32.79 97.28 36.82 90.82 40.85 88.38 44.88 78.91 48.91 72.31 52.95 65.85 56.98 58.25 61.01 49.21 65.04 42.17 69.07 37.87 73.11 36.15 77.14 33.56 81.17 27.82 85.2 26.68 89.24 25.53 93.27 25.38 97.3 25.38 101.33 24.09 105.36 24.38 109.4 24.24 113.43 23.81 117.46 24.24 121.49 24.09 125.52 23.37 129.56 23.66 133.59 23.81 137.62 23.66"/>
      </g>
      <g stroke-width="0.3" fill="#000000" fill-opacity="0.000" class="geometry" stroke-dasharray="none" stroke="#29003B" id="img-c1ba3cc0-21">
        <path fill="none" d="M20.69,98.72 L 24.72 66.28 28.75 63.27 32.79 62.84 36.82 61.26 40.85 63.27 44.88 63.84 48.91 61.26 52.95 62.84 56.98 63.56 61.01 62.98 65.04 61.69 69.07 62.55 73.11 62.12 77.14 63.56 81.17 61.83 85.2 62.84 89.24 62.7 93.27 62.26 97.3 63.13 101.33 63.56 105.36 63.84 109.4 62.55 113.43 62.55 117.46 63.84 121.49 62.98 125.52 63.27 129.56 63.84 133.59 63.13 137.62 62.41"/>
      </g>
      <g stroke-width="0.3" fill="#000000" fill-opacity="0.000" class="geometry" stroke-dasharray="none" stroke="#00AEFF" id="img-c1ba3cc0-22">
        <path fill="none" d="M20.69,98.72 L 24.72 64.99 28.75 61.69 32.79 61.55 36.82 62.41 40.85 61.98 44.88 63.27 48.91 62.98 52.95 61.98 56.98 63.13 61.01 61.26 65.04 63.41 69.07 61.98 73.11 63.99 77.14 62.41 81.17 62.7 85.2 63.13 89.24 61.26 93.27 62.26 97.3 63.41 101.33 62.55 105.36 61.98 109.4 62.41 113.43 61.55 117.46 60.97 121.49 61.98 125.52 61.69 129.56 62.7 133.59 62.7 137.62 62.84"/>
      </g>
      <g stroke-width="0.3" fill="#000000" fill-opacity="0.000" class="geometry" stroke-dasharray="none" stroke="#003800" id="img-c1ba3cc0-23">
        <path fill="none" d="M20.69,94.41 L 24.72 74.61 28.75 67 32.79 62.26 36.82 61.98 40.85 61.83 44.88 62.41 48.91 61.55 52.95 61.55 56.98 61.83 61.01 61.26 65.04 60.83 69.07 61.55 73.11 60.26 77.14 61.83 81.17 61.55 85.2 60.97 89.24 61.69 93.27 60.97 97.3 61.4 101.33 61.55 105.36 61.83 109.4 61.4 113.43 62.41 117.46 60.83 121.49 62.12 125.52 60.69 129.56 61.4 133.59 61.4 137.62 61.12"/>
      </g>
      <g stroke-width="0.3" fill="#000000" fill-opacity="0.000" class="geometry" stroke-dasharray="none" stroke="#00F75A" id="img-c1ba3cc0-24">
        <path fill="none" d="M20.69,98.72 L 24.72 94.41 28.75 94.27 32.79 89.67 36.82 85.23 40.85 83.79 44.88 78.62 48.91 72.74 52.95 67.72 56.98 66.14 61.01 65.57 65.04 63.41 69.07 60.54 73.11 58.39 77.14 56.81 81.17 56.09 85.2 53.94 89.24 53.8 93.27 52.51 97.3 53.08 101.33 51.65 105.36 51.79 109.4 51.93 113.43 51.07 117.46 50.35 121.49 51.07 125.52 50.64 129.56 50.78 133.59 51.07 137.62 50.64"/>
      </g>
      <g stroke-width="0.3" fill="#000000" fill-opacity="0.000" class="geometry" stroke-dasharray="none" stroke="#FF0000" id="img-c1ba3cc0-25">
        <path fill="none" d="M20.69,98.72 L 24.72 94.41 28.75 94.41 32.79 89.82 36.82 84.65 40.85 83.79 44.88 77.76 48.91 72.6 52.95 66 56.98 63.56 61.01 62.41 65.04 59.97 69.07 57.82 73.11 58.39 77.14 56.67 81.17 55.81 85.2 54.37 89.24 53.8 93.27 53.65 97.3 52.65 101.33 51.5 105.36 50.35 109.4 50.5 113.43 50.21 117.46 50.07 121.49 50.64 125.52 50.07 129.56 50.21 133.59 51.07 137.62 50.35"/>
      </g>
    </g>
  </g>
</g>
  <g class="guide ylabels" font-size="2.82" font-family="'PT Sans Caption','Helvetica Neue','Helvetica',sans-serif" fill="#6C606B" id="img-c1ba3cc0-26">
    <text x="17.63" y="98.72" text-anchor="end" dy="0.35em">0.0</text>
    <text x="17.63" y="55.66" text-anchor="end" dy="0.35em">0.5</text>
    <text x="17.63" y="12.61" text-anchor="end" dy="0.35em">1.0</text>
  </g>
  <g font-size="3.88" font-family="'PT Sans','Helvetica Neue','Helvetica',sans-serif" fill="#564A55" stroke="#000000" stroke-opacity="0.000" id="img-c1ba3cc0-27">
    <text x="8.81" y="53.66" text-anchor="middle" dy="0.35em" transform="rotate(-90, 8.81, 55.66)">Success rate</text>
  </g>
  <g font-size="3.88" font-family="'PT Sans','Helvetica Neue','Helvetica',sans-serif" fill="#564A55" stroke="#000000" stroke-opacity="0.000" id="img-c1ba3cc0-28">
    <text x="79.13" y="5" text-anchor="middle" dy="0.6em">All functions</text>
  </g>
</g>
<defs>
  <clipPath id="img-c1ba3cc0-8">
  <path d="M18.63,10.61 L 139.62 10.61 139.62 100.71 18.63 100.71" />
</clipPath>
</defs>
</svg>
