<?xml version="1.0" encoding="UTF-8"?>
<svg xmlns="http://www.w3.org/2000/svg"
     xmlns:xlink="http://www.w3.org/1999/xlink"
     xmlns:gadfly="http://www.gadflyjl.org/ns"
     version="1.2"
     width="200mm" height="120mm" viewBox="0 0 200 120"
     stroke="none"
     fill="#000000"
     stroke-width="0.3"
     font-size="3.88"
>
<g class="plotroot xscalable yscalable" id="img-fc1491a9-1">
  <g font-size="3.88" font-family="'PT Sans','Helvetica Neue','Helvetica',sans-serif" fill="#564A55" stroke="#000000" stroke-opacity="0.000" id="img-fc1491a9-2">
    <text x="81.36" y="108.39" text-anchor="middle" dy="0.6em">Run Length / D</text>
  </g>
  <g class="guide xlabels" font-size="2.82" font-family="'PT Sans Caption','Helvetica Neue','Helvetica',sans-serif" fill="#6C606B" id="img-fc1491a9-3">
    <text x="25.09" y="101.71" text-anchor="middle" dy="0.6em">0</text>
    <text x="53.22" y="101.71" text-anchor="middle" dy="0.6em">2.0×10³</text>
    <text x="81.36" y="101.71" text-anchor="middle" dy="0.6em">4.0×10³</text>
    <text x="109.49" y="101.71" text-anchor="middle" dy="0.6em">6.0×10³</text>
    <text x="137.62" y="101.71" text-anchor="middle" dy="0.6em">8.0×10³</text>
  </g>
  <g class="guide colorkey" id="img-fc1491a9-4">
    <g fill="#4C404B" font-size="2.82" font-family="'PT Sans','Helvetica Neue','Helvetica',sans-serif" id="img-fc1491a9-5">
      <text x="143.43" y="37.53" dy="0.35em">R-Optim.GradientDescent</text>
      <text x="143.43" y="41.16" dy="0.35em">R-Optim.NelderMead</text>
      <text x="143.43" y="44.78" dy="0.35em">CMAESoptim</text>
      <text x="143.43" y="48.41" dy="0.35em">Optim.NelderMead</text>
      <text x="143.43" y="52.04" dy="0.35em">Optim.GradientDescent</text>
      <text x="143.43" y="55.66" dy="0.35em">BBO.adaptive_de_rand_1_bin_radiuslimited</text>
      <text x="143.43" y="59.29" dy="0.35em">BBO.adaptive_de_rand_1_bin</text>
      <text x="143.43" y="62.92" dy="0.35em">NLopt.LN_BOBYQA</text>
      <text x="143.43" y="66.54" dy="0.35em">BBO.xnes</text>
      <text x="143.43" y="70.17" dy="0.35em">BBO.generating_set_search</text>
      <text x="143.43" y="73.8" dy="0.35em">BBO.de_rand_2_bin</text>
      <text x="143.43" y="77.42" dy="0.35em">BBO.resampling_memetic_search</text>
    </g>
    <g stroke="#000000" stroke-opacity="0.000" id="img-fc1491a9-6">
      <rect x="140.62" y="36.62" width="1.81" height="1.81" fill="#FF0000"/>
      <rect x="140.62" y="40.25" width="1.81" height="1.81" fill="#00F75A"/>
      <rect x="140.62" y="43.88" width="1.81" height="1.81" fill="#003800"/>
      <rect x="140.62" y="47.5" width="1.81" height="1.81" fill="#00AEFF"/>
      <rect x="140.62" y="51.13" width="1.81" height="1.81" fill="#29003B"/>
      <rect x="140.62" y="54.76" width="1.81" height="1.81" fill="#FFB6FF"/>
      <rect x="140.62" y="58.38" width="1.81" height="1.81" fill="#FFBC00"/>
      <rect x="140.62" y="62.01" width="1.81" height="1.81" fill="#542900"/>
      <rect x="140.62" y="65.64" width="1.81" height="1.81" fill="#00577C"/>
      <rect x="140.62" y="69.26" width="1.81" height="1.81" fill="#838D75"/>
      <rect x="140.62" y="72.89" width="1.81" height="1.81" fill="#CE009C"/>
      <rect x="140.62" y="76.52" width="1.81" height="1.81" fill="#00FFFF"/>
    </g>
    <g fill="#362A35" font-size="3.88" font-family="'PT Sans','Helvetica Neue','Helvetica',sans-serif" stroke="#000000" stroke-opacity="0.000" id="img-fc1491a9-7">
      <text x="140.62" y="33.71"></text>
    </g>
  </g>
<g clip-path="url(#img-fc1491a9-8)">
  <g id="img-fc1491a9-9">
    <g pointer-events="visible" opacity="1" fill="#000000" fill-opacity="0.000" stroke="#000000" stroke-opacity="0.000" class="guide background" id="img-fc1491a9-10">
      <rect x="23.09" y="10.61" width="116.53" height="90.1"/>
    </g>
    <g class="guide ygridlines xfixed" stroke-dasharray="0.5,0.5" stroke-width="0.2" stroke="#D0D0E0" id="img-fc1491a9-11">
      <path fill="none" d="M23.09,98.71 L 139.62 98.71"/>
      <path fill="none" d="M23.09,77.19 L 139.62 77.19"/>
      <path fill="none" d="M23.09,55.66 L 139.62 55.66"/>
      <path fill="none" d="M23.09,34.14 L 139.62 34.14"/>
      <path fill="none" d="M23.09,12.61 L 139.62 12.61"/>
    </g>
    <g class="guide xgridlines yfixed" stroke-dasharray="0.5,0.5" stroke-width="0.2" stroke="#D0D0E0" id="img-fc1491a9-12">
      <path fill="none" d="M25.09,10.61 L 25.09 100.71"/>
      <path fill="none" d="M53.22,10.61 L 53.22 100.71"/>
      <path fill="none" d="M81.36,10.61 L 81.36 100.71"/>
      <path fill="none" d="M109.49,10.61 L 109.49 100.71"/>
      <path fill="none" d="M137.62,10.61 L 137.62 100.71"/>
    </g>
    <g class="plotpanel" id="img-fc1491a9-13">
      <g stroke-width="0.3" fill="#000000" fill-opacity="0.000" class="geometry" stroke-dasharray="none" stroke="#00FFFF" id="img-fc1491a9-14">
        <path fill="none" d="M25.15,30.28 L 29.03 32.88 32.9 33.1 36.78 33.41 40.66 33.33 44.54 33.78 48.42 34.08 52.3 34.16 56.17 34.08 60.05 34.23 63.93 34.12 67.81 34.76 71.69 34.02 75.57 34.49 79.45 34.94 83.32 34.77 87.2 34.47 91.08 34.52 94.96 35.3 98.84 34.81 102.71 35.34 106.59 34.94 110.47 35.1 114.35 34.57 118.23 35.54 122.11 35.83 125.98 34.91 129.86 35.87 133.74 35.03 137.62 35.06"/>
      </g>
      <g stroke-width="0.3" fill="#000000" fill-opacity="0.000" class="geometry" stroke-dasharray="none" stroke="#CE009C" id="img-fc1491a9-15">
        <path fill="none" d="M25.15,28.19 L 29.03 32.42 32.9 33.97 36.78 35.41 40.66 36.45 44.54 36.64 48.42 36.62 52.3 37.28 56.17 38.05 60.05 39.1 63.93 40.74 67.81 41.98 71.69 43.69 75.57 45.66 79.45 46.95 83.32 47.52 87.2 47.86 91.08 48.12 94.96 49.16 98.84 50.19 102.71 51.64 106.59 52.42 110.47 54.03 114.35 55.55 118.23 55.27 122.11 57.18 125.98 57.81 129.86 59.1 133.74 59.96 137.62 60.51"/>
      </g>
      <g stroke-width="0.3" fill="#000000" fill-opacity="0.000" class="geometry" stroke-dasharray="none" stroke="#838D75" id="img-fc1491a9-16">
        <path fill="none" d="M25.15,28.34 L 29.03 30.35 32.9 31.06 36.78 31.69 40.66 32.38 44.54 32.27 48.42 32.67 52.3 32.56 56.17 32.89 60.05 33.18 63.93 32.98 67.81 33.46 71.69 33.36 75.57 34.48 79.45 33.92 83.32 34.24 87.2 33.88 91.08 34.25 94.96 34.53 98.84 33.77 102.71 34.01 106.59 34.64 110.47 35.27 114.35 35.08 118.23 36.6 122.11 35.57 125.98 35.69 129.86 35.56 133.74 35.49 137.62 35.99"/>
      </g>
      <g stroke-width="0.3" fill="#000000" fill-opacity="0.000" class="geometry" stroke-dasharray="none" stroke="#00577C" id="img-fc1491a9-17">
        <path fill="none" d="M25.15,27.19 L 29.03 35.12 32.9 42.34 36.78 44.85 40.66 41.07 44.54 40.68 48.42 43.01 52.3 40.52 56.17 41.11 60.05 44.59 63.93 44.54 67.81 42.08 71.69 41.78 75.57 44.98 79.45 44.68 83.32 41.75 87.2 46.02 91.08 40.43 94.96 39.68 98.84 44.38 102.71 42.32 106.59 44.33 110.47 45.77 114.35 43.12 118.23 44.74 122.11 43.07 125.98 44.32 129.86 42.74 133.74 40.14 137.62 45.74"/>
      </g>
      <g stroke-width="0.3" fill="#000000" fill-opacity="0.000" class="geometry" stroke-dasharray="none" stroke="#542900" id="img-fc1491a9-18">
        <path fill="none" d="M25.15,28 L 29.03 30.16 32.9 30.52 36.78 30.63 40.66 29.74 44.54 30.46 48.42 30.13 52.3 30.27 56.17 30.53 60.05 30.18 63.93 30.46 67.81 30.3 71.69 30.44 75.57 29.99 79.45 30.38 83.32 30.88 87.2 30.6 91.08 30.23 94.96 29.9 98.84 30.43 102.71 30.27 106.59 30.48 110.47 30.33 114.35 30.3 118.23 30.13 122.11 30.69 125.98 30.7 129.86 30.42 133.74 30.16 137.62 29.64"/>
      </g>
      <g stroke-width="0.3" fill="#000000" fill-opacity="0.000" class="geometry" stroke-dasharray="none" stroke="#FFBC00" id="img-fc1491a9-19">
        <path fill="none" d="M25.15,28.25 L 29.03 32.21 32.9 34.33 36.78 35.93 40.66 38.33 44.54 41.61 48.42 44.62 52.3 47.41 56.17 49.28 60.05 52.29 63.93 55.61 67.81 58.88 71.69 61.33 75.57 65.37 79.45 69.25 83.32 71.69 87.2 75.51 91.08 79 94.96 82.52 98.84 87.32 102.71 89.55 106.59 93.05 110.47 94.02 114.35 95.75 118.23 95.7 122.11 95.96 125.98 95.69 129.86 95.99 133.74 95.86 137.62 95.84"/>
      </g>
      <g stroke-width="0.3" fill="#000000" fill-opacity="0.000" class="geometry" stroke-dasharray="none" stroke="#FFB6FF" id="img-fc1491a9-20">
        <path fill="none" d="M25.15,28.24 L 29.03 32.44 32.9 35.96 36.78 37.77 40.66 40.97 44.54 44.42 48.42 48.04 52.3 50.76 56.17 54.55 60.05 58.87 63.93 62.25 67.81 65.21 71.69 67.29 75.57 70.26 79.45 71.96 83.32 81.95 87.2 82.08 91.08 82.93 94.96 90.8 98.84 94.59 102.71 96.44 106.59 95.28 110.47 95.16 114.35 95.33 118.23 95.09 122.11 96.59 125.98 95.32 129.86 95.16 133.74 96.64 137.62 96.57"/>
      </g>
      <g stroke-width="0.3" fill="#000000" fill-opacity="0.000" class="geometry" stroke-dasharray="none" stroke="#29003B" id="img-fc1491a9-21">
        <path fill="none" d="M25.15,27.02 L 29.03 30.64 32.9 31.34 36.78 30.09 40.66 31.22 44.54 30.54 48.42 30.43 52.3 29.86 56.17 30.82 60.05 30.65 63.93 30.89 67.81 30 71.69 31.23 75.57 29.24 79.45 31.15 83.32 31.32 87.2 30.63 91.08 31.25 94.96 30.24 98.84 30.83 102.71 31.39 106.59 30.28 110.47 31.09 114.35 29.66 118.23 30.32 122.11 31.45 125.98 31.33 129.86 30.95 133.74 30.57 137.62 30.6"/>
      </g>
      <g stroke-width="0.3" fill="#000000" fill-opacity="0.000" class="geometry" stroke-dasharray="none" stroke="#00AEFF" id="img-fc1491a9-22">
        <path fill="none" d="M25.15,27 L 29.03 30.74 32.9 29.88 36.78 30.54 40.66 30.65 44.54 30.99 48.42 30.65 52.3 30.64 56.17 30.6 60.05 31 63.93 31.24 67.81 31.55 71.69 31.19 75.57 30.24 79.45 29.17 83.32 31.44 87.2 31.23 91.08 30.82 94.96 31.06 98.84 31.1 102.71 31.25 106.59 31.15 110.47 31.29 114.35 29.05 118.23 31.52 122.11 31.44 125.98 31.28 129.86 29.24 133.74 30.73 137.62 31.28"/>
      </g>
      <g stroke-width="0.3" fill="#000000" fill-opacity="0.000" class="geometry" stroke-dasharray="none" stroke="#003800" id="img-fc1491a9-23">
        <path fill="none" d="M25.15,27.01 L 29.03 31.87 32.9 32.83 36.78 32.73 40.66 32.85 44.54 32.9 48.42 32.3 52.3 33.05 56.17 33.38 60.05 32.69 63.93 32.67 67.81 33.3 71.69 32.38 75.57 32.7 79.45 32.79 83.32 32.54 87.2 33.29 91.08 33.38 94.96 32.91 98.84 33 102.71 33.37 106.59 33.5 110.47 32.53 114.35 33.54 118.23 34.11 122.11 32.56 125.98 32.87 129.86 32.89 133.74 33.26 137.62 34.87"/>
      </g>
      <g stroke-width="0.3" fill="#000000" fill-opacity="0.000" class="geometry" stroke-dasharray="none" stroke="#00F75A" id="img-fc1491a9-24">
        <path fill="none" d="M25.15,28.6 L 29.03 30.6 32.9 31.09 36.78 32.58 40.66 33.9 44.54 34.9 48.42 34.69 52.3 35.19 56.17 35.65 60.05 35.84 63.93 37.78 67.81 36.99 71.69 38.37 75.57 39.47 79.45 38.32 83.32 38.36 87.2 39.97 91.08 38.54 94.96 39.78 98.84 39.46 102.71 38.94 106.59 38.37 110.47 38.86 114.35 39.25 118.23 39.84 122.11 39.6 125.98 40.76 129.86 39.93 133.74 39.2 137.62 38.55"/>
      </g>
      <g stroke-width="0.3" fill="#000000" fill-opacity="0.000" class="geometry" stroke-dasharray="none" stroke="#FF0000" id="img-fc1491a9-25">
        <path fill="none" d="M25.15,28.33 L 29.03 30.5 32.9 31.73 36.78 32.32 40.66 33.3 44.54 34.75 48.42 35.22 52.3 34.91 56.17 35.1 60.05 36.78 63.93 37.78 67.81 37.93 71.69 40.27 75.57 38.64 79.45 40 83.32 39.59 87.2 40.73 91.08 40.08 94.96 39.91 98.84 40.91 102.71 40.23 106.59 41.91 110.47 41.48 114.35 40.25 118.23 39.88 122.11 40.9 125.98 41.17 129.86 41 133.74 40.83 137.62 39.91"/>
      </g>
    </g>
  </g>
</g>
  <g class="guide ylabels" font-size="2.82" font-family="'PT Sans Caption','Helvetica Neue','Helvetica',sans-serif" fill="#6C606B" id="img-fc1491a9-26">
    <text x="22.09" y="98.71" text-anchor="end" dy="0.35em">10<tspan style="dominant-baseline:inherit" dy="-0.6em" font-size="83%">-7.5</tspan><tspan dy="0.498000em"></tspan></text>
    <text x="22.09" y="77.19" text-anchor="end" dy="0.35em">10<tspan style="dominant-baseline:inherit" dy="-0.6em" font-size="83%">-5.0</tspan><tspan dy="0.498000em"></tspan></text>
    <text x="22.09" y="55.66" text-anchor="end" dy="0.35em">10<tspan style="dominant-baseline:inherit" dy="-0.6em" font-size="83%">-2.5</tspan><tspan dy="0.498000em"></tspan></text>
    <text x="22.09" y="34.14" text-anchor="end" dy="0.35em">10<tspan style="dominant-baseline:inherit" dy="-0.6em" font-size="83%">0.0</tspan><tspan dy="0.498000em"></tspan></text>
    <text x="22.09" y="12.61" text-anchor="end" dy="0.35em">10<tspan style="dominant-baseline:inherit" dy="-0.6em" font-size="83%">2.5</tspan><tspan dy="0.498000em"></tspan></text>
  </g>
  <g font-size="3.88" font-family="'PT Sans','Helvetica Neue','Helvetica',sans-serif" fill="#564A55" stroke="#000000" stroke-opacity="0.000" id="img-fc1491a9-27">
    <text x="8.81" y="53.66" text-anchor="middle" dy="0.35em" transform="rotate(-90, 8.81, 55.66)">Distance to xmin</text>
  </g>
  <g font-size="3.88" font-family="'PT Sans','Helvetica Neue','Helvetica',sans-serif" fill="#564A55" stroke="#000000" stroke-opacity="0.000" id="img-fc1491a9-28">
    <text x="81.36" y="5" text-anchor="middle" dy="0.6em">All functions</text>
  </g>
</g>
<defs>
  <clipPath id="img-fc1491a9-8">
  <path d="M23.09,10.61 L 139.62 10.61 139.62 100.71 23.09 100.71" />
</clipPath>
</defs>
</svg>
