<?xml version="1.0" encoding="UTF-8"?>
<svg xmlns="http://www.w3.org/2000/svg"
     xmlns:xlink="http://www.w3.org/1999/xlink"
     xmlns:gadfly="http://www.gadflyjl.org/ns"
     version="1.2"
     width="200mm" height="120mm" viewBox="0 0 200 120"
     stroke="none"
     fill="#000000"
     stroke-width="0.3"
     font-size="3.88"
>
<g class="plotroot xscalable yscalable" id="img-e096d1f3-1">
  <g font-size="3.88" font-family="'PT Sans','Helvetica Neue','Helvetica',sans-serif" fill="#564A55" stroke="#000000" stroke-opacity="0.000" id="img-e096d1f3-2">
    <text x="81.02" y="108.39" text-anchor="middle" dy="0.6em">Run Length / D</text>
  </g>
  <g class="guide xlabels" font-size="2.82" font-family="'PT Sans Caption','Helvetica Neue','Helvetica',sans-serif" fill="#6C606B" id="img-e096d1f3-3">
    <text x="24.42" y="101.71" text-anchor="middle" dy="0.6em">0</text>
    <text x="52.72" y="101.71" text-anchor="middle" dy="0.6em">2.0×10³</text>
    <text x="81.02" y="101.71" text-anchor="middle" dy="0.6em">4.0×10³</text>
    <text x="109.32" y="101.71" text-anchor="middle" dy="0.6em">6.0×10³</text>
    <text x="137.62" y="101.71" text-anchor="middle" dy="0.6em">8.0×10³</text>
  </g>
  <g class="guide colorkey" id="img-e096d1f3-4">
    <g fill="#4C404B" font-size="2.82" font-family="'PT Sans','Helvetica Neue','Helvetica',sans-serif" id="img-e096d1f3-5">
      <text x="143.43" y="37.53" dy="0.35em">R-Optim.GradientDescent</text>
      <text x="143.43" y="41.16" dy="0.35em">R-Optim.NelderMead</text>
      <text x="143.43" y="44.78" dy="0.35em">CMAESoptim</text>
      <text x="143.43" y="48.41" dy="0.35em">Optim.NelderMead</text>
      <text x="143.43" y="52.04" dy="0.35em">Optim.GradientDescent</text>
      <text x="143.43" y="55.66" dy="0.35em">BBO.adaptive_de_rand_1_bin_radiuslimited</text>
      <text x="143.43" y="59.29" dy="0.35em">BBO.adaptive_de_rand_1_bin</text>
      <text x="143.43" y="62.92" dy="0.35em">NLopt.LN_BOBYQA</text>
      <text x="143.43" y="66.54" dy="0.35em">BBO.xnes</text>
      <text x="143.43" y="70.17" dy="0.35em">BBO.generating_set_search</text>
      <text x="143.43" y="73.8" dy="0.35em">BBO.de_rand_2_bin</text>
      <text x="143.43" y="77.42" dy="0.35em">BBO.resampling_memetic_search</text>
    </g>
    <g stroke="#000000" stroke-opacity="0.000" id="img-e096d1f3-6">
      <rect x="140.62" y="36.62" width="1.81" height="1.81" fill="#FF0000"/>
      <rect x="140.62" y="40.25" width="1.81" height="1.81" fill="#00F75A"/>
      <rect x="140.62" y="43.88" width="1.81" height="1.81" fill="#003800"/>
      <rect x="140.62" y="47.5" width="1.81" height="1.81" fill="#00AEFF"/>
      <rect x="140.62" y="51.13" width="1.81" height="1.81" fill="#29003B"/>
      <rect x="140.62" y="54.76" width="1.81" height="1.81" fill="#FFB6FF"/>
      <rect x="140.62" y="58.38" width="1.81" height="1.81" fill="#FFBC00"/>
      <rect x="140.62" y="62.01" width="1.81" height="1.81" fill="#542900"/>
      <rect x="140.62" y="65.64" width="1.81" height="1.81" fill="#00577C"/>
      <rect x="140.62" y="69.26" width="1.81" height="1.81" fill="#838D75"/>
      <rect x="140.62" y="72.89" width="1.81" height="1.81" fill="#CE009C"/>
      <rect x="140.62" y="76.52" width="1.81" height="1.81" fill="#00FFFF"/>
    </g>
    <g fill="#362A35" font-size="3.88" font-family="'PT Sans','Helvetica Neue','Helvetica',sans-serif" stroke="#000000" stroke-opacity="0.000" id="img-e096d1f3-7">
      <text x="140.62" y="33.71"></text>
    </g>
  </g>
<g clip-path="url(#img-e096d1f3-8)">
  <g id="img-e096d1f3-9">
    <g pointer-events="visible" opacity="1" fill="#000000" fill-opacity="0.000" stroke="#000000" stroke-opacity="0.000" class="guide background" id="img-e096d1f3-10">
      <rect x="22.42" y="10.61" width="117.2" height="90.1"/>
    </g>
    <g class="guide ygridlines xfixed" stroke-dasharray="0.5,0.5" stroke-width="0.2" stroke="#D0D0E0" id="img-e096d1f3-11">
      <path fill="none" d="M22.42,98.72 L 139.62 98.72"/>
      <path fill="none" d="M22.42,81.49 L 139.62 81.49"/>
      <path fill="none" d="M22.42,64.27 L 139.62 64.27"/>
      <path fill="none" d="M22.42,47.05 L 139.62 47.05"/>
      <path fill="none" d="M22.42,29.83 L 139.62 29.83"/>
      <path fill="none" d="M22.42,12.61 L 139.62 12.61"/>
    </g>
    <g class="guide xgridlines yfixed" stroke-dasharray="0.5,0.5" stroke-width="0.2" stroke="#D0D0E0" id="img-e096d1f3-12">
      <path fill="none" d="M24.42,10.61 L 24.42 100.71"/>
      <path fill="none" d="M52.72,10.61 L 52.72 100.71"/>
      <path fill="none" d="M81.02,10.61 L 81.02 100.71"/>
      <path fill="none" d="M109.32,10.61 L 109.32 100.71"/>
      <path fill="none" d="M137.62,10.61 L 137.62 100.71"/>
    </g>
    <g class="plotpanel" id="img-e096d1f3-13">
      <g class="xfixed" id="img-e096d1f3-14">
        <g stroke-dasharray="none" stroke-width="0.3" stroke="#808080" id="img-e096d1f3-15">
          <path fill="none" d="M22.42,50.5 L 139.62 50.5"/>
        </g>
      </g>
      <g stroke-width="0.3" fill="#000000" fill-opacity="0.000" class="geometry" stroke-dasharray="none" stroke="#00FFFF" id="img-e096d1f3-16">
        <path fill="none" d="M24.47,25.5 L 28.38 28.91 32.28 29.21 36.18 29.7 40.08 29.94 43.98 30.06 47.89 30.21 51.78 30.3 55.69 30.28 59.59 30.65 63.49 30.62 67.39 30.48 71.29 30.83 75.19 30.83 79.1 30.92 83 31.08 86.9 30.78 90.8 31.03 94.7 31.02 98.61 30.89 102.5 31.17 106.41 31.11 110.31 31.33 114.21 30.99 118.11 31.15 122.02 31.53 125.91 31.3 129.82 31.22 133.72 31.36 137.62 31.22"/>
      </g>
      <g stroke-width="0.3" fill="#000000" fill-opacity="0.000" class="geometry" stroke-dasharray="none" stroke="#CE009C" id="img-e096d1f3-17">
        <path fill="none" d="M24.47,22.31 L 28.38 27.47 32.28 28.19 36.18 29.46 40.08 29.67 43.98 29.9 47.89 30.27 51.78 31.06 55.69 31.85 59.59 32.48 63.49 33.28 67.39 33.95 71.29 35.23 75.19 36.54 79.1 37.09 83 38.19 86.9 39.25 90.8 40.44 94.7 41.28 98.61 41.85 102.5 43.36 106.41 43.89 110.31 44.82 114.21 46.15 118.11 46.25 122.02 47.92 125.91 48.8 129.82 49.85 133.72 50.47 137.62 51.07"/>
      </g>
      <g stroke-width="0.3" fill="#000000" fill-opacity="0.000" class="geometry" stroke-dasharray="none" stroke="#838D75" id="img-e096d1f3-18">
        <path fill="none" d="M24.47,21.64 L 28.38 28.15 32.28 28.74 36.18 29.18 40.08 29.43 43.98 29.79 47.89 29.66 51.78 29.67 55.69 29.92 59.59 30.1 63.49 30.23 67.39 30.35 71.29 30.07 75.19 30.27 79.1 30.47 83 30.6 86.9 30.59 90.8 30.86 94.7 30.82 98.61 30.81 102.5 30.65 106.41 31.02 110.31 31.21 114.21 31.18 118.11 31.87 122.02 31.07 125.91 31.67 129.82 31.89 133.72 31.63 137.62 31.96"/>
      </g>
      <g stroke-width="0.3" fill="#000000" fill-opacity="0.000" class="geometry" stroke-dasharray="none" stroke="#00577C" id="img-e096d1f3-19">
        <path fill="none" d="M24.47,21 L 28.38 29.08 32.28 33.04 36.18 33.78 40.08 32 43.98 31.66 47.89 32.8 51.78 33.53 55.69 32.97 59.59 33.77 63.49 33.82 67.39 34.89 71.29 33.77 75.19 33.82 79.1 33.78 83 32.57 86.9 37.48 90.8 32.09 94.7 31.87 98.61 32.27 102.5 33.72 106.41 33.72 110.31 37.08 114.21 33.45 118.11 35.68 122.02 33.19 125.91 33.7 129.82 32.79 133.72 33.21 137.62 36.74"/>
      </g>
      <g stroke-width="0.3" fill="#000000" fill-opacity="0.000" class="geometry" stroke-dasharray="none" stroke="#542900" id="img-e096d1f3-20">
        <path fill="none" d="M24.47,22.25 L 28.38 26.62 32.28 27.05 36.18 28.31 40.08 29 43.98 26.23 47.89 27.09 51.78 29.07 55.69 28.83 59.59 29.01 63.49 29.11 67.39 28.22 71.29 29.28 75.19 29 79.1 28.79 83 28.59 86.9 27.74 90.8 28.84 94.7 28.96 98.61 29.18 102.5 28.98 106.41 29.55 110.31 27.36 114.21 27.36 118.11 29.46 122.02 28.84 125.91 29.33 129.82 29.65 133.72 29.42 137.62 28.66"/>
      </g>
      <g stroke-width="0.3" fill="#000000" fill-opacity="0.000" class="geometry" stroke-dasharray="none" stroke="#FFBC00" id="img-e096d1f3-21">
        <path fill="none" d="M24.47,22.37 L 28.38 27.39 32.28 28.4 36.18 29.8 40.08 30.76 43.98 31.81 47.89 33.89 51.78 37.02 55.69 40.35 59.59 43.03 63.49 45.85 67.39 48.32 71.29 51.52 75.19 53.88 79.1 57.54 83 59.23 86.9 61.82 90.8 64.69 94.7 67.64 98.61 70.54 102.5 72.55 106.41 76.18 110.31 78.4 114.21 84.69"/>
      </g>
      <g stroke-width="0.3" fill="#000000" fill-opacity="0.000" class="geometry" stroke-dasharray="none" stroke="#FFB6FF" id="img-e096d1f3-22">
        <path fill="none" d="M24.47,22.42 L 28.38 26.86 32.28 29.14 36.18 30.49 40.08 31.36 43.98 33.34 47.89 36.1 51.78 40.93 55.69 44.59 59.59 47.01 63.49 49.83 67.39 52.62 71.29 54.32 75.19 56.91 79.1 61.15 83 64.71 86.9 67.7 90.8 71.13 94.7 74.09 98.61 76.82 102.5 79.83"/>
      </g>
      <g stroke-width="0.3" fill="#000000" fill-opacity="0.000" class="geometry" stroke-dasharray="none" stroke="#29003B" id="img-e096d1f3-23">
        <path fill="none" d="M24.47,21.61 L 28.38 28.53 32.28 28.68 36.18 27.93 40.08 29.44 43.98 28.61 47.89 29.45 51.78 29.34 55.69 28.56 59.59 28.28 63.49 28.69 67.39 28.5 71.29 28.95 75.19 29.3 79.1 29.58 83 29.34 86.9 28.05 90.8 28.83 94.7 29.06 98.61 28.14 102.5 29.16 106.41 28.15 110.31 29.17 114.21 28.36 118.11 29.45 122.02 29.23 125.91 29.09 129.82 28.56 133.72 28.18 137.62 29.04"/>
      </g>
      <g stroke-width="0.3" fill="#000000" fill-opacity="0.000" class="geometry" stroke-dasharray="none" stroke="#00AEFF" id="img-e096d1f3-24">
        <path fill="none" d="M24.47,21.86 L 28.38 28.35 32.28 28.68 36.18 29.42 40.08 28.16 43.98 29.26 47.89 28.54 51.78 28.57 55.69 28.74 59.59 29.29 63.49 29.33 67.39 28.8 71.29 28.64 75.19 29.2 79.1 27.96 83 29.66 86.9 28.81 90.8 28.29 94.7 28.78 98.61 28.01 102.5 29.28 106.41 29.49 110.31 28.44 114.21 28.59 118.11 28.34 122.02 28.86 125.91 28.06 129.82 28.34 133.72 28.73 137.62 28.87"/>
      </g>
      <g stroke-width="0.3" fill="#000000" fill-opacity="0.000" class="geometry" stroke-dasharray="none" stroke="#003800" id="img-e096d1f3-25">
        <path fill="none" d="M24.47,22.52 L 28.38 29.38 32.28 30.3 36.18 31.23 40.08 30.23 43.98 30.8 47.89 30.46 51.78 30.24 55.69 30.62 59.59 30.32 63.49 31.02 67.39 30.62 71.29 30.3 75.19 30.62 79.1 30.35 83 30.62 86.9 30.9 90.8 31.23 94.7 30.44 98.61 30.76 102.5 30.85 106.41 31.12 110.31 30.85 114.21 30.43 118.11 30.8 122.02 30.28 125.91 31 129.82 30.62 133.72 30.8 137.62 31.39"/>
      </g>
      <g stroke-width="0.3" fill="#000000" fill-opacity="0.000" class="geometry" stroke-dasharray="none" stroke="#00F75A" id="img-e096d1f3-26">
        <path fill="none" d="M24.47,23.11 L 28.38 26.91 32.28 29.33 36.18 29.99 40.08 31.13 43.98 31.5 47.89 32.06 51.78 32.64 55.69 32.29 59.59 32.36 63.49 33.24 67.39 33.03 71.29 34.77 75.19 35.62 79.1 36.9 83 39.87 86.9 39.53 90.8 43.72 94.7 44.42 98.61 43.52 102.5 49.62 106.41 45.17 110.31 48.33 114.21 48.12 118.11 53.85 122.02 53.69 125.91 50.59 129.82 48.93 133.72 51.74 137.62 55.25"/>
      </g>
      <g stroke-width="0.3" fill="#000000" fill-opacity="0.000" class="geometry" stroke-dasharray="none" stroke="#FF0000" id="img-e096d1f3-27">
        <path fill="none" d="M24.47,23.16 L 28.38 27.06 32.28 29.36 36.18 30.7 40.08 31.34 43.98 31.45 47.89 33.27 51.78 32.52 55.69 33.02 59.59 34.5 63.49 34.28 67.39 33.73 71.29 34.96 75.19 34.84 79.1 39.85 83 36.87 86.9 43.64 90.8 44.12 94.7 45.44 98.61 46.88 102.5 44.6 106.41 49.44 110.31 48.14 114.21 52.59 118.11 49.58 122.02 49.32 125.91 46.89 129.82 50.68 133.72 48.71 137.62 53.23"/>
      </g>
    </g>
  </g>
</g>
  <g class="guide ylabels" font-size="2.82" font-family="'PT Sans Caption','Helvetica Neue','Helvetica',sans-serif" fill="#6C606B" id="img-e096d1f3-28">
    <text x="21.42" y="98.72" text-anchor="end" dy="0.35em">10<tspan style="dominant-baseline:inherit" dy="-0.6em" font-size="83%">-20</tspan><tspan dy="0.498000em"></tspan></text>
    <text x="21.42" y="81.49" text-anchor="end" dy="0.35em">10<tspan style="dominant-baseline:inherit" dy="-0.6em" font-size="83%">-15</tspan><tspan dy="0.498000em"></tspan></text>
    <text x="21.42" y="64.27" text-anchor="end" dy="0.35em">10<tspan style="dominant-baseline:inherit" dy="-0.6em" font-size="83%">-10</tspan><tspan dy="0.498000em"></tspan></text>
    <text x="21.42" y="47.05" text-anchor="end" dy="0.35em">10<tspan style="dominant-baseline:inherit" dy="-0.6em" font-size="83%">-5</tspan><tspan dy="0.498000em"></tspan></text>
    <text x="21.42" y="29.83" text-anchor="end" dy="0.35em">10<tspan style="dominant-baseline:inherit" dy="-0.6em" font-size="83%">0</tspan><tspan dy="0.498000em"></tspan></text>
    <text x="21.42" y="12.61" text-anchor="end" dy="0.35em">10<tspan style="dominant-baseline:inherit" dy="-0.6em" font-size="83%">5</tspan><tspan dy="0.498000em"></tspan></text>
  </g>
  <g font-size="3.88" font-family="'PT Sans','Helvetica Neue','Helvetica',sans-serif" fill="#564A55" stroke="#000000" stroke-opacity="0.000" id="img-e096d1f3-29">
    <text x="8.81" y="53.66" text-anchor="middle" dy="0.35em" transform="rotate(-90, 8.81, 55.66)">fmin</text>
  </g>
  <g font-size="3.88" font-family="'PT Sans','Helvetica Neue','Helvetica',sans-serif" fill="#564A55" stroke="#000000" stroke-opacity="0.000" id="img-e096d1f3-30">
    <text x="81.02" y="5" text-anchor="middle" dy="0.6em">All functions</text>
  </g>
</g>
<defs>
  <clipPath id="img-e096d1f3-8">
  <path d="M22.42,10.61 L 139.62 10.61 139.62 100.71 22.42 100.71" />
</clipPath>
</defs>
</svg>
