<?xml version="1.0" encoding="UTF-8"?>
<svg xmlns="http://www.w3.org/2000/svg"
     xmlns:xlink="http://www.w3.org/1999/xlink"
     xmlns:gadfly="http://www.gadflyjl.org/ns"
     version="1.2"
     width="200mm" height="120mm" viewBox="0 0 200 120"
     stroke="none"
     fill="#000000"
     stroke-width="0.3"
     font-size="3.88"
>
<g class="plotroot xscalable yscalable" id="img-73c7659f-1">
  <g font-size="3.88" font-family="'PT Sans','Helvetica Neue','Helvetica',sans-serif" fill="#564A55" stroke="#000000" stroke-opacity="0.000" id="img-73c7659f-2">
    <text x="79.13" y="108.39" text-anchor="middle" dy="0.6em">Run Length</text>
  </g>
  <g class="guide xlabels" font-size="2.82" font-family="'PT Sans Caption','Helvetica Neue','Helvetica',sans-serif" fill="#6C606B" id="img-73c7659f-3">
    <text x="20.63" y="101.72" text-anchor="middle" dy="0.6em">0</text>
    <text x="40.13" y="101.72" text-anchor="middle" dy="0.6em">1.0×10⁴</text>
    <text x="59.63" y="101.72" text-anchor="middle" dy="0.6em">2.0×10⁴</text>
    <text x="79.13" y="101.72" text-anchor="middle" dy="0.6em">3.0×10⁴</text>
    <text x="98.62" y="101.72" text-anchor="middle" dy="0.6em">4.0×10⁴</text>
    <text x="118.12" y="101.72" text-anchor="middle" dy="0.6em">5.0×10⁴</text>
    <text x="137.62" y="101.72" text-anchor="middle" dy="0.6em">6.0×10⁴</text>
  </g>
  <g class="guide colorkey" id="img-73c7659f-4">
    <g fill="#4C404B" font-size="2.82" font-family="'PT Sans','Helvetica Neue','Helvetica',sans-serif" id="img-73c7659f-5">
      <text x="143.43" y="44.78" dy="0.35em">R-Optim.NelderMead</text>
      <text x="143.43" y="48.41" dy="0.35em">CMAESoptim</text>
      <text x="143.43" y="52.04" dy="0.35em">Optim.NelderMead</text>
      <text x="143.43" y="55.66" dy="0.35em">BBO.adaptive_de_rand_1_bin_radiuslimited</text>
      <text x="143.43" y="59.29" dy="0.35em">BBO.adaptive_de_rand_1_bin</text>
      <text x="143.43" y="62.92" dy="0.35em">BBO.xnes</text>
      <text x="143.43" y="66.54" dy="0.35em">BBO.generating_set_search</text>
      <text x="143.43" y="70.17" dy="0.35em">BBO.de_rand_2_bin</text>
    </g>
    <g stroke="#000000" stroke-opacity="0.000" id="img-73c7659f-6">
      <rect x="140.62" y="43.88" width="1.81" height="1.81" fill="#FF0000"/>
      <rect x="140.62" y="47.5" width="1.81" height="1.81" fill="#00F75A"/>
      <rect x="140.62" y="51.13" width="1.81" height="1.81" fill="#003800"/>
      <rect x="140.62" y="54.76" width="1.81" height="1.81" fill="#00AEFF"/>
      <rect x="140.62" y="58.38" width="1.81" height="1.81" fill="#29003B"/>
      <rect x="140.62" y="62.01" width="1.81" height="1.81" fill="#FFB6FF"/>
      <rect x="140.62" y="65.64" width="1.81" height="1.81" fill="#FFBC00"/>
      <rect x="140.62" y="69.26" width="1.81" height="1.81" fill="#542900"/>
    </g>
    <g fill="#362A35" font-size="3.88" font-family="'PT Sans','Helvetica Neue','Helvetica',sans-serif" stroke="#000000" stroke-opacity="0.000" id="img-73c7659f-7">
      <text x="140.62" y="40.96"></text>
    </g>
  </g>
<g clip-path="url(#img-73c7659f-8)">
  <g id="img-73c7659f-9">
    <g pointer-events="visible" opacity="1" fill="#000000" fill-opacity="0.000" stroke="#000000" stroke-opacity="0.000" class="guide background" id="img-73c7659f-10">
      <rect x="18.63" y="10.61" width="120.99" height="90.1"/>
    </g>
    <g class="guide ygridlines xfixed" stroke-dasharray="0.5,0.5" stroke-width="0.2" stroke="#D0D0E0" id="img-73c7659f-11">
      <path fill="none" d="M18.63,98.72 L 139.62 98.72"/>
      <path fill="none" d="M18.63,84.36 L 139.62 84.36"/>
      <path fill="none" d="M18.63,70.01 L 139.62 70.01"/>
      <path fill="none" d="M18.63,55.66 L 139.62 55.66"/>
      <path fill="none" d="M18.63,41.31 L 139.62 41.31"/>
      <path fill="none" d="M18.63,26.96 L 139.62 26.96"/>
      <path fill="none" d="M18.63,12.61 L 139.62 12.61"/>
    </g>
    <g class="guide xgridlines yfixed" stroke-dasharray="0.5,0.5" stroke-width="0.2" stroke="#D0D0E0" id="img-73c7659f-12">
      <path fill="none" d="M20.63,10.61 L 20.63 100.72"/>
      <path fill="none" d="M40.13,10.61 L 40.13 100.72"/>
      <path fill="none" d="M59.63,10.61 L 59.63 100.72"/>
      <path fill="none" d="M79.13,10.61 L 79.13 100.72"/>
      <path fill="none" d="M98.62,10.61 L 98.62 100.72"/>
      <path fill="none" d="M118.12,10.61 L 118.12 100.72"/>
      <path fill="none" d="M137.62,10.61 L 137.62 100.72"/>
    </g>
    <g class="plotpanel" id="img-73c7659f-13">
      <g stroke-width="0.3" fill="#000000" fill-opacity="0.000" class="geometry" stroke-dasharray="none" stroke="#542900" id="img-73c7659f-14">
        <path fill="none" d="M20.67,98.72 L 26.83 98.72 32.98 98.72 39.14 91.22 45.29 89.15 51.45 86.76 57.6 83.41 63.76 79.1 69.91 75.75 76.07 71.29 82.22 68.26 88.38 67.46 94.53 65.87 100.69 63.48 106.84 60.61 113 58.37 119.15 58.06 125.31 57.1 131.46 56.46 137.62 55.66"/>
      </g>
      <g stroke-width="0.3" fill="#000000" fill-opacity="0.000" class="geometry" stroke-dasharray="none" stroke="#FFBC00" id="img-73c7659f-15">
        <path fill="none" d="M20.67,98.72 L 26.83 83.89 32.98 78.62 39.14 77.99 45.29 75.59 51.45 73.68 57.6 74.48 63.76 70.81 69.91 69.38 76.07 67.78 82.22 66.19 88.38 64.91 94.53 65.55 100.69 66.67 106.84 65.23 113 65.23 119.15 63.95 125.31 64.75 131.46 65.55 137.62 64.11"/>
      </g>
      <g stroke-width="0.3" fill="#000000" fill-opacity="0.000" class="geometry" stroke-dasharray="none" stroke="#FFB6FF" id="img-73c7659f-16">
        <path fill="none" d="M20.67,98.72 L 26.83 87.87 32.98 71.77 39.14 67.3 45.29 63.64 51.45 58.53 57.6 54.23 63.76 50.88 69.91 48.17 76.07 46.89 82.22 46.42 88.38 48.49 94.53 46.57 100.69 48.01 106.84 46.1 113 43.23 119.15 44.34 125.31 42.91 131.46 44.02 137.62 43.39"/>
      </g>
      <g stroke-width="0.3" fill="#000000" fill-opacity="0.000" class="geometry" stroke-dasharray="none" stroke="#29003B" id="img-73c7659f-17">
        <path fill="none" d="M20.67,98.72 L 26.83 98.72 32.98 94.41 39.14 87.39 45.29 81.33 51.45 68.74 57.6 58.53 63.76 55.34 69.91 52.47 76.07 48.49 82.22 45.14 88.38 39.08 94.53 37.96 100.69 34.62 106.84 30.47 113 29.19 119.15 22.98 125.31 20.9 131.46 19.15 137.62 16.44"/>
      </g>
      <g stroke-width="0.3" fill="#000000" fill-opacity="0.000" class="geometry" stroke-dasharray="none" stroke="#00AEFF" id="img-73c7659f-18">
        <path fill="none" d="M20.67,98.72 L 26.83 98.72 32.98 93.77 39.14 84.68 45.29 71.61 51.45 58.37 57.6 49.92 63.76 46.73 69.91 43.86 76.07 40.67 82.22 37.65 88.38 32.54 94.53 31.59 100.69 30.95 106.84 28.72 113 24.73 119.15 23.29 125.31 21.38 131.46 19.31 137.62 17.71"/>
      </g>
      <g stroke-width="0.3" fill="#000000" fill-opacity="0.000" class="geometry" stroke-dasharray="none" stroke="#003800" id="img-73c7659f-19">
        <path fill="none" d="M20.67,98.72 L 26.83 73.04 32.98 72.25 39.14 73.2 45.29 72.09 51.45 71.45 57.6 71.13 63.76 73.84 69.91 71.29 76.07 72.41 82.22 71.77 88.38 72.57 94.53 72.25 100.69 73.04 106.84 71.61 113 73.52 119.15 73.2 125.31 74.16 131.46 73.52 137.62 73.2"/>
      </g>
      <g stroke-width="0.3" fill="#000000" fill-opacity="0.000" class="geometry" stroke-dasharray="none" stroke="#00F75A" id="img-73c7659f-20">
        <path fill="none" d="M20.67,93.13 L 26.83 57.26 32.98 57.1 39.14 55.82 45.29 54.87 51.45 54.87 57.6 52.31 63.76 52 69.91 53.59 76.07 53.27 82.22 52.79 88.38 52 94.53 52.16 100.69 52.31 106.84 52.16 113 51.84 119.15 52.95 125.31 52.31 131.46 54.55 137.62 53.11"/>
      </g>
      <g stroke-width="0.3" fill="#000000" fill-opacity="0.000" class="geometry" stroke-dasharray="none" stroke="#FF0000" id="img-73c7659f-21">
        <path fill="none" d="M20.67,98.72 L 26.83 94.09 32.98 87.71 39.14 82.61 45.29 74.48 51.45 70.81 57.6 65.87 63.76 65.87 69.91 63.48 76.07 63.32 82.22 62.36 88.38 62.36 94.53 62.68 100.69 63.32 106.84 63.32 113 62.2 119.15 62.68 125.31 62.84 131.46 62.84 137.62 62.52"/>
      </g>
    </g>
  </g>
</g>
  <g class="guide ylabels" font-size="2.82" font-family="'PT Sans Caption','Helvetica Neue','Helvetica',sans-serif" fill="#6C606B" id="img-73c7659f-22">
    <text x="17.63" y="98.72" text-anchor="end" dy="0.35em">0.0</text>
    <text x="17.63" y="84.36" text-anchor="end" dy="0.35em">0.1</text>
    <text x="17.63" y="70.01" text-anchor="end" dy="0.35em">0.2</text>
    <text x="17.63" y="55.66" text-anchor="end" dy="0.35em">0.3</text>
    <text x="17.63" y="41.31" text-anchor="end" dy="0.35em">0.4</text>
    <text x="17.63" y="26.96" text-anchor="end" dy="0.35em">0.5</text>
    <text x="17.63" y="12.61" text-anchor="end" dy="0.35em">0.6</text>
  </g>
  <g font-size="3.88" font-family="'PT Sans','Helvetica Neue','Helvetica',sans-serif" fill="#564A55" stroke="#000000" stroke-opacity="0.000" id="img-73c7659f-23">
    <text x="8.81" y="53.66" text-anchor="middle" dy="0.35em" transform="rotate(-90, 8.81, 55.66)">Success rate</text>
  </g>
  <g font-size="3.88" font-family="'PT Sans','Helvetica Neue','Helvetica',sans-serif" fill="#564A55" stroke="#000000" stroke-opacity="0.000" id="img-73c7659f-24">
    <text x="79.13" y="5" text-anchor="middle" dy="0.6em">All functions</text>
  </g>
</g>
<defs>
  <clipPath id="img-73c7659f-8">
  <path d="M18.63,10.61 L 139.62 10.61 139.62 100.72 18.63 100.72" />
</clipPath>
</defs>
</svg>
