<?xml version="1.0" encoding="UTF-8"?>
<svg xmlns="http://www.w3.org/2000/svg"
     xmlns:xlink="http://www.w3.org/1999/xlink"
     xmlns:gadfly="http://www.gadflyjl.org/ns"
     version="1.2"
     width="160mm" height="120mm" viewBox="0 0 160 120"
     stroke="none"
     fill="#000000"
     stroke-width="0.3"
     font-size="3.88"
>
<g class="plotroot xscalable yscalable" id="img-38d9f30c-1">
  <g font-size="3.88" font-family="'PT Sans','Helvetica Neue','Helvetica',sans-serif" fill="#564A55" stroke="#000000" stroke-opacity="0.000" id="img-38d9f30c-2">
    <text x="61.02" y="108.39" text-anchor="middle" dy="0.6em">Run Length / D</text>
  </g>
  <g class="guide xlabels" font-size="2.82" font-family="'PT Sans Caption','Helvetica Neue','Helvetica',sans-serif" fill="#6C606B" id="img-38d9f30c-3">
    <text x="24.42" y="101.71" text-anchor="middle" dy="0.6em">0</text>
    <text x="42.72" y="101.71" text-anchor="middle" dy="0.6em">2.0×10³</text>
    <text x="61.02" y="101.71" text-anchor="middle" dy="0.6em">4.0×10³</text>
    <text x="79.32" y="101.71" text-anchor="middle" dy="0.6em">6.0×10³</text>
    <text x="97.62" y="101.71" text-anchor="middle" dy="0.6em">8.0×10³</text>
  </g>
  <g class="guide colorkey" id="img-38d9f30c-4">
    <g fill="#4C404B" font-size="2.82" font-family="'PT Sans','Helvetica Neue','Helvetica',sans-serif" id="img-38d9f30c-5">
      <text x="103.43" y="37.53" dy="0.35em">R-Optim.GradientDescent</text>
      <text x="103.43" y="41.16" dy="0.35em">R-Optim.NelderMead</text>
      <text x="103.43" y="44.78" dy="0.35em">CMAESoptim</text>
      <text x="103.43" y="48.41" dy="0.35em">Optim.NelderMead</text>
      <text x="103.43" y="52.04" dy="0.35em">Optim.GradientDescent</text>
      <text x="103.43" y="55.66" dy="0.35em">BBO.adaptive_de_rand_1_bin_radiuslimited</text>
      <text x="103.43" y="59.29" dy="0.35em">BBO.adaptive_de_rand_1_bin</text>
      <text x="103.43" y="62.92" dy="0.35em">NLopt.LN_BOBYQA</text>
      <text x="103.43" y="66.54" dy="0.35em">BBO.xnes</text>
      <text x="103.43" y="70.17" dy="0.35em">BBO.generating_set_search</text>
      <text x="103.43" y="73.8" dy="0.35em">BBO.de_rand_2_bin</text>
      <text x="103.43" y="77.42" dy="0.35em">BBO.resampling_memetic_search</text>
    </g>
    <g stroke="#000000" stroke-opacity="0.000" id="img-38d9f30c-6">
      <rect x="100.62" y="36.62" width="1.81" height="1.81" fill="#FF0000"/>
      <rect x="100.62" y="40.25" width="1.81" height="1.81" fill="#00F75A"/>
      <rect x="100.62" y="43.88" width="1.81" height="1.81" fill="#003800"/>
      <rect x="100.62" y="47.5" width="1.81" height="1.81" fill="#00AEFF"/>
      <rect x="100.62" y="51.13" width="1.81" height="1.81" fill="#29003B"/>
      <rect x="100.62" y="54.76" width="1.81" height="1.81" fill="#FFB6FF"/>
      <rect x="100.62" y="58.38" width="1.81" height="1.81" fill="#FFBC00"/>
      <rect x="100.62" y="62.01" width="1.81" height="1.81" fill="#542900"/>
      <rect x="100.62" y="65.64" width="1.81" height="1.81" fill="#00577C"/>
      <rect x="100.62" y="69.26" width="1.81" height="1.81" fill="#838D75"/>
      <rect x="100.62" y="72.89" width="1.81" height="1.81" fill="#CE009C"/>
      <rect x="100.62" y="76.52" width="1.81" height="1.81" fill="#00FFFF"/>
    </g>
    <g fill="#362A35" font-size="3.88" font-family="'PT Sans','Helvetica Neue','Helvetica',sans-serif" stroke="#000000" stroke-opacity="0.000" id="img-38d9f30c-7">
      <text x="100.62" y="33.71"></text>
    </g>
  </g>
<g clip-path="url(#img-38d9f30c-8)">
  <g id="img-38d9f30c-9">
    <g pointer-events="visible" opacity="1" fill="#000000" fill-opacity="0.000" stroke="#000000" stroke-opacity="0.000" class="guide background" id="img-38d9f30c-10">
      <rect x="22.42" y="10.61" width="77.2" height="90.1"/>
    </g>
    <g class="guide ygridlines xfixed" stroke-dasharray="0.5,0.5" stroke-width="0.2" stroke="#D0D0E0" id="img-38d9f30c-11">
      <path fill="none" d="M22.42,98.72 L 99.62 98.72"/>
      <path fill="none" d="M22.42,81.49 L 99.62 81.49"/>
      <path fill="none" d="M22.42,64.27 L 99.62 64.27"/>
      <path fill="none" d="M22.42,47.05 L 99.62 47.05"/>
      <path fill="none" d="M22.42,29.83 L 99.62 29.83"/>
      <path fill="none" d="M22.42,12.61 L 99.62 12.61"/>
    </g>
    <g class="guide xgridlines yfixed" stroke-dasharray="0.5,0.5" stroke-width="0.2" stroke="#D0D0E0" id="img-38d9f30c-12">
      <path fill="none" d="M24.42,10.61 L 24.42 100.71"/>
      <path fill="none" d="M42.72,10.61 L 42.72 100.71"/>
      <path fill="none" d="M61.02,10.61 L 61.02 100.71"/>
      <path fill="none" d="M79.32,10.61 L 79.32 100.71"/>
      <path fill="none" d="M97.62,10.61 L 97.62 100.71"/>
    </g>
    <g class="plotpanel" id="img-38d9f30c-13">
      <g class="xfixed" id="img-38d9f30c-14">
        <g stroke-dasharray="none" stroke-width="0.3" stroke="#808080" id="img-38d9f30c-15">
          <path fill="none" d="M22.42,50.5 L 99.62 50.5"/>
        </g>
      </g>
      <g stroke-width="0.3" fill="#000000" fill-opacity="0.000" class="geometry" stroke-dasharray="none" stroke="#00FFFF" id="img-38d9f30c-16">
        <path fill="none" d="M24.45,25.5 L 26.98 28.91 29.5 29.21 32.02 29.7 34.55 29.94 37.07 30.06 39.59 30.21 42.11 30.3 44.64 30.28 47.16 30.65 49.68 30.62 52.21 30.48 54.73 30.83 57.25 30.83 59.78 30.92 62.3 31.08 64.82 30.78 67.35 31.03 69.87 31.02 72.39 30.89 74.91 31.17 77.44 31.11 79.96 31.33 82.48 30.99 85.01 31.15 87.53 31.53 90.05 31.3 92.57 31.22 95.1 31.36 97.62 31.22"/>
      </g>
      <g stroke-width="0.3" fill="#000000" fill-opacity="0.000" class="geometry" stroke-dasharray="none" stroke="#CE009C" id="img-38d9f30c-17">
        <path fill="none" d="M24.45,22.31 L 26.98 27.47 29.5 28.19 32.02 29.46 34.55 29.67 37.07 29.9 39.59 30.27 42.11 31.06 44.64 31.85 47.16 32.48 49.68 33.28 52.21 33.95 54.73 35.23 57.25 36.54 59.78 37.09 62.3 38.19 64.82 39.25 67.35 40.44 69.87 41.28 72.39 41.85 74.91 43.36 77.44 43.89 79.96 44.82 82.48 46.15 85.01 46.25 87.53 47.92 90.05 48.8 92.57 49.85 95.1 50.47 97.62 51.07"/>
      </g>
      <g stroke-width="0.3" fill="#000000" fill-opacity="0.000" class="geometry" stroke-dasharray="none" stroke="#838D75" id="img-38d9f30c-18">
        <path fill="none" d="M24.45,21.64 L 26.98 28.15 29.5 28.74 32.02 29.18 34.55 29.43 37.07 29.79 39.59 29.66 42.11 29.67 44.64 29.92 47.16 30.1 49.68 30.23 52.21 30.35 54.73 30.07 57.25 30.27 59.78 30.47 62.3 30.6 64.82 30.59 67.35 30.86 69.87 30.82 72.39 30.81 74.91 30.65 77.44 31.02 79.96 31.21 82.48 31.18 85.01 31.87 87.53 31.07 90.05 31.67 92.57 31.89 95.1 31.63 97.62 31.96"/>
      </g>
      <g stroke-width="0.3" fill="#000000" fill-opacity="0.000" class="geometry" stroke-dasharray="none" stroke="#00577C" id="img-38d9f30c-19">
        <path fill="none" d="M24.45,21 L 26.98 29.08 29.5 33.04 32.02 33.78 34.55 32 37.07 31.66 39.59 32.8 42.11 33.53 44.64 32.97 47.16 33.77 49.68 33.82 52.21 34.89 54.73 33.77 57.25 33.82 59.78 33.78 62.3 32.57 64.82 37.48 67.35 32.09 69.87 31.87 72.39 32.27 74.91 33.72 77.44 33.72 79.96 37.08 82.48 33.45 85.01 35.68 87.53 33.19 90.05 33.7 92.57 32.79 95.1 33.21 97.62 36.74"/>
      </g>
      <g stroke-width="0.3" fill="#000000" fill-opacity="0.000" class="geometry" stroke-dasharray="none" stroke="#542900" id="img-38d9f30c-20">
        <path fill="none" d="M24.45,22.25 L 26.98 26.62 29.5 27.05 32.02 28.31 34.55 29 37.07 26.23 39.59 27.09 42.11 29.07 44.64 28.83 47.16 29.01 49.68 29.11 52.21 28.22 54.73 29.28 57.25 29 59.78 28.79 62.3 28.59 64.82 27.74 67.35 28.84 69.87 28.96 72.39 29.18 74.91 28.98 77.44 29.55 79.96 27.36 82.48 27.36 85.01 29.46 87.53 28.84 90.05 29.33 92.57 29.65 95.1 29.42 97.62 28.66"/>
      </g>
      <g stroke-width="0.3" fill="#000000" fill-opacity="0.000" class="geometry" stroke-dasharray="none" stroke="#FFBC00" id="img-38d9f30c-21">
        <path fill="none" d="M24.45,22.37 L 26.98 27.39 29.5 28.4 32.02 29.8 34.55 30.76 37.07 31.81 39.59 33.89 42.11 37.02 44.64 40.35 47.16 43.03 49.68 45.85 52.21 48.32 54.73 51.52 57.25 53.88 59.78 57.54 62.3 59.23 64.82 61.82 67.35 64.69 69.87 67.64 72.39 70.54 74.91 72.55 77.44 76.18 79.96 78.4 82.48 84.69"/>
      </g>
      <g stroke-width="0.3" fill="#000000" fill-opacity="0.000" class="geometry" stroke-dasharray="none" stroke="#FFB6FF" id="img-38d9f30c-22">
        <path fill="none" d="M24.45,22.42 L 26.98 26.86 29.5 29.14 32.02 30.49 34.55 31.36 37.07 33.34 39.59 36.1 42.11 40.93 44.64 44.59 47.16 47.01 49.68 49.83 52.21 52.62 54.73 54.32 57.25 56.91 59.78 61.15 62.3 64.71 64.82 67.7 67.35 71.13 69.87 74.09 72.39 76.82 74.91 79.83"/>
      </g>
      <g stroke-width="0.3" fill="#000000" fill-opacity="0.000" class="geometry" stroke-dasharray="none" stroke="#29003B" id="img-38d9f30c-23">
        <path fill="none" d="M24.45,21.61 L 26.98 28.53 29.5 28.68 32.02 27.93 34.55 29.44 37.07 28.61 39.59 29.45 42.11 29.34 44.64 28.56 47.16 28.28 49.68 28.69 52.21 28.5 54.73 28.95 57.25 29.3 59.78 29.58 62.3 29.34 64.82 28.05 67.35 28.83 69.87 29.06 72.39 28.14 74.91 29.16 77.44 28.15 79.96 29.17 82.48 28.36 85.01 29.45 87.53 29.23 90.05 29.09 92.57 28.56 95.1 28.18 97.62 29.04"/>
      </g>
      <g stroke-width="0.3" fill="#000000" fill-opacity="0.000" class="geometry" stroke-dasharray="none" stroke="#00AEFF" id="img-38d9f30c-24">
        <path fill="none" d="M24.45,21.86 L 26.98 28.35 29.5 28.68 32.02 29.42 34.55 28.16 37.07 29.26 39.59 28.54 42.11 28.57 44.64 28.74 47.16 29.29 49.68 29.33 52.21 28.8 54.73 28.64 57.25 29.2 59.78 27.96 62.3 29.66 64.82 28.81 67.35 28.29 69.87 28.78 72.39 28.01 74.91 29.28 77.44 29.49 79.96 28.44 82.48 28.59 85.01 28.34 87.53 28.86 90.05 28.06 92.57 28.34 95.1 28.73 97.62 28.87"/>
      </g>
      <g stroke-width="0.3" fill="#000000" fill-opacity="0.000" class="geometry" stroke-dasharray="none" stroke="#003800" id="img-38d9f30c-25">
        <path fill="none" d="M24.45,22.52 L 26.98 29.38 29.5 30.3 32.02 31.23 34.55 30.23 37.07 30.8 39.59 30.46 42.11 30.24 44.64 30.62 47.16 30.32 49.68 31.02 52.21 30.62 54.73 30.3 57.25 30.62 59.78 30.35 62.3 30.62 64.82 30.9 67.35 31.23 69.87 30.44 72.39 30.76 74.91 30.85 77.44 31.12 79.96 30.85 82.48 30.43 85.01 30.8 87.53 30.28 90.05 31 92.57 30.62 95.1 30.8 97.62 31.39"/>
      </g>
      <g stroke-width="0.3" fill="#000000" fill-opacity="0.000" class="geometry" stroke-dasharray="none" stroke="#00F75A" id="img-38d9f30c-26">
        <path fill="none" d="M24.45,23.11 L 26.98 26.91 29.5 29.33 32.02 29.99 34.55 31.13 37.07 31.5 39.59 32.06 42.11 32.64 44.64 32.29 47.16 32.36 49.68 33.24 52.21 33.03 54.73 34.77 57.25 35.62 59.78 36.9 62.3 39.87 64.82 39.53 67.35 43.72 69.87 44.42 72.39 43.52 74.91 49.62 77.44 45.17 79.96 48.33 82.48 48.12 85.01 53.85 87.53 53.69 90.05 50.59 92.57 48.93 95.1 51.74 97.62 55.25"/>
      </g>
      <g stroke-width="0.3" fill="#000000" fill-opacity="0.000" class="geometry" stroke-dasharray="none" stroke="#FF0000" id="img-38d9f30c-27">
        <path fill="none" d="M24.45,23.16 L 26.98 27.06 29.5 29.36 32.02 30.7 34.55 31.34 37.07 31.45 39.59 33.27 42.11 32.52 44.64 33.02 47.16 34.5 49.68 34.28 52.21 33.73 54.73 34.96 57.25 34.84 59.78 39.85 62.3 36.87 64.82 43.64 67.35 44.12 69.87 45.44 72.39 46.88 74.91 44.6 77.44 49.44 79.96 48.14 82.48 52.59 85.01 49.58 87.53 49.32 90.05 46.89 92.57 50.68 95.1 48.71 97.62 53.23"/>
      </g>
    </g>
  </g>
</g>
  <g class="guide ylabels" font-size="2.82" font-family="'PT Sans Caption','Helvetica Neue','Helvetica',sans-serif" fill="#6C606B" id="img-38d9f30c-28">
    <text x="21.42" y="98.72" text-anchor="end" dy="0.35em">10<tspan style="dominant-baseline:inherit" dy="-0.6em" font-size="83%">-20</tspan><tspan dy="0.498000em"></tspan></text>
    <text x="21.42" y="81.49" text-anchor="end" dy="0.35em">10<tspan style="dominant-baseline:inherit" dy="-0.6em" font-size="83%">-15</tspan><tspan dy="0.498000em"></tspan></text>
    <text x="21.42" y="64.27" text-anchor="end" dy="0.35em">10<tspan style="dominant-baseline:inherit" dy="-0.6em" font-size="83%">-10</tspan><tspan dy="0.498000em"></tspan></text>
    <text x="21.42" y="47.05" text-anchor="end" dy="0.35em">10<tspan style="dominant-baseline:inherit" dy="-0.6em" font-size="83%">-5</tspan><tspan dy="0.498000em"></tspan></text>
    <text x="21.42" y="29.83" text-anchor="end" dy="0.35em">10<tspan style="dominant-baseline:inherit" dy="-0.6em" font-size="83%">0</tspan><tspan dy="0.498000em"></tspan></text>
    <text x="21.42" y="12.61" text-anchor="end" dy="0.35em">10<tspan style="dominant-baseline:inherit" dy="-0.6em" font-size="83%">5</tspan><tspan dy="0.498000em"></tspan></text>
  </g>
  <g font-size="3.88" font-family="'PT Sans','Helvetica Neue','Helvetica',sans-serif" fill="#564A55" stroke="#000000" stroke-opacity="0.000" id="img-38d9f30c-29">
    <text x="8.81" y="53.66" text-anchor="middle" dy="0.35em" transform="rotate(-90, 8.81, 55.66)">fmin</text>
  </g>
  <g font-size="3.88" font-family="'PT Sans','Helvetica Neue','Helvetica',sans-serif" fill="#564A55" stroke="#000000" stroke-opacity="0.000" id="img-38d9f30c-30">
    <text x="61.02" y="5" text-anchor="middle" dy="0.6em">All functions</text>
  </g>
</g>
<defs>
  <clipPath id="img-38d9f30c-8">
  <path d="M22.42,10.61 L 99.62 10.61 99.62 100.71 22.42 100.71" />
</clipPath>
</defs>
</svg>
