<?xml version="1.0" encoding="UTF-8"?>
<svg xmlns="http://www.w3.org/2000/svg"
     xmlns:xlink="http://www.w3.org/1999/xlink"
     xmlns:gadfly="http://www.gadflyjl.org/ns"
     version="1.2"
     width="160mm" height="100mm" viewBox="0 0 160 100"
     stroke="none"
     fill="#000000"
     stroke-width="0.3"
     font-size="3.88"
>
<defs>
  <marker id="arrow" markerWidth="15" markerHeight="7" refX="5" refY="3.5" orient="auto" markerUnits="strokeWidth">
    <path d="M0,0 L15,3.5 L0,7 z" stroke="context-stroke" fill="context-stroke"/>
  </marker>
</defs>
<g class="plotroot xscalable yscalable" id="img-bae003f7-1">
  <g font-size="3.88" font-family="'PT Sans','Helvetica Neue','Helvetica',sans-serif" fill="rgba(86,73,85,1)" stroke="#000000" stroke-opacity="0.000" id="img-bae003f7-2">
    <g transform="translate(51.9,88.39)">
      <g class="primitive">
        <text text-anchor="middle" dy="0.6em">Run Length</text>
      </g>
    </g>
  </g>
  <g class="guide xlabels" font-size="2.82" font-family="'PT Sans Caption','Helvetica Neue','Helvetica',sans-serif" fill="rgba(108,96,107,1)" id="img-bae003f7-3">
    <g transform="translate(24.42,81.72)">
      <g class="primitive">
        <text text-anchor="middle" dy="0.6em">0</text>
      </g>
    </g>
    <g transform="translate(42.74,81.72)">
      <g class="primitive">
        <text text-anchor="middle" dy="0.6em">1×10⁴</text>
      </g>
    </g>
    <g transform="translate(61.06,81.72)">
      <g class="primitive">
        <text text-anchor="middle" dy="0.6em">2×10⁴</text>
      </g>
    </g>
    <g transform="translate(79.38,81.72)">
      <g class="primitive">
        <text text-anchor="middle" dy="0.6em">3×10⁴</text>
      </g>
    </g>
  </g>
  <g class="guide colorkey" id="img-bae003f7-4">
    <g fill="rgba(76,64,75,1)" font-size="2.82" font-family="'PT Sans','Helvetica Neue','Helvetica',sans-serif" id="img-bae003f7-5">
      <g transform="translate(85.19,23.9)" id="img-bae003f7-6">
        <g class="primitive">
          <text dy="0.35em">Py.Nelder-Mead</text>
        </g>
      </g>
      <g transform="translate(85.19,27.53)" id="img-bae003f7-7">
        <g class="primitive">
          <text dy="0.35em">Restart-NelderMead</text>
        </g>
      </g>
      <g transform="translate(85.19,31.16)" id="img-bae003f7-8">
        <g class="primitive">
          <text dy="0.35em">NelderMead</text>
        </g>
      </g>
      <g transform="translate(85.19,34.78)" id="img-bae003f7-9">
        <g class="primitive">
          <text dy="0.35em">SimulatedAnnealing → NelderMead</text>
        </g>
      </g>
      <g transform="translate(85.19,38.41)" id="img-bae003f7-10">
        <g class="primitive">
          <text dy="0.35em">PyCMA</text>
        </g>
      </g>
      <g transform="translate(85.19,42.04)" id="img-bae003f7-11">
        <g class="primitive">
          <text dy="0.35em">BBO.generating_set_search → NelderMead</text>
        </g>
      </g>
      <g transform="translate(85.19,45.66)" id="img-bae003f7-12">
        <g class="primitive">
          <text dy="0.35em">NLopt.GN_ESCH → NelderMead</text>
        </g>
      </g>
      <g transform="translate(85.19,49.29)" id="img-bae003f7-13">
        <g class="primitive">
          <text dy="0.35em">SAMIN → NelderMead</text>
        </g>
      </g>
      <g transform="translate(85.19,52.92)" id="img-bae003f7-14">
        <g class="primitive">
          <text dy="0.35em">NLopt.GD_STOGO → NelderMead</text>
        </g>
      </g>
      <g transform="translate(85.19,56.54)" id="img-bae003f7-15">
        <g class="primitive">
          <text dy="0.35em">NLopt.GN_ISRES → NelderMead</text>
        </g>
      </g>
      <g transform="translate(85.19,60.17)" id="img-bae003f7-16">
        <g class="primitive">
          <text dy="0.35em">BBO.xnes → NelderMead</text>
        </g>
      </g>
      <g transform="translate(85.19,63.8)" id="img-bae003f7-17">
        <g class="primitive">
          <text dy="0.35em">BBO.de_rand_2_bin → NelderMead</text>
        </g>
      </g>
      <g transform="translate(85.19,67.42)" id="img-bae003f7-18">
        <g class="primitive">
          <text dy="0.35em">BBO.adaptive_de_rand_1_bin → NelderMead</text>
        </g>
      </g>
      <g transform="translate(85.19,71.05)" id="img-bae003f7-19">
        <g class="primitive">
          <text dy="0.35em">BBO.adaptive_de_rand_1_bin_radiuslimited → NelderMead</text>
        </g>
      </g>
    </g>
    <g stroke="#000000" stroke-opacity="0.000" id="img-bae003f7-20">
      <g transform="translate(83.29,23.9)" id="img-bae003f7-21" fill="rgba(0,80,65,1)">
        <path d="M-0.91,-0.91 L 0.91 -0.91 0.91 0.91 -0.91 0.91 z" class="primitive"/>
      </g>
      <g transform="translate(83.29,27.53)" id="img-bae003f7-22" fill="rgba(209,73,0,1)">
        <path d="M-0.91,-0.91 L 0.91 -0.91 0.91 0.91 -0.91 0.91 z" class="primitive"/>
      </g>
      <g transform="translate(83.29,31.16)" id="img-bae003f7-23" fill="rgba(193,40,226,1)">
        <path d="M-0.91,-0.91 L 0.91 -0.91 0.91 0.91 -0.91 0.91 z" class="primitive"/>
      </g>
      <g transform="translate(83.29,34.78)" id="img-bae003f7-24" fill="rgba(8,139,0,1)">
        <path d="M-0.91,-0.91 L 0.91 -0.91 0.91 0.91 -0.91 0.91 z" class="primitive"/>
      </g>
      <g transform="translate(83.29,38.41)" id="img-bae003f7-25" fill="rgba(125,116,126,1)">
        <path d="M-0.91,-0.91 L 0.91 -0.91 0.91 0.91 -0.91 0.91 z" class="primitive"/>
      </g>
      <g transform="translate(83.29,42.04)" id="img-bae003f7-26" fill="rgba(104,81,0,1)">
        <path d="M-0.91,-0.91 L 0.91 -0.91 0.91 0.91 -0.91 0.91 z" class="primitive"/>
      </g>
      <g transform="translate(83.29,45.66)" id="img-bae003f7-27" fill="rgba(255,143,161,1)">
        <path d="M-0.91,-0.91 L 0.91 -0.91 0.91 0.91 -0.91 0.91 z" class="primitive"/>
      </g>
      <g transform="translate(83.29,49.29)" id="img-bae003f7-28" fill="rgba(0,0,0,1)">
        <path d="M-0.91,-0.91 L 0.91 -0.91 0.91 0.91 -0.91 0.91 z" class="primitive"/>
      </g>
      <g transform="translate(83.29,52.92)" id="img-bae003f7-29" fill="rgba(56,255,110,1)">
        <path d="M-0.91,-0.91 L 0.91 -0.91 0.91 0.91 -0.91 0.91 z" class="primitive"/>
      </g>
      <g transform="translate(83.29,56.54)" id="img-bae003f7-30" fill="rgba(135,0,54,1)">
        <path d="M-0.91,-0.91 L 0.91 -0.91 0.91 0.91 -0.91 0.91 z" class="primitive"/>
      </g>
      <g transform="translate(83.29,60.17)" id="img-bae003f7-31" fill="rgba(0,0,141,1)">
        <path d="M-0.91,-0.91 L 0.91 -0.91 0.91 0.91 -0.91 0.91 z" class="primitive"/>
      </g>
      <g transform="translate(83.29,63.8)" id="img-bae003f7-32" fill="rgba(0,206,211,1)">
        <path d="M-0.91,-0.91 L 0.91 -0.91 0.91 0.91 -0.91 0.91 z" class="primitive"/>
      </g>
      <g transform="translate(83.29,67.42)" id="img-bae003f7-33" fill="rgba(210,171,0,1)">
        <path d="M-0.91,-0.91 L 0.91 -0.91 0.91 0.91 -0.91 0.91 z" class="primitive"/>
      </g>
      <g transform="translate(83.29,71.05)" id="img-bae003f7-34" fill="rgba(0,131,195,1)">
        <path d="M-0.91,-0.91 L 0.91 -0.91 0.91 0.91 -0.91 0.91 z" class="primitive"/>
      </g>
    </g>
    <g fill="rgba(54,42,52,1)" font-size="3.88" font-family="'PT Sans','Helvetica Neue','Helvetica',sans-serif" stroke="#000000" stroke-opacity="0.000" id="img-bae003f7-35">
      <g transform="translate(82.38,20.08)" id="img-bae003f7-36">
        <g class="primitive">
          <text></text>
        </g>
      </g>
    </g>
  </g>
  <g clip-path="url(#img-bae003f7-37)">
    <g id="img-bae003f7-38">
      <g pointer-events="visible" fill-opacity="1" fill="rgba(0,0,0,0)" stroke="#000000" stroke-opacity="0.000" class="guide background" id="img-bae003f7-39">
        <g transform="translate(51.9,45.66)" id="img-bae003f7-40">
          <path d="M-29.48,-35.05 L 29.48 -35.05 29.48 35.05 -29.48 35.05 z" class="primitive"/>
        </g>
      </g>
      <g class="guide ygridlines xfixed" stroke-dasharray="0.5,0.5" stroke-width="0.2" stroke="#D0D0E0" id="img-bae003f7-41">
        <g transform="translate(51.9,78.72)" id="img-bae003f7-42">
          <path fill="none" d="M-29.48,0 L 29.48 0" class="primitive"/>
        </g>
        <g transform="translate(51.9,62.19)" id="img-bae003f7-43">
          <path fill="none" d="M-29.48,0 L 29.48 0" class="primitive"/>
        </g>
        <g transform="translate(51.9,45.66)" id="img-bae003f7-44">
          <path fill="none" d="M-29.48,0 L 29.48 0" class="primitive"/>
        </g>
        <g transform="translate(51.9,29.14)" id="img-bae003f7-45">
          <path fill="none" d="M-29.48,0 L 29.48 0" class="primitive"/>
        </g>
        <g transform="translate(51.9,12.61)" id="img-bae003f7-46">
          <path fill="none" d="M-29.48,0 L 29.48 0" class="primitive"/>
        </g>
      </g>
      <g class="guide xgridlines yfixed" stroke-dasharray="0.5,0.5" stroke-width="0.2" stroke="#D0D0E0" id="img-bae003f7-47">
        <g transform="translate(24.42,45.66)" id="img-bae003f7-48">
          <path fill="none" d="M0,-35.05 L 0 35.05" class="primitive"/>
        </g>
        <g transform="translate(42.74,45.66)" id="img-bae003f7-49">
          <path fill="none" d="M0,-35.05 L 0 35.05" class="primitive"/>
        </g>
        <g transform="translate(61.06,45.66)" id="img-bae003f7-50">
          <path fill="none" d="M0,-35.05 L 0 35.05" class="primitive"/>
        </g>
        <g transform="translate(79.38,45.66)" id="img-bae003f7-51">
          <path fill="none" d="M0,-35.05 L 0 35.05" class="primitive"/>
        </g>
      </g>
      <g class="plotpanel" id="img-bae003f7-52">
        <metadata>
          <boundingbox value="22.41833333333333mm 10.611666666666665mm 58.96166666666668mm 70.10333333333334mm"/>
          <unitbox value="-1091.669951784577 5.605113206595734 32183.33990356916 -21.210226413191467"/>
        </metadata>
        <g class="xfixed" id="img-bae003f7-53">
          <g stroke-dasharray="none" stroke-width="0.3" stroke="#808080" id="img-bae003f7-54">
            <g transform="translate(51.9,48.97)" id="img-bae003f7-55">
              <path fill="none" d="M-29.48,0 L 29.48 0" class="primitive"/>
            </g>
          </g>
        </g>
        <g stroke-width="0.71" fill="rgba(0,0,0,0)" class="geometry" id="img-bae003f7-56">
          <g class="color_RGB{N0f8}(0.49,0.455,0.494)" stroke-dasharray="none" stroke="#7D747E" id="img-bae003f7-57">
            <g transform="translate(51.92,48.19)" id="img-bae003f7-58">
              <path fill="none" d="M-27.46,-28.93 L -23.54 -5.02 -19.62 -1.41 -15.69 1.37 -11.77 2.46 -7.85 4.46 -3.92 3.1 -0 2.71 3.92 3.04 7.85 3.69 11.77 1.88 15.69 2.84 19.62 3.66 23.54 3.22 27.46 2.92" class="primitive"/>
            </g>
          </g>
        </g>
        <g stroke-width="0.71" fill="rgba(0,0,0,0)" class="geometry" id="img-bae003f7-59">
          <g class="color_RGB{N0f8}(0.0,0.314,0.259)" stroke-dasharray="none" stroke="#005042" id="img-bae003f7-60">
            <g transform="translate(51.92,35.59)" id="img-bae003f7-61">
              <path fill="none" d="M-27.46,-18.06 L -23.54 -0.61 -19.62 -0.11 -15.69 1.66 -11.77 1.25 -7.85 2.35 -3.92 2.02 -0 2.39 3.92 2.46 7.85 -0 11.77 1.17 15.69 1.54 19.62 1.65 23.54 1.63 27.46 0.66" class="primitive"/>
            </g>
          </g>
        </g>
        <g stroke-width="0.71" fill="rgba(0,0,0,0)" class="geometry" id="img-bae003f7-62">
          <g class="color_RGB{N0f8}(0.0,0.808,0.827)" stroke-dasharray="none" stroke="#00CED3" id="img-bae003f7-63">
            <g transform="translate(51.92,54.34)" id="img-bae003f7-64">
              <path fill="none" d="M-27.46,-33.02 L -23.54 -9.87 -19.62 -4.96 -15.69 -1.39 -11.77 0.86 -7.85 0.44 -3.92 1.67 -0 4.12 3.92 5.09 7.85 5.28 11.77 5.09 15.69 6.28 19.62 6.73 23.54 6.77 27.46 6.89" class="primitive"/>
            </g>
          </g>
        </g>
        <g stroke-width="0.71" fill="rgba(0,0,0,0)" class="geometry" id="img-bae003f7-65">
          <g class="color_RGB{N0f8}(0.408,0.322,0.0)" stroke-dasharray="none" stroke="#685200" id="img-bae003f7-66">
            <g transform="translate(51.92,48.48)" id="img-bae003f7-67">
              <path fill="none" d="M-27.46,-26.52 L -23.54 -4.47 -19.62 -1.11 -15.69 1.14 -11.77 2.99 -7.85 0.85 -3.92 0.98 -0 1.8 3.92 2.9 7.85 3.25 11.77 4.17 15.69 4.17 19.62 2.26 23.54 4.12 27.46 3.45" class="primitive"/>
            </g>
          </g>
        </g>
        <g stroke-width="0.71" fill="rgba(0,0,0,0)" class="geometry" id="img-bae003f7-68">
          <g class="color_RGB{N0f8}(0.0,0.0,0.553)" stroke-dasharray="none" stroke="#00008D" id="img-bae003f7-69">
            <g transform="translate(51.92,55)" id="img-bae003f7-70">
              <path fill="none" d="M-27.46,-34.8 L -23.54 -7.42 -19.62 -1.98 -15.69 0.27 -11.77 3.4 -7.85 4.36 -3.92 4.66 -0 4.45 3.92 2.62 7.85 4.13 11.77 3.73 15.69 4.81 19.62 3.35 23.54 4.22 27.46 4.2" class="primitive"/>
            </g>
          </g>
        </g>
        <g stroke-width="0.71" fill="rgba(0,0,0,0)" class="geometry" id="img-bae003f7-71">
          <g class="color_RGB{N0f8}(0.224,1.0,0.431)" stroke-dasharray="none" stroke="#39FF6E" id="img-bae003f7-72">
            <g transform="translate(51.92,50.79)" id="img-bae003f7-73">
              <path fill="none" d="M-27.46,-29.2 L -23.54 -2.92 -19.62 -1.77 -15.69 0.56 -11.77 2.51 -7.85 4.06 -3.92 2.9 -0 3.06 3.92 3.08 7.85 2.34 11.77 2.54 15.69 2.9 19.62 3.11 23.54 3.16 27.46 3.67" class="primitive"/>
            </g>
          </g>
        </g>
        <g stroke-width="0.71" fill="rgba(0,0,0,0)" class="geometry" id="img-bae003f7-74">
          <g class="color_RGB{N0f8}(1.0,0.561,0.631)" stroke-dasharray="none" stroke="#FF8FA1" id="img-bae003f7-75">
            <g transform="translate(51.92,48.27)" id="img-bae003f7-76">
              <path fill="none" d="M-27.46,-27.1 L -23.54 -4.75 -19.62 -1.55 -15.69 0.8 -11.77 1 -7.85 2.55 -3.92 1.99 -0 2.97 3.92 2.68 7.85 2.71 11.77 3.23 15.69 4.18 19.62 3.52 23.54 4.04 27.46 3.73" class="primitive"/>
            </g>
          </g>
        </g>
        <g stroke-width="0.71" fill="rgba(0,0,0,0)" class="geometry" id="img-bae003f7-77">
          <g class="color_RGB{N0f8}(0.529,0.0,0.212)" stroke-dasharray="none" stroke="#870036" id="img-bae003f7-78">
            <g transform="translate(51.92,49.61)" id="img-bae003f7-79">
              <path fill="none" d="M-27.46,-28.42 L -23.54 -5.97 -19.62 -1.79 -15.69 -1.54 -11.77 -0.67 -7.85 1.15 -3.92 1.29 -0 3.21 3.92 2.91 7.85 3.35 11.77 5.75 15.69 5.25 19.62 4.97 23.54 5.15 27.46 5.35" class="primitive"/>
            </g>
          </g>
        </g>
        <g stroke-width="0.71" fill="rgba(0,0,0,0)" class="geometry" id="img-bae003f7-80">
          <g class="color_RGB{N0f8}(0.824,0.671,0.0)" stroke-dasharray="none" stroke="#D2AB00" id="img-bae003f7-81">
            <g transform="translate(51.92,57.66)" id="img-bae003f7-82">
              <path fill="none" d="M-27.46,-36.35 L -23.54 -12.63 -19.62 -6.78 -15.69 -3.74 -11.77 -1.83 -7.85 2.84 -3.92 4.5 -0 4.89 3.92 4.33 7.85 5.76 11.77 6.08 15.69 7.15 19.62 7.75 23.54 8.45 27.46 9.57" class="primitive"/>
            </g>
          </g>
        </g>
        <g stroke-width="0.71" fill="rgba(0,0,0,0)" class="geometry" id="img-bae003f7-83">
          <g class="color_RGB{N0f8}(0.0,0.518,0.765)" stroke-dasharray="none" stroke="#0084C3" id="img-bae003f7-84">
            <g transform="translate(51.92,57.97)" id="img-bae003f7-85">
              <path fill="none" d="M-27.46,-36.6 L -23.54 -13.79 -19.62 -4.41 -15.69 -2.69 -11.77 -0.45 -7.85 2.58 -3.92 3.1 -0 3.41 3.92 5.27 7.85 5.29 11.77 5.98 15.69 6.98 19.62 6.41 23.54 8.77 27.46 10.14" class="primitive"/>
            </g>
          </g>
        </g>
        <g stroke-width="0.71" fill="rgba(0,0,0,0)" class="geometry" id="img-bae003f7-86">
          <g class="color_RGB{N0f8}(0.031,0.545,0.0)" stroke-dasharray="none" stroke="#088B00" id="img-bae003f7-87">
            <g transform="translate(51.92,47.28)" id="img-bae003f7-88">
              <path fill="none" d="M-27.46,-26.24 L -23.54 -4.07 -19.62 -0.02 -15.69 0.84 -11.77 2.25 -7.85 1.35 -3.92 1.54 -0 2.08 3.92 3.45 7.85 4.02 11.77 2.91 15.69 3.43 19.62 2.54 23.54 2.58 27.46 3.34" class="primitive"/>
            </g>
          </g>
        </g>
        <g stroke-width="0.71" fill="rgba(0,0,0,0)" class="geometry" id="img-bae003f7-89">
          <g class="color_RGB{N0f8}(0.82,0.29,0.0)" stroke-dasharray="none" stroke="#D14A00" id="img-bae003f7-90">
            <g transform="translate(51.92,40.8)" id="img-bae003f7-91">
              <path fill="none" d="M-27.46,-19.82 L -23.54 -12.06 -19.62 -7.89 -15.69 -2.93 -11.77 -0.68 -7.85 0.12 -3.92 1.8 -0 2.66 3.92 3.44 7.85 4.48 11.77 4.94 15.69 5.97 19.62 6.45 23.54 6.81 27.46 6.71" class="primitive"/>
            </g>
          </g>
        </g>
        <g stroke-width="0.71" fill="rgba(0,0,0,0)" class="geometry" id="img-bae003f7-92">
          <g class="color_RGB{N0f8}(0.757,0.161,0.886)" stroke-dasharray="none" stroke="#C129E2" id="img-bae003f7-93">
            <g transform="translate(51.92,44.35)" id="img-bae003f7-94">
              <path fill="none" d="M-27.46,-25.59 L -23.54 -3.66 -19.62 -0.42 -15.69 1.48 -11.77 1.4 -7.85 1.12 -3.92 2.16 -0 2.55 3.92 2.45 7.85 2.91 11.77 2.75 15.69 3.12 19.62 2.92 23.54 3.02 27.46 3.79" class="primitive"/>
            </g>
          </g>
        </g>
        <g stroke-width="0.71" fill="rgba(0,0,0,0)" class="geometry" id="img-bae003f7-95">
          <g class="color_RGB{N0f8}(0.0,0.0,0.0)" stroke-dasharray="none" stroke="#000000" id="img-bae003f7-96">
            <g transform="translate(51.92,49.37)" id="img-bae003f7-97">
              <path fill="none" d="M-27.46,-27.79 L -23.54 -5.07 -19.62 -2.16 -15.69 0.33 -11.77 1.31 -7.85 2.29 -3.92 0.68 -0 1.29 3.92 4.46 7.85 3.97 11.77 4.87 15.69 4.46 19.62 3.43 23.54 4.06 27.46 3.86" class="primitive"/>
            </g>
          </g>
        </g>
      </g>
    </g>
  </g>
  <g class="guide ylabels" font-size="2.82" font-family="'PT Sans Caption','Helvetica Neue','Helvetica',sans-serif" fill="rgba(108,96,107,1)" id="img-bae003f7-98">
    <g transform="translate(21.42,78.72)" id="img-bae003f7-99">
      <g class="primitive">
        <text text-anchor="end" dy="0.35em">10<tspan style="dominant-baseline:inherit" dy="-0.6em" font-size="83%">-15</tspan><tspan dy="0.498000em"></tspan></text>
      </g>
    </g>
    <g transform="translate(21.42,62.19)" id="img-bae003f7-100">
      <g class="primitive">
        <text text-anchor="end" dy="0.35em">10<tspan style="dominant-baseline:inherit" dy="-0.6em" font-size="83%">-10</tspan><tspan dy="0.498000em"></tspan></text>
      </g>
    </g>
    <g transform="translate(21.42,45.66)" id="img-bae003f7-101">
      <g class="primitive">
        <text text-anchor="end" dy="0.35em">10<tspan style="dominant-baseline:inherit" dy="-0.6em" font-size="83%">-5</tspan><tspan dy="0.498000em"></tspan></text>
      </g>
    </g>
    <g transform="translate(21.42,29.14)" id="img-bae003f7-102">
      <g class="primitive">
        <text text-anchor="end" dy="0.35em">10<tspan style="dominant-baseline:inherit" dy="-0.6em" font-size="83%">0</tspan><tspan dy="0.498000em"></tspan></text>
      </g>
    </g>
    <g transform="translate(21.42,12.61)" id="img-bae003f7-103">
      <g class="primitive">
        <text text-anchor="end" dy="0.35em">10<tspan style="dominant-baseline:inherit" dy="-0.6em" font-size="83%">5</tspan><tspan dy="0.498000em"></tspan></text>
      </g>
    </g>
  </g>
  <g font-size="3.88" font-family="'PT Sans','Helvetica Neue','Helvetica',sans-serif" fill="rgba(86,73,85,1)" stroke="#000000" stroke-opacity="0.000" id="img-bae003f7-104">
    <g transform="translate(8.81,43.66)" id="img-bae003f7-105">
      <g class="primitive">
        <text text-anchor="middle" dy="0.35em" transform="rotate(-90,0, 2)">fmin</text>
      </g>
    </g>
  </g>
  <g font-size="3.88" font-family="'PT Sans','Helvetica Neue','Helvetica',sans-serif" fill="rgba(86,73,85,1)" stroke="#000000" stroke-opacity="0.000" id="img-bae003f7-106">
    <g transform="translate(51.9,5)" id="img-bae003f7-107">
      <g class="primitive">
        <text text-anchor="middle" dy="0.6em">All functions</text>
      </g>
    </g>
  </g>
</g>
<defs>
  <clipPath id="img-bae003f7-37">
    <path d="M22.42,10.61 L 81.38 10.61 81.38 80.72 22.42 80.72" />
  </clipPath>
</defs>
</svg>
