<?xml version="1.0" encoding="UTF-8"?>
<svg xmlns="http://www.w3.org/2000/svg"
     xmlns:xlink="http://www.w3.org/1999/xlink"
     xmlns:gadfly="http://www.gadflyjl.org/ns"
     version="1.2"
     width="160mm" height="100mm" viewBox="0 0 160 100"
     stroke="none"
     fill="#000000"
     stroke-width="0.3"
     font-size="3.88"
>
<defs>
  <marker id="arrow" markerWidth="15" markerHeight="7" refX="5" refY="3.5" orient="auto" markerUnits="strokeWidth">
    <path d="M0,0 L15,3.5 L0,7 z" stroke="context-stroke" fill="context-stroke"/>
  </marker>
</defs>
<g class="plotroot xscalable" id="img-ca90385b-1">
  <g font-size="3.88" font-family="'PT Sans','Helvetica Neue','Helvetica',sans-serif" fill="rgba(86,73,85,1)" stroke="#000000" stroke-opacity="0.000" id="img-ca90385b-2">
    <g transform="translate(121.07,88.39)">
      <g class="primitive">
        <text text-anchor="middle" dy="0.6em">Relative Run Time</text>
      </g>
    </g>
  </g>
  <g class="guide xlabels" font-size="2.82" font-family="'PT Sans Caption','Helvetica Neue','Helvetica',sans-serif" fill="rgba(108,96,107,1)" id="img-ca90385b-3">
    <g transform="translate(89.14,80.38)">
      <g class="primitive">
        <text text-anchor="middle" dy="0.6em">10<tspan style="dominant-baseline:inherit" dy="-0.6em" font-size="83%">0.0</tspan><tspan dy="0.498000em"></tspan></text>
      </g>
    </g>
    <g transform="translate(105.11,80.38)">
      <g class="primitive">
        <text text-anchor="middle" dy="0.6em">10<tspan style="dominant-baseline:inherit" dy="-0.6em" font-size="83%">0.5</tspan><tspan dy="0.498000em"></tspan></text>
      </g>
    </g>
    <g transform="translate(121.07,80.38)">
      <g class="primitive">
        <text text-anchor="middle" dy="0.6em">10<tspan style="dominant-baseline:inherit" dy="-0.6em" font-size="83%">1.0</tspan><tspan dy="0.498000em"></tspan></text>
      </g>
    </g>
    <g transform="translate(137.04,80.38)">
      <g class="primitive">
        <text text-anchor="middle" dy="0.6em">10<tspan style="dominant-baseline:inherit" dy="-0.6em" font-size="83%">1.5</tspan><tspan dy="0.498000em"></tspan></text>
      </g>
    </g>
    <g transform="translate(153,80.38)">
      <g class="primitive">
        <text text-anchor="middle" dy="0.6em">10<tspan style="dominant-baseline:inherit" dy="-0.6em" font-size="83%">2.0</tspan><tspan dy="0.498000em"></tspan></text>
      </g>
    </g>
  </g>
  <g clip-path="url(#img-ca90385b-4)">
    <g id="img-ca90385b-5">
      <g pointer-events="visible" fill-opacity="1" fill="rgba(0,0,0,0)" stroke="#000000" stroke-opacity="0.000" class="guide background" id="img-ca90385b-6">
        <g transform="translate(121.07,45)" id="img-ca90385b-7">
          <path d="M-33.93,-34.38 L 33.93 -34.38 33.93 34.38 -33.93 34.38 z" class="primitive"/>
        </g>
      </g>
      <g class="guide ygridlines xfixed" stroke-dasharray="0.5,0.5" stroke-width="0.2" stroke="#D0D0E0" id="img-ca90385b-8">
        <g transform="translate(121.07,74.47)" id="img-ca90385b-9">
          <path fill="none" d="M-33.93,0 L 33.93 0" class="primitive"/>
        </g>
        <g transform="translate(121.07,69.55)" id="img-ca90385b-10">
          <path fill="none" d="M-33.93,0 L 33.93 0" class="primitive"/>
        </g>
        <g transform="translate(121.07,64.64)" id="img-ca90385b-11">
          <path fill="none" d="M-33.93,0 L 33.93 0" class="primitive"/>
        </g>
        <g transform="translate(121.07,59.73)" id="img-ca90385b-12">
          <path fill="none" d="M-33.93,0 L 33.93 0" class="primitive"/>
        </g>
        <g transform="translate(121.07,54.82)" id="img-ca90385b-13">
          <path fill="none" d="M-33.93,0 L 33.93 0" class="primitive"/>
        </g>
        <g transform="translate(121.07,49.91)" id="img-ca90385b-14">
          <path fill="none" d="M-33.93,0 L 33.93 0" class="primitive"/>
        </g>
        <g transform="translate(121.07,45)" id="img-ca90385b-15">
          <path fill="none" d="M-33.93,0 L 33.93 0" class="primitive"/>
        </g>
        <g transform="translate(121.07,40.08)" id="img-ca90385b-16">
          <path fill="none" d="M-33.93,0 L 33.93 0" class="primitive"/>
        </g>
        <g transform="translate(121.07,35.17)" id="img-ca90385b-17">
          <path fill="none" d="M-33.93,0 L 33.93 0" class="primitive"/>
        </g>
        <g transform="translate(121.07,30.26)" id="img-ca90385b-18">
          <path fill="none" d="M-33.93,0 L 33.93 0" class="primitive"/>
        </g>
        <g transform="translate(121.07,25.35)" id="img-ca90385b-19">
          <path fill="none" d="M-33.93,0 L 33.93 0" class="primitive"/>
        </g>
        <g transform="translate(121.07,20.44)" id="img-ca90385b-20">
          <path fill="none" d="M-33.93,0 L 33.93 0" class="primitive"/>
        </g>
        <g transform="translate(121.07,15.52)" id="img-ca90385b-21">
          <path fill="none" d="M-33.93,0 L 33.93 0" class="primitive"/>
        </g>
      </g>
      <g class="guide xgridlines yfixed" stroke-dasharray="0.5,0.5" stroke-width="0.2" stroke="#D0D0E0" id="img-ca90385b-22">
        <g transform="translate(89.14,45)" id="img-ca90385b-23">
          <path fill="none" d="M0,-34.38 L 0 34.38" class="primitive"/>
        </g>
        <g transform="translate(105.11,45)" id="img-ca90385b-24">
          <path fill="none" d="M0,-34.38 L 0 34.38" class="primitive"/>
        </g>
        <g transform="translate(121.07,45)" id="img-ca90385b-25">
          <path fill="none" d="M0,-34.38 L 0 34.38" class="primitive"/>
        </g>
        <g transform="translate(137.04,45)" id="img-ca90385b-26">
          <path fill="none" d="M0,-34.38 L 0 34.38" class="primitive"/>
        </g>
        <g transform="translate(153,45)" id="img-ca90385b-27">
          <path fill="none" d="M0,-34.38 L 0 34.38" class="primitive"/>
        </g>
      </g>
      <g class="plotpanel" id="img-ca90385b-28">
        <metadata>
          <boundingbox value="87.14000000000001mm 10.611666666666665mm 67.85999999999999mm 68.76666666666668mm"/>
          <unitbox value="-0.06263701847792046 14.5 2.1252740369558407 -14.0"/>
        </metadata>
        <g shape-rendering="crispEdges" stroke-width="0.3" id="img-ca90385b-29">
          <g stroke="#000000" stroke-opacity="0.000" class="geometry" id="img-ca90385b-30">
            <g transform="translate(89.14,13.02)" id="img-ca90385b-31" fill="rgba(193,40,226,1)">
              <path d="M-0,-2.48 L 0 -2.48 0 2.48 -0 2.48 z" class="primitive"/>
            </g>
            <g transform="translate(93.22,17.93)" id="img-ca90385b-32" fill="rgba(209,73,0,1)">
              <path d="M-4.08,-2.48 L 4.08 -2.48 4.08 2.48 -4.08 2.48 z" class="primitive"/>
            </g>
            <g transform="translate(96.67,22.84)" id="img-ca90385b-33" fill="rgba(104,81,0,1)">
              <path d="M-7.53,-2.48 L 7.53 -2.48 7.53 2.48 -7.53 2.48 z" class="primitive"/>
            </g>
            <g transform="translate(96.75,27.75)" id="img-ca90385b-34" fill="rgba(0,0,0,1)">
              <path d="M-7.61,-2.48 L 7.61 -2.48 7.61 2.48 -7.61 2.48 z" class="primitive"/>
            </g>
            <g transform="translate(96.86,32.67)" id="img-ca90385b-35" fill="rgba(255,143,161,1)">
              <path d="M-7.72,-2.48 L 7.72 -2.48 7.72 2.48 -7.72 2.48 z" class="primitive"/>
            </g>
            <g transform="translate(96.91,37.58)" id="img-ca90385b-36" fill="rgba(8,139,0,1)">
              <path d="M-7.77,-2.48 L 7.77 -2.48 7.77 2.48 -7.77 2.48 z" class="primitive"/>
            </g>
            <g transform="translate(97.93,42.49)" id="img-ca90385b-37" fill="rgba(0,206,211,1)">
              <path d="M-8.79,-2.48 L 8.79 -2.48 8.79 2.48 -8.79 2.48 z" class="primitive"/>
            </g>
            <g transform="translate(98.38,47.4)" id="img-ca90385b-38" fill="rgba(135,0,54,1)">
              <path d="M-9.24,-2.48 L 9.24 -2.48 9.24 2.48 -9.24 2.48 z" class="primitive"/>
            </g>
            <g transform="translate(98.47,52.31)" id="img-ca90385b-39" fill="rgba(0,131,195,1)">
              <path d="M-9.33,-2.48 L 9.33 -2.48 9.33 2.48 -9.33 2.48 z" class="primitive"/>
            </g>
            <g transform="translate(98.49,57.22)" id="img-ca90385b-40" fill="rgba(210,171,0,1)">
              <path d="M-9.35,-2.48 L 9.35 -2.48 9.35 2.48 -9.35 2.48 z" class="primitive"/>
            </g>
            <g transform="translate(99.9,62.14)" id="img-ca90385b-41" fill="rgba(0,0,141,1)">
              <path d="M-10.76,-2.48 L 10.76 -2.48 10.76 2.48 -10.76 2.48 z" class="primitive"/>
            </g>
            <g transform="translate(106.98,67.05)" id="img-ca90385b-42" fill="rgba(56,255,110,1)">
              <path d="M-17.84,-2.48 L 17.84 -2.48 17.84 2.48 -17.84 2.48 z" class="primitive"/>
            </g>
            <g transform="translate(118.57,71.96)" id="img-ca90385b-43" fill="rgba(125,116,126,1)">
              <path d="M-29.43,-2.48 L 29.43 -2.48 29.43 2.48 -29.43 2.48 z" class="primitive"/>
            </g>
            <g transform="translate(119.45,76.87)" id="img-ca90385b-44" fill="rgba(0,80,65,1)">
              <path d="M-30.31,-2.48 L 30.31 -2.48 30.31 2.48 -30.31 2.48 z" class="primitive"/>
            </g>
          </g>
        </g>
      </g>
    </g>
  </g>
  <g class="guide ylabels" font-size="2.82" font-family="'PT Sans Caption','Helvetica Neue','Helvetica',sans-serif" fill="rgba(108,96,107,1)" id="img-ca90385b-45">
    <g transform="translate(86.14,76.92)" id="img-ca90385b-46">
      <g class="primitive">
        <text text-anchor="end" dy="0.35em">Py.Nelder-Mead</text>
      </g>
    </g>
    <g transform="translate(86.14,72.01)" id="img-ca90385b-47">
      <g class="primitive">
        <text text-anchor="end" dy="0.35em">PyCMA</text>
      </g>
    </g>
    <g transform="translate(86.14,67.1)" id="img-ca90385b-48">
      <g class="primitive">
        <text text-anchor="end" dy="0.35em">NLopt.GD_STOGO → NelderMead</text>
      </g>
    </g>
    <g transform="translate(86.14,62.19)" id="img-ca90385b-49">
      <g class="primitive">
        <text text-anchor="end" dy="0.35em">BBO.xnes → NelderMead</text>
      </g>
    </g>
    <g transform="translate(86.14,57.27)" id="img-ca90385b-50">
      <g class="primitive">
        <text text-anchor="end" dy="0.35em">BBO.adaptive_de_rand_1_bin → NelderMead</text>
      </g>
    </g>
    <g transform="translate(86.14,52.36)" id="img-ca90385b-51">
      <g class="primitive">
        <text text-anchor="end" dy="0.35em">BBO.adaptive_de_rand_1_bin_radiuslimited → NelderMead</text>
      </g>
    </g>
    <g transform="translate(86.14,47.45)" id="img-ca90385b-52">
      <g class="primitive">
        <text text-anchor="end" dy="0.35em">NLopt.GN_ISRES → NelderMead</text>
      </g>
    </g>
    <g transform="translate(86.14,42.54)" id="img-ca90385b-53">
      <g class="primitive">
        <text text-anchor="end" dy="0.35em">BBO.de_rand_2_bin → NelderMead</text>
      </g>
    </g>
    <g transform="translate(86.14,37.63)" id="img-ca90385b-54">
      <g class="primitive">
        <text text-anchor="end" dy="0.35em">SimulatedAnnealing → NelderMead</text>
      </g>
    </g>
    <g transform="translate(86.14,32.72)" id="img-ca90385b-55">
      <g class="primitive">
        <text text-anchor="end" dy="0.35em">NLopt.GN_ESCH → NelderMead</text>
      </g>
    </g>
    <g transform="translate(86.14,27.8)" id="img-ca90385b-56">
      <g class="primitive">
        <text text-anchor="end" dy="0.35em">SAMIN → NelderMead</text>
      </g>
    </g>
    <g transform="translate(86.14,22.89)" id="img-ca90385b-57">
      <g class="primitive">
        <text text-anchor="end" dy="0.35em">BBO.generating_set_search → NelderMead</text>
      </g>
    </g>
    <g transform="translate(86.14,17.98)" id="img-ca90385b-58">
      <g class="primitive">
        <text text-anchor="end" dy="0.35em">Restart-NelderMead</text>
      </g>
    </g>
    <g transform="translate(86.14,13.07)" id="img-ca90385b-59">
      <g class="primitive">
        <text text-anchor="end" dy="0.35em">NelderMead</text>
      </g>
    </g>
  </g>
  <g font-size="3.88" font-family="'PT Sans','Helvetica Neue','Helvetica',sans-serif" fill="rgba(86,73,85,1)" stroke="#000000" stroke-opacity="0.000" id="img-ca90385b-60">
    <g transform="translate(121.07,5)" id="img-ca90385b-61">
      <g class="primitive">
        <text text-anchor="middle" dy="0.6em">All functions</text>
      </g>
    </g>
  </g>
</g>
<defs>
  <clipPath id="img-ca90385b-4">
    <path d="M87.14,10.61 L 155 10.61 155 79.38 87.14 79.38" />
  </clipPath>
</defs>
</svg>
