<?xml version="1.0" encoding="UTF-8"?>
<svg xmlns="http://www.w3.org/2000/svg"
     xmlns:xlink="http://www.w3.org/1999/xlink"
     xmlns:gadfly="http://www.gadflyjl.org/ns"
     version="1.2"
     width="200mm" height="120mm" viewBox="0 0 200 120"
     stroke="none"
     fill="#000000"
     stroke-width="0.3"
     font-size="3.88"
>
<g class="plotroot yscalable" id="img-ff7a8d14-1">
  <g class="guide xlabels" font-size="2.82" font-family="'PT Sans Caption','Helvetica Neue','Helvetica',sans-serif" fill="#6C606B" id="img-ff7a8d14-2">
    <text x="29.02" y="54.66" text-anchor="end" dy="0.35em" transform="rotate(-90, 29.02, 54.66)">R-Optim.NelderMead</text>
    <text x="51.15" y="54.66" text-anchor="end" dy="0.35em" transform="rotate(-90, 51.15, 54.66)">CMAESoptim</text>
    <text x="73.28" y="54.66" text-anchor="end" dy="0.35em" transform="rotate(-90, 73.28, 54.66)">Optim.NelderMead</text>
    <text x="95.41" y="54.66" text-anchor="end" dy="0.35em" transform="rotate(-90, 95.41, 54.66)">BBO.adaptive_de_rand_1_bin_radiuslimited</text>
    <text x="117.54" y="54.66" text-anchor="end" dy="0.35em" transform="rotate(-90, 117.54, 54.66)">BBO.adaptive_de_rand_1_bin</text>
    <text x="139.67" y="54.66" text-anchor="end" dy="0.35em" transform="rotate(-90, 139.67, 54.66)">BBO.xnes</text>
    <text x="161.8" y="54.66" text-anchor="end" dy="0.35em" transform="rotate(-90, 161.8, 54.66)">BBO.generating_set_search</text>
    <text x="183.93" y="54.66" text-anchor="end" dy="0.35em" transform="rotate(-90, 183.93, 54.66)">BBO.de_rand_2_bin</text>
  </g>
<g clip-path="url(#img-ff7a8d14-3)">
  <g id="img-ff7a8d14-4">
    <g pointer-events="visible" opacity="1" fill="#000000" fill-opacity="0.000" stroke="#000000" stroke-opacity="0.000" class="guide background" id="img-ff7a8d14-5">
      <rect x="17.96" y="10.61" width="177.04" height="43.05"/>
    </g>
    <g class="guide ygridlines xfixed" stroke-dasharray="0.5,0.5" stroke-width="0.2" stroke="#D0D0E0" id="img-ff7a8d14-6">
      <path fill="none" d="M17.96,51.66 L 195 51.66"/>
      <path fill="none" d="M17.96,41.9 L 195 41.9"/>
      <path fill="none" d="M17.96,32.14 L 195 32.14"/>
      <path fill="none" d="M17.96,22.37 L 195 22.37"/>
      <path fill="none" d="M17.96,12.61 L 195 12.61"/>
    </g>
    <g class="guide xgridlines yfixed" stroke-dasharray="0.5,0.5" stroke-width="0.2" stroke="#D0D0E0" id="img-ff7a8d14-7">
      <path fill="none" d="M40.09,10.61 L 40.09 53.66"/>
      <path fill="none" d="M62.22,10.61 L 62.22 53.66"/>
      <path fill="none" d="M84.35,10.61 L 84.35 53.66"/>
      <path fill="none" d="M106.48,10.61 L 106.48 53.66"/>
      <path fill="none" d="M128.61,10.61 L 128.61 53.66"/>
      <path fill="none" d="M150.74,10.61 L 150.74 53.66"/>
      <path fill="none" d="M172.87,10.61 L 172.87 53.66"/>
    </g>
    <g class="plotpanel" id="img-ff7a8d14-8">
      <g shape-rendering="crispEdges" stroke-width="0.3" id="img-ff7a8d14-9">
        <g stroke="#000000" stroke-opacity="0.000" class="geometry" fill="#00BFFF" id="img-ff7a8d14-10">
          <rect x="17.93" y="45.51" width="22.18" height="6.15"/>
          <rect x="40.06" y="22" width="22.18" height="29.66"/>
          <rect x="62.19" y="51.17" width="22.18" height="0.49"/>
          <rect x="84.32" y="40.75" width="22.18" height="10.91"/>
          <rect x="106.45" y="40.51" width="22.18" height="11.15"/>
          <rect x="128.58" y="39.29" width="22.18" height="12.37"/>
          <rect x="150.71" y="43.52" width="22.18" height="8.14"/>
          <rect x="172.84" y="41.3" width="22.18" height="10.36"/>
        </g>
      </g>
    </g>
  </g>
</g>
  <g class="guide ylabels" font-size="2.82" font-family="'PT Sans Caption','Helvetica Neue','Helvetica',sans-serif" fill="#6C606B" id="img-ff7a8d14-11">
    <text x="16.96" y="51.66" text-anchor="end" dy="0.35em">0</text>
    <text x="16.96" y="41.9" text-anchor="end" dy="0.35em">20</text>
    <text x="16.96" y="32.14" text-anchor="end" dy="0.35em">40</text>
    <text x="16.96" y="22.37" text-anchor="end" dy="0.35em">60</text>
    <text x="16.96" y="12.61" text-anchor="end" dy="0.35em">80</text>
  </g>
  <g font-size="3.88" font-family="'PT Sans','Helvetica Neue','Helvetica',sans-serif" fill="#564A55" stroke="#000000" stroke-opacity="0.000" id="img-ff7a8d14-12">
    <text x="8.81" y="30.14" text-anchor="middle" dy="0.35em" transform="rotate(-90, 8.81, 32.14)">Relative Run Time</text>
  </g>
  <g font-size="3.88" font-family="'PT Sans','Helvetica Neue','Helvetica',sans-serif" fill="#564A55" stroke="#000000" stroke-opacity="0.000" id="img-ff7a8d14-13">
    <text x="106.48" y="5" text-anchor="middle" dy="0.6em">All functions</text>
  </g>
</g>
<defs>
  <clipPath id="img-ff7a8d14-3">
  <path d="M17.96,10.61 L 195 10.61 195 53.66 17.96 53.66" />
</clipPath>
</defs>
</svg>
