<?xml version="1.0" encoding="UTF-8"?>
<svg xmlns="http://www.w3.org/2000/svg"
     xmlns:xlink="http://www.w3.org/1999/xlink"
     xmlns:gadfly="http://www.gadflyjl.org/ns"
     version="1.2"
     width="160mm" height="120mm" viewBox="0 0 160 120"
     stroke="none"
     fill="#000000"
     stroke-width="0.3"
     font-size="3.88"
>
<g class="plotroot xscalable yscalable" id="img-c444a82f-1">
  <g font-size="3.88" font-family="'PT Sans','Helvetica Neue','Helvetica',sans-serif" fill="#564A55" stroke="#000000" stroke-opacity="0.000" id="img-c444a82f-2">
    <text x="86.97" y="108.39" text-anchor="middle" dy="0.6em">x</text>
  </g>
  <g class="guide xlabels" font-size="2.82" font-family="'PT Sans Caption','Helvetica Neue','Helvetica',sans-serif" fill="#6C606B" id="img-c444a82f-3">
    <text x="20.94" y="101.71" text-anchor="middle" dy="0.6em">-5</text>
    <text x="86.97" y="101.71" text-anchor="middle" dy="0.6em">0</text>
    <text x="153" y="101.71" text-anchor="middle" dy="0.6em">5</text>
  </g>
<g clip-path="url(#img-c444a82f-4)">
  <g id="img-c444a82f-5">
    <g pointer-events="visible" opacity="1" fill="#000000" fill-opacity="0.000" stroke="#000000" stroke-opacity="0.000" class="guide background" id="img-c444a82f-6">
      <rect x="18.94" y="10.61" width="136.06" height="90.1"/>
    </g>
    <g class="guide ygridlines xfixed" stroke-dasharray="0.5,0.5" stroke-width="0.2" stroke="#D0D0E0" id="img-c444a82f-7">
      <path fill="none" d="M18.94,98.71 L 155 98.71"/>
      <path fill="none" d="M18.94,81.49 L 155 81.49"/>
      <path fill="none" d="M18.94,64.27 L 155 64.27"/>
      <path fill="none" d="M18.94,47.05 L 155 47.05"/>
      <path fill="none" d="M18.94,29.83 L 155 29.83"/>
      <path fill="none" d="M18.94,12.61 L 155 12.61"/>
    </g>
    <g class="guide xgridlines yfixed" stroke-dasharray="0.5,0.5" stroke-width="0.2" stroke="#D0D0E0" id="img-c444a82f-8">
      <path fill="none" d="M20.94,10.61 L 20.94 100.71"/>
      <path fill="none" d="M86.97,10.61 L 86.97 100.71"/>
      <path fill="none" d="M153,10.61 L 153 100.71"/>
    </g>
    <g class="plotpanel" id="img-c444a82f-9">
      <g stroke-width="0.3" fill="#000000" fill-opacity="0.000" class="geometry" stroke-dasharray="none" stroke="#FF0000" id="img-c444a82f-10">
        <path fill="none" d="M20.94,38.53 L 21.07 38.47 21.2 38.42 21.34 38.4 21.47 38.39 21.6 38.39 21.73 38.39 21.86 38.4 22 38.4 22.13 38.4 22.26 38.4 22.39 38.41 22.53 38.42 22.66 38.45 22.79 38.49 22.92 38.56 23.05 38.67 23.19 38.82 23.32 39.03 23.45 39.32 23.58 39.7 23.72 40.21 23.85 40.88 23.98 41.76 24.11 42.94 24.24 44.57 24.38 46.93 24.51 50.7 24.64 56.94 24.77 53.14 24.9 47.89 25.04 44.7 25.17 42.52 25.3 40.96 25.43 39.84 25.57 39.06 25.7 38.59 25.83 38.42 25.96 38.57 26.09 39.07 26.23 40.01 26.36 41.55 26.49 44.04 26.62 48.54 26.76 58.43 26.89 49.15 27.02 44.14 27.15 41.41 27.28 39.75 27.42 38.81 27.55 38.44 27.68 38.61 27.81 39.37 27.95 40.88 28.08 43.59 28.21 48.97 28.34 57.63 28.47 46.63 28.61 42.4 28.74 40.13 28.87 38.91 29 38.44 29.14 38.65 29.27 39.58 29.4 41.46 29.53 44.98 29.66 53.44 29.8 51.02 29.93 44.13 30.06 41.01 30.19 39.33 30.32 38.55 30.46 38.49 30.59 39.12 30.72 40.57 30.85 43.23 30.99 48.55 31.12 60.04 31.25 46.91 31.38 42.56 31.51 40.28 31.65 39.03 31.78 38.49 31.91 38.53 32.04 39.13 32.18 40.36 32.31 42.44 32.44 45.99 32.57 53.84 32.7 54.27 32.84 46.38 32.97 42.93 33.1 40.92 33.23 39.66 33.37 38.91 33.5 38.53 33.63 38.45 33.76 38.61 33.89 39.01 34.03 39.62 34.16 40.42 34.29 41.43 34.42 42.66 34.56 44.11 34.69 45.83 34.82 47.87 34.95 50.32 35.08 53.32 35.22 57.15 35.35 62.39 35.48 70.65 35.61 90.43 35.74 80.65 35.88 67.1 36.01 60.03 36.14 55.22 36.27 51.57 36.41 48.64 36.54 46.22 36.67 44.19 36.8 42.48 36.93 41.07 37.07 39.94 37.2 39.1 37.33 38.58 37.46 38.45 37.6 38.81 37.73 39.85 37.86 42.01 37.99 46.66 38.12 63.03 38.26 45.55 38.39 40.93 38.52 38.89 38.65 38.48 38.79 39.82 38.92 44.3 39.05 56.89 39.18 42.39 39.31 38.9 39.45 38.7 39.58 42.14 39.71 56.99 39.84 41.32 39.97 38.44 40.11 40.33 40.24 54.05 40.37 41.08 40.5 38.41 40.64 42.66 40.77 45.89 40.9 38.58 41.03 40.84 41.16 47.47 41.3 38.53 41.43 41.81 41.56 43.4 41.69 38.38 41.83 48.24 41.96 39.1 42.09 41.23 42.22 41.62 42.35 39.14 42.49 44.37 42.62 38.53 42.75 45.35 42.88 38.46 43.02 44.04 43.15 38.88 43.28 41.29 43.41 40.57 43.54 38.73 43.68 44.97 43.81 38 43.94 41.18 44.07 41.52 44.21 37.75 44.34 41.14 44.47 41.88 44.6 37.79 44.73 38.58 44.87 42.57 45 40.42 45.13 37.68 45.26 37.48 45.39 39.08 45.53 41.25 45.66 41.14 45.79 39.39 45.92 38.03 46.06 37.26 46.19 36.89 46.32 36.72 46.45 36.62 46.58 36.55 46.72 36.5 46.85 36.53 46.98 36.75 47.11 37.3 47.25 38.22 47.38 38.99 47.51 38.34 47.64 36.75 47.77 35.97 47.91 36.84 48.04 38.48 48.17 36.94 48.3 35.85 48.44 37.76 48.57 37.14 48.7 35.9 48.83 38.28 48.96 35.97 49.1 37.67 49.23 36.4 49.36 37.6 49.49 36.35 49.63 38.45 49.76 36.09 49.89 38.74 50.02 37.41 50.15 36.61 50.29 39.49 50.42 38.9 50.55 36.97 50.68 37.52 50.81 39.99 50.95 42.42 51.08 41.72 51.21 40.22 51.34 39.37 51.48 39.08 51.61 39.18 51.74 39.68 51.87 40.88 52 43.49 52.14 47.17 52.27 42.75 52.4 38.73 52.53 37.79 52.67 40.46 52.8 41.01 52.93 37.09 53.06 38.87 53.19 38.36 53.33 36.73 53.46 38.57 53.59 36.23 53.72 37.65 53.86 36.7 53.99 36.04 54.12 38.06 54.25 36.38 54.38 35.82 54.52 37.32 54.65 38.77 54.78 38.45 54.91 37.72 55.04 37.42 55.18 37.52 55.31 37.92 55.44 38.75 55.57 40.53 55.71 44.29 55.84 44.16 55.97 39.08 56.1 37.78 56.23 41.04 56.37 39.08 56.5 36.9 56.63 39.43 56.76 36.05 56.9 38.32 57.03 35.82 57.16 36.83 57.29 37.42 57.42 35.76 57.56 36.39 57.69 38.41 57.82 39.73 57.95 39.74 58.09 39.71 58.22 40.19 58.35 41.42 58.48 43.48 58.61 42.94 58.75 38.91 58.88 36.77 59.01 37.79 59.14 38.18 59.28 35.66 59.41 37.68 59.54 35.52 59.67 37.92 59.8 35.99 59.94 37.46 60.07 40.21 60.2 38.37 60.33 37.53 60.46 37.88 60.6 38.23 60.73 37.86 60.86 36.94 60.99 36.04 61.13 35.8 61.26 36.79 61.39 37.37 61.52 35.71 61.65 37.43 61.79 37.86 61.92 38.46 62.05 38.44 62.18 42.28 62.32 37.44 62.45 36.96 62.58 37.77 62.71 37.76 62.84 37.38 62.98 37.44 63.11 38.02 63.24 38.36 63.37 37.48 63.51 37.38 63.64 41.14 63.77 38.11 63.9 37.09 64.03 36.78 64.17 36.52 64.3 35.27 64.43 37.12 64.56 38.8 64.7 38.67 64.83 38.33 64.96 37.99 65.09 37.72 65.22 37.73 65.36 37.13 65.49 35.47 65.62 36.01 65.75 38.46 65.88 36.92 66.02 40.05 66.15 38.34 66.28 35.92 66.41 36.13 66.55 36.68 66.68 37.31 66.81 38.45 66.94 39.39 67.07 38.03 67.21 36.43 67.34 37.23 67.47 36.11 67.6 35.51 67.74 36.55 67.87 38.56 68 36.89 68.13 36.93 68.26 36.88 68.4 36.34 68.53 36.07 68.66 36.05 68.79 36.3 68.93 38.44 69.06 38.24 69.19 35.39 69.32 36.33 69.45 35.86 69.59 35.95 69.72 38.14 69.85 38.83 69.98 37.37 70.11 36.31 70.25 35.83 70.38 35.8 70.51 38.1 70.64 37.71 70.78 35.6 70.91 35.36 71.04 36.99 71.17 36.83 71.3 36.42 71.44 35.52 71.57 34.8 71.7 35.32 71.83 37.81 71.97 37.32 72.1 36.3 72.23 35.78 72.36 35.77 72.49 35.42 72.63 36.63 72.76 36.61 72.89 35.41 73.02 34.86 73.16 35.52 73.29 38.24 73.42 36.08 73.55 35.33 73.68 34.93 73.82 37.94 73.95 37.99 74.08 35.9 74.21 35.49 74.35 37.13 74.48 37.59 74.61 35.1 74.74 35.81 74.87 34.8 75.01 37.66 75.14 37.11 75.27 35.09 75.4 35.26 75.53 37.13 75.67 37.39 75.8 34.69 75.93 35.16 76.06 36.48 76.2 36.87 76.33 34.44 76.46 34.6 76.59 35.55 76.72 34.91 76.86 34.87 76.99 36.43 77.12 35.46 77.25 35.81 77.39 34.85 77.52 35.24 77.65 35.04 77.78 34.04 77.91 34.74 78.05 37.06 78.18 34.91 78.31 34.81 78.44 35.34 78.58 35.99 78.71 35.23 78.84 36.57 78.97 36.46 79.1 34.09 79.24 35.09 79.37 36.03 79.5 34.94 79.63 34.33 79.77 35.05 79.9 33.98 80.03 34.21 80.16 36.44 80.29 34.55 80.43 34.76 80.56 35 80.69 34.62 80.82 35.27 80.95 36.05 81.09 33.93 81.22 34.53 81.35 36.01 81.48 33.96 81.62 34.51 81.75 34.78 81.88 34.03 82.01 34.74 82.14 34.15 82.28 34.96 82.41 34.82 82.54 33.73 82.67 35.3 82.81 35.13 82.94 34.03 83.07 34.5 83.2 34.52 83.33 34.05 83.47 35.05 83.6 34.55 83.73 35.91 83.86 34.32 84 34.24 84.13 34.48 84.26 33.67 84.39 35.46 84.52 34.25 84.66 35.67 84.79 34.08 84.92 33.89 85.05 34.72 85.18 33.54 85.32 34.05 85.45 33.48 85.58 34.15 85.71 33.24 85.85 35.34 85.98 33.17 86.11 34.15 86.24 33.71 86.37 34.24 86.51 33.23 86.64 34.27 86.77 33.54 86.9 34.5 87.04 34.15 87.17 34.14 87.3 34.39 87.43 33.42 87.56 34.1 87.7 33.23 87.83 33.36 87.96 33.47 88.09 33.04 88.23 34.16 88.36 33.07 88.49 34.54 88.62 33.48 88.75 34.47 88.89 33.48 89.02 33.54 89.15 33.49 89.28 33.56 89.42 32.77 89.55 33.09 89.68 33.74 89.81 33.11 89.94 34.03 90.08 32.52 90.21 33.25 90.34 32.76 90.47 33.77 90.6 33 90.74 33.16 90.87 34.19 91 33.26 91.13 33.36 91.27 32.95 91.4 32.85 91.53 34.02 91.66 33.21 91.79 33.31 91.93 33.04 92.06 32.93 92.19 32.79 92.32 32.72 92.46 32.23 92.59 33.58 92.72 32.64 92.85 32.84 92.98 33.58 93.12 33.26 93.25 32.46 93.38 32.88 93.51 32.63 93.65 32.51 93.78 33.01 93.91 32.5 94.04 32.57 94.17 32.26 94.31 32.67 94.44 32.04 94.57 32.13 94.7 33.16 94.84 32.73 94.97 31.92 95.1 32.34 95.23 33.26 95.36 32.04 95.5 32.21 95.63 32.76 95.76 32.92 95.89 31.96 96.02 32.29 96.16 32.24 96.29 32.53 96.42 32.68 96.55 31.9 96.69 32.14 96.82 32.15 96.95 32.4 97.08 32.54 97.21 31.54 97.35 32.07 97.48 32.49 97.61 32.63 97.74 31.88 97.88 32.17 98.01 31.81 98.14 31.93 98.27 32.31 98.4 31.89 98.54 32.17 98.67 32.06 98.8 31.52 98.93 31.37 99.07 31.52 99.2 32.01 99.33 32.11 99.46 31.72 99.59 32.32 99.73 31.8 99.86 31.59 99.99 31.73 100.12 31.09 100.25 31.5 100.39 31.6 100.52 31.42 100.65 31.32 100.78 31.47 100.92 31.74 101.05 31.54 101.18 31.62 101.31 31.56 101.44 31.8 101.58 31.57 101.71 31.45 101.84 31.6 101.97 31.82 102.11 31.65 102.24 31.24 102.37 31.71 102.5 31.77 102.63 31.75 102.77 31.22 102.9 31.72 103.03 31.56 103.16 31.61 103.3 31.14 103.43 31.4 103.56 31.13 103.69 31.15 103.82 30.69 103.96 30.98 104.09 30.91 104.22 31 104.35 30.64 104.49 31.09 104.62 31.25 104.75 30.91 104.88 31.14 105.01 30.6 105.15 30.46 105.28 30.76 105.41 30.42 105.54 30.71 105.67 30.72 105.81 30.92 105.94 30.36 106.07 30.26 106.2 30.3 106.34 30.96 106.47 30.85 106.6 30.65 106.73 30.51 106.86 30.27 107 30.41 107.13 30.56 107.26 30.56 107.39 30.26 107.53 30.47 107.66 30.84 107.79 30.14 107.92 29.97 108.05 30.19 108.19 30.71 108.32 30.03 108.45 30 108.58 30.63 108.72 30.03 108.85 29.9 108.98 30.09 109.11 30.45 109.24 29.85 109.38 30.17 109.51 30.39 109.64 29.79 109.77 30.03 109.91 30.16 110.04 29.73 110.17 30.27 110.3 29.79 110.43 29.92 110.57 29.87 110.7 29.55 110.83 30.2 110.96 29.58 111.09 29.68 111.23 29.88 111.36 29.61 111.49 30.01 111.62 29.45 111.76 30.09 111.89 29.53 112.02 29.99 112.15 29.47 112.28 29.96 112.42 29.61 112.55 29.58 112.68 29.44 112.81 29.64 112.95 29.34 113.08 29.6 113.21 29.25 113.34 29.59 113.47 29.26 113.61 29.52 113.74 29.25 113.87 29.42 114 29.58 114.14 29.07 114.27 29.68 114.4 29.4 114.53 29.27 114.66 29.55 114.8 29.2 114.93 29.49 115.06 29.24 115.19 29 115.32 29.5 115.46 29.04 115.59 28.88 115.72 29.35 115.85 29.01 115.99 28.81 116.12 29.18 116.25 29.04 116.38 28.79 116.51 29.02 116.65 28.99 116.78 28.95 116.91 28.98 117.04 28.9 117.18 29.16 117.31 28.92 117.44 28.88 117.57 28.64 117.7 28.92 117.84 28.95 117.97 29.07 118.1 28.65 118.23 28.51 118.37 28.72 118.5 28.59 118.63 28.69 118.76 28.97 118.89 28.73 119.03 28.73 119.16 28.46 119.29 28.51 119.42 28.35 119.56 28.62 119.69 28.65 119.82 28.48 119.95 28.71 120.08 28.68 120.22 28.48 120.35 28.46 120.48 28.49 120.61 28.56 120.74 28.57 120.88 28.38 121.01 28.48 121.14 28.38 121.27 28.51 121.41 28.37 121.54 28.46 121.67 28.19 121.8 28.13 121.93 28.25 122.07 28.17 122.2 28.2 122.33 28.04 122.46 28.09 122.6 28.36 122.73 28.22 122.86 28.24 122.99 27.92 123.12 27.86 123.26 27.96 123.39 27.97 123.52 28.03 123.65 28.07 123.79 27.96 123.92 27.77 124.05 28.03 124.18 27.93 124.31 27.94 124.45 27.87 124.58 27.9 124.71 28.02 124.84 27.72 124.98 27.84 125.11 27.98 125.24 27.67 125.37 27.71 125.5 27.73 125.64 27.75 125.77 27.63 125.9 27.79 126.03 27.55 126.16 27.73 126.3 27.75 126.43 27.59 126.56 27.64 126.69 27.49 126.83 27.58 126.96 27.6 127.09 27.37 127.22 27.55 127.35 27.3 127.49 27.63 127.62 27.41 127.75 27.45 127.88 27.23 128.02 27.56 128.15 27.31 128.28 27.49 128.41 27.28 128.54 27.33 128.68 27.27 128.81 27.11 128.94 27.41 129.07 27.18 129.21 27.3 129.34 27.34 129.47 27.15 129.6 27.27 129.73 27.27 129.87 26.97 130 27.11 130.13 27.2 130.26 27.07 130.39 26.98 130.53 27.07 130.66 26.96 130.79 26.84 130.92 27.02 131.06 26.97 131.19 26.88 131.32 26.84 131.45 26.84 131.58 27.05 131.72 27.05 131.85 26.78 131.98 26.7 132.11 26.82 132.25 26.83 132.38 26.85 132.51 26.93 132.64 26.77 132.77 26.8 132.91 26.67 133.04 26.66 133.17 26.58 133.3 26.58 133.44 26.51 133.57 26.57 133.7 26.48 133.83 26.59 133.96 26.51 134.1 26.57 134.23 26.57 134.36 26.46 134.49 26.52 134.63 26.45 134.76 26.45 134.89 26.6 135.02 26.54 135.15 26.51 135.29 26.47 135.42 26.26 135.55 26.26 135.68 26.38 135.81 26.39 135.95 26.46 136.08 26.37 136.21 26.18 136.34 26.28 136.48 26.28 136.61 26.2 136.74 26.18 136.87 26.16 137 26.34 137.14 26.15 137.27 26.18 137.4 26.23 137.53 26.19 137.67 26.07 137.8 26.24 137.93 26 138.06 26.09 138.19 26.03 138.33 25.9 138.46 26.12 138.59 25.97 138.72 26 138.86 25.94 138.99 25.98 139.12 25.99 139.25 25.85 139.38 25.86 139.52 25.86 139.65 25.78 139.78 25.87 139.91 25.72 140.05 25.82 140.18 25.76 140.31 25.81 140.44 25.8 140.57 25.71 140.71 25.81 140.84 25.74 140.97 25.61 141.1 25.75 141.23 25.6 141.37 25.64 141.5 25.67 141.63 25.69 141.76 25.59 141.9 25.53 142.03 25.63 142.16 25.55 142.29 25.53 142.42 25.41 142.56 25.51 142.69 25.53 142.82 25.5 142.95 25.47 143.09 25.52 143.22 25.41 143.35 25.42 143.48 25.3 143.61 25.31 143.75 25.34 143.88 25.35 144.01 25.25 144.14 25.3 144.28 25.23 144.41 25.3 144.54 25.28 144.67 25.16 144.8 25.18 144.94 25.12 145.07 25.2 145.2 25.2 145.33 25.19 145.46 25.16 145.6 25.21 145.73 25.06 145.86 25.03 145.99 25.09 146.13 25.16 146.26 25.07 146.39 25.07 146.52 25.01 146.65 25.01 146.79 24.99 146.92 24.97 147.05 24.9 147.18 24.95 147.32 24.96 147.45 24.93 147.58 25 147.71 24.82 147.84 24.87 147.98 24.92 148.11 24.83 148.24 24.92 148.37 24.72 148.51 24.82 148.64 24.7 148.77 24.81 148.9 24.7 149.03 24.76 149.17 24.64 149.3 24.69 149.43 24.72 149.56 24.71 149.7 24.72 149.83 24.59 149.96 24.64 150.09 24.67 150.22 24.54 150.36 24.61 150.49 24.62 150.62 24.54 150.75 24.58 150.88 24.52 151.02 24.51 151.15 24.41 151.28 24.49 151.41 24.5 151.55 24.53 151.68 24.4 151.81 24.35 151.94 24.34 152.07 24.34 152.21 24.37 152.34 24.32 152.47 24.41 152.6 24.4 152.74 24.34 152.87 24.37 153 24.34"/>
      </g>
      <g stroke-width="0.3" fill="#000000" fill-opacity="0.000" class="geometry" stroke-dasharray="none" stroke="#FFA500" id="img-c444a82f-11">
        <path fill="none" d="M20.94,34.06 L 21.07 36.22 21.2 35.65 21.34 34.71 21.47 37.37 21.6 34.3 21.73 35.86 21.86 35.83 22 35.63 22.13 36.04 22.26 35.88 22.39 35.55 22.53 35.47 22.66 35.63 22.79 35.73 22.92 35.25 23.05 34.39 23.19 34.79 23.32 36.82 23.45 35.76 23.58 37.51 23.72 34.83 23.85 35.88 23.98 35.67 24.11 35.99 24.24 35.72 24.38 37.53 24.51 36.32 24.64 35.37 24.77 36.78 24.9 35.46 25.04 38.29 25.17 35.97 25.3 36.02 25.43 35.36 25.57 36.51 25.7 36.24 25.83 36.07 25.96 35.07 26.09 38.93 26.23 35.45 26.36 34.97 26.49 36.91 26.62 38.18 26.76 37.1 26.89 35.8 27.02 35.09 27.15 34.96 27.28 35.37 27.42 36.25 27.55 36.5 27.68 35.28 27.81 35.24 27.95 36.65 28.08 34.81 28.21 36.14 28.34 34.86 28.47 37.13 28.61 36.07 28.74 37.22 28.87 38.95 29 36.53 29.14 35.1 29.27 35.53 29.4 36.5 29.53 35.59 29.66 34.82 29.8 36.32 29.93 37.92 30.06 36.63 30.19 36.95 30.32 36.16 30.46 36.5 30.59 37.29 30.72 36.18 30.85 36.66 30.99 37.6 31.12 35.36 31.25 38.96 31.38 36.31 31.51 36.39 31.65 35.6 31.78 37.74 31.91 37.75 32.04 37.79 32.18 39.59 32.31 36.75 32.44 39.23 32.57 35.89 32.7 35.64 32.84 37.88 32.97 37.01 33.1 36.52 33.23 37.63 33.37 36.77 33.5 35.83 33.63 40.51 33.76 36.05 33.89 35.94 34.03 39.16 34.16 37.12 34.29 36.01 34.42 36.75 34.56 38.71 34.69 39.63 34.82 37.66 34.95 36.03 35.08 35.77 35.22 36.91 35.35 39.47 35.48 41.62 35.61 38.64 35.74 35.85 35.88 35.57 36.01 37.3 36.14 36.28 36.27 37.23 36.41 39.85 36.54 37.64 36.67 40.32 36.8 37.74 36.93 37.09 37.07 38.52 37.2 35.95 37.33 35.73 37.46 37 37.6 37.26 37.73 36.42 37.86 35.77 37.99 35.51 38.12 35.47 38.26 35.53 38.39 35.72 38.52 36.21 38.65 37.08 38.79 37.64 38.92 36.56 39.05 35.4 39.18 36.24 39.31 37.37 39.45 35.44 39.58 36.83 39.71 36.4 39.84 36.49 39.97 36.99 40.11 37.61 40.24 36.8 40.37 40.73 40.5 37.82 40.64 38.14 40.77 42.73 40.9 41.04 41.03 37.78 41.16 36.7 41.3 36.55 41.43 36.62 41.56 36.64 41.69 36.63 41.83 36.64 41.96 36.65 42.09 36.67 42.22 36.94 42.35 38.19 42.49 41.67 42.62 42.53 42.75 37.66 42.88 36.72 43.02 38.37 43.15 36.07 43.28 36.27 43.41 37.66 43.54 36.52 43.68 40.42 43.81 38.05 43.94 41.06 44.07 39.94 44.21 37.15 44.34 39.18 44.47 36.87 44.6 35.57 44.73 36.79 44.87 38.67 45 38.71 45.13 38.02 45.26 37.84 45.39 37.93 45.53 37.82 45.66 37.32 45.79 36.63 45.92 36.01 46.06 35.63 46.19 35.69 46.32 36.46 46.45 38.41 46.58 41.19 46.72 40.02 46.85 38 46.98 39.59 47.11 43.53 47.25 37.7 47.38 37.38 47.51 38.68 47.64 35.79 47.77 37.89 47.91 35.85 48.04 38.02 48.17 36.26 48.3 39.83 48.44 36.99 48.57 40.82 48.7 40.32 48.83 38.12 48.96 43.63 49.1 42.24 49.23 37.97 49.36 38.2 49.49 40.53 49.63 40.73 49.76 38.48 49.89 36.94 50.02 36.24 50.15 36.01 50.29 35.98 50.42 35.98 50.55 35.93 50.68 35.83 50.81 35.73 50.95 35.74 51.08 36.04 51.21 36.81 51.34 37.92 51.48 38.1 51.61 36.73 51.74 35.79 51.87 36.61 52 38.29 52.14 36.67 52.27 35.88 52.4 38.01 52.53 36.63 52.67 36.14 52.8 38.14 52.93 35.77 53.06 38.16 53.19 36.06 53.33 38.2 53.46 36.26 53.59 39.09 53.72 36.45 53.86 40.07 53.99 37.77 54.12 38.46 54.25 43.4 54.38 38.34 54.52 39.79 54.65 50.33 54.78 40.1 54.91 37.96 55.04 39.53 55.18 41.45 55.31 39.02 55.44 36.81 55.57 35.96 55.71 36.04 55.84 36.69 55.97 37.7 56.1 38.97 56.23 40.6 56.37 42.84 56.5 46.29 56.63 51.16 56.76 48.31 56.9 43.47 57.03 40.31 57.16 38.15 57.29 36.7 57.42 35.92 57.56 35.95 57.69 37.09 57.82 39.85 57.95 42.83 58.09 40.18 58.22 38.37 58.35 39.73 58.48 42.04 58.61 37.8 58.75 36.06 58.88 37.7 59.01 37.74 59.14 36.44 59.28 40.55 59.41 40.23 59.54 39.01 59.67 47.85 59.8 37.57 59.94 39.81 60.07 36.61 60.2 37.43 60.33 36.67 60.46 37.96 60.6 37.89 60.73 41.46 60.86 38.84 60.99 48.91 61.13 37.84 61.26 40.78 61.39 37.3 61.52 36.58 61.65 38.35 61.79 36.16 61.92 37.54 62.05 40.81 62.18 38.07 62.32 39.33 62.45 53.57 62.58 41.01 62.71 37.75 62.84 38.61 62.98 40.12 63.11 38.03 63.24 36.18 63.37 35.98 63.51 37.07 63.64 38.62 63.77 39.03 63.9 38.19 64.03 37.43 64.17 37.29 64.3 37.77 64.43 38.82 64.56 40.42 64.7 42.55 64.83 45.3 64.96 48.87 65.09 53.68 65.22 60.87 65.36 75.2 65.49 81.86 65.62 63.15 65.75 55.06 65.88 49.87 66.02 46.09 66.15 43.17 66.28 40.88 66.41 39.12 66.55 37.84 66.68 37.03 66.81 36.73 66.94 36.95 67.07 37.62 67.21 38.35 67.34 38.39 67.47 37.71 67.6 37.33 67.74 38.2 67.87 41.4 68 45.66 68.13 39.74 68.26 36.45 68.4 35.99 68.53 38.33 68.66 43.66 68.79 40.17 68.93 37.41 69.06 37.71 69.19 38.49 69.32 37.88 69.45 39.12 69.59 40.82 69.72 37.06 69.85 36.8 69.98 44.62 70.11 39.07 70.25 35.87 70.38 41.52 70.51 40.66 70.64 35.93 70.78 41.32 70.91 39.36 71.04 36.34 71.17 43.34 71.3 37.26 71.44 37.92 71.57 41.16 71.7 36.34 71.83 43.51 71.97 36.56 72.1 40.5 72.23 37.66 72.36 38.39 72.49 39.01 72.63 37.52 72.76 39.59 72.89 37.6 73.02 38.84 73.16 38.33 73.29 38.28 73.42 37.91 73.55 40.71 73.68 36.05 73.82 49.31 73.95 36.64 74.08 38.55 74.21 38.08 74.35 42.34 74.48 36.19 74.61 38.33 74.74 39.03 74.87 40.72 75.01 38.54 75.14 36.41 75.27 38.03 75.4 36.49 75.53 41.9 75.67 38.02 75.8 43.36 75.93 40.13 76.06 39.77 76.2 44.87 76.33 38.3 76.46 46.83 76.59 38.59 76.72 38.89 76.86 38.67 76.99 35.86 77.12 38.42 77.25 37.62 77.39 39.99 77.52 41.07 77.65 35.8 77.78 39.11 77.91 40.75 78.05 36.45 78.18 39.43 78.31 38.81 78.44 36.57 78.58 43.35 78.71 36.25 78.84 39.65 78.97 38.4 79.1 37.5 79.24 37.87 79.37 41.17 79.5 35.99 79.63 39.92 79.77 39.95 79.9 36.17 80.03 38.68 80.16 39.11 80.29 38.33 80.43 39.89 80.56 36.48 80.69 36 80.82 38.58 80.95 37.02 81.09 36.74 81.22 39.39 81.35 36.9 81.48 36.04 81.62 37.96 81.75 36.97 81.88 37.5 82.01 44.82 82.14 37.72 82.28 35.77 82.41 41.83 82.54 38.75 82.67 35.77 82.81 43.22 82.94 37.01 83.07 37.85 83.2 37.34 83.33 41.69 83.47 35.85 83.6 38.48 83.73 42.08 83.86 35.99 84 37.05 84.13 40.07 84.26 37.93 84.39 39.81 84.52 40.72 84.66 36.82 84.79 38 84.92 40.5 85.05 37.65 85.18 39.62 85.32 41.31 85.45 36 85.58 36.6 85.71 42.55 85.85 36.78 85.98 36.63 86.11 43.28 86.24 35.6 86.37 39.72 86.51 37.62 86.64 37 86.77 38.9 86.9 37.27 87.04 36.25 87.17 40.62 87.3 40.42 87.43 36.69 87.56 38.67 87.7 37.45 87.83 36.54 87.96 40.9 88.09 38.58 88.23 37.72 88.36 37.82 88.49 36.04 88.62 39.86 88.75 37.12 88.89 37.02 89.02 37.82 89.15 38.51 89.28 35.76 89.42 40.52 89.55 37.18 89.68 37.22 89.81 36.46 89.94 35.87 90.08 38.75 90.21 36.22 90.34 37.29 90.47 36.53 90.6 35.62 90.74 39.91 90.87 37.2 91 37 91.13 37.64 91.27 36.69 91.4 38.93 91.53 35.5 91.66 42.06 91.79 35.98 91.93 36.81 92.06 36.36 92.19 37.73 92.32 38.64 92.46 37.13 92.59 38.48 92.72 35.43 92.85 37.31 92.98 36.68 93.12 39.28 93.25 35.34 93.38 40.51 93.51 35.47 93.65 38.37 93.78 37.21 93.91 37.05 94.04 35.39 94.17 37.07 94.31 35.99 94.44 37.31 94.57 35.38 94.7 36.76 94.84 36.33 94.97 39.88 95.1 35.01 95.23 40.64 95.36 34.99 95.5 40.13 95.63 35.98 95.76 36.29 95.89 36.03 96.02 36.82 96.16 37.79 96.29 35.86 96.42 36.97 96.55 35.03 96.69 39.05 96.82 36.31 96.95 36.06 97.08 37.86 97.21 36.06 97.35 36.49 97.48 35.97 97.61 37.13 97.74 39.41 97.88 36.45 98.01 38.03 98.14 36.11 98.27 35.01 98.4 39.58 98.54 35.4 98.67 36.77 98.8 36.42 98.93 36.12 99.07 37.11 99.2 38.57 99.33 36.06 99.46 36.39 99.59 39.39 99.73 36.35 99.86 34.77 99.99 38.61 100.12 35.72 100.25 36.22 100.39 35.91 100.52 36.2 100.65 35.43 100.78 35.56 100.92 36.73 101.05 35.78 101.18 34.97 101.31 36.61 101.44 35.99 101.58 38.01 101.71 34.72 101.84 35.04 101.97 37.41 102.11 38.38 102.24 36.65 102.37 35.32 102.5 34.93 102.63 36.72 102.77 37.39 102.9 35.39 103.03 34.71 103.16 36.14 103.3 37.12 103.43 37.5 103.56 37.23 103.69 36.39 103.82 34.79 103.96 34.63 104.09 36.36 104.22 36.05 104.35 35.88 104.49 36.76 104.62 36.45 104.75 35.73 104.88 34.92 105.01 34.22 105.15 35.45 105.28 35.49 105.41 36.62 105.54 35.41 105.67 35.93 105.81 36.31 105.94 35.85 106.07 34.97 106.2 35.05 106.34 35.92 106.47 34.3 106.6 35.14 106.73 35.28 106.86 34.63 107 34.46 107.13 34.81 107.26 35.21 107.39 34.09 107.53 34.76 107.66 33.98 107.79 35.01 107.92 35.1 108.05 35 108.19 35.24 108.32 35.04 108.45 34.14 108.58 35.71 108.72 34.48 108.85 35.52 108.98 36.53 109.11 36.74 109.24 36.31 109.38 34.9 109.51 34.92 109.64 34.75 109.77 34.64 109.91 33.71 110.04 33.71 110.17 34.03 110.3 34.8 110.43 36.41 110.57 34.72 110.7 35.56 110.83 33.98 110.96 33.49 111.09 33.71 111.23 34.4 111.36 35.97 111.49 34.82 111.62 34.61 111.76 33.4 111.89 33.88 112.02 34.63 112.15 34.48 112.28 34.19 112.42 34.33 112.55 33.73 112.68 34.49 112.81 35.21 112.95 34.34 113.08 33.56 113.21 33.94 113.34 35.7 113.47 33.75 113.61 33.34 113.74 34.3 113.87 34.61 114 33.43 114.14 33.93 114.27 34.15 114.4 35.21 114.53 33.79 114.66 34.03 114.8 35.27 114.93 33.99 115.06 33.26 115.19 34.56 115.32 34.57 115.46 33.89 115.59 35.04 115.72 33.99 115.85 33.1 115.99 34.41 116.12 34.39 116.25 33.66 116.38 34.88 116.51 33.89 116.65 33.03 116.78 34.79 116.91 33.46 117.04 33.71 117.18 34 117.31 33.65 117.44 33.62 117.57 33.77 117.7 33.61 117.84 33.59 117.97 33.17 118.1 34.6 118.23 32.65 118.37 34.09 118.5 33.83 118.63 33.61 118.76 34.27 118.89 32.65 119.03 34.27 119.16 32.51 119.29 33.26 119.42 32.54 119.56 33.43 119.69 33.35 119.82 33.26 119.95 32.75 120.08 32.67 120.22 32.97 120.35 33.43 120.48 32.82 120.61 32.94 120.74 33.56 120.88 32.91 121.01 32.74 121.14 33.28 121.27 32.81 121.41 32.48 121.54 32.54 121.67 33.09 121.8 32.77 121.93 33.38 122.07 32.45 122.2 33.11 122.33 32.79 122.46 32.88 122.6 32.75 122.73 33.26 122.86 32.66 122.99 33.19 123.12 32.31 123.26 32.74 123.39 33.36 123.52 32.59 123.65 33.05 123.79 32.09 123.92 32.49 124.05 32.76 124.18 32.24 124.31 32.45 124.45 32.45 124.58 32.54 124.71 32.09 124.84 32.14 124.98 33.09 125.11 31.74 125.24 32.26 125.37 32.1 125.5 31.71 125.64 33 125.77 31.66 125.9 31.95 126.03 32.03 126.16 31.86 126.3 32.38 126.43 32.41 126.56 32.2 126.69 32.72 126.83 31.5 126.96 32.25 127.09 32.64 127.22 31.97 127.35 31.93 127.49 32.31 127.62 31.39 127.75 31.88 127.88 32.02 128.02 31.57 128.15 32.47 128.28 31.91 128.41 31.89 128.54 31.86 128.68 31.92 128.81 31.71 128.94 32.32 129.07 31.52 129.21 31.63 129.34 31.69 129.47 31.25 129.6 31.76 129.73 31.58 129.87 31.41 130 31.47 130.13 31.5 130.26 31.58 130.39 31.32 130.53 31.67 130.66 31.52 130.79 31.04 130.92 31.79 131.06 31.32 131.19 30.99 131.32 31.85 131.45 30.99 131.58 30.97 131.72 31.77 131.85 30.9 131.98 31.2 132.11 31.58 132.25 30.81 132.38 31.25 132.51 31.46 132.64 31.15 132.77 31.05 132.91 31.31 133.04 30.74 133.17 30.77 133.3 31.51 133.44 30.8 133.57 30.61 133.7 31.23 133.83 30.85 133.96 30.98 134.1 31.34 134.23 30.85 134.36 30.62 134.49 30.8 134.63 30.39 134.76 30.89 134.89 30.71 135.02 30.35 135.15 30.52 135.29 31.09 135.42 30.39 135.55 30.74 135.68 30.91 135.81 30.21 135.95 30.58 136.08 30.28 136.21 30.65 136.34 30.64 136.48 30.2 136.61 30.75 136.74 30.33 136.87 30.09 137 30.39 137.14 30.49 137.27 30.22 137.4 30.42 137.53 30.32 137.67 30.3 137.8 30.01 137.93 30.14 138.06 30.48 138.19 30.22 138.33 30.61 138.46 29.86 138.59 30.34 138.72 30.32 138.86 29.83 138.99 30.49 139.12 30.05 139.25 30.4 139.38 29.75 139.52 29.95 139.65 29.76 139.78 30.2 139.91 30 140.05 29.97 140.18 30.06 140.31 29.93 140.44 30.14 140.57 29.79 140.71 30.05 140.84 29.68 140.97 30.13 141.1 29.5 141.23 29.69 141.37 29.59 141.5 29.78 141.63 29.77 141.76 29.62 141.9 29.75 142.03 29.45 142.16 29.8 142.29 29.38 142.42 29.88 142.56 29.38 142.69 29.62 142.82 29.32 142.95 29.36 143.09 29.71 143.22 29.44 143.35 29.69 143.48 29.24 143.61 29.16 143.75 29.37 143.88 29.39 144.01 29.42 144.14 29.62 144.28 29 144.41 29.16 144.54 29.25 144.67 29.19 144.8 29.34 144.94 29.33 145.07 29.19 145.2 29.07 145.33 29.41 145.46 29.13 145.6 28.89 145.73 29.17 145.86 29.16 145.99 29.1 146.13 28.96 146.26 29.02 146.39 29.21 146.52 28.94 146.65 28.86 146.79 28.65 146.92 28.9 147.05 29.05 147.18 28.95 147.32 29.1 147.45 28.98 147.58 28.64 147.71 28.76 147.84 28.68 147.98 28.63 148.11 28.61 148.24 28.81 148.37 28.7 148.51 28.71 148.64 28.75 148.77 28.62 148.9 28.58 149.03 28.82 149.17 28.77 149.3 28.73 149.43 28.65 149.56 28.65 149.7 28.68 149.83 28.73 149.96 28.67 150.09 28.43 150.22 28.31 150.36 28.43 150.49 28.17 150.62 28.22 150.75 28.32 150.88 28.49 151.02 28.32 151.15 28.44 151.28 28.25 151.41 28.04 151.55 28.11 151.68 28.33 151.81 28.09 151.94 27.93 152.07 28.25 152.21 28.31 152.34 28.15 152.47 28.04 152.6 28.27 152.74 27.96 152.87 27.89 153 28.04"/>
      </g>
      <g stroke-width="0.3" fill="#000000" fill-opacity="0.000" class="geometry" stroke-dasharray="none" stroke="#00BFFF" id="img-c444a82f-12">
        <path fill="none" d="M20.94,36.6 L 21.07 38.78 21.2 37.16 21.34 35.78 21.47 36.66 21.6 38.05 21.73 37.56 21.86 36.44 22 35.96 22.13 36.11 22.26 36.65 22.39 37.32 22.53 37.97 22.66 38.44 22.79 38.64 22.92 38.52 23.05 38.18 23.19 37.93 23.32 38.23 23.45 39.78 23.58 44.16 23.72 46.9 23.85 40.08 23.98 38.04 24.11 40.19 24.24 44.09 24.38 38.3 24.51 38.18 24.64 41.86 24.77 37.31 24.9 38.73 25.04 38.57 25.17 36.96 25.3 39.06 25.43 36.42 25.57 38.66 25.7 36.36 25.83 37.71 25.96 36.99 26.09 36.3 26.23 38.31 26.36 35.95 26.49 36.82 26.62 38.13 26.76 36.09 26.89 36.21 27.02 38.13 27.15 37.78 27.28 36.23 27.42 36.05 27.55 37.11 27.68 38.56 27.81 38.98 27.95 38.26 28.08 37.42 28.21 36.89 28.34 36.65 28.47 36.6 28.61 36.63 28.74 36.71 28.87 36.82 29 37.01 29.14 37.36 29.27 38.05 29.4 39.26 29.53 41.03 29.66 42.07 29.8 40.37 29.93 38.24 30.06 37.47 30.19 38.75 30.32 42.71 30.46 41.62 30.59 38.07 30.72 38.58 30.85 44.27 30.99 40.18 31.12 38.03 31.25 43.57 31.38 40.52 31.51 38.39 31.65 46.99 31.78 38.64 31.91 41.4 32.04 41.22 32.18 39.18 32.31 44.45 32.44 38.61 32.57 46.27 32.7 38.63 32.84 45.16 32.97 39.2 33.1 41.98 33.23 41.35 33.37 39.19 33.5 49.89 33.63 38.5 33.76 42.92 33.89 42.89 34.03 38.43 34.16 44.8 34.29 42.89 34.42 38.42 34.56 41.81 34.69 50.35 34.82 39.59 34.95 38.66 35.08 42.99 35.22 52.77 35.35 40.86 35.48 38.5 35.61 39.23 35.74 43.07 35.88 58.72 36.01 45.25 36.14 40.61 36.27 38.86 36.41 38.44 36.54 38.89 36.67 39.99 36.8 41.68 36.93 43.96 37.07 46.92 37.2 50.79 37.33 56.12 37.46 64.53 37.6 85.14 37.73 74.56 37.86 61.09 37.99 54.15 38.12 49.47 38.26 46 38.39 43.33 38.52 41.27 38.65 39.76 38.79 38.8 38.92 38.44 39.05 38.86 39.18 40.44 39.31 44.28 39.45 59.99 39.58 45.29 39.71 40.28 39.84 38.53 39.97 39.02 40.11 42.64 40.24 61.7 40.37 42.37 40.5 38.73 40.64 39.07 40.77 44.64 40.9 47.56 41.03 39.43 41.16 38.74 41.3 44.42 41.43 45.62 41.56 38.79 41.69 39.79 41.83 55.99 41.96 40.3 42.09 38.74 42.22 47.65 42.35 41.36 42.49 38.58 42.62 47.38 42.75 40.89 42.88 38.84 43.02 53.36 43.15 39.41 43.28 40.2 43.41 47.15 43.54 38.41 43.68 45.6 43.81 40.28 43.94 39.81 44.07 46.4 44.21 38.42 44.34 51.12 44.47 38.85 44.6 43.23 44.73 40.41 44.87 40.41 45 42.79 45.13 39.19 45.26 45.74 45.39 38.67 45.53 48.72 45.66 38.48 45.79 50.68 45.92 38.43 46.06 50.91 46.19 38.45 46.32 49.5 46.45 38.56 46.58 46.91 46.72 38.88 46.85 44.08 46.98 39.62 47.11 41.6 47.25 41.18 47.38 39.73 47.51 44.46 47.64 38.6 47.77 51.63 47.91 38.41 48.04 45.9 48.17 39.57 48.3 40.75 48.44 43.25 48.57 38.61 48.7 51.96 48.83 38.64 48.96 42.67 49.1 41.52 49.23 38.89 49.36 51.2 49.49 38.6 49.63 42.32 49.76 42.22 49.89 38.57 50.02 50.24 50.15 39.2 50.29 40.28 50.42 46.13 50.55 38.35 50.68 43.55 50.81 41.71 50.95 38.54 51.08 48.56 51.21 39.75 51.34 39.32 51.48 50.32 51.61 38.84 51.74 40.41 51.87 46.72 52 38.44 52.14 41.61 52.27 44.34 52.4 38.31 52.53 42.75 52.67 42.99 52.8 38.29 52.93 43.67 53.06 42.21 53.19 38.3 53.33 44.28 53.46 41.79 53.59 38.32 53.72 44.55 53.86 41.61 53.99 38.32 54.12 44.53 54.25 41.58 54.38 38.29 54.52 44.28 54.65 41.66 54.78 38.25 54.91 43.91 55.04 41.8 55.18 38.21 55.31 43.47 55.44 41.96 55.57 38.16 55.71 43.04 55.84 42.08 55.97 38.11 56.1 42.66 56.23 42.11 56.37 38.06 56.5 42.37 56.63 42 56.76 37.99 56.9 42.17 57.03 41.71 57.16 37.91 57.29 42.1 57.42 41.24 57.56 37.83 57.69 42.15 57.82 40.6 57.95 37.75 58.09 42.29 58.22 39.83 58.35 37.72 58.48 42.43 58.61 38.99 58.75 37.79 58.88 42.33 59.01 38.15 59.14 38.03 59.28 41.67 59.41 37.41 59.54 38.52 59.67 40.36 59.8 36.9 59.94 39.26 60.07 38.76 60.2 36.76 60.33 39.86 60.46 37.31 60.6 37.14 60.73 39.4 60.86 36.38 60.99 38.06 61.13 37.81 61.26 36.23 61.39 38.78 61.52 36.33 61.65 37.06 61.79 37.78 61.92 35.87 62.05 38.22 62.18 36.16 62.32 36.81 62.45 37.42 62.58 35.81 62.71 38.17 62.84 35.88 62.98 37.37 63.11 36.86 63.24 36.35 63.37 38.15 63.51 35.97 63.64 38.77 63.77 36.31 63.9 38.37 64.03 37.28 64.17 37.7 64.3 38.75 64.43 37.3 64.56 40.55 64.7 37.26 64.83 42.42 64.96 37.53 65.09 43.86 65.22 37.97 65.36 44.45 65.49 38.42 65.62 44.16 65.75 38.68 65.88 43.38 66.02 38.61 66.15 42.42 66.28 38.19 66.41 41.46 66.55 37.55 66.68 40.56 66.81 36.86 66.94 39.74 67.07 36.29 67.21 38.94 67.34 35.97 67.47 38.11 67.6 36.02 67.74 37.25 67.87 36.58 68 36.5 68.13 37.75 68.26 36.14 68.4 39.2 68.53 36.55 68.66 39.53 68.79 38.35 68.93 38.43 69.06 42.81 69.19 37.94 69.32 44.5 69.45 39.56 69.59 39.1 69.72 43.36 69.85 37.43 69.98 39.57 70.11 38.55 70.25 36.37 70.38 38.56 70.51 36.6 70.64 36.02 70.78 38.09 70.91 36.27 71.04 36.47 71.17 39.27 71.3 37.27 71.44 37.66 71.57 43 71.7 39.36 71.83 38.37 71.97 44.18 72.1 40.7 72.23 37.31 72.36 38.66 72.49 39.32 72.63 36.43 72.76 36 72.89 37.69 73.02 37.54 73.16 36.14 73.29 36.96 73.42 40.5 73.55 40.87 73.68 38.26 73.82 38.62 73.95 42.21 74.08 41.85 74.21 37.7 74.35 36.2 74.48 36.63 74.61 37.85 74.74 37.8 74.87 36.76 75.01 36.57 75.14 38.01 75.27 41.87 75.4 46.61 75.53 41.19 75.67 37.84 75.8 36.47 75.93 36.31 76.06 36.95 76.2 37.98 76.33 38.8 76.46 38.94 76.59 38.6 76.72 38.21 76.86 37.94 76.99 37.77 77.12 37.65 77.25 37.64 77.39 37.84 77.52 38.38 77.65 39.3 77.78 40.33 77.91 40.62 78.05 39.56 78.18 37.97 78.31 36.65 78.44 35.87 78.58 35.67 78.71 36.04 78.84 36.87 78.97 37.85 79.1 38.22 79.24 37.58 79.37 36.6 79.5 35.93 79.63 35.85 79.77 36.37 79.9 37.33 80.03 38.06 80.16 37.75 80.29 36.72 80.43 35.91 80.56 35.79 80.69 36.51 80.82 38.13 80.95 40.16 81.09 40.58 81.22 39.17 81.35 38.14 81.48 38.22 81.62 39.35 81.75 40.35 81.88 39.06 82.01 36.99 82.14 35.85 82.28 36.02 82.41 37.85 82.54 42.33 82.67 45.21 82.81 39.34 82.94 36.55 83.07 35.89 83.2 37 83.33 39.92 83.47 41.88 83.6 38.87 83.73 36.74 83.86 36.47 84 37.99 84.13 40.52 84.26 39.65 84.39 37.19 84.52 36.45 84.66 37.87 84.79 40.98 84.92 39.53 85.05 36.63 85.18 36.36 85.32 39.37 85.45 42.99 85.58 37.57 85.71 35.75 85.85 38 85.98 46.22 86.11 38.35 86.24 35.67 86.37 37.78 86.51 44.12 86.64 37.98 86.77 36.22 86.9 38.45 87.04 39.53 87.17 37.72 87.3 38.04 87.43 37.51 87.56 37.42 87.7 40.96 87.83 37.96 87.96 35.88 88.09 40.78 88.23 40.7 88.36 35.82 88.49 38.39 88.62 40.36 88.75 37.2 88.89 38 89.02 37.32 89.15 39.58 89.28 38.78 89.42 35.83 89.55 42.08 89.68 38.59 89.81 36.15 89.94 40.21 90.08 37.92 90.21 38.31 90.34 36.75 90.47 40 90.6 38.66 90.74 35.94 90.87 44.14 91 36.93 91.13 37.85 91.27 38 91.4 39.74 91.53 36.51 91.66 38.78 91.79 39.76 91.93 36.1 92.06 41.02 92.19 37.46 92.32 37.81 92.46 37.77 92.59 40.47 92.72 35.81 92.85 44.93 92.98 36.39 93.12 38.78 93.25 38.15 93.38 38.27 93.51 36.92 93.65 42 93.78 35.92 93.91 41.68 94.04 37.13 94.17 37.64 94.31 40.01 94.44 36.49 94.57 40.32 94.7 37.1 94.84 38.53 94.97 37.99 95.1 38.08 95.23 37.79 95.36 38.73 95.5 37.28 95.63 39.04 95.76 37.49 95.89 38.26 96.02 38.28 96.16 37.61 96.29 38.56 96.42 37.83 96.55 37.94 96.69 38.41 96.82 37.84 96.95 37.75 97.08 39.56 97.21 36.3 97.35 43.93 97.48 35.82 97.61 41.93 97.74 37.01 97.88 37.98 98.01 39.09 98.14 37.29 98.27 38.04 98.4 39.56 98.54 36.39 98.67 41.15 98.8 37.01 98.93 38.05 99.07 38.88 99.2 37.7 99.33 37.22 99.46 42.14 99.59 35.72 99.73 43.06 99.86 36.89 99.99 38.17 100.12 38.24 100.25 38.73 100.39 36.76 100.52 40.1 100.65 37.89 100.78 36.52 100.92 45.88 101.05 35.91 101.18 39.35 101.31 39.14 101.44 36.59 101.58 39.68 101.71 37.76 101.84 38.02 101.97 37.66 102.11 39.08 102.24 37.74 102.37 37.08 102.5 41.48 102.63 36.7 102.77 37.56 102.9 42.65 103.03 36.06 103.16 38.4 103.3 42.05 103.43 35.81 103.56 39.08 103.69 41.41 103.82 35.76 103.96 39.28 104.09 41.28 104.22 35.82 104.35 38.92 104.49 41.44 104.62 36.1 104.75 38.22 104.88 40.92 105.01 36.82 105.15 37.74 105.28 38.99 105.41 37.98 105.54 38.43 105.67 36.99 105.81 38.15 105.94 42.19 106.07 36.44 106.2 36.61 106.34 44.99 106.47 37.97 106.6 36.61 106.73 38.45 106.86 37.62 107 40.5 107.13 38.86 107.26 35.66 107.39 38.72 107.53 40.29 107.66 38 107.79 39.48 107.92 36.14 108.05 36.89 108.19 41.71 108.32 38.11 108.45 40.36 108.58 37.58 108.72 35.86 108.85 38.65 108.98 37.17 109.11 40.46 109.24 41.77 109.38 37.39 109.51 39.47 109.64 36.02 109.77 37.01 109.91 37.42 110.04 36.85 110.17 41.89 110.3 37.87 110.43 43.92 110.57 38.95 110.7 39.21 110.83 39.22 110.96 36.82 111.09 38.79 111.23 35.89 111.36 38.2 111.49 35.75 111.62 37.68 111.76 36 111.89 37.28 112.02 36.37 112.15 36.99 112.28 36.66 112.42 36.77 112.55 36.76 112.68 36.65 112.81 36.68 112.95 36.68 113.08 36.54 113.21 37.04 113.34 36.51 113.47 38.09 113.61 36.79 113.74 40.52 113.87 37.47 114 45.1 114.14 38.17 114.27 41.98 114.4 38.09 114.53 37.3 114.66 37.73 114.8 35.67 114.93 38.54 115.06 37.19 115.19 39.55 115.32 42.91 115.46 37.17 115.59 38.48 115.72 36.62 115.85 36.23 115.99 41.64 116.12 39.29 116.25 37.61 116.38 38.46 116.51 36.43 116.65 37.09 116.78 44.35 116.91 38.89 117.04 35.69 117.18 37.52 117.31 43.32 117.44 38.16 117.57 35.93 117.7 37.93 117.84 43.37 117.97 37.84 118.1 35.64 118.23 38.15 118.37 44.81 118.5 37.76 118.63 36.41 118.76 37.96 118.89 37.13 119.03 37.92 119.16 45.08 119.29 38.16 119.42 36.7 119.56 38.07 119.69 35.86 119.82 37.05 119.95 39.11 120.08 37.13 120.22 42.66 120.35 39 120.48 39.51 120.61 42.08 120.74 37.72 120.88 42.97 121.01 37.52 121.14 41.31 121.27 38.25 121.41 40.21 121.54 39.49 121.67 39.76 121.8 40.33 121.93 38.98 122.07 39.04 122.2 37.44 122.33 36.95 122.46 36.62 122.6 36.45 122.73 38.71 122.86 37.93 122.99 43.5 123.12 36.59 123.26 37.83 123.39 36.17 123.52 38.93 123.65 41.12 123.79 36.21 123.92 37.83 124.05 37.67 124.18 38.74 124.31 37.94 124.45 36.24 124.58 40.25 124.71 37.96 124.84 36.2 124.98 39.91 125.11 37.62 125.24 37.31 125.37 37.33 125.5 38.46 125.64 39.16 125.77 35.51 125.9 40.57 126.03 37.63 126.16 38.9 126.3 35.49 126.43 39.98 126.56 37.74 126.69 39.92 126.83 36.07 126.96 36.57 127.09 39.26 127.22 37.63 127.35 40.91 127.49 37.36 127.62 35.56 127.75 37.49 127.88 37.91 128.02 37.02 128.15 39.24 128.28 43.06 128.41 38.9 128.54 36.45 128.68 36.19 128.81 37 128.94 37.61 129.07 37.2 129.21 36.4 129.34 35.84 129.47 35.61 129.6 35.6 129.73 35.7 129.87 35.79 130 35.79 130.13 35.71 130.26 35.56 130.39 35.41 130.53 35.38 130.66 35.62 130.79 36.35 130.92 37.92 131.06 40.6 131.19 41.98 131.32 39.01 131.45 36.76 131.58 36.38 131.72 37.26 131.85 37.03 131.98 36.32 132.11 38.76 132.25 41.41 132.38 36.15 132.51 36.22 132.64 37.86 132.77 37.22 132.91 40.73 133.04 35.6 133.17 37.41 133.3 37.46 133.44 39.7 133.57 35.42 133.7 38.72 133.83 37.34 133.96 37.36 134.1 36.79 134.23 37.44 134.36 37.78 134.49 37 134.63 37.19 134.76 36.28 134.89 39.64 135.02 38.1 135.15 35.49 135.29 37.32 135.42 35.87 135.55 39.21 135.68 37.81 135.81 39.21 135.95 38.78 136.08 38.4 136.21 39.11 136.34 38.36 136.48 38.93 136.61 38.24 136.74 37 136.87 36.91 137 35.3 137.14 38.03 137.27 36.89 137.4 39.36 137.53 35.91 137.67 36.11 137.8 41.16 137.93 35.5 138.06 36.93 138.19 39.64 138.33 35.13 138.46 38.68 138.59 36.85 138.72 37.35 138.86 35.39 138.99 40.39 139.12 36.69 139.25 35.71 139.38 37.62 139.52 36.98 139.65 37.29 139.78 37.44 139.91 36.12 140.05 35.74 140.18 36.73 140.31 38.12 140.44 38.28 140.57 37.46 140.71 36.85 140.84 36.81 140.97 37.3 141.1 38.12 141.23 38.92 141.37 38.95 141.5 37.95 141.63 36.9 141.76 36.89 141.9 38.71 142.03 40.18 142.16 37.34 142.29 37.07 142.42 40.03 142.56 36.85 142.69 37.32 142.82 37.1 142.95 35.65 143.09 36.15 143.22 35.37 143.35 35.82 143.48 37.85 143.61 36.46 143.75 38.21 143.88 37.27 144.01 34.99 144.14 35.24 144.28 37.78 144.41 39.28 144.54 36.86 144.67 36 144.8 37.25 144.94 37.22 145.07 35.61 145.2 36.55 145.33 39 145.46 36.76 145.6 36.6 145.73 36.68 145.86 34.81 145.99 37.5 146.13 37.34 146.26 34.8 146.39 38.52 146.52 35.25 146.65 37.05 146.79 35.78 146.92 36.78 147.05 35.45 147.18 37.94 147.32 34.78 147.45 37.57 147.58 36.06 147.71 36.65 147.84 34.62 147.98 36.5 148.11 36.84 148.24 36.35 148.37 38.92 148.51 36.44 148.64 36.83 148.77 38.57 148.9 35.87 149.03 35.13 149.17 35.94 149.3 36.1 149.43 35.98 149.56 35.47 149.7 36.38 149.83 37.61 149.96 34.57 150.09 35.94 150.22 35.01 150.36 38.11 150.49 36.11 150.62 36.18 150.75 36.55 150.88 34.83 151.02 34.34 151.15 34.96 151.28 35.75 151.41 36.16 151.55 36.27 151.68 36.31 151.81 36.33 151.94 36.18 152.07 35.58 152.21 34.67 152.34 34.24 152.47 35.06 152.6 35.8 152.74 34.85 152.87 36.67 153 36.57"/>
      </g>
    </g>
  </g>
</g>
  <g class="guide ylabels" font-size="2.82" font-family="'PT Sans Caption','Helvetica Neue','Helvetica',sans-serif" fill="#6C606B" id="img-c444a82f-13">
    <text x="17.94" y="98.71" text-anchor="end" dy="0.35em">10<tspan style="dominant-baseline:inherit" dy="-0.6em" font-size="83%">-6</tspan><tspan dy="0.498000em"></tspan></text>
    <text x="17.94" y="81.49" text-anchor="end" dy="0.35em">10<tspan style="dominant-baseline:inherit" dy="-0.6em" font-size="83%">-4</tspan><tspan dy="0.498000em"></tspan></text>
    <text x="17.94" y="64.27" text-anchor="end" dy="0.35em">10<tspan style="dominant-baseline:inherit" dy="-0.6em" font-size="83%">-2</tspan><tspan dy="0.498000em"></tspan></text>
    <text x="17.94" y="47.05" text-anchor="end" dy="0.35em">10<tspan style="dominant-baseline:inherit" dy="-0.6em" font-size="83%">0</tspan><tspan dy="0.498000em"></tspan></text>
    <text x="17.94" y="29.83" text-anchor="end" dy="0.35em">10<tspan style="dominant-baseline:inherit" dy="-0.6em" font-size="83%">2</tspan><tspan dy="0.498000em"></tspan></text>
    <text x="17.94" y="12.61" text-anchor="end" dy="0.35em">10<tspan style="dominant-baseline:inherit" dy="-0.6em" font-size="83%">4</tspan><tspan dy="0.498000em"></tspan></text>
  </g>
  <g font-size="3.88" font-family="'PT Sans','Helvetica Neue','Helvetica',sans-serif" fill="#564A55" stroke="#000000" stroke-opacity="0.000" id="img-c444a82f-14">
    <text x="8.81" y="55.66" text-anchor="end" dy="0.35em">y</text>
  </g>
  <g font-size="3.88" font-family="'PT Sans','Helvetica Neue','Helvetica',sans-serif" fill="#564A55" stroke="#000000" stroke-opacity="0.000" id="img-c444a82f-15">
    <text x="86.97" y="5" text-anchor="middle" dy="0.6em">Composite Griewank-Rosenbrock Function F8F2</text>
  </g>
</g>
<defs>
  <clipPath id="img-c444a82f-4">
  <path d="M18.94,10.61 L 155 10.61 155 100.71 18.94 100.71" />
</clipPath>
</defs>
</svg>
