<?xml version="1.0" encoding="UTF-8"?>
<svg xmlns="http://www.w3.org/2000/svg"
     xmlns:xlink="http://www.w3.org/1999/xlink"
     xmlns:gadfly="http://www.gadflyjl.org/ns"
     version="1.2"
     width="160mm" height="120mm" viewBox="0 0 160 120"
     stroke="none"
     fill="#000000"
     stroke-width="0.3"
     font-size="3.88"
>
<g class="plotroot xscalable yscalable" id="img-b702dcd2-1">
  <g font-size="3.88" font-family="'PT Sans','Helvetica Neue','Helvetica',sans-serif" fill="#564A55" stroke="#000000" stroke-opacity="0.000" id="img-b702dcd2-2">
    <text x="86.97" y="108.39" text-anchor="middle" dy="0.6em">x</text>
  </g>
  <g class="guide xlabels" font-size="2.82" font-family="'PT Sans Caption','Helvetica Neue','Helvetica',sans-serif" fill="#6C606B" id="img-b702dcd2-3">
    <text x="20.94" y="101.71" text-anchor="middle" dy="0.6em">-5</text>
    <text x="86.97" y="101.71" text-anchor="middle" dy="0.6em">0</text>
    <text x="153" y="101.71" text-anchor="middle" dy="0.6em">5</text>
  </g>
<g clip-path="url(#img-b702dcd2-4)">
  <g id="img-b702dcd2-5">
    <g pointer-events="visible" opacity="1" fill="#000000" fill-opacity="0.000" stroke="#000000" stroke-opacity="0.000" class="guide background" id="img-b702dcd2-6">
      <rect x="18.94" y="10.61" width="136.06" height="90.1"/>
    </g>
    <g class="guide ygridlines xfixed" stroke-dasharray="0.5,0.5" stroke-width="0.2" stroke="#D0D0E0" id="img-b702dcd2-7">
      <path fill="none" d="M18.94,98.71 L 155 98.71"/>
      <path fill="none" d="M18.94,81.49 L 155 81.49"/>
      <path fill="none" d="M18.94,64.27 L 155 64.27"/>
      <path fill="none" d="M18.94,47.05 L 155 47.05"/>
      <path fill="none" d="M18.94,29.83 L 155 29.83"/>
      <path fill="none" d="M18.94,12.61 L 155 12.61"/>
    </g>
    <g class="guide xgridlines yfixed" stroke-dasharray="0.5,0.5" stroke-width="0.2" stroke="#D0D0E0" id="img-b702dcd2-8">
      <path fill="none" d="M20.94,10.61 L 20.94 100.71"/>
      <path fill="none" d="M86.97,10.61 L 86.97 100.71"/>
      <path fill="none" d="M153,10.61 L 153 100.71"/>
    </g>
    <g class="plotpanel" id="img-b702dcd2-9">
      <g stroke-width="0.3" fill="#000000" fill-opacity="0.000" class="geometry" stroke-dasharray="none" stroke="#FF0000" id="img-b702dcd2-10">
        <path fill="none" d="M20.94,25.64 L 21.07 25.67 21.2 25.69 21.34 25.72 21.47 25.75 21.6 25.77 21.73 25.8 21.86 25.83 22 25.86 22.13 25.89 22.26 25.91 22.39 25.94 22.53 25.97 22.66 26 22.79 26.03 22.92 26.06 23.05 26.08 23.19 26.11 23.32 26.14 23.45 26.17 23.58 26.2 23.72 26.23 23.85 26.26 23.98 26.29 24.11 26.32 24.24 26.35 24.38 26.38 24.51 26.41 24.64 26.44 24.77 26.47 24.9 26.5 25.04 26.53 25.17 26.56 25.3 26.59 25.43 26.62 25.57 26.65 25.7 26.68 25.83 26.71 25.96 26.74 26.09 26.77 26.23 26.81 26.36 26.84 26.49 26.87 26.62 26.9 26.76 26.93 26.89 26.97 27.02 27 27.15 27.03 27.28 27.06 27.42 27.1 27.55 27.13 27.68 27.16 27.81 27.19 27.95 27.23 28.08 27.26 28.21 27.29 28.34 27.33 28.47 27.36 28.61 27.4 28.74 27.43 28.87 27.46 29 27.5 29.14 27.53 29.27 27.57 29.4 27.6 29.53 27.64 29.66 27.67 29.8 27.71 29.93 27.75 30.06 27.78 30.19 27.82 30.32 27.85 30.46 27.89 30.59 27.93 30.72 27.96 30.85 28 30.99 28.04 31.12 28.08 31.25 28.11 31.38 28.15 31.51 28.19 31.65 28.23 31.78 28.27 31.91 28.3 32.04 28.34 32.18 28.38 32.31 28.42 32.44 28.46 32.57 28.5 32.7 28.54 32.84 28.58 32.97 28.62 33.1 28.66 33.23 28.7 33.37 28.74 33.5 28.78 33.63 28.82 33.76 28.87 33.89 28.91 34.03 28.95 34.16 28.99 34.29 29.03 34.42 29.08 34.56 29.12 34.69 29.16 34.82 29.21 34.95 29.25 35.08 29.3 35.22 29.34 35.35 29.38 35.48 29.43 35.61 29.47 35.74 29.52 35.88 29.56 36.01 29.61 36.14 29.66 36.27 29.7 36.41 29.75 36.54 29.8 36.67 29.84 36.8 29.89 36.93 29.94 37.07 29.99 37.2 30.04 37.33 30.08 37.46 30.13 37.6 30.18 37.73 30.23 37.86 30.28 37.99 30.33 38.12 30.38 38.26 30.43 38.39 30.48 38.52 30.54 38.65 30.59 38.79 30.64 38.92 30.69 39.05 30.75 39.18 30.8 39.31 30.85 39.45 30.91 39.58 30.96 39.71 31.02 39.84 31.07 39.97 31.13 40.11 31.19 40.24 31.24 40.37 31.3 40.5 31.36 40.64 31.42 40.77 31.48 40.9 31.53 41.03 31.59 41.16 31.65 41.3 31.72 41.43 31.78 41.56 31.84 41.69 31.9 41.83 31.96 41.96 32.03 42.09 32.09 42.22 32.16 42.35 32.22 42.49 32.29 42.62 32.35 42.75 32.42 42.88 32.49 43.02 32.55 43.15 32.62 43.28 32.69 43.41 32.76 43.54 32.83 43.68 32.9 43.81 32.98 43.94 33.05 44.07 33.12 44.21 33.2 44.34 33.27 44.47 33.35 44.6 33.42 44.73 33.5 44.87 33.58 45 33.66 45.13 33.74 45.26 33.82 45.39 33.9 45.53 33.98 45.66 34.06 45.79 34.15 45.92 34.23 46.06 34.32 46.19 34.4 46.32 34.49 46.45 34.58 46.58 34.67 46.72 34.76 46.85 34.85 46.98 34.94 47.11 35.04 47.25 35.13 47.38 35.23 47.51 35.33 47.64 35.42 47.77 35.53 47.91 35.63 48.04 35.73 48.17 35.83 48.3 35.94 48.44 36.05 48.57 36.16 48.7 36.27 48.83 36.38 48.96 36.49 49.1 36.61 49.23 36.73 49.36 36.85 49.49 36.97 49.63 37.09 49.76 37.22 49.89 37.35 50.02 37.48 50.15 37.61 50.29 37.75 50.42 37.88 50.55 38.03 50.68 38.17 50.81 38.32 50.95 38.47 51.08 38.62 51.21 38.77 51.34 38.93 51.48 39.1 51.61 39.26 51.74 39.43 51.87 39.61 52 39.79 52.14 39.97 52.27 40.16 52.4 40.35 52.53 40.54 52.67 40.75 52.8 40.95 52.93 41.17 53.06 41.38 53.19 41.61 53.33 41.84 53.46 42.08 53.59 42.33 53.72 42.58 53.86 42.84 53.99 43.12 54.12 43.4 54.25 43.69 54.38 43.99 54.52 44.31 54.65 44.64 54.78 44.98 54.91 45.34 55.04 45.72 55.18 46.12 55.31 46.54 55.44 46.98 55.57 47.45 55.71 47.95 55.84 48.49 55.97 49.06 56.1 49.68 56.23 50.36 56.37 51.1 56.5 51.92 56.63 52.82 56.76 53.85 56.9 55 57.03 56.33 57.16 57.84 57.29 59.49 57.42 61.02 57.56 61.8 57.69 62.27 57.82 62.82 57.95 63.46 58.09 64.2 58.22 65.07 58.35 66.09 58.48 67.33 58.61 68.86 58.75 70.83 58.88 73.57 59.01 78.02 59.14 90.66 59.28 81.47 59.41 75.29 59.54 72 59.67 69.75 59.8 68.07 59.94 66.74 60.07 65.66 60.2 64.76 60.33 64 60.46 63.36 60.6 62.82 60.73 62.36 60.86 61.98 60.99 61.67 61.13 61.42 61.26 61.23 61.39 61.1 61.52 61.03 61.65 61 61.79 61.03 61.92 61.11 62.05 61.25 62.18 61.44 62.32 61.68 62.45 61.97 62.58 62.31 62.71 62.7 62.84 63.14 62.98 63.6 63.11 64.08 63.24 64.55 63.37 64.97 63.51 65.28 63.64 65.46 63.77 65.46 63.9 65.3 64.03 65 64.17 64.61 64.3 64.17 64.43 63.73 64.56 63.32 64.7 62.95 64.83 62.63 64.96 62.39 65.09 62.21 65.22 62.1 65.36 62.06 65.49 62.1 65.62 62.2 65.75 62.37 65.88 62.59 66.02 62.84 66.15 63.11 66.28 63.35 66.41 63.54 66.55 63.63 66.68 63.62 66.81 63.5 66.94 63.32 67.07 63.12 67.21 62.94 67.34 62.84 67.47 62.82 67.6 62.9 67.74 63.01 67.87 63.06 68 63.01 68.13 63 68.26 63.1 68.4 63.21 68.53 63.24 68.66 63.17 68.79 63.02 68.93 62.83 69.06 62.66 69.19 62.54 69.32 62.5 69.45 62.53 69.59 62.65 69.72 62.84 69.85 63.09 69.98 63.39 70.11 63.69 70.25 63.97 70.38 64.19 70.51 64.31 70.64 64.3 70.78 64.17 70.91 63.93 71.04 63.61 71.17 63.26 71.3 62.91 71.44 62.57 71.57 62.27 71.7 62.01 71.83 61.81 71.97 61.67 72.1 61.58 72.23 61.55 72.36 61.59 72.49 61.69 72.63 61.85 72.76 62.08 72.89 62.37 73.02 62.73 73.16 63.16 73.29 63.66 73.42 64.23 73.55 64.86 73.68 65.54 73.82 66.23 73.95 66.88 74.08 67.41 74.21 67.71 74.35 67.71 74.48 67.41 74.61 66.87 74.74 66.2 74.87 65.49 75.01 64.78 75.14 64.11 75.27 63.5 75.4 62.94 75.53 62.45 75.67 62.02 75.8 61.64 75.93 61.32 76.06 61.05 76.2 60.84 76.33 60.67 76.46 60.54 76.59 60.47 76.72 60.43 76.86 60.45 76.99 60.51 77.12 60.61 77.25 60.76 77.39 60.97 77.52 61.23 77.65 61.55 77.78 61.94 77.91 62.4 78.05 62.96 78.18 63.63 78.31 64.44 78.44 65.29 78.58 63.64 78.71 60.96 78.84 58.66 78.97 56.81 79.1 55.28 79.24 54 79.37 52.89 79.5 51.92 79.63 51.06 79.77 50.29 79.9 49.59 80.03 48.94 80.16 48.35 80.29 47.8 80.43 47.29 80.56 46.81 80.69 46.36 80.82 45.93 80.95 45.53 81.09 45.15 81.22 44.79 81.35 44.44 81.48 44.11 81.62 43.79 81.75 43.49 81.88 43.2 82.01 42.92 82.14 42.65 82.28 42.4 82.41 42.15 82.54 41.9 82.67 41.67 82.81 41.44 82.94 41.22 83.07 41.01 83.2 40.8 83.33 40.6 83.47 40.41 83.6 40.22 83.73 40.03 83.86 39.85 84 39.67 84.13 39.5 84.26 39.33 84.39 39.16 84.52 39 84.66 38.84 84.79 38.69 84.92 38.54 85.05 38.39 85.18 38.24 85.32 38.1 85.45 37.96 85.58 37.82 85.71 37.68 85.85 37.55 85.98 37.42 86.11 37.29 86.24 37.16 86.37 37.04 86.51 36.92 86.64 36.79 86.77 36.67 86.9 36.56 87.04 36.44 87.17 36.33 87.3 36.22 87.43 36.1 87.56 36 87.7 35.89 87.83 35.78 87.96 35.68 88.09 35.57 88.23 35.47 88.36 35.37 88.49 35.27 88.62 35.17 88.75 35.08 88.89 34.98 89.02 34.89 89.15 34.8 89.28 34.7 89.42 34.61 89.55 34.52 89.68 34.44 89.81 34.35 89.94 34.26 90.08 34.18 90.21 34.09 90.34 34.01 90.47 33.93 90.6 33.84 90.74 33.76 90.87 33.68 91 33.61 91.13 33.53 91.27 33.45 91.4 33.37 91.53 33.3 91.66 33.22 91.79 33.15 91.93 33.08 92.06 33.01 92.19 32.93 92.32 32.86 92.46 32.79 92.59 32.72 92.72 32.65 92.85 32.58 92.98 32.52 93.12 32.45 93.25 32.38 93.38 32.32 93.51 32.25 93.65 32.19 93.78 32.12 93.91 32.06 94.04 32 94.17 31.93 94.31 31.87 94.44 31.81 94.57 31.75 94.7 31.69 94.84 31.63 94.97 31.57 95.1 31.51 95.23 31.45 95.36 31.39 95.5 31.33 95.63 31.27 95.76 31.22 95.89 31.16 96.02 31.1 96.16 31.05 96.29 30.99 96.42 30.94 96.55 30.88 96.69 30.83 96.82 30.77 96.95 30.72 97.08 30.67 97.21 30.61 97.35 30.56 97.48 30.51 97.61 30.46 97.74 30.4 97.88 30.35 98.01 30.3 98.14 30.25 98.27 30.2 98.4 30.15 98.54 30.1 98.67 30.05 98.8 30.01 98.93 29.96 99.07 29.91 99.2 29.86 99.33 29.81 99.46 29.77 99.59 29.72 99.73 29.67 99.86 29.63 99.99 29.58 100.12 29.54 100.25 29.49 100.39 29.45 100.52 29.4 100.65 29.36 100.78 29.31 100.92 29.27 101.05 29.22 101.18 29.18 101.31 29.14 101.44 29.09 101.58 29.05 101.71 29.01 101.84 28.97 101.97 28.93 102.11 28.88 102.24 28.84 102.37 28.8 102.5 28.76 102.63 28.72 102.77 28.68 102.9 28.64 103.03 28.6 103.16 28.56 103.3 28.52 103.43 28.48 103.56 28.44 103.69 28.4 103.82 28.36 103.96 28.32 104.09 28.28 104.22 28.25 104.35 28.21 104.49 28.17 104.62 28.13 104.75 28.09 104.88 28.06 105.01 28.02 105.15 27.98 105.28 27.95 105.41 27.91 105.54 27.87 105.67 27.84 105.81 27.8 105.94 27.76 106.07 27.73 106.2 27.69 106.34 27.66 106.47 27.62 106.6 27.59 106.73 27.55 106.86 27.52 107 27.48 107.13 27.45 107.26 27.41 107.39 27.38 107.53 27.34 107.66 27.31 107.79 27.28 107.92 27.24 108.05 27.21 108.19 27.18 108.32 27.14 108.45 27.11 108.58 27.08 108.72 27.04 108.85 27.01 108.98 26.98 109.11 26.95 109.24 26.91 109.38 26.88 109.51 26.85 109.64 26.82 109.77 26.79 109.91 26.76 110.04 26.72 110.17 26.69 110.3 26.66 110.43 26.63 110.57 26.6 110.7 26.57 110.83 26.54 110.96 26.51 111.09 26.48 111.23 26.45 111.36 26.42 111.49 26.39 111.62 26.36 111.76 26.33 111.89 26.3 112.02 26.27 112.15 26.24 112.28 26.21 112.42 26.18 112.55 26.15 112.68 26.12 112.81 26.1 112.95 26.07 113.08 26.04 113.21 26.01 113.34 25.98 113.47 25.95 113.61 25.93 113.74 25.9 113.87 25.87 114 25.84 114.14 25.81 114.27 25.79 114.4 25.76 114.53 25.73 114.66 25.7 114.8 25.68 114.93 25.65 115.06 25.62 115.19 25.6 115.32 25.57 115.46 25.54 115.59 25.52 115.72 25.49 115.85 25.46 115.99 25.44 116.12 25.41 116.25 25.39 116.38 25.36 116.51 25.33 116.65 25.31 116.78 25.28 116.91 25.26 117.04 25.23 117.18 25.2 117.31 25.18 117.44 25.15 117.57 25.13 117.7 25.1 117.84 25.08 117.97 25.05 118.1 25.03 118.23 25 118.37 24.98 118.5 24.95 118.63 24.93 118.76 24.9 118.89 24.88 119.03 24.86 119.16 24.83 119.29 24.81 119.42 24.78 119.56 24.76 119.69 24.73 119.82 24.71 119.95 24.69 120.08 24.66 120.22 24.64 120.35 24.62 120.48 24.59 120.61 24.57 120.74 24.55 120.88 24.52 121.01 24.5 121.14 24.48 121.27 24.45 121.41 24.43 121.54 24.41 121.67 24.38 121.8 24.36 121.93 24.34 122.07 24.31 122.2 24.29 122.33 24.27 122.46 24.25 122.6 24.22 122.73 24.2 122.86 24.18 122.99 24.16 123.12 24.14 123.26 24.11 123.39 24.09 123.52 24.07 123.65 24.05 123.79 24.03 123.92 24 124.05 23.98 124.18 23.96 124.31 23.94 124.45 23.92 124.58 23.9 124.71 23.87 124.84 23.85 124.98 23.83 125.11 23.81 125.24 23.79 125.37 23.77 125.5 23.75 125.64 23.73 125.77 23.71 125.9 23.69 126.03 23.66 126.16 23.64 126.3 23.62 126.43 23.6 126.56 23.58 126.69 23.56 126.83 23.54 126.96 23.52 127.09 23.5 127.22 23.48 127.35 23.46 127.49 23.44 127.62 23.42 127.75 23.4 127.88 23.38 128.02 23.36 128.15 23.34 128.28 23.32 128.41 23.3 128.54 23.28 128.68 23.26 128.81 23.24 128.94 23.22 129.07 23.2 129.21 23.18 129.34 23.16 129.47 23.14 129.6 23.13 129.73 23.11 129.87 23.09 130 23.07 130.13 23.05 130.26 23.03 130.39 23.01 130.53 22.99 130.66 22.97 130.79 22.95 130.92 22.93 131.06 22.92 131.19 22.9 131.32 22.88 131.45 22.86 131.58 22.84 131.72 22.82 131.85 22.8 131.98 22.79 132.11 22.77 132.25 22.75 132.38 22.73 132.51 22.71 132.64 22.69 132.77 22.68 132.91 22.66 133.04 22.64 133.17 22.62 133.3 22.6 133.44 22.58 133.57 22.57 133.7 22.55 133.83 22.53 133.96 22.51 134.1 22.5 134.23 22.48 134.36 22.46 134.49 22.44 134.63 22.42 134.76 22.41 134.89 22.39 135.02 22.37 135.15 22.35 135.29 22.34 135.42 22.32 135.55 22.3 135.68 22.29 135.81 22.27 135.95 22.25 136.08 22.23 136.21 22.22 136.34 22.2 136.48 22.18 136.61 22.16 136.74 22.15 136.87 22.13 137 22.11 137.14 22.1 137.27 22.08 137.4 22.06 137.53 22.05 137.67 22.03 137.8 22.01 137.93 22 138.06 21.98 138.19 21.96 138.33 21.95 138.46 21.93 138.59 21.91 138.72 21.9 138.86 21.88 138.99 21.87 139.12 21.85 139.25 21.83 139.38 21.82 139.52 21.8 139.65 21.78 139.78 21.77 139.91 21.75 140.05 21.74 140.18 21.72 140.31 21.7 140.44 21.69 140.57 21.67 140.71 21.66 140.84 21.64 140.97 21.62 141.1 21.61 141.23 21.59 141.37 21.58 141.5 21.56 141.63 21.55 141.76 21.53 141.9 21.51 142.03 21.5 142.16 21.48 142.29 21.47 142.42 21.45 142.56 21.44 142.69 21.42 142.82 21.41 142.95 21.39 143.09 21.38 143.22 21.36 143.35 21.35 143.48 21.33 143.61 21.32 143.75 21.3 143.88 21.29 144.01 21.27 144.14 21.26 144.28 21.24 144.41 21.23 144.54 21.21 144.67 21.2 144.8 21.18 144.94 21.17 145.07 21.15 145.2 21.14 145.33 21.12 145.46 21.11 145.6 21.09 145.73 21.08 145.86 21.06 145.99 21.05 146.13 21.03 146.26 21.02 146.39 21 146.52 20.99 146.65 20.97 146.79 20.96 146.92 20.95 147.05 20.93 147.18 20.92 147.32 20.9 147.45 20.89 147.58 20.87 147.71 20.86 147.84 20.85 147.98 20.83 148.11 20.82 148.24 20.8 148.37 20.79 148.51 20.77 148.64 20.76 148.77 20.75 148.9 20.73 149.03 20.72 149.17 20.7 149.3 20.69 149.43 20.68 149.56 20.66 149.7 20.65 149.83 20.63 149.96 20.62 150.09 20.61 150.22 20.59 150.36 20.58 150.49 20.57 150.62 20.55 150.75 20.54 150.88 20.52 151.02 20.51 151.15 20.5 151.28 20.48 151.41 20.47 151.55 20.46 151.68 20.44 151.81 20.43 151.94 20.42 152.07 20.4 152.21 20.39 152.34 20.38 152.47 20.36 152.6 20.35 152.74 20.34 152.87 20.32 153 20.31"/>
      </g>
      <g stroke-width="0.3" fill="#000000" fill-opacity="0.000" class="geometry" stroke-dasharray="none" stroke="#FFA500" id="img-b702dcd2-11">
        <path fill="none" d="M20.94,29.66 L 21.07 29.69 21.2 29.72 21.34 29.74 21.47 29.77 21.6 29.8 21.73 29.83 21.86 29.86 22 29.89 22.13 29.92 22.26 29.95 22.39 29.98 22.53 30.01 22.66 30.04 22.79 30.07 22.92 30.1 23.05 30.13 23.19 30.16 23.32 30.19 23.45 30.22 23.58 30.25 23.72 30.28 23.85 30.31 23.98 30.34 24.11 30.37 24.24 30.4 24.38 30.44 24.51 30.47 24.64 30.5 24.77 30.53 24.9 30.56 25.04 30.59 25.17 30.63 25.3 30.66 25.43 30.69 25.57 30.72 25.7 30.76 25.83 30.79 25.96 30.82 26.09 30.86 26.23 30.89 26.36 30.92 26.49 30.96 26.62 30.99 26.76 31.03 26.89 31.06 27.02 31.09 27.15 31.13 27.28 31.16 27.42 31.2 27.55 31.23 27.68 31.27 27.81 31.3 27.95 31.34 28.08 31.38 28.21 31.41 28.34 31.45 28.47 31.48 28.61 31.52 28.74 31.56 28.87 31.59 29 31.63 29.14 31.67 29.27 31.71 29.4 31.74 29.53 31.78 29.66 31.82 29.8 31.86 29.93 31.9 30.06 31.94 30.19 31.97 30.32 32.01 30.46 32.05 30.59 32.09 30.72 32.13 30.85 32.17 30.99 32.21 31.12 32.25 31.25 32.29 31.38 32.33 31.51 32.37 31.65 32.41 31.78 32.46 31.91 32.5 32.04 32.54 32.18 32.58 32.31 32.62 32.44 32.67 32.57 32.71 32.7 32.75 32.84 32.8 32.97 32.84 33.1 32.88 33.23 32.93 33.37 32.97 33.5 33.02 33.63 33.06 33.76 33.1 33.89 33.15 34.03 33.2 34.16 33.24 34.29 33.29 34.42 33.33 34.56 33.38 34.69 33.43 34.82 33.47 34.95 33.52 35.08 33.57 35.22 33.62 35.35 33.67 35.48 33.71 35.61 33.76 35.74 33.81 35.88 33.86 36.01 33.91 36.14 33.96 36.27 34.01 36.41 34.06 36.54 34.11 36.67 34.17 36.8 34.22 36.93 34.27 37.07 34.32 37.2 34.38 37.33 34.43 37.46 34.48 37.6 34.54 37.73 34.59 37.86 34.65 37.99 34.7 38.12 34.76 38.26 34.81 38.39 34.87 38.52 34.93 38.65 34.98 38.79 35.04 38.92 35.1 39.05 35.16 39.18 35.22 39.31 35.28 39.45 35.34 39.58 35.4 39.71 35.46 39.84 35.52 39.97 35.58 40.11 35.64 40.24 35.71 40.37 35.77 40.5 35.83 40.64 35.9 40.77 35.96 40.9 36.03 41.03 36.1 41.16 36.16 41.3 36.23 41.43 36.3 41.56 36.37 41.69 36.44 41.83 36.51 41.96 36.58 42.09 36.65 42.22 36.72 42.35 36.79 42.49 36.87 42.62 36.94 42.75 37.02 42.88 37.09 43.02 37.17 43.15 37.25 43.28 37.33 43.41 37.41 43.54 37.49 43.68 37.57 43.81 37.65 43.94 37.73 44.07 37.82 44.21 37.9 44.34 37.99 44.47 38.07 44.6 38.16 44.73 38.25 44.87 38.34 45 38.43 45.13 38.52 45.26 38.62 45.39 38.71 45.53 38.81 45.66 38.9 45.79 39 45.92 39.1 46.06 39.2 46.19 39.3 46.32 39.41 46.45 39.51 46.58 39.62 46.72 39.73 46.85 39.84 46.98 39.95 47.11 40.06 47.25 40.17 47.38 40.29 47.51 40.41 47.64 40.52 47.77 40.65 47.91 40.77 48.04 40.89 48.17 41.02 48.3 41.15 48.44 41.28 48.57 41.41 48.7 41.55 48.83 41.68 48.96 41.82 49.1 41.97 49.23 42.11 49.36 42.26 49.49 42.41 49.63 42.56 49.76 42.72 49.89 42.88 50.02 43.04 50.15 43.2 50.29 43.37 50.42 43.55 50.55 43.72 50.68 43.9 50.81 44.08 50.95 44.27 51.08 44.46 51.21 44.66 51.34 44.86 51.48 45.06 51.61 45.27 51.74 45.49 51.87 45.71 52 45.94 52.14 46.17 52.27 46.41 52.4 46.65 52.53 46.9 52.67 47.16 52.8 47.42 52.93 47.7 53.06 47.99 53.19 48.28 53.33 48.59 53.46 48.91 53.59 49.25 53.72 49.6 53.86 49.97 53.99 50.35 54.12 50.76 54.25 51.18 54.38 51.64 54.52 52.11 54.65 52.62 54.78 53.16 54.91 53.73 55.04 54.35 55.18 55.01 55.31 55.71 55.44 56.46 55.57 57.26 55.71 58.1 55.84 58.94 55.97 59.75 56.1 60.42 56.23 60.85 56.37 61.11 56.5 61.4 56.63 61.71 56.76 62.04 56.9 62.39 57.03 62.78 57.16 63.2 57.29 63.65 57.42 64.15 57.56 64.69 57.69 65.29 57.82 65.95 57.95 66.68 58.09 67.51 58.22 68.45 58.35 69.55 58.48 70.84 58.61 72.41 58.75 74.42 58.88 77.19 59.01 81.65 59.14 94.29 59.28 85.09 59.41 78.9 59.54 75.57 59.67 73.29 59.8 71.55 59.94 70.16 60.07 68.99 60.2 68 60.33 67.13 60.46 66.37 60.6 65.69 60.73 65.08 60.86 64.53 60.99 64.03 61.13 63.58 61.26 63.16 61.39 62.78 61.52 62.43 61.65 62.11 61.79 61.81 61.92 61.54 62.05 61.3 62.18 61.07 62.32 60.86 62.45 60.68 62.58 60.51 62.71 60.35 62.84 60.21 62.98 60.09 63.11 59.98 63.24 59.89 63.37 59.81 63.51 59.74 63.64 59.69 63.77 59.65 63.9 59.62 64.03 59.6 64.17 59.59 64.3 59.59 64.43 59.6 64.56 59.61 64.7 59.64 64.83 59.67 64.96 59.71 65.09 59.76 65.22 59.81 65.36 59.86 65.49 59.92 65.62 59.98 65.75 60.03 65.88 60.09 66.02 60.14 66.15 60.19 66.28 60.23 66.41 60.27 66.55 60.29 66.68 60.31 66.81 60.32 66.94 60.31 67.07 60.3 67.21 60.27 67.34 60.23 67.47 60.18 67.6 60.12 67.74 60.05 67.87 59.98 68 59.9 68.13 59.81 68.26 59.72 68.4 59.63 68.53 59.55 68.66 59.46 68.79 59.38 68.93 59.3 69.06 59.22 69.19 59.16 69.32 59.1 69.45 59.05 69.59 59.01 69.72 58.98 69.85 58.96 69.98 58.96 70.11 58.96 70.25 58.98 70.38 59.01 70.51 59.05 70.64 59.1 70.78 59.16 70.91 59.23 71.04 59.31 71.17 59.39 71.3 59.48 71.44 59.58 71.57 59.68 71.7 59.77 71.83 59.86 71.97 59.95 72.1 60.03 72.23 60.1 72.36 60.15 72.49 60.2 72.63 60.23 72.76 60.25 72.89 60.26 73.02 60.27 73.16 60.27 73.29 60.27 73.42 60.28 73.55 60.29 73.68 60.32 73.82 60.36 73.95 60.42 74.08 60.5 74.21 60.58 74.35 60.67 74.48 60.76 74.61 60.82 74.74 60.86 74.87 60.9 75.01 60.94 75.14 61 75.27 61.08 75.4 61.17 75.53 61.25 75.67 61.32 75.8 61.36 75.93 61.39 76.06 61.39 76.2 61.37 76.33 61.33 76.46 61.29 76.59 61.24 76.72 61.2 76.86 61.16 76.99 61.13 77.12 61.11 77.25 61.11 77.39 61.12 77.52 61.14 77.65 61.18 77.78 61.23 77.91 61.3 78.05 61.37 78.18 61.44 78.31 61.52 78.44 61.6 78.58 61.67 78.71 61.73 78.84 61.77 78.97 61.81 79.1 61.82 79.24 61.81 79.37 61.78 79.5 61.72 79.63 61.65 79.77 61.55 79.9 61.44 80.03 61.32 80.16 61.18 80.29 61.03 80.43 60.88 80.56 60.73 80.69 60.57 80.82 60.42 80.95 60.28 81.09 60.14 81.22 60.01 81.35 59.89 81.48 59.78 81.62 59.68 81.75 59.59 81.88 59.52 82.01 59.46 82.14 59.4 82.28 59.37 82.41 59.34 82.54 59.33 82.67 59.33 82.81 59.34 82.94 59.36 83.07 59.4 83.2 59.44 83.33 59.5 83.47 59.57 83.6 59.65 83.73 59.74 83.86 59.84 84 59.95 84.13 60.06 84.26 60.18 84.39 60.31 84.52 60.45 84.66 60.58 84.79 60.72 84.92 60.86 85.05 61 85.18 61.13 85.32 61.26 85.45 61.38 85.58 61.49 85.71 61.58 85.85 61.66 85.98 61.73 86.11 61.78 86.24 61.8 86.37 61.81 86.51 61.8 86.64 61.77 86.77 61.72 86.9 61.65 87.04 61.56 87.17 61.47 87.3 61.36 87.43 61.24 87.56 61.11 87.7 60.98 87.83 60.84 87.96 60.7 88.09 60.56 88.23 60.42 88.36 60.29 88.49 60.15 88.62 60.03 88.75 59.9 88.89 59.79 89.02 59.68 89.15 59.57 89.28 59.48 89.42 59.39 89.55 59.31 89.68 59.23 89.81 59.17 89.94 59.11 90.08 59.07 90.21 59.03 90.34 59 90.47 58.99 90.6 58.98 90.74 58.98 90.87 58.99 91 59.01 91.13 59.04 91.27 59.08 91.4 59.13 91.53 59.2 91.66 59.27 91.79 59.36 91.93 59.45 92.06 59.56 92.19 59.68 92.32 59.82 92.46 59.97 92.59 60.13 92.72 60.3 92.85 60.48 92.98 60.68 93.12 60.89 93.25 61.11 93.38 61.34 93.51 61.32 93.65 60.89 93.78 60.16 93.91 59.28 94.04 58.37 94.17 57.47 94.31 56.62 94.44 55.82 94.57 55.08 94.7 54.39 94.84 53.75 94.97 53.15 95.1 52.6 95.23 52.08 95.36 51.58 95.5 51.12 95.63 50.68 95.76 50.27 95.89 49.87 96.02 49.49 96.16 49.13 96.29 48.79 96.42 48.46 96.55 48.15 96.69 47.84 96.82 47.55 96.95 47.27 97.08 47 97.21 46.74 97.35 46.48 97.48 46.24 97.61 46 97.74 45.77 97.88 45.55 98.01 45.33 98.14 45.12 98.27 44.91 98.4 44.71 98.54 44.52 98.67 44.33 98.8 44.15 98.93 43.97 99.07 43.79 99.2 43.62 99.33 43.45 99.46 43.29 99.59 43.13 99.73 42.97 99.86 42.82 99.99 42.67 100.12 42.53 100.25 42.38 100.39 42.24 100.52 42.1 100.65 41.97 100.78 41.83 100.92 41.7 101.05 41.57 101.18 41.45 101.31 41.32 101.44 41.2 101.58 41.08 101.71 40.96 101.84 40.85 101.97 40.73 102.11 40.62 102.24 40.51 102.37 40.4 102.5 40.29 102.63 40.19 102.77 40.08 102.9 39.98 103.03 39.88 103.16 39.78 103.3 39.68 103.43 39.58 103.56 39.49 103.69 39.39 103.82 39.3 103.96 39.2 104.09 39.11 104.22 39.02 104.35 38.93 104.49 38.84 104.62 38.76 104.75 38.67 104.88 38.58 105.01 38.5 105.15 38.42 105.28 38.33 105.41 38.25 105.54 38.17 105.67 38.09 105.81 38.01 105.94 37.93 106.07 37.85 106.2 37.78 106.34 37.7 106.47 37.62 106.6 37.55 106.73 37.48 106.86 37.4 107 37.33 107.13 37.26 107.26 37.19 107.39 37.11 107.53 37.04 107.66 36.98 107.79 36.91 107.92 36.84 108.05 36.77 108.19 36.7 108.32 36.64 108.45 36.57 108.58 36.51 108.72 36.44 108.85 36.38 108.98 36.31 109.11 36.25 109.24 36.19 109.38 36.12 109.51 36.06 109.64 36 109.77 35.94 109.91 35.88 110.04 35.82 110.17 35.76 110.3 35.7 110.43 35.64 110.57 35.59 110.7 35.53 110.83 35.47 110.96 35.41 111.09 35.36 111.23 35.3 111.36 35.25 111.49 35.19 111.62 35.14 111.76 35.08 111.89 35.03 112.02 34.98 112.15 34.92 112.28 34.87 112.42 34.82 112.55 34.77 112.68 34.71 112.81 34.66 112.95 34.61 113.08 34.56 113.21 34.51 113.34 34.46 113.47 34.41 113.61 34.36 113.74 34.32 113.87 34.27 114 34.22 114.14 34.17 114.27 34.12 114.4 34.08 114.53 34.03 114.66 33.98 114.8 33.94 114.93 33.89 115.06 33.85 115.19 33.8 115.32 33.76 115.46 33.71 115.59 33.67 115.72 33.62 115.85 33.58 115.99 33.53 116.12 33.49 116.25 33.45 116.38 33.4 116.51 33.36 116.65 33.32 116.78 33.28 116.91 33.24 117.04 33.19 117.18 33.15 117.31 33.11 117.44 33.07 117.57 33.03 117.7 32.99 117.84 32.95 117.97 32.91 118.1 32.87 118.23 32.83 118.37 32.79 118.5 32.75 118.63 32.71 118.76 32.67 118.89 32.63 119.03 32.6 119.16 32.56 119.29 32.52 119.42 32.48 119.56 32.44 119.69 32.41 119.82 32.37 119.95 32.33 120.08 32.29 120.22 32.26 120.35 32.22 120.48 32.18 120.61 32.15 120.74 32.11 120.88 32.08 121.01 32.04 121.14 32.01 121.27 31.97 121.41 31.93 121.54 31.9 121.67 31.86 121.8 31.83 121.93 31.8 122.07 31.76 122.2 31.73 122.33 31.69 122.46 31.66 122.6 31.62 122.73 31.59 122.86 31.56 122.99 31.52 123.12 31.49 123.26 31.46 123.39 31.42 123.52 31.39 123.65 31.36 123.79 31.33 123.92 31.29 124.05 31.26 124.18 31.23 124.31 31.2 124.45 31.16 124.58 31.13 124.71 31.1 124.84 31.07 124.98 31.04 125.11 31.01 125.24 30.98 125.37 30.94 125.5 30.91 125.64 30.88 125.77 30.85 125.9 30.82 126.03 30.79 126.16 30.76 126.3 30.73 126.43 30.7 126.56 30.67 126.69 30.64 126.83 30.61 126.96 30.58 127.09 30.55 127.22 30.52 127.35 30.49 127.49 30.46 127.62 30.43 127.75 30.41 127.88 30.38 128.02 30.35 128.15 30.32 128.28 30.29 128.41 30.26 128.54 30.23 128.68 30.21 128.81 30.18 128.94 30.15 129.07 30.12 129.21 30.1 129.34 30.07 129.47 30.04 129.6 30.01 129.73 29.99 129.87 29.96 130 29.93 130.13 29.9 130.26 29.88 130.39 29.85 130.53 29.82 130.66 29.8 130.79 29.77 130.92 29.74 131.06 29.72 131.19 29.69 131.32 29.67 131.45 29.64 131.58 29.61 131.72 29.59 131.85 29.56 131.98 29.54 132.11 29.51 132.25 29.49 132.38 29.46 132.51 29.44 132.64 29.41 132.77 29.39 132.91 29.36 133.04 29.34 133.17 29.31 133.3 29.29 133.44 29.26 133.57 29.24 133.7 29.21 133.83 29.19 133.96 29.16 134.1 29.14 134.23 29.11 134.36 29.09 134.49 29.07 134.63 29.04 134.76 29.02 134.89 29 135.02 28.97 135.15 28.95 135.29 28.92 135.42 28.9 135.55 28.88 135.68 28.85 135.81 28.83 135.95 28.81 136.08 28.78 136.21 28.76 136.34 28.74 136.48 28.72 136.61 28.69 136.74 28.67 136.87 28.65 137 28.62 137.14 28.6 137.27 28.58 137.4 28.56 137.53 28.53 137.67 28.51 137.8 28.49 137.93 28.47 138.06 28.45 138.19 28.42 138.33 28.4 138.46 28.38 138.59 28.36 138.72 28.33 138.86 28.31 138.99 28.29 139.12 28.27 139.25 28.25 139.38 28.23 139.52 28.2 139.65 28.18 139.78 28.16 139.91 28.14 140.05 28.12 140.18 28.1 140.31 28.07 140.44 28.05 140.57 28.03 140.71 28.01 140.84 27.99 140.97 27.97 141.1 27.95 141.23 27.93 141.37 27.9 141.5 27.88 141.63 27.86 141.76 27.84 141.9 27.82 142.03 27.8 142.16 27.78 142.29 27.76 142.42 27.74 142.56 27.72 142.69 27.7 142.82 27.68 142.95 27.66 143.09 27.64 143.22 27.62 143.35 27.6 143.48 27.57 143.61 27.55 143.75 27.53 143.88 27.51 144.01 27.49 144.14 27.47 144.28 27.45 144.41 27.43 144.54 27.41 144.67 27.39 144.8 27.37 144.94 27.35 145.07 27.34 145.2 27.32 145.33 27.3 145.46 27.28 145.6 27.26 145.73 27.24 145.86 27.22 145.99 27.2 146.13 27.18 146.26 27.16 146.39 27.14 146.52 27.12 146.65 27.1 146.79 27.08 146.92 27.06 147.05 27.04 147.18 27.03 147.32 27.01 147.45 26.99 147.58 26.97 147.71 26.95 147.84 26.93 147.98 26.91 148.11 26.89 148.24 26.87 148.37 26.86 148.51 26.84 148.64 26.82 148.77 26.8 148.9 26.78 149.03 26.76 149.17 26.74 149.3 26.73 149.43 26.71 149.56 26.69 149.7 26.67 149.83 26.65 149.96 26.64 150.09 26.62 150.22 26.6 150.36 26.58 150.49 26.56 150.62 26.55 150.75 26.53 150.88 26.51 151.02 26.49 151.15 26.47 151.28 26.46 151.41 26.44 151.55 26.42 151.68 26.4 151.81 26.39 151.94 26.37 152.07 26.35 152.21 26.33 152.34 26.32 152.47 26.3 152.6 26.28 152.74 26.26 152.87 26.25 153 26.23"/>
      </g>
      <g stroke-width="0.3" fill="#000000" fill-opacity="0.000" class="geometry" stroke-dasharray="none" stroke="#00BFFF" id="img-b702dcd2-12">
        <path fill="none" d="M20.94,35.01 L 21.07 35.04 21.2 35.07 21.34 35.1 21.47 35.13 21.6 35.16 21.73 35.19 21.86 35.22 22 35.25 22.13 35.29 22.26 35.32 22.39 35.35 22.53 35.38 22.66 35.41 22.79 35.44 22.92 35.48 23.05 35.51 23.19 35.54 23.32 35.57 23.45 35.6 23.58 35.64 23.72 35.67 23.85 35.7 23.98 35.74 24.11 35.77 24.24 35.8 24.38 35.84 24.51 35.87 24.64 35.9 24.77 35.94 24.9 35.97 25.04 36.01 25.17 36.04 25.3 36.07 25.43 36.11 25.57 36.14 25.7 36.18 25.83 36.21 25.96 36.25 26.09 36.29 26.23 36.32 26.36 36.36 26.49 36.39 26.62 36.43 26.76 36.47 26.89 36.5 27.02 36.54 27.15 36.58 27.28 36.61 27.42 36.65 27.55 36.69 27.68 36.72 27.81 36.76 27.95 36.8 28.08 36.84 28.21 36.88 28.34 36.92 28.47 36.95 28.61 36.99 28.74 37.03 28.87 37.07 29 37.11 29.14 37.15 29.27 37.19 29.4 37.23 29.53 37.27 29.66 37.31 29.8 37.35 29.93 37.39 30.06 37.43 30.19 37.48 30.32 37.52 30.46 37.56 30.59 37.6 30.72 37.64 30.85 37.69 30.99 37.73 31.12 37.77 31.25 37.81 31.38 37.86 31.51 37.9 31.65 37.95 31.78 37.99 31.91 38.03 32.04 38.08 32.18 38.12 32.31 38.17 32.44 38.21 32.57 38.26 32.7 38.31 32.84 38.35 32.97 38.4 33.1 38.45 33.23 38.49 33.37 38.54 33.5 38.59 33.63 38.64 33.76 38.68 33.89 38.73 34.03 38.78 34.16 38.83 34.29 38.88 34.42 38.93 34.56 38.98 34.69 39.03 34.82 39.08 34.95 39.13 35.08 39.19 35.22 39.24 35.35 39.29 35.48 39.34 35.61 39.4 35.74 39.45 35.88 39.5 36.01 39.56 36.14 39.61 36.27 39.67 36.41 39.72 36.54 39.78 36.67 39.83 36.8 39.89 36.93 39.95 37.07 40.01 37.2 40.06 37.33 40.12 37.46 40.18 37.6 40.24 37.73 40.3 37.86 40.36 37.99 40.42 38.12 40.48 38.26 40.54 38.39 40.61 38.52 40.67 38.65 40.73 38.79 40.8 38.92 40.86 39.05 40.93 39.18 40.99 39.31 41.06 39.45 41.13 39.58 41.19 39.71 41.26 39.84 41.33 39.97 41.4 40.11 41.47 40.24 41.54 40.37 41.61 40.5 41.68 40.64 41.76 40.77 41.83 40.9 41.91 41.03 41.98 41.16 42.06 41.3 42.13 41.43 42.21 41.56 42.29 41.69 42.37 41.83 42.45 41.96 42.53 42.09 42.61 42.22 42.7 42.35 42.78 42.49 42.87 42.62 42.95 42.75 43.04 42.88 43.13 43.02 43.22 43.15 43.31 43.28 43.4 43.41 43.49 43.54 43.59 43.68 43.68 43.81 43.78 43.94 43.88 44.07 43.98 44.21 44.08 44.34 44.18 44.47 44.28 44.6 44.39 44.73 44.49 44.87 44.6 45 44.71 45.13 44.82 45.26 44.94 45.39 45.05 45.53 45.17 45.66 45.29 45.79 45.41 45.92 45.53 46.06 45.65 46.19 45.78 46.32 45.91 46.45 46.04 46.58 46.17 46.72 46.31 46.85 46.45 46.98 46.59 47.11 46.73 47.25 46.88 47.38 47.03 47.51 47.18 47.64 47.33 47.77 47.49 47.91 47.65 48.04 47.82 48.17 47.99 48.3 48.16 48.44 48.34 48.57 48.52 48.7 48.7 48.83 48.89 48.96 49.08 49.1 49.28 49.23 49.49 49.36 49.7 49.49 49.91 49.63 50.13 49.76 50.36 49.89 50.59 50.02 50.83 50.15 51.08 50.29 51.34 50.42 51.6 50.55 51.88 50.68 52.16 50.81 52.45 50.95 52.76 51.08 53.07 51.21 53.4 51.34 53.74 51.48 54.09 51.61 54.46 51.74 54.84 51.87 55.24 52 55.66 52.14 56.09 52.27 56.54 52.4 57.01 52.53 57.5 52.67 58 52.8 58.52 52.93 59.03 53.06 59.54 53.19 60.03 53.33 60.48 53.46 60.87 53.59 61.17 53.72 61.34 53.86 61.38 53.99 61.29 54.12 61.16 54.25 61.03 54.38 60.91 54.52 60.79 54.65 60.67 54.78 60.56 54.91 60.45 55.04 60.35 55.18 60.25 55.31 60.15 55.44 60.06 55.57 59.97 55.71 59.89 55.84 59.81 55.97 59.73 56.1 59.66 56.23 59.59 56.37 59.52 56.5 59.46 56.63 59.41 56.76 59.35 56.9 59.3 57.03 59.26 57.16 59.22 57.29 59.18 57.42 59.14 57.56 59.11 57.69 59.08 57.82 59.06 57.95 59.04 58.09 59.02 58.22 59 58.35 58.99 58.48 58.98 58.61 58.98 58.75 58.98 58.88 58.98 59.01 58.98 59.14 58.99 59.28 59 59.41 59.01 59.54 59.03 59.67 59.05 59.8 59.07 59.94 59.09 60.07 59.12 60.2 59.15 60.33 59.18 60.46 59.22 60.6 59.26 60.73 59.3 60.86 59.34 60.99 59.39 61.13 59.44 61.26 59.49 61.39 59.54 61.52 59.6 61.65 59.66 61.79 59.72 61.92 59.78 62.05 59.85 62.18 59.91 62.32 59.98 62.45 60.05 62.58 60.12 62.71 60.2 62.84 60.27 62.98 60.35 63.11 60.43 63.24 60.5 63.37 60.58 63.51 60.66 63.64 60.74 63.77 60.82 63.9 60.89 64.03 60.97 64.17 61.05 64.3 61.12 64.43 61.19 64.56 61.26 64.7 61.33 64.83 61.39 64.96 61.46 65.09 61.51 65.22 61.57 65.36 61.62 65.49 61.66 65.62 61.7 65.75 61.73 65.88 61.76 66.02 61.78 66.15 61.8 66.28 61.81 66.41 61.81 66.55 61.81 66.68 61.8 66.81 61.79 66.94 61.76 67.07 61.74 67.21 61.7 67.34 61.66 67.47 61.62 67.6 61.57 67.74 61.52 67.87 61.46 68 61.4 68.13 61.33 68.26 61.26 68.4 61.19 68.53 61.12 68.66 61.04 68.79 60.97 68.93 60.89 69.06 60.81 69.19 60.74 69.32 60.66 69.45 60.58 69.59 60.5 69.72 60.43 69.85 60.35 69.98 60.28 70.11 60.21 70.25 60.13 70.38 60.07 70.51 60 70.64 59.94 70.78 59.88 70.91 59.82 71.04 59.76 71.17 59.71 71.3 59.66 71.44 59.61 71.57 59.57 71.7 59.53 71.83 59.49 71.97 59.46 72.1 59.43 72.23 59.4 72.36 59.38 72.49 59.36 72.63 59.35 72.76 59.34 72.89 59.33 73.02 59.32 73.16 59.33 73.29 59.33 73.42 59.34 73.55 59.35 73.68 59.37 73.82 59.39 73.95 59.41 74.08 59.44 74.21 59.47 74.35 59.51 74.48 59.55 74.61 59.59 74.74 59.64 74.87 59.69 75.01 59.74 75.14 59.8 75.27 59.86 75.4 59.93 75.53 60 75.67 60.07 75.8 60.14 75.93 60.22 76.06 60.3 76.2 60.38 76.33 60.46 76.46 60.55 76.59 60.63 76.72 60.72 76.86 60.8 76.99 60.89 77.12 60.98 77.25 61.06 77.39 61.14 77.52 61.22 77.65 61.3 77.78 61.37 77.91 61.44 78.05 61.51 78.18 61.57 78.31 61.62 78.44 61.67 78.58 61.71 78.71 61.75 78.84 61.78 78.97 61.8 79.1 61.81 79.24 61.82 79.37 61.82 79.5 61.81 79.63 61.8 79.77 61.78 79.9 61.76 80.03 61.73 80.16 61.69 80.29 61.66 80.43 61.62 80.56 61.58 80.69 61.53 80.82 61.49 80.95 61.45 81.09 61.4 81.22 61.36 81.35 61.32 81.48 61.28 81.62 61.25 81.75 61.22 81.88 61.19 82.01 61.16 82.14 61.14 82.28 61.13 82.41 61.12 82.54 61.11 82.67 61.11 82.81 61.11 82.94 61.12 83.07 61.13 83.2 61.14 83.33 61.16 83.47 61.18 83.6 61.2 83.73 61.23 83.86 61.26 84 61.28 84.13 61.31 84.26 61.33 84.39 61.35 84.52 61.37 84.66 61.38 84.79 61.39 84.92 61.39 85.05 61.38 85.18 61.37 85.32 61.34 85.45 61.32 85.58 61.28 85.71 61.24 85.85 61.19 85.98 61.14 86.11 61.09 86.24 61.05 86.37 61 86.51 60.96 86.64 60.93 86.77 60.91 86.9 60.89 87.04 60.87 87.17 60.85 87.3 60.83 87.43 60.79 87.56 60.75 87.7 60.7 87.83 60.66 87.96 60.6 88.09 60.56 88.23 60.51 88.36 60.46 88.49 60.42 88.62 60.39 88.75 60.36 88.89 60.33 89.02 60.31 89.15 60.3 89.28 60.29 89.42 60.28 89.55 60.27 89.68 60.27 89.81 60.27 89.94 60.27 90.08 60.27 90.21 60.27 90.34 60.26 90.47 60.26 90.6 60.25 90.74 60.24 90.87 60.23 91 60.21 91.13 60.19 91.27 60.16 91.4 60.13 91.53 60.1 91.66 60.06 91.79 60.02 91.93 59.98 92.06 59.94 92.19 59.89 92.32 59.84 92.46 59.78 92.59 59.73 92.72 59.68 92.85 59.62 92.98 59.57 93.12 59.52 93.25 59.46 93.38 59.41 93.51 59.36 93.65 59.31 93.78 59.27 93.91 59.22 94.04 59.18 94.17 59.15 94.31 59.11 94.44 59.08 94.57 59.05 94.7 59.03 94.84 59.01 94.97 58.99 95.1 58.98 95.23 58.97 95.36 58.96 95.5 58.96 95.63 58.96 95.76 58.96 95.89 58.97 96.02 58.98 96.16 59 96.29 59.02 96.42 59.04 96.55 59.06 96.69 59.09 96.82 59.12 96.95 59.16 97.08 59.19 97.21 59.23 97.35 59.27 97.48 59.31 97.61 59.36 97.74 59.4 97.88 59.45 98.01 59.5 98.14 59.55 98.27 59.6 98.4 59.65 98.54 59.7 98.67 59.75 98.8 59.8 98.93 59.85 99.07 59.9 99.2 59.94 99.33 59.99 99.46 60.03 99.59 60.07 99.73 60.11 99.86 60.14 99.99 60.18 100.12 60.21 100.25 60.23 100.39 60.26 100.52 60.27 100.65 60.29 100.78 60.3 100.92 60.31 101.05 60.32 101.18 60.32 101.31 60.31 101.44 60.31 101.58 60.3 101.71 60.29 101.84 60.27 101.97 60.26 102.11 60.23 102.24 60.21 102.37 60.19 102.5 60.16 102.63 60.13 102.77 60.1 102.9 60.07 103.03 60.04 103.16 60.01 103.3 59.98 103.43 59.94 103.56 59.91 103.69 59.88 103.82 59.85 103.96 59.82 104.09 59.79 104.22 59.76 104.35 59.74 104.49 59.71 104.62 59.69 104.75 59.67 104.88 59.65 105.01 59.63 105.15 59.62 105.28 59.6 105.41 59.6 105.54 59.59 105.67 59.59 105.81 59.58 105.94 59.59 106.07 59.59 106.2 59.6 106.34 59.61 106.47 59.63 106.6 59.65 106.73 59.67 106.86 59.7 107 59.73 107.13 59.76 107.26 59.8 107.39 59.84 107.53 59.89 107.66 59.94 107.79 59.99 107.92 60.05 108.05 60.12 108.19 60.19 108.32 60.26 108.45 60.34 108.58 60.42 108.72 60.51 108.85 60.6 108.98 60.7 109.11 60.81 109.24 60.92 109.38 61.04 109.51 61.16 109.64 61.29 109.77 61.43 109.91 61.57 110.04 61.72 110.17 61.88 110.3 62.04 110.43 62.22 110.57 62.4 110.7 62.59 110.83 62.79 110.96 63 111.09 63.22 111.23 63.46 111.36 63.7 111.49 63.96 111.62 64.23 111.76 64.52 111.89 64.82 112.02 65.14 112.15 65.48 112.28 65.83 112.42 66.22 112.55 66.62 112.68 67.06 112.81 67.52 112.95 68.03 113.08 68.57 113.21 69.16 113.34 69.8 113.47 70.52 113.61 71.31 113.74 72.2 113.87 73.22 114 74.4 114.14 75.81 114.27 77.56 114.4 79.86 114.53 83.2 114.66 89.4 114.8 98.6 114.93 85.95 115.06 81.49 115.19 78.72 115.32 76.7 115.46 75.11 115.59 73.81 115.72 72.7 115.85 71.74 115.99 70.89 116.12 70.13 116.25 69.44 116.38 68.82 116.51 68.24 116.65 67.71 116.78 67.22 116.91 66.76 117.04 66.33 117.18 65.93 117.31 65.55 117.44 65.2 117.57 64.86 117.7 64.54 117.84 64.24 117.97 63.95 118.1 63.67 118.23 63.41 118.37 63.16 118.5 62.92 118.63 62.7 118.76 62.48 118.89 62.27 119.03 62.07 119.16 61.88 119.29 61.7 119.42 61.52 119.56 61.36 119.69 61.2 119.82 61.04 119.95 60.89 120.08 60.72 120.22 60.45 120.35 60.09 120.48 59.68 120.61 59.24 120.74 58.77 120.88 58.29 121.01 57.82 121.14 57.35 121.27 56.89 121.41 56.45 121.54 56.02 121.67 55.61 121.8 55.21 121.93 54.83 122.07 54.46 122.2 54.1 122.33 53.76 122.46 53.43 122.6 53.11 122.73 52.81 122.86 52.51 122.99 52.23 123.12 51.95 123.26 51.69 123.39 51.43 123.52 51.18 123.65 50.94 123.79 50.7 123.92 50.47 124.05 50.25 124.18 50.03 124.31 49.82 124.45 49.62 124.58 49.42 124.71 49.22 124.84 49.03 124.98 48.85 125.11 48.67 125.24 48.49 125.37 48.32 125.5 48.15 125.64 47.98 125.77 47.82 125.9 47.66 126.03 47.51 126.16 47.35 126.3 47.2 126.43 47.06 126.56 46.91 126.69 46.77 126.83 46.63 126.96 46.49 127.09 46.36 127.22 46.22 127.35 46.09 127.49 45.96 127.62 45.83 127.75 45.71 127.88 45.58 128.02 45.46 128.15 45.34 128.28 45.22 128.41 45.1 128.54 44.98 128.68 44.87 128.81 44.76 128.94 44.64 129.07 44.53 129.21 44.42 129.34 44.32 129.47 44.21 129.6 44.11 129.73 44 129.87 43.9 130 43.8 130.13 43.7 130.26 43.6 130.39 43.5 130.53 43.4 130.66 43.31 130.79 43.21 130.92 43.12 131.06 43.03 131.19 42.94 131.32 42.85 131.45 42.76 131.58 42.67 131.72 42.58 131.85 42.49 131.98 42.41 132.11 42.32 132.25 42.24 132.38 42.16 132.51 42.07 132.64 41.99 132.77 41.91 132.91 41.83 133.04 41.75 133.17 41.68 133.3 41.6 133.44 41.52 133.57 41.45 133.7 41.37 133.83 41.3 133.96 41.22 134.1 41.15 134.23 41.08 134.36 41 134.49 40.93 134.63 40.86 134.76 40.79 134.89 40.72 135.02 40.65 135.15 40.58 135.29 40.52 135.42 40.45 135.55 40.38 135.68 40.32 135.81 40.25 135.95 40.19 136.08 40.12 136.21 40.06 136.34 39.99 136.48 39.93 136.61 39.87 136.74 39.81 136.87 39.75 137 39.69 137.14 39.62 137.27 39.57 137.4 39.51 137.53 39.45 137.67 39.39 137.8 39.33 137.93 39.27 138.06 39.21 138.19 39.16 138.33 39.1 138.46 39.05 138.59 38.99 138.72 38.93 138.86 38.88 138.99 38.83 139.12 38.77 139.25 38.72 139.38 38.66 139.52 38.61 139.65 38.56 139.78 38.51 139.91 38.46 140.05 38.4 140.18 38.35 140.31 38.3 140.44 38.25 140.57 38.2 140.71 38.15 140.84 38.1 140.97 38.05 141.1 38 141.23 37.96 141.37 37.91 141.5 37.86 141.63 37.81 141.76 37.76 141.9 37.72 142.03 37.67 142.16 37.62 142.29 37.58 142.42 37.53 142.56 37.49 142.69 37.44 142.82 37.4 142.95 37.35 143.09 37.31 143.22 37.26 143.35 37.22 143.48 37.18 143.61 37.13 143.75 37.09 143.88 37.05 144.01 37 144.14 36.96 144.28 36.92 144.41 36.88 144.54 36.84 144.67 36.8 144.8 36.75 144.94 36.71 145.07 36.67 145.2 36.63 145.33 36.59 145.46 36.55 145.6 36.51 145.73 36.47 145.86 36.43 145.99 36.39 146.13 36.36 146.26 36.32 146.39 36.28 146.52 36.24 146.65 36.2 146.79 36.16 146.92 36.13 147.05 36.09 147.18 36.05 147.32 36.01 147.45 35.98 147.58 35.94 147.71 35.9 147.84 35.87 147.98 35.83 148.11 35.79 148.24 35.76 148.37 35.72 148.51 35.69 148.64 35.65 148.77 35.62 148.9 35.58 149.03 35.55 149.17 35.51 149.3 35.48 149.43 35.44 149.56 35.41 149.7 35.37 149.83 35.34 149.96 35.31 150.09 35.27 150.22 35.24 150.36 35.21 150.49 35.17 150.62 35.14 150.75 35.11 150.88 35.07 151.02 35.04 151.15 35.01 151.28 34.98 151.41 34.94 151.55 34.91 151.68 34.88 151.81 34.85 151.94 34.82 152.07 34.79 152.21 34.75 152.34 34.72 152.47 34.69 152.6 34.66 152.74 34.63 152.87 34.6 153 34.57"/>
      </g>
    </g>
  </g>
</g>
  <g class="guide ylabels" font-size="2.82" font-family="'PT Sans Caption','Helvetica Neue','Helvetica',sans-serif" fill="#6C606B" id="img-b702dcd2-13">
    <text x="17.94" y="98.71" text-anchor="end" dy="0.35em">10<tspan style="dominant-baseline:inherit" dy="-0.6em" font-size="83%">-4</tspan><tspan dy="0.498000em"></tspan></text>
    <text x="17.94" y="81.49" text-anchor="end" dy="0.35em">10<tspan style="dominant-baseline:inherit" dy="-0.6em" font-size="83%">-2</tspan><tspan dy="0.498000em"></tspan></text>
    <text x="17.94" y="64.27" text-anchor="end" dy="0.35em">10<tspan style="dominant-baseline:inherit" dy="-0.6em" font-size="83%">0</tspan><tspan dy="0.498000em"></tspan></text>
    <text x="17.94" y="47.05" text-anchor="end" dy="0.35em">10<tspan style="dominant-baseline:inherit" dy="-0.6em" font-size="83%">2</tspan><tspan dy="0.498000em"></tspan></text>
    <text x="17.94" y="29.83" text-anchor="end" dy="0.35em">10<tspan style="dominant-baseline:inherit" dy="-0.6em" font-size="83%">4</tspan><tspan dy="0.498000em"></tspan></text>
    <text x="17.94" y="12.61" text-anchor="end" dy="0.35em">10<tspan style="dominant-baseline:inherit" dy="-0.6em" font-size="83%">6</tspan><tspan dy="0.498000em"></tspan></text>
  </g>
  <g font-size="3.88" font-family="'PT Sans','Helvetica Neue','Helvetica',sans-serif" fill="#564A55" stroke="#000000" stroke-opacity="0.000" id="img-b702dcd2-14">
    <text x="8.81" y="55.66" text-anchor="end" dy="0.35em">y</text>
  </g>
  <g font-size="3.88" font-family="'PT Sans','Helvetica Neue','Helvetica',sans-serif" fill="#564A55" stroke="#000000" stroke-opacity="0.000" id="img-b702dcd2-15">
    <text x="86.97" y="5" text-anchor="middle" dy="0.6em">Schwefel Function</text>
  </g>
</g>
<defs>
  <clipPath id="img-b702dcd2-4">
  <path d="M18.94,10.61 L 155 10.61 155 100.71 18.94 100.71" />
</clipPath>
</defs>
</svg>
